<?xml version="1.0" encoding="UTF-8" standalone="no"?>
<!-- Created with Inkscape (http://www.inkscape.org/) -->

<svg
   width="128"
   height="68"
   viewBox="0 0 33.866666 17.991666"
   version="1.1"
   id="svg5"
   xml:space="preserve"
   inkscape:export-filename="360-icon-128x68.png"
   inkscape:export-xdpi="96"
   inkscape:export-ydpi="96"
   inkscape:version="1.2.1 (9c6d41e410, 2022-07-14)"
   sodipodi:docname="360-icon-128x68.svg"
   xmlns:inkscape="http://www.inkscape.org/namespaces/inkscape"
   xmlns:sodipodi="http://sodipodi.sourceforge.net/DTD/sodipodi-0.dtd"
   xmlns="http://www.w3.org/2000/svg"
   xmlns:svg="http://www.w3.org/2000/svg"><sodipodi:namedview
     id="namedview7"
     pagecolor="#ffffff"
     bordercolor="#000000"
     borderopacity="0.25"
     inkscape:showpageshadow="2"
     inkscape:pageopacity="0.0"
     inkscape:pagecheckerboard="0"
     inkscape:deskcolor="#d1d1d1"
     inkscape:document-units="mm"
     showgrid="false"
     inkscape:zoom="8.3553674"
     inkscape:cx="63.013387"
     inkscape:cy="26.569747"
     inkscape:window-width="1920"
     inkscape:window-height="1009"
     inkscape:window-x="-8"
     inkscape:window-y="-8"
     inkscape:window-maximized="1"
     inkscape:current-layer="layer1" /><defs
     id="defs2" /><g
     inkscape:label="Layer 1"
     inkscape:groupmode="layer"
     id="layer1"><path
       id="path805"
       style="fill:#ffffff;stroke-width:0.603998;fill-opacity:1"
       d="M 27.668595 0.39584147 A 0.8945722 0.8945722 0 0 0 26.774076 1.2903605 A 0.8945722 0.8945722 0 0 0 27.668595 2.1848796 A 0.8945722 0.8945722 0 0 0 28.563114 1.2903605 A 0.8945722 0.8945722 0 0 0 27.668595 0.39584147 z M 27.668595 0.90227051 A 0.38791184 0.38791184 0 0 1 28.056169 1.2903605 A 0.38791184 0.38791184 0 0 1 27.668595 1.6784505 A 0.38791184 0.38791184 0 0 1 27.280505 1.2903605 A 0.38791184 0.38791184 0 0 1 27.668595 0.90227051 z " /><text
       xml:space="preserve"
       style="font-size:10.8525px;font-family:Arial;-inkscape-font-specification:Arial;letter-spacing:-0.0079375px;fill:#ffffff;stroke-width:1.01743;fill-opacity:1"
       x="6.6465483"
       y="10.075454"
       id="text405"
       transform="scale(0.95667305,1.0452892)"><tspan
         sodipodi:role="line"
         id="tspan403"
         style="font-style:normal;font-variant:normal;font-weight:bold;font-stretch:normal;font-family:Verdana;-inkscape-font-specification:Verdana;fill:#ffffff;stroke-width:1.01743;fill-opacity:1"
         x="6.6465483"
         y="10.075454"
         dx="-0.063332543 -0.53832668 -0.031666271">360</tspan></text><path
       style="fill:#ffffff;stroke-width:0.529167;fill-opacity:1"
       d="M 5.8582602,9.5948803 C 6.2575491,9.6884851 5.9690138,7.9666203 5.3832662,8.0115666 4.8510145,8.052408 3.2370387,8.7023555 2.564968,9.5315476 2.0938734,10.112778 1.7125815,10.969472 1.9316424,11.684854 c 0.3688035,1.204393 1.7552421,1.983755 2.913297,2.406637 3.2005071,1.10987 10.0065416,1.773311 10.0065416,1.773311 l 0.379996,1.678312 3.799952,-2.564968 -3.98995,-2.818298 0.03167,1.963309 c 0,0 -7.0039763,-0.260241 -10.0065457,-1.836644 -0.5815387,-0.305318 -1.4749605,-0.741595 -1.3933158,-1.393316 0.1053102,-0.84063 1.67323,-1.4182839 2.1849727,-1.2983167 z"
       id="path623"
       sodipodi:nodetypes="ssaaccccccaas" /><path
       style="fill:#ffffff;stroke-width:0.529167;fill-opacity:1"
       d="m 28.142257,9.5315482 c -0.406538,0.015706 0.281316,-1.3380958 0.744157,-1.3616498 0.974998,-0.049618 2.013216,0.500444 2.628301,1.2508177 0.479578,0.5850619 0.789859,1.4819599 0.55416,2.2008059 -0.392445,1.196898 -1.755242,1.983755 -2.913297,2.406637 -3.200508,1.10987 -7.884902,1.709978 -7.884902,1.709978 0,0 -0.687507,-0.756876 -0.221668,-1.741645 0,0 5.525027,-0.473947 7.884906,-1.773311 0.575365,-0.316799 1.47496,-0.741595 1.393316,-1.393316 C 30.22192,9.9892354 28.890655,9.5026343 28.142257,9.5315482 Z"
       id="path623-7"
       sodipodi:nodetypes="ssaacccaas" /></g></svg>
