<?xml version="1.0" encoding="UTF-8" standalone="no"?>
<!-- Created with Inkscape (http://www.inkscape.org/) -->

<svg
   width="128"
   height="68"
   viewBox="0 0 33.866666 17.991667"
   version="1.1"
   id="svg3808"
   xml:space="preserve"
   inkscape:version="1.2.1 (9c6d41e410, 2022-07-14)"
   sodipodi:docname="360-fancy-icon.svg"
   xmlns:inkscape="http://www.inkscape.org/namespaces/inkscape"
   xmlns:sodipodi="http://sodipodi.sourceforge.net/DTD/sodipodi-0.dtd"
   xmlns="http://www.w3.org/2000/svg"
   xmlns:svg="http://www.w3.org/2000/svg"><sodipodi:namedview
     id="namedview3810"
     pagecolor="#ffffff"
     bordercolor="#000000"
     borderopacity="0.25"
     inkscape:showpageshadow="2"
     inkscape:pageopacity="0.0"
     inkscape:pagecheckerboard="0"
     inkscape:deskcolor="#d1d1d1"
     inkscape:document-units="mm"
     showgrid="false"
     inkscape:zoom="4.1776837"
     inkscape:cx="87.009939"
     inkscape:cy="56.0119"
     inkscape:window-width="1920"
     inkscape:window-height="1009"
     inkscape:window-x="-8"
     inkscape:window-y="-8"
     inkscape:window-maximized="1"
     inkscape:current-layer="layer1" /><defs
     id="defs3805" /><g
     inkscape:label="Layer 1"
     inkscape:groupmode="layer"
     id="layer1"><path
       style="fill:#ffffff;stroke-width:0.0396875;stroke:#c8c8c8;stroke-opacity:1;stroke-dasharray:none"
       d="m 12.6238,16.677655 c 0,-1.049393 0.279967,-0.935348 -4.0761622,-1.660445 -6.5230811,-1.085802 -8.42406331,-2.038425 -8.42406331,-4.221512 0,-0.607663 0.13098054,-1.3495735 0.29106599,-1.6486958 C 0.75883129,8.5038751 3.0356369,7.0039295 3.6415145,7.0211534 3.8738067,7.0273158 3.6358657,7.2618973 3.1127602,7.5414539 1.9923654,8.1402018 0.93880686,9.0856351 0.93880686,9.4922807 c 0,0.1583939 0.34955724,0.6145333 0.77679344,1.0136303 0.5589819,0.522171 1.4923852,0.896977 3.3288647,1.336705 2.2499591,0.538726 6.814624,1.415253 7.375524,1.41628 0.112094,1.96e-4 0.203811,-0.488769 0.203811,-1.086613 0,-0.597834 0.0987,-1.086973 0.219237,-1.086973 0.315473,0 3.041692,2.876797 3.041692,3.209689 0,0.356956 -2.691371,3.31217 -3.016447,3.31217 -0.134463,0 -0.244482,-0.418283 -0.244482,-0.929514 z m 4.347913,-1.541675 c 0,-1.141931 0.282247,-1.331332 1.992361,-1.33694 0.622976,-0.0021 3.053041,-0.296976 5.400119,-0.655401 3.369223,-0.514528 4.565712,-0.81403 5.684555,-1.422946 0.779419,-0.424188 1.543688,-0.977293 1.698395,-1.229119 C 32.233098,9.7005078 31.406291,8.6664286 29.479734,7.6557662 27.968388,6.8629136 27.846486,6.74893 28.656706,6.8862382 c 4.312685,0.7308487 6.119507,2.716226 4.563309,5.0143038 -1.515351,2.237768 -5.714884,3.376536 -15.36514,4.166482 -0.849978,0.06953 -0.883162,0.03461 -0.883162,-0.931044 z M 6.7133624,9.9744977 C 6.2276226,9.8295995 5.8302,9.5399571 5.8302,9.3308365 5.8302,9.03231 6.1521847,8.9838531 7.3288615,9.1053034 9.0798214,9.2860154 9.9063623,8.780936 9.9063623,7.5302384 c 0,-0.8851857 -1.0977578,-1.8798154 -2.0747322,-1.8798154 -0.3901407,0 -0.6427163,-0.160181 -0.6427163,-0.407611 0,-0.2668108 0.2670675,-0.4076214 0.7731227,-0.4076214 1.5522848,0 2.2385695,-1.7905634 0.9978752,-2.6035054 C 8.4146637,1.8744311 8.1218888,1.846536 7.4341048,2.0862939 6.5894779,2.3807327 6.1019407,2.296647 6.1019407,1.8565602 c 0,-0.2909366 1.5140367,-0.8257804 2.3375883,-0.8257804 2.299187,0 3.276911,2.6147006 1.4549296,3.8908589 L 9.3047691,5.3346829 10.136866,5.7649715 C 11.62804,6.5360914 11.52897,8.8581917 9.9692905,9.6929075 9.167923,10.121789 7.6478472,10.253254 6.7133624,9.9744977 Z M 13.729856,9.2439879 c -1.339189,-1.3391894 -1.337392,-4.4596061 0.0041,-6.3429443 0.622699,-0.874494 2.077217,-1.5985231 3.211322,-1.5985231 1.043056,0 1.105758,0.4703442 0.0948,0.7111086 -1.309086,0.3117757 -2.278388,1.0255752 -2.816765,2.0742695 -0.555364,1.0818069 -0.435722,1.2522893 0.423007,0.6027841 0.62691,-0.4741751 1.772579,-0.5155863 2.690693,-0.097263 1.420266,0.6471122 1.731723,3.1787848 0.562081,4.5688344 -0.612438,0.7278395 -0.879002,0.8360818 -2.058986,0.8360818 -1.119439,0 -1.48683,-0.1313615 -2.109817,-0.754348 z M 16.848188,8.7878378 C 17.632762,8.0032631 17.736454,6.6307251 17.081763,5.6960247 16.467229,4.8186652 14.920706,4.9672814 14.17099,5.9757456 13.667277,6.6533103 13.655733,6.7865513 14.018286,7.739133 c 0.340267,0.8940084 1.255669,1.6988982 1.946729,1.7117057 0.118893,0.00205 0.516315,-0.2961437 0.883173,-0.6630009 z m 4.403487,0.9169836 C 20.541111,9.2909556 19.991836,8.0476118 19.801039,6.4211321 19.370473,2.7507635 21.535874,0.14498815 23.970365,1.403902 c 1.981208,1.0245276 2.342231,6.0713884 0.569302,7.9585886 -0.647656,0.6893864 -2.382091,0.8699754 -3.287992,0.3423308 z M 23.85478,8.5753279 C 24.943868,7.1152222 24.735487,3.3775501 23.502815,2.2619938 22.317768,1.1895434 21.118054,2.5058805 20.871199,5.149421 c -0.135552,1.4516322 -0.06655,1.9372488 0.407077,2.8656739 0.843261,1.6529268 1.63333,1.8247136 2.576504,0.560233 z M 27.358445,3.868682 C 26.125794,3.0053009 26.846587,0.75902886 28.35629,0.75902886 c 1.163428,0 1.65914,0.48540084 1.65914,1.62462074 0,1.0960112 -0.693915,1.9080597 -1.630465,1.9080597 -0.232414,0 -0.694346,-0.1903664 -1.02652,-0.4230273 z M 29.187781,3.3555606 C 29.960688,2.4242597 28.894698,0.84989325 27.909404,1.4675389 27.267643,1.8698401 27.170657,2.766837 27.710544,3.306734 c 0.545967,0.5459669 1.0508,0.5626464 1.477237,0.048785 z"
       id="path4304" /></g></svg>
