<?xml version="1.0" encoding="UTF-8" standalone="no"?>
<!-- Created with Inkscape (http://www.inkscape.org/) -->

<svg
   width="120"
   height="88"
   viewBox="0 0 31.75 23.283344"
   version="1.1"
   id="svg6305"
   sodipodi:docname="accommodations.svg"
   inkscape:version="1.2.1 (9c6d41e410, 2022-07-14)"
   xmlns:inkscape="http://www.inkscape.org/namespaces/inkscape"
   xmlns:sodipodi="http://sodipodi.sourceforge.net/DTD/sodipodi-0.dtd"
   xmlns="http://www.w3.org/2000/svg"
   xmlns:svg="http://www.w3.org/2000/svg">
  <sodipodi:namedview
     id="namedview7248"
     pagecolor="#ffffff"
     bordercolor="#000000"
     borderopacity="0.25"
     inkscape:showpageshadow="2"
     inkscape:pageopacity="0.0"
     inkscape:pagecheckerboard="0"
     inkscape:deskcolor="#d1d1d1"
     showgrid="false"
     inkscape:zoom="9.4204545"
     inkscape:cx="47.609168"
     inkscape:cy="44.053076"
     inkscape:window-width="1920"
     inkscape:window-height="1009"
     inkscape:window-x="-8"
     inkscape:window-y="-8"
     inkscape:window-maximized="1"
     inkscape:current-layer="svg6305" />
  <defs
     id="defs6302" />
  <g
     id="layer1"
     style="fill:#5f5f5f;fill-opacity:1">
    <path
       id="path6150-1"
       style="fill:#5f5f5f;stroke-width:0.211667;fill-opacity:1"
       d="m 10.090933,3.1459295 c -4.3088696,0 -5.4196596,0.0577 -5.6141196,0.29197 -0.15471,0.18647 -0.19886,0.74109 -0.12196,1.53427 0.26797,2.76511 0.32652,3.0179 0.72709,3.14503 0.61116,0.19398 1.06712,1.40726 1.06712,2.8390995 v 1.29088 h 4.6565596 4.65708 v -4.5506295 -4.55062 z m 6.64146,0 v 4.55062 4.5506295 h 4.65656 4.65708 v -1.27641 c 0,-1.4920495 0.41763,-2.6476595 1.02733,-2.8411695 0.44667,-0.14177 0.49307,-0.33199 0.76688,-3.15743 0.0769,-0.79318 0.0328,-1.3478 -0.12196,-1.53427 -0.19446,-0.2343 -1.30524,-0.29197 -5.61413,-0.29197 z m 11.729,5.95002 c -0.94274,0.0184 -1.14567,0.4188 -1.14567,1.8024695 0,1.06742 0.0977,1.51209 0.42323,1.92599 0.62333,0.7924 0.61565,3.77818 -0.0119,4.57594 -0.42641,0.54214 -0.42808,0.58089 -0.0729,1.88051 0.19949,0.72988 0.45741,1.44948 0.57309,1.59887 0.11569,0.14935 0.31534,0.23733 0.44339,0.19533 0.37649,-0.12339 0.39137,-1.12846 0.0351,-2.35386 -0.43994,-1.51335 -0.41998,-1.77498 0.14159,-1.85518 0.55588,-0.0794 0.63169,-0.41144 1.01544,-4.46019 0.28738,-3.0320395 0.23414,-3.2166395 -0.95033,-3.2964395 -0.16643,-0.0112 -0.31645,-0.0161 -0.45113,-0.0134 z m -24.7152896,0.0238 c -0.12435,-0.004 -0.25433,-0.004 -0.38395,5.2e-4 -0.5185,0.0177 -1.03279,0.10312 -1.17306,0.24339 -0.15519,0.15519 0.47179,6.9933895 0.67076,7.3153195 0.0765,0.12372 0.33496,0.22531 0.57413,0.22531 0.4773,0 0.47653,0.0437 -0.0501,2.34559 -0.14869,0.64989 -0.20938,1.34066 -0.13488,1.53479 0.33641,0.87551 0.85824,0.24434 1.32137,-1.59938 0.34906,-1.38963 0.34717,-1.42467 -0.0915,-1.98231 -0.63498,-0.80727 -0.64974,-3.5821 -0.0233,-4.37854 0.53965,-0.68605 0.61148,-3.1210495 0.10439,-3.5419095 -0.11759,-0.0976 -0.44084,-0.15013 -0.81391,-0.16278 z M 16.082823,13.513279 c -8.2051296,0.008 -10.6917996,0.0713 -10.8194996,0.27234 -0.23206,0.36527 -0.21255,1.71491 0.0341,2.36368 l 0.20619,0.54312 h 10.5936696 10.59418 l 0.22479,-0.58188 c 0.20902,-0.54098 0.15572,-2.27256 -0.077,-2.50527 -0.0566,-0.0565 -4.89688,-0.098 -10.75645,-0.092 z" />
  </g>
</svg>
