<?xml version="1.0" encoding="UTF-8" standalone="no"?>
<!-- Created with Inkscape (http://www.inkscape.org/) -->

<svg
   xmlns:dc="http://purl.org/dc/elements/1.1/"
   xmlns:cc="http://creativecommons.org/ns#"
   xmlns:rdf="http://www.w3.org/1999/02/22-rdf-syntax-ns#"
   xmlns:svg="http://www.w3.org/2000/svg"
   xmlns="http://www.w3.org/2000/svg"
   xmlns:sodipodi="http://sodipodi.sourceforge.net/DTD/sodipodi-0.dtd"
   xmlns:inkscape="http://www.inkscape.org/namespaces/inkscape"
   width="300"
   height="300"
   id="svg4351"
   version="1.1"
   inkscape:version="0.48.4 r9939"
   sodipodi:docname="bird_orange.png">
  <defs
     id="defs4353" />
  <sodipodi:namedview
     id="base"
     pagecolor="#ffffff"
     bordercolor="#666666"
     borderopacity="1.0"
     inkscape:pageopacity="0.0"
     inkscape:pageshadow="2"
     inkscape:zoom="1.979899"
     inkscape:cx="375"
     inkscape:cy="108.26097"
     inkscape:document-units="px"
     inkscape:current-layer="layer1"
     showgrid="false"
     inkscape:window-width="1920"
     inkscape:window-height="1017"
     inkscape:window-x="-8"
     inkscape:window-y="-8"
     inkscape:window-maximized="1" />
  <metadata
     id="metadata4356">
    <rdf:RDF>
      <cc:Work
         rdf:about="">
        <dc:format>image/svg+xml</dc:format>
        <dc:type
           rdf:resource="http://purl.org/dc/dcmitype/StillImage" />
        <dc:title></dc:title>
      </cc:Work>
    </rdf:RDF>
  </metadata>
  <g
     inkscape:label="Layer 1"
     inkscape:groupmode="layer"
     id="layer1"
     transform="translate(0,-752.36218)">
    <path
       style="fill:#7137c8;fill-opacity:0.74468084999999995;stroke:none;display:inline"
       d="m 66.107779,814.96942 c 3.1028,0.53834 6.29901,0.16258 9.44831,0.25148 2.80908,0.0792 5.6191,0.13487 8.42685,0.25149 3.15124,0.13087 6.35425,-0.1 9.4483,0.50296 3.5387,0.68956 7.031671,1.84858 10.214371,3.52078 3.37952,1.77562 6.65799,3.96211 9.19296,6.79009 2.27084,2.53331 3.70665,5.71704 5.10719,8.80194 1.31841,2.90401 2.39377,5.94168 3.0643,9.05343 0.55033,2.55395 0.6958,5.18613 0.76608,7.79603 0.052,1.92918 0.61141,4.05329 -0.25536,5.78414 -1.52329,3.04186 -5.95426,3.75103 -7.91615,6.53858 -0.87414,1.24206 -0.16403,3.59079 -1.53215,4.27523 -0.79231,0.39639 -1.67915,-0.91045 -2.55359,-0.75445 -2.63003,0.46919 -4.27018,3.16727 -6.38399,4.77821 -2.82814,2.15534 -8.426861,6.5386 -8.426861,6.5386 0,0 -4.3354,-5.30572 -6.38399,-8.04751 -3.19063,-4.27027 -6.45011,-8.51515 -9.19293,-13.07719 -1.74553,-2.90325 -2.98359,-6.07669 -4.59648,-9.05343 -2.02792,-3.74272 -4.76248,-7.13511 -6.38398,-11.06531 -0.76163,-1.846 -0.93042,-3.88173 -1.53216,-5.78414 -0.59261,-1.87356 -1.04975,-3.83139 -2.04287,-5.53266 -1.32537,-2.27042 -3.17928,-4.23183 -5.10719,-6.03561 -1.23422,-1.15475 -4.08575,-3.01782 -4.08575,-3.01782 l 6.12862,-4.02374 c 0,0 3.00593,1.23294 4.59647,1.5089 z"
       id="path3766-1"
       inkscape:connector-curvature="0"
       sodipodi:nodetypes="aaaaaaaaaaaaaacaaaaaaacca" />
    <path
       style="fill:#5a2ca0;stroke:none;display:inline"
       d="m 120.03597,856.84842 c 0,0 4.51281,-3.96012 6.95532,-5.6979 2.05783,-1.46409 4.35501,-2.56569 6.4585,-3.96374 4.24518,-2.82149 7.87854,-6.60115 12.42022,-8.91843 2.33105,-1.18936 7.7355,0.1187 7.45213,-2.47733 -0.1712,-1.56839 -5.46061,0.38595 -4.71969,-0.49546 5.26883,-6.26791 3.95174,-5.0115 6.45851,-6.93656 2.2306,-1.71296 5.70592,-1.76144 7.45213,-3.96374 1.00905,-1.2726 0.25618,-3.41639 1.24202,-4.70695 1.79873,-2.3547 4.97991,-3.27573 7.70053,-4.45922 2.85694,-1.24278 5.90142,-2.0439 8.94256,-2.72507 3.34762,-0.74983 6.76599,-1.19538 10.18458,-1.48639 3.30106,-0.28103 6.6306,-0.47047 9.93617,-0.24775 2.5941,0.1748 5.16645,0.65843 7.70053,1.23866 2.52765,0.57878 5.49864,0.52843 7.45212,2.22962 1.50724,1.31258 2.00633,3.51225 2.48405,5.45015 0.35637,1.44566 0.71331,3.04456 0.2484,4.45922 -0.56792,1.72813 -2.31435,2.81101 -3.47766,4.21147 -0.41256,0.49667 -0.99029,0.89232 -1.24201,1.4864 -0.61576,1.45324 0.092,3.24265 -0.49682,4.70695 -0.85686,2.13094 -2.553,3.86973 -4.22287,5.45015 -0.94966,0.89876 -2.3899,1.22755 -3.22926,2.22961 -0.64141,0.76576 -0.78237,1.83881 -1.242,2.72506 -1.05698,2.03794 -2.1168,4.09565 -3.47768,5.94562 -0.72813,0.98982 -1.55095,1.92443 -2.48405,2.72508 -1.13153,0.97094 -2.80157,1.30851 -3.72604,2.47732 -1.03838,1.31283 -0.72182,3.37764 -1.73885,4.70696 -1.72826,2.25898 -4.93208,2.95408 -6.95532,4.95468 -0.79974,0.79081 -1.16522,1.95729 -1.98723,2.72509 -1.35809,1.26852 -3.54515,1.5335 -4.71968,2.97279 -1.33968,1.64168 -0.89876,4.30166 -2.23564,5.94561 -0.68004,0.83625 -2.16405,0.81878 -2.73244,1.73415 -0.83286,1.34128 0.47116,3.45911 -0.49681,4.70694 -0.86578,1.1161 -2.81099,0.68342 -3.97446,1.48642 -0.72378,0.49951 -1.13749,1.34085 -1.73884,1.98186 -0.64,0.68225 -1.23246,1.42846 -1.98724,1.98187 -1.58152,1.15957 -3.29978,2.30271 -5.21649,2.72507 -1.69979,0.37457 -3.55239,-0.7574 -5.21649,-0.24772 -1.97881,0.60605 -3.31788,2.46964 -4.96808,3.716 -1.41264,1.06694 -2.69893,2.31872 -4.22287,3.22054 -0.70133,0.41503 -1.49481,0.65094 -2.23564,0.99095 -1.74953,0.803 -5.21649,2.47733 -5.21649,2.47733 0,0 -1.9134,-0.12527 -2.48404,0.49547 -1.0134,1.10236 0.47528,3.32042 -0.49681,4.45922 -1.00271,1.17465 -3.03999,0.65355 -4.47128,1.23866 -0.7888,0.32246 -1.44518,0.92027 -2.23564,1.23867 -1.19188,0.48008 -3.72605,0.99094 -3.72605,0.99094 0,0 0.81857,-3.61809 0.7452,-5.45016 -0.10826,-2.70282 -0.83559,-5.37691 -1.73883,-7.92748 -1.04818,-2.95988 -2.75441,-5.64647 -4.22287,-8.42295 -1.19315,-2.25601 -3.34174,-4.16722 -3.72607,-6.68882 -0.6101,-4.00286 1.73618,-7.91167 2.48405,-11.89124 0.5567,-2.96223 1.49042,-5.90461 1.49042,-8.91841 0,-1.50691 -0.7452,-4.45921 -0.7452,-4.45921 z"
       id="path3768-7"
       inkscape:connector-curvature="0"
       sodipodi:nodetypes="caaaasaaaaaaaaaaaaaaaaaaaaaaaaaaaaaaaaaaacaaaacaaaaaac" />
    <path
       style="fill:#8d5fd3;stroke:none;display:inline"
       d="m 297.15736,860.20036 -6.3624,-1.95769 -14.438,-1.95768 -11.50144,-0.97885 -16.15094,0 -22.75815,1.95768 -15.66151,2.93654 -10.03317,0.48943 -9.54373,0.48942 -4.4048,3.42595 -3.42596,3.91539 -4.40481,2.20239 -1.71297,6.11778 -2.93654,1.22356 0,5.62837 -4.16009,0.48942 -6.11777,5.87305 -3.91539,1.22356 -4.40481,-0.2447 -6.36248,5.38364 4.6495,9.05432 2.44712,5.87308 4.40479,7.09662 2.69183,4.4048 1.46827,3.91537 1.9577,-5.13893 c 0,0 0.78317,2.18121 1.71297,2.2024 4.39611,0.10025 8.5649,-10.03315 8.5649,-10.03315 0,0 2.12902,3.21676 3.67065,2.93654 3.45473,-0.62798 5.38366,-9.05432 5.38366,-9.05432 0,0 3.76921,8.05716 7.09661,7.34133 3.30443,-0.71089 3.42598,-9.54374 3.42598,-9.54374 0,0 2.89399,6.56683 5.62836,6.11778 3.96378,-0.65093 4.89422,-11.012 4.89422,-11.012 0,0 2.89306,7.1935 6.11778,7.58604 2.5426,0.3095 4.44574,-2.70918 6.11778,-4.64951 1.88263,-2.18469 2.23122,-5.03459 4.16008,-7.58605 1.42995,-1.89148 -0.62167,4.50893 0.97885,5.38366 2.63192,1.43838 6.25041,-1.25528 8.32019,-3.42596 1.67364,-1.75524 2.44711,-6.85192 2.44711,-6.85192 0,0 3.85694,1.55364 5.87307,1.46827 3.27311,-0.13862 7.32075,-0.56995 9.29903,-3.18125 0.888,-1.17215 -0.86304,-3.43766 0.24472,-4.40481 1.54108,-1.34546 6.11778,0.48944 6.11778,0.48944 0,0 6.75502,1.05007 9.54374,-0.48944 2.35765,-1.30153 4.6495,-6.60719 4.6495,-6.60719 l 6.60717,0.48942 9.5438,-3.91538 2.6918,-3.91538 -3.6707,-2.69183 5.6284,-2.69182 z"
       id="path3770-4"
       inkscape:connector-curvature="0"
       sodipodi:nodetypes="ccccccccccccccccccccccccccacacacacaasaacaaacaccccccc" />
    <path
       style="fill:#e5d5ff;stroke:none;display:inline"
       d="m 208.81664,864.36045 c 0,0 9.95193,-0.0583 14.9274,0 10.44316,0.12238 20.88769,0.31211 31.32303,0.73414 7.10253,0.28724 14.25442,0.20826 21.28989,1.22355 2.4871,0.35892 7.3413,1.71297 7.3413,1.71297 l -1.2235,1.46828 c 0,0 -5.3857,-0.1123 -8.0755,-0.24471 -7.18616,-0.35374 -14.35164,-1.05443 -21.53459,-1.46826 -6.92967,-0.39925 -13.87144,-0.56841 -20.80045,-0.97885 -5.71446,-0.33849 -11.45691,-0.45678 -17.12979,-1.22356 -2.0609,-0.27856 -6.11779,-1.22356 -6.11779,-1.22356 z"
       id="path3774-0"
       inkscape:connector-curvature="0"
       sodipodi:nodetypes="caaaccaaaac" />
    <path
       style="fill:#e5d5ff;stroke:none;display:inline"
       d="m 195.60223,870.72294 c 0,0 8.48796,0.41941 12.725,0.73413 4.4925,0.33372 8.98317,0.7138 13.45912,1.22356 5.97164,0.6801 11.89375,1.75421 17.86392,2.44711 6.83701,0.79352 13.67342,1.86627 20.55574,1.9577 5.96806,0.0792 17.86395,-1.22355 17.86395,-1.22355 0,0 -9.28584,-1.40755 -13.94858,-1.9577 -7.64961,-0.90258 -15.35124,-1.31689 -23.00285,-2.2024 -6.62365,-0.76654 -13.16616,-2.28537 -19.82162,-2.69182 -6.26976,-0.3829 -18.84276,0.24471 -18.84276,0.24471 0,0 -5.38365,1.22356 -6.85192,1.46826 z"
       id="path3776-9"
       inkscape:connector-curvature="0"
       sodipodi:nodetypes="caaaacaaacc" />
    <path
       style="fill:#e5d5ff;stroke:none;display:inline"
       d="m 261.18486,882.22437 c 0,0 -13.54932,-2.23398 -20.31104,-3.42595 -7.10607,-1.25267 -14.12293,-3.07857 -21.28988,-3.91538 -6.40878,-0.7483 -12.88455,-0.73299 -19.33219,-0.97885 -3.17998,-0.12125 -9.54373,-0.24471 -9.54373,-0.24471 0,0 11.59743,1.87582 17.37449,2.93653 9.48778,1.74202 18.79882,4.5659 28.3865,5.62836 3.24399,0.35949 6.52528,0.17922 9.78845,0.24472 5.38319,0.10803 15.09272,5.52396 16.15095,0.24472 0.0864,-0.43071 -1.22355,-0.48944 -1.22355,-0.48944 z"
       id="path3778-4"
       inkscape:connector-curvature="0"
       sodipodi:nodetypes="caaacaaaac" />
    <path
       style="fill:#e5d5ff;stroke:none;display:inline"
       d="m 244.7892,886.8739 -6.60721,2.20239 -18.35333,-2.69182 c 0,0 -23.98171,-4.40481 -24.71584,-5.38365 -0.73414,-0.97884 -11.74614,-4.40481 -11.74614,-4.40481 l 9.29903,1.46827 17.37449,3.18125 c 0,0 22.26873,4.4048 23.49229,4.4048 1.22355,0 11.25671,1.22357 11.25671,1.22357 z"
       id="path3780-8"
       inkscape:connector-curvature="0" />
    <path
       style="fill:#e5d5ff;stroke:none;display:inline"
       d="m 180.67485,880.51139 c 0,0 4.59611,0.49482 6.85192,0.97886 4.31636,0.92618 8.48438,2.44347 12.72498,3.67066 5.05863,1.46393 10.01071,3.35942 15.1721,4.4048 4.10542,0.83149 12.48028,1.46827 12.48028,1.46827 0,0 -6.83028,-0.69468 -9.29904,1.22355 -1.0406,0.80856 -0.24135,3.18972 -1.46826,3.67068 -4.95966,1.9442 -9.48652,-4.8869 -14.43797,-6.85192 -5.17898,-2.05533 -10.79942,-2.9103 -15.90623,-5.13894 -2.14214,-0.93484 -6.11778,-3.42596 -6.11778,-3.42596 z"
       id="path3782-8"
       inkscape:connector-curvature="0"
       sodipodi:nodetypes="caaacaaaac" />
    <path
       style="fill:#e5d5ff;stroke:none;display:inline"
       d="m 176.02534,882.71381 9.05431,2.93652 23.98171,11.25672 -5.87307,-0.73413 -4.64952,-1.46828 -9.05431,-3.18124 z"
       id="path3784-2"
       inkscape:connector-curvature="0"
       sodipodi:nodetypes="ccccccc" />
    <path
       style="fill:#e5d5ff;stroke:none;display:inline"
       d="m 171.37583,885.65033 9.29902,4.64951 22.75815,9.78846 c 0,0 -8.32018,1.95769 -8.56489,0.97884 -0.24472,-0.97884 -8.69446,-2.70825 -12.48028,-5.13894 -4.22514,-2.71277 -11.012,-10.27787 -11.012,-10.27787 z"
       id="path3786-4"
       inkscape:connector-curvature="0"
       sodipodi:nodetypes="cccsac" />
    <path
       style="fill:#e5d5ff;stroke:none;display:inline"
       d="m 167.46045,889.81043 11.25671,7.83075 11.99086,8.32019 c 0,0 -6.39302,-2.97358 -9.05432,-1.46826 -1.91171,1.08132 -2.44711,7.09661 -2.44711,6.11776 0,-0.97884 -5.38365,-10.76728 -5.38365,-10.76728 l -5.62836,-5.87308 z"
       id="path3788-5"
       inkscape:connector-curvature="0"
       sodipodi:nodetypes="cccasccc" />
    <path
       style="fill:#e5d5ff;stroke:none;display:inline"
       d="m 185.56908,866.07342 27.89708,-4.6495 c 0,0 -4.00823,2.99801 -6.36249,3.67067 -2.35427,0.67265 -4.89508,0.14069 -7.34134,0.2447 -4.73314,0.20128 -14.19325,0.73413 -14.19325,0.73413 z"
       id="path3790-5"
       inkscape:connector-curvature="0"
       sodipodi:nodetypes="ccaac" />
    <path
       style="fill:#e5d5ff;stroke:none;display:inline"
       d="m 182.38783,869.25468 8.07547,-1.9577 12.48028,0.24472 -7.58605,1.95769 -8.07547,0.73413 z"
       id="path3792-1"
       inkscape:connector-curvature="0" />
    <path
       style="fill:#e5d5ff;stroke:none;display:inline"
       d="m 179.94072,873.41476 6.11778,-1.71297 9.29903,-0.48943 -7.83076,1.95771 z"
       id="path3794-7"
       inkscape:connector-curvature="0" />
    <path
       style="fill:#9955ff;stroke:none;display:inline"
       d="m 178.22774,875.12774 6.11779,-0.73413 c 0,0 -0.883,2.41617 -1.9577,2.69183 -1.4845,0.38076 -4.16009,-1.9577 -4.16009,-1.9577 z"
       id="path3796-1"
       inkscape:connector-curvature="0"
       sodipodi:nodetypes="ccac" />
    <path
       style="fill:#9955ff;fill-opacity:0.64361703999999997;stroke:none;display:inline"
       d="m 213.22144,821.04656 c 0,0 -10.93568,-1.07668 -16.39564,-0.73413 -8.17759,0.51305 -16.50797,1.4102 -24.22642,4.16008 -2.03006,0.72328 -5.62836,3.18126 -5.62836,3.18126 0,0 8.78739,1.67645 13.21442,1.46827 4.41047,-0.20742 8.58096,-2.20757 12.96968,-2.69183 5.3518,-0.59052 11.34427,2.18144 16.15095,-0.24472 1.92251,-0.97037 3.91537,-5.13893 3.91537,-5.13893 z"
       id="path3798-1"
       inkscape:connector-curvature="0"
       sodipodi:nodetypes="caacaaac" />
    <path
       style="fill:#9955ff;fill-opacity:0.64361703999999997;stroke:none;display:inline"
       d="m 203.92242,831.32444 c 0,0 -11.59833,0.0379 -17.37449,0.48942 -5.73943,0.44867 -11.58613,0.64994 -17.12979,2.2024 -3.09446,0.86657 -5.89516,2.56164 -8.80961,3.91537 -2.71313,1.26024 -8.07547,3.91539 -8.07547,3.91539 0,0 3.87824,1.08377 5.87307,1.22355 4.97429,0.34856 9.95992,-0.54358 14.92738,-0.97884 6.70326,-0.58735 13.85878,0.39475 20.06633,-2.20241 4.17211,-1.74555 10.52258,-8.56488 10.52258,-8.56488 z"
       id="path3800-5"
       inkscape:connector-curvature="0"
       sodipodi:nodetypes="caaacaaac" />
    <path
       style="fill:#9955ff;fill-opacity:0.64361703999999997;stroke:none;display:inline"
       d="m 151.3095,848.20952 c 0.97884,0.2447 8.15651,-0.49846 12.23558,-0.73415 8.80848,-0.50893 17.92725,-3.82882 26.4288,-1.46826 2.37617,0.65978 6.11778,4.16009 6.11778,4.16009 0,0 -3.48278,1.82018 -5.38364,2.20241 -9.35681,1.88145 -19.08722,0.20391 -28.63122,0.2447 -1.71296,0.007 -3.51952,0.55835 -5.13893,0 -2.25225,-0.77654 -5.62837,-4.40479 -5.62837,-4.40479 z"
       id="path3802-2"
       inkscape:connector-curvature="0"
       sodipodi:nodetypes="caacaaac" />
    <path
       style="fill:#9955ff;fill-opacity:0.64361703999999997;stroke:none;display:inline"
       d="m 148.12826,856.04027 c 0,0 3.86377,3.93727 6.36249,4.89422 6.03517,2.31135 12.87161,1.30617 19.33219,1.46828 3.18129,0.0799 6.46595,0.56411 9.54374,-0.24472 2.85867,-0.75125 7.83076,-4.16009 7.83076,-4.16009 0,0 -10.93387,0.45487 -16.39565,0.24471 -6.22101,-0.23938 -12.39054,-1.23911 -18.59807,-1.71297 -2.68894,-0.20526 -8.07546,-0.48943 -8.07546,-0.48943 z"
       id="path3804-7"
       inkscape:connector-curvature="0"
       sodipodi:nodetypes="caaacaac" />
    <path
       style="fill:#9955ff;fill-opacity:0.64361703999999997;stroke:none;display:inline"
       d="m 143.23403,859.71095 c 0,0 3.47697,5.59611 6.36249,6.60719 8.47901,2.97103 14.96121,6.64029 22.75814,5.87308 2.43266,-0.23939 6.60722,-3.18125 6.60722,-3.18125 0,0 -10.28883,-1.90187 -15.4168,-2.93655 -4.98705,-1.00623 -10.18755,-1.33277 -14.9274,-3.18124 -1.94199,-0.75735 -5.38365,-3.18123 -5.38365,-3.18123 z"
       id="path3806-6"
       inkscape:connector-curvature="0"
       sodipodi:nodetypes="csacaac" />
    <path
       style="fill:#9955ff;fill-opacity:0.64361703999999997;stroke:none;display:inline"
       d="m 142.01048,865.33929 c 0,0 8.93144,2.27441 12.96969,4.40481 2.52511,1.33214 4.30059,3.85771 6.85191,5.13894 3.34446,1.67952 10.7673,3.18124 10.7673,3.18124 0,0 -1.61621,3.25569 -3.18124,3.67066 -4.51353,1.19679 -8.92518,-2.80379 -13.21442,-4.6495 -3.11648,-1.34107 -6.47964,-2.43997 -9.05431,-4.64952 -2.21637,-1.90205 -5.13893,-7.09663 -5.13893,-7.09663 z"
       id="path3808-1"
       inkscape:connector-curvature="0"
       sodipodi:nodetypes="caacaaac" />
    <path
       style="fill:#9955ff;fill-opacity:0.64361703999999997;stroke:none;display:inline"
       d="m 139.07394,872.19122 c 0,0 8.9456,3.80734 13.2144,6.11778 4.0606,2.19774 11.74615,7.34133 11.74615,7.34133 0,0 -3.24183,2.47307 -5.13894,2.44712 -4.48669,-0.0613 -8.21202,-3.69813 -11.99085,-6.11779 -2.88598,-1.84796 -6.69034,-3.22796 -8.07547,-6.36249 -0.46274,-1.04721 0.24471,-3.42595 0.24471,-3.42595 z"
       id="path3810-4"
       inkscape:connector-curvature="0"
       sodipodi:nodetypes="cacaaac" />
    <path
       style="fill:#5a2ca0;fill-opacity:0.71808543000000002;stroke:none;display:inline"
       d="m 55.200099,816.46791 7.38994,14.52736 0.8211,16.38984 1.64221,23.09475 c 0,0 5.60927,5.61545 9.44268,6.33245 6.46976,1.21012 19.29594,-4.09745 19.29594,-4.09745 l -16.42207,-22.34979 -6.56883,-13.40987 -8.21103,-14.15487 z"
       id="path3812-2"
       inkscape:connector-curvature="0"
       sodipodi:nodetypes="ccccaccccc" />
    <path
       style="fill:#aa87de;stroke:none;display:inline"
       d="m 95.737489,875.64994 -4.68632,-5.07972 c 0,0 -12.05588,3.12585 -17.96421,1.95376 -3.133,-0.62154 -8.41019,-4.59416 -8.41019,-4.59416 0,0 2.13782,14.75921 4.50493,21.78697 2.11983,6.29361 8.59158,17.9743 8.59158,17.9743 l 10.93473,-18.36505 z"
       id="path3816-3"
       inkscape:connector-curvature="0"
       sodipodi:nodetypes="ccacaccc" />
    <path
       style="fill:#5a2ca0;fill-opacity:0.84042556000000002;stroke:none;display:inline"
       d="m 76.974689,906.45913 c 0,0 3.48627,11.9395 6.42564,17.39811 2.88931,5.36565 6.8249,10.17117 10.85573,14.78763 4.73015,5.4174 9.729311,10.73001 15.541711,15.03662 3.45852,2.56254 11.32355,6.29484 11.32355,6.29484 l 10.85575,-1.40835 4.34228,-16.196 4.34229,-8.45007 c 0,0 -27.46412,-7.01016 -27.50117,-12.67513 -0.0226,-3.46801 13.02686,-10.5626 13.02686,-10.5626 0,0 2.31782,-4.40938 2.21505,-6.77812 -0.34282,-7.90093 -9.32049,-21.92213 -9.32049,-21.92213 l 3.48687,-25.52112 -10.11924,6.49568 -1.16043,4.94196 -2.91819,-1.44001 -15.130791,11.08487 z"
       id="path3818-2"
       inkscape:connector-curvature="0"
       sodipodi:nodetypes="caaaccccscaccccccc" />
    <path
       style="fill:#5a2ca0;fill-opacity:0.77659577000000002;stroke:none;display:inline"
       d="m 137.3383,899.22176 c 3.69419,-2.89234 13.54786,-4.82803 13.54786,-4.82803 l 6.41572,11.86265 15.62787,23.7947 9.50647,18.73277 6.65451,32.35657 16.161,43.42588 -9.50647,-6.8119 -17.11163,-19.58418 -12.35839,-22.9902 -19.96361,-24.6932 -15.44762,-19.4679 c 0,0 -22.229,-3.22222 -23.22847,-11.25625 -0.6548,-5.26379 8.10993,-7.63927 13.01018,-10.38123 4.08154,-2.28383 9.68103,-1.99873 13.30906,-4.86391 1.68577,-1.33128 1.69162,-3.97116 3.38352,-5.29577 z"
       id="path3820-2"
       inkscape:connector-curvature="0"
       sodipodi:nodetypes="acccccccccccaaaa" />
    <path
       style="fill:#8d5fd3;stroke:none;display:inline"
       d="m 137.19157,932.59909 -2.42251,7.61362 c 0,0 -3.72987,5.97375 -4.49897,9.34401 -0.56464,2.47425 1.65469,5.68934 0,7.61361 -2.51035,2.91936 -11.42043,1.73037 -11.42043,1.73037 l 3.46074,3.46072 c 0,0 5.54121,3.3055 8.65185,3.8068 2.40247,0.3872 4.83626,-0.7954 7.26755,-0.6921 1.28857,0.055 2.81699,-0.1347 3.80681,0.6921 1.51283,1.2638 0.99366,3.89 2.07644,5.5372 2.37515,3.6133 5.9938,6.2642 9.34399,8.9979 3.47082,2.8322 7.92031,4.4326 11.07437,7.6137 3.91973,3.9533 6.10308,9.3164 9.34401,13.84278 2.44451,3.4143 7.61361,10.0362 7.61361,10.0362 0,0 2.42253,5.1911 5.19111,5.5373 2.7686,0.346 0,-5.8833 1.3843,-7.2676 1.3843,-1.3843 -9.91509,-11.52688 -13.84296,-17.99588 -3.83038,-6.3083 -5.78611,-13.6063 -9.34398,-20.0722 -3.50183,-6.3641 -7.63898,-12.36471 -11.76653,-18.34195 -5.06049,-7.32829 -15.57333,-21.45658 -15.9194,-21.45658 z"
       id="path3822-1"
       inkscape:connector-curvature="0"
       sodipodi:nodetypes="ccaaccaaaaaaacssaaac" />
    <path
       style="fill:#aa87de;stroke:none;display:inline"
       d="m 194.29378,1014.2725 c 1.38594,3.1225 2.07644,10.0361 2.07644,10.0361 0,0 -5.03718,-6.0889 -7.26755,-9.344 -0.76041,-1.1098 -1.35849,-2.323 -2.07645,-3.4606 -17.14594,-27.17018 -53.26061,-80.33119 -53.26061,-80.33119 l 4.81026,1.39869 c 0,0 9.52265,10.1539 13.84295,15.6009 5.0917,6.41957 10.06649,12.99132 14.18904,20.07232 4.23221,7.2694 6.43765,15.6058 10.7283,22.8409 4.88426,8.2359 13.07295,14.43478 16.95762,23.18688 z"
       id="path3824-6"
       inkscape:connector-curvature="0"
       sodipodi:nodetypes="acaaccaaaa" />
    <path
       style="fill:#0b2228;stroke:none;display:inline"
       d="m 73.860029,820.8172 c -0.83494,-0.0904 -1.72336,0.22687 -2.42251,0.69214 -1.22987,0.81846 -2.33796,2.0476 -2.7686,3.46074 -0.40493,1.32876 -0.38134,2.96949 0.34608,4.1529 0.9221,1.50012 2.74283,2.63948 4.49895,2.76858 1.75235,0.12882 4.84504,-2.07645 4.84504,-2.07645 l 0.69215,-2.76859 2.07645,-0.34607 -2.7686,-3.46074 c 0,0 -2.80561,-2.23923 -4.49896,-2.42251 z"
       id="path3826-8"
       inkscape:connector-curvature="0"
       sodipodi:nodetypes="aaaaacccca" />
    <path
       style="fill:#0b2228;fill-opacity:1;stroke:none;display:inline"
       d="m 63.315199,814.49591 -7.28348,-4.63992 -11.96572,-6.44434 -11.7056,-5.67102 -11.7056,-5.41324 -9.10435,-2.83551 -3.64174,-0.25778 3.64174,3.35105 10.40497,4.89769 9.6246,4.38216 12.7461,7.47545 7.80373,5.67102 3.12149,2.57772 3.12149,1.54665 z"
       id="path3828-5"
       inkscape:connector-curvature="0"
       sodipodi:nodetypes="ccccccccccccccc" />
    <path
       style="fill:#2b1100;fill-opacity:0.85638296;stroke:none;display:inline"
       d="m 115.09224,956.12717 -3.91539,1.71298 -0.73413,5.38367 2.44711,5.1389 4.64952,6.8519 2.2024,3.6707 4.89422,0.2447 6.11779,0 -6.6072,-1.713 -5.13894,-3.6706 -1.46827,-10.5226 2.93654,4.6495 0.73413,6.3625 4.16009,4.1601 1.71299,-3.9154 -2.69182,-10.0332 5.87305,1.713 0,3.6707 -0.4894,3.9154 2.4471,-0.7342 -0.48943,4.8943 3.18126,-3.9154 -1.46828,-7.5861 c 0,0 -8.32018,-2.6918 -9.29902,-3.1812 -0.97885,-0.4894 -4.16009,-4.40482 -5.13894,-4.64954 -0.97884,-0.24471 -3.91538,-2.44711 -3.91538,-2.44711 z"
       id="path3830-7"
       inkscape:connector-curvature="0" />
  </g>
</svg>
