<?xml version="1.0" encoding="UTF-8" standalone="no"?>
<!-- Created with Inkscape (http://www.inkscape.org/) -->

<svg
   xmlns:dc="http://purl.org/dc/elements/1.1/"
   xmlns:cc="http://creativecommons.org/ns#"
   xmlns:rdf="http://www.w3.org/1999/02/22-rdf-syntax-ns#"
   xmlns:svg="http://www.w3.org/2000/svg"
   xmlns="http://www.w3.org/2000/svg"
   xmlns:sodipodi="http://sodipodi.sourceforge.net/DTD/sodipodi-0.dtd"
   xmlns:inkscape="http://www.inkscape.org/namespaces/inkscape"
   width="300"
   height="300"
   id="svg2"
   version="1.1"
   inkscape:version="0.48.5 r10040"
   sodipodi:docname="more birds.svg">
  <defs
     id="defs4" />
  <sodipodi:namedview
     id="base"
     pagecolor="#ffffff"
     bordercolor="#666666"
     borderopacity="1.0"
     inkscape:pageopacity="0.0"
     inkscape:pageshadow="2"
     inkscape:zoom="0.7"
     inkscape:cx="161.74386"
     inkscape:cy="52.393342"
     inkscape:document-units="px"
     inkscape:current-layer="layer1"
     showgrid="false"
     inkscape:window-width="1366"
     inkscape:window-height="705"
     inkscape:window-x="-8"
     inkscape:window-y="-8"
     inkscape:window-maximized="1" />
  <metadata
     id="metadata7">
    <rdf:RDF>
      <cc:Work
         rdf:about="">
        <dc:format>image/svg+xml</dc:format>
        <dc:type
           rdf:resource="http://purl.org/dc/dcmitype/StillImage" />
        <dc:title></dc:title>
      </cc:Work>
    </rdf:RDF>
  </metadata>
  <g
     inkscape:label="Layer 1"
     inkscape:groupmode="layer"
     id="layer1"
     transform="translate(0,-752.36218)"
     style="display:inline">
    <path
       style="fill:#216778;fill-opacity:0.74468085;stroke:none"
       d="m 177.58509,839.77031 c 1.28969,0.22376 2.61821,0.0676 3.92723,0.10452 1.1676,0.0329 2.3356,0.0561 3.50265,0.10454 1.30983,0.0544 2.64117,-0.0416 3.92723,0.20905 1.47087,0.28662 2.92274,0.76838 4.24565,1.46343 1.40471,0.73805 2.76741,1.64687 3.82109,2.82233 0.94388,1.05298 1.54068,2.37631 2.12282,3.65857 0.548,1.20706 0.99498,2.46968 1.27369,3.76309 0.22875,1.06156 0.28921,2.15564 0.31842,3.24046 0.0216,0.80187 0.25414,1.68476 -0.10614,2.4042 -0.63316,1.26436 -2.47491,1.55913 -3.29038,2.71779 -0.36334,0.51627 -0.0682,1.49252 -0.63684,1.77702 -0.32933,0.16476 -0.69795,-0.37844 -1.06141,-0.3136 -1.09318,0.19503 -1.77492,1.31649 -2.65353,1.98609 -1.17553,0.89587 -3.50267,2.7178 -3.50267,2.7178 0,0 -1.80202,-2.20535 -2.65353,-3.34499 -1.3262,-1.77495 -2.68101,-3.53936 -3.82108,-5.43559 -0.72554,-1.20674 -1.24014,-2.5258 -1.91054,-3.76309 -0.84292,-1.55568 -1.97955,-2.96574 -2.65353,-4.59935 -0.31658,-0.76729 -0.38674,-1.61345 -0.63685,-2.4042 -0.24632,-0.77875 -0.43634,-1.59253 -0.84913,-2.29967 -0.55089,-0.94371 -1.32148,-1.75898 -2.12282,-2.50873 -0.51301,-0.47998 -1.69826,-1.25437 -1.69826,-1.25437 l 2.54739,-1.67248 c 0,0 1.24942,0.51247 1.91054,0.62718 z"
       id="path3766"
       inkscape:connector-curvature="0"
       sodipodi:nodetypes="aaaaaaaaaaaaaacaaaaaaacca" />
    <path
       style="fill:#216778;stroke:none"
       d="m 200.00057,857.17749 c 0,0 1.87576,-1.64604 2.891,-2.36836 0.85535,-0.60855 1.81018,-1.06644 2.68451,-1.64754 1.76452,-1.17277 3.27475,-2.7438 5.16251,-3.70698 0.96892,-0.49437 3.2153,0.0493 3.09751,-1.02972 -0.0712,-0.65191 -2.26972,0.16042 -1.96175,-0.20594 2.19001,-2.60528 1.64255,-2.08305 2.6845,-2.88321 0.92716,-0.712 2.37169,-0.73215 3.09751,-1.64754 0.41942,-0.52897 0.10648,-1.42004 0.51625,-1.95647 0.74765,-0.97874 2.06992,-1.36157 3.20076,-1.85349 1.1875,-0.51657 2.45295,-0.84956 3.71701,-1.13269 1.39146,-0.31167 2.81232,-0.49686 4.23327,-0.61782 1.3721,-0.11681 2.75604,-0.19556 4.13001,-0.10298 1.07825,0.0727 2.14746,0.27368 3.20076,0.51485 1.05063,0.24058 2.28553,0.21965 3.0975,0.92675 0.6265,0.54558 0.83394,1.45989 1.03251,2.26538 0.14813,0.6009 0.29649,1.26549 0.10325,1.8535 -0.23606,0.7183 -0.96197,1.1684 -1.44551,1.75051 -0.17148,0.20645 -0.41161,0.3709 -0.51624,0.61783 -0.25595,0.60405 0.0382,1.34782 -0.20651,1.95646 -0.35615,0.88574 -1.06116,1.60847 -1.75525,2.26538 -0.39473,0.37358 -0.99337,0.51024 -1.34226,0.92675 -0.2666,0.31829 -0.32519,0.76431 -0.51624,1.13268 -0.43934,0.84708 -0.87986,1.70238 -1.44551,2.47132 -0.30265,0.41143 -0.64466,0.7999 -1.03251,1.1327 -0.47032,0.40357 -1.16448,0.54388 -1.54874,1.0297 -0.43161,0.54569 -0.30003,1.40394 -0.72276,1.95647 -0.71836,0.93896 -2.05004,1.22788 -2.89101,2.05944 -0.33242,0.3287 -0.48433,0.81355 -0.826,1.13269 -0.5645,0.52727 -1.47356,0.63741 -1.96176,1.23565 -0.55684,0.68238 -0.37357,1.78801 -0.92925,2.47132 -0.28266,0.34759 -0.8995,0.34033 -1.13575,0.72081 -0.34618,0.55751 0.19584,1.43779 -0.2065,1.95646 -0.35987,0.46391 -1.1684,0.28407 -1.652,0.61784 -0.30085,0.20762 -0.47281,0.55733 -0.72276,0.82377 -0.26602,0.28358 -0.51228,0.59374 -0.826,0.82377 -0.65737,0.48198 -1.37157,0.95713 -2.16826,1.13268 -0.70653,0.1557 -1.47657,-0.31481 -2.16826,-0.10296 -0.8225,0.25191 -1.37909,1.02652 -2.065,1.54457 -0.58717,0.44348 -1.12182,0.96379 -1.75526,1.33863 -0.29151,0.17251 -0.62132,0.27057 -0.92925,0.41189 -0.7272,0.33377 -2.16826,1.02972 -2.16826,1.02972 0,0 -0.79531,-0.0521 -1.0325,0.20594 -0.42122,0.4582 0.19756,1.38015 -0.2065,1.85349 -0.41678,0.48825 -1.26358,0.27166 -1.8585,0.51486 -0.32787,0.13403 -0.6007,0.38251 -0.92926,0.51486 -0.49541,0.19955 -1.54875,0.41189 -1.54875,0.41189 0,0 0.34025,-1.50388 0.30975,-2.26539 -0.045,-1.12343 -0.34732,-2.23493 -0.72275,-3.29509 -0.43568,-1.23028 -1.14489,-2.34698 -1.75526,-3.50103 -0.49594,-0.93772 -1.38901,-1.73213 -1.54875,-2.78024 -0.25359,-1.6638 0.72165,-3.28852 1.0325,-4.94264 0.2314,-1.23127 0.6195,-2.45428 0.6195,-3.70698 0,-0.62635 -0.30974,-1.85349 -0.30974,-1.85349 z"
       id="path3768"
       inkscape:connector-curvature="0"
       sodipodi:nodetypes="caaaasaaaaaaaaaaaaaaaaaaaaaaaaaaaaaaaaaaacaaaacaaaaaac" />
    <path
       style="fill:#37abc8;stroke:none"
       d="m 273.62185,858.57074 -2.6446,-0.81372 -6.0012,-0.81372 -4.78062,-0.40686 -6.71321,0 -9.45952,0.81371 -6.50977,1.22059 -4.17033,0.20343 -3.96689,0.20343 -1.83088,1.42401 -1.42401,1.62745 -1.83088,0.91543 -0.712,2.54289 -1.22059,0.50857 0,2.33946 -1.72916,0.20343 -2.54288,2.44116 -1.62745,0.50858 -1.83087,-0.10171 -2.6446,2.23773 1.93259,3.76347 1.01716,2.44117 1.83086,2.94974 1.11888,1.83087 0.61029,1.62744 0.81372,-2.13602 c 0,0 0.32553,0.90663 0.71201,0.91544 1.82726,0.0417 3.56004,-4.17032 3.56004,-4.17032 0,0 0.88493,1.33706 1.52572,1.22058 1.43597,-0.26102 2.23774,-3.76346 2.23774,-3.76346 0,0 1.56669,3.34899 2.94973,3.05145 1.3735,-0.29548 1.42403,-3.96689 1.42403,-3.96689 0,0 1.2029,2.72953 2.33945,2.54288 1.64756,-0.27056 2.0343,-4.57719 2.0343,-4.57719 0,0 1.20252,2.99001 2.54288,3.15317 1.05685,0.12865 1.8479,-1.12608 2.54289,-1.93259 0.78252,-0.90807 0.92741,-2.09265 1.72915,-3.15317 0.59437,-0.7862 -0.2584,1.87416 0.40686,2.23774 1.09397,0.59787 2.59801,-0.52176 3.45833,-1.42401 0.69565,-0.72958 1.01715,-2.84803 1.01715,-2.84803 0,0 1.60315,0.64577 2.44117,0.61029 1.36048,-0.0576 3.0429,-0.2369 3.86518,-1.3223 0.3691,-0.48721 -0.35873,-1.42888 0.10172,-1.83088 0.64055,-0.55925 2.54288,0.20344 2.54288,0.20344 0,0 2.80775,0.43646 3.96689,-0.20344 0.97997,-0.54099 1.93259,-2.74631 1.93259,-2.74631 l 2.74631,0.20343 3.9669,-1.62744 1.11887,-1.62745 -1.52573,-1.11887 2.33944,-1.11886 z"
       id="path3770"
       inkscape:connector-curvature="0"
       sodipodi:nodetypes="ccccccccccccccccccccccccccacacacacaasaacaaacaccccccc" />
    <path
       style="fill:#87cdde;stroke:none"
       d="m 236.90263,860.2999 c 0,0 4.13656,-0.0242 6.20464,0 4.34074,0.0509 8.68206,0.12973 13.01955,0.30515 2.9522,0.11939 5.92491,0.0866 8.84923,0.50857 1.03377,0.14919 3.05146,0.712 3.05146,0.712 l -0.50857,0.6103 c 0,0 -2.23859,-0.0467 -3.35661,-0.10171 -2.98696,-0.14704 -5.96532,-0.43828 -8.95095,-0.61029 -2.88034,-0.16595 -5.76572,-0.23626 -8.64579,-0.40687 -2.37524,-0.14069 -4.76212,-0.18986 -7.12007,-0.50857 -0.85663,-0.11579 -2.54289,-0.50858 -2.54289,-0.50858 z"
       id="path3774"
       inkscape:connector-curvature="0"
       sodipodi:nodetypes="caaaccaaaac" />
    <path
       style="fill:#87cdde;stroke:none"
       d="m 231.41,862.94449 c 0,0 3.52806,0.17433 5.28921,0.30515 1.86732,0.13871 3.73389,0.29669 5.59434,0.50858 2.48213,0.28268 4.94368,0.72914 7.42521,1.01715 2.84183,0.32983 5.68342,0.77572 8.54408,0.81373 2.48065,0.0329 7.42522,-0.50858 7.42522,-0.50858 0,0 -3.85969,-0.58505 -5.79778,-0.81372 -3.17959,-0.37517 -6.38081,-0.54738 -9.56123,-0.91544 -2.75315,-0.31862 -5.47257,-0.94993 -8.23894,-1.11887 -2.60605,-0.15915 -7.83208,0.10172 -7.83208,0.10172 0,0 -2.23773,0.50857 -2.84803,0.61028 z"
       id="path3776"
       inkscape:connector-curvature="0"
       sodipodi:nodetypes="caaaacaaacc" />
    <path
       style="fill:#87cdde;stroke:none"
       d="m 258.66971,867.72511 c 0,0 -5.63184,-0.92856 -8.44237,-1.42401 -2.95367,-0.52067 -5.87026,-1.27962 -8.84923,-1.62744 -2.66384,-0.31104 -5.35552,-0.30467 -8.03551,-0.40686 -1.32177,-0.0504 -3.96689,-0.10172 -3.96689,-0.10172 0,0 4.82052,0.77969 7.22178,1.22058 3.94363,0.72408 7.81381,1.89784 11.79897,2.33945 1.34838,0.14943 2.71226,0.0745 4.06861,0.10172 2.23754,0.0449 6.27335,2.29606 6.71321,0.10172 0.0359,-0.17903 -0.50857,-0.20344 -0.50857,-0.20344 z"
       id="path3778"
       inkscape:connector-curvature="0"
       sodipodi:nodetypes="caaacaaaac" />
    <path
       style="fill:#87cdde;stroke:none"
       d="m 251.85478,869.65771 -2.74632,0.91543 -7.62864,-1.11886 c 0,0 -9.9681,-1.83088 -10.27324,-2.23774 -0.30515,-0.40686 -4.88233,-1.83088 -4.88233,-1.83088 l 3.86518,0.61029 7.22178,1.3223 c 0,0 9.25609,1.83088 9.76467,1.83088 0.50857,0 4.6789,0.50858 4.6789,0.50858 z"
       id="path3780"
       inkscape:connector-curvature="0" />
    <path
       style="fill:#87cdde;stroke:none"
       d="m 225.20538,867.01311 c 0,0 1.91039,0.20567 2.84803,0.40686 1.79411,0.38497 3.52656,1.01564 5.28919,1.52573 2.10264,0.60849 4.16099,1.39636 6.30635,1.83087 1.70643,0.34562 5.18748,0.6103 5.18748,0.6103 0,0 -2.83904,-0.28875 -3.86519,0.50857 -0.43253,0.33608 -0.10032,1.32582 -0.61029,1.52573 -2.0615,0.80812 -3.94311,-2.03126 -6.0012,-2.84803 -2.15267,-0.8543 -4.48883,-1.20968 -6.61149,-2.13602 -0.89039,-0.38857 -2.54288,-1.42401 -2.54288,-1.42401 z"
       id="path3782"
       inkscape:connector-curvature="0"
       sodipodi:nodetypes="caaacaaaac" />
    <path
       style="fill:#87cdde;stroke:none"
       d="m 223.27279,867.92855 3.76346,1.22058 9.9681,4.6789 -2.44117,-0.30514 -1.93259,-0.6103 -3.76346,-1.32229 z"
       id="path3784"
       inkscape:connector-curvature="0"
       sodipodi:nodetypes="ccccccc" />
    <path
       style="fill:#87cdde;stroke:none"
       d="m 221.3402,869.14913 3.86518,1.93259 9.45952,4.06861 c 0,0 -3.45832,0.81372 -3.56004,0.40686 -0.10171,-0.40686 -3.61388,-1.12569 -5.18748,-2.13602 -1.75619,-1.12758 -4.57718,-4.27204 -4.57718,-4.27204 z"
       id="path3786"
       inkscape:connector-curvature="0"
       sodipodi:nodetypes="cccsac" />
    <path
       style="fill:#87cdde;stroke:none"
       d="m 219.71275,870.87829 4.6789,3.25489 4.98406,3.45832 c 0,0 -2.65729,-1.23598 -3.76347,-0.61029 -0.79461,0.44946 -1.01715,2.94974 -1.01715,2.54287 0,-0.40686 -2.23774,-4.47546 -2.23774,-4.47546 l -2.33945,-2.44117 z"
       id="path3788"
       inkscape:connector-curvature="0"
       sodipodi:nodetypes="cccasccc" />
    <path
       style="fill:#87cdde;stroke:none"
       d="m 227.23968,861.0119 11.59554,-1.93258 c 0,0 -1.66603,1.24613 -2.64459,1.52573 -0.97856,0.27959 -2.03466,0.0585 -3.05146,0.10171 -1.96735,0.0837 -5.89949,0.30514 -5.89949,0.30514 z"
       id="path3790"
       inkscape:connector-curvature="0"
       sodipodi:nodetypes="ccaac" />
    <path
       style="fill:#87cdde;stroke:none"
       d="m 225.91738,862.33421 3.35661,-0.81373 5.18748,0.10172 -3.15318,0.81372 -3.3566,0.30515 z"
       id="path3792"
       inkscape:connector-curvature="0" />
    <path
       style="fill:#87cdde;stroke:none"
       d="m 224.90023,864.06336 2.54288,-0.712 3.86518,-0.20344 -3.25488,0.81374 z"
       id="path3794"
       inkscape:connector-curvature="0" />
    <path
       style="fill:#87cdde;stroke:none"
       d="m 224.18822,864.77537 2.54289,-0.30515 c 0,0 -0.36702,1.0043 -0.81373,1.11888 -0.61704,0.15826 -1.72916,-0.81373 -1.72916,-0.81373 z"
       id="path3796"
       inkscape:connector-curvature="0"
       sodipodi:nodetypes="ccac" />
    <path
       style="fill:#2c89a0;fill-opacity:0.64361704;stroke:none"
       d="m 238.7335,842.2963 c 0,0 -4.54546,-0.44753 -6.81491,-0.30515 -3.39905,0.21325 -6.86161,0.58616 -10.06982,1.72916 -0.8438,0.30063 -2.33945,1.3223 -2.33945,1.3223 0,0 3.65252,0.69682 5.49263,0.61029 1.83323,-0.0862 3.56671,-0.91758 5.3909,-1.11887 2.2245,-0.24545 4.7153,0.90673 6.71321,-0.10172 0.7991,-0.40334 1.62744,-2.13601 1.62744,-2.13601 z"
       id="path3798"
       inkscape:connector-curvature="0"
       sodipodi:nodetypes="caacaaac" />
    <path
       style="fill:#2c89a0;fill-opacity:0.64361704;stroke:none"
       d="m 234.86833,846.56834 c 0,0 -4.8209,0.0158 -7.22178,0.20343 -2.38562,0.18649 -4.81583,0.27015 -7.12007,0.91544 -1.28623,0.36019 -2.45035,1.06475 -3.66176,1.62744 -1.12772,0.52382 -3.3566,1.62745 -3.3566,1.62745 0,0 1.61201,0.45047 2.44117,0.50857 2.06758,0.14488 4.13988,-0.22594 6.20463,-0.40686 2.78623,-0.24413 5.76046,0.16408 8.34065,-0.91544 1.73416,-0.72555 4.37376,-3.56003 4.37376,-3.56003 z"
       id="path3800"
       inkscape:connector-curvature="0"
       sodipodi:nodetypes="caaacaaac" />
    <path
       style="fill:#2c89a0;fill-opacity:0.64361704;stroke:none"
       d="m 212.99954,853.5867 c 0.40686,0.10171 3.39029,-0.20719 5.08577,-0.30516 3.66129,-0.21154 7.45154,-1.59146 10.98525,-0.61029 0.98766,0.27424 2.54288,1.72916 2.54288,1.72916 0,0 -1.44763,0.75657 -2.23773,0.91544 -3.8892,0.78204 -7.93369,0.0848 -11.90069,0.10172 -0.712,0.003 -1.46291,0.23208 -2.13602,0 -0.93616,-0.32278 -2.33946,-1.83087 -2.33946,-1.83087 z"
       id="path3802"
       inkscape:connector-curvature="0"
       sodipodi:nodetypes="caacaaac" />
    <path
       style="fill:#2c89a0;fill-opacity:0.64361704;stroke:none"
       d="m 211.67725,856.84158 c 0,0 1.60599,1.63654 2.64459,2.0343 2.50855,0.96073 5.35014,0.54292 8.03551,0.6103 1.32232,0.0332 2.6876,0.23448 3.9669,-0.10172 1.18821,-0.31226 3.25489,-1.72916 3.25489,-1.72916 0,0 -4.54471,0.18907 -6.81493,0.10172 -2.58579,-0.0995 -5.15018,-0.51504 -7.73036,-0.71201 -1.11767,-0.0853 -3.3566,-0.20343 -3.3566,-0.20343 z"
       id="path3804"
       inkscape:connector-curvature="0"
       sodipodi:nodetypes="caaacaac" />
    <path
       style="fill:#2c89a0;fill-opacity:0.64361704;stroke:none"
       d="m 209.64294,858.36731 c 0,0 1.44522,2.32605 2.64459,2.74631 3.52434,1.23492 6.2187,2.76007 9.45952,2.44117 1.01115,-0.0995 2.74632,-1.3223 2.74632,-1.3223 0,0 -4.27659,-0.79052 -6.40806,-1.22059 -2.07289,-0.41824 -4.2345,-0.55397 -6.20463,-1.32229 -0.8072,-0.3148 -2.23774,-1.3223 -2.23774,-1.3223 z"
       id="path3806"
       inkscape:connector-curvature="0"
       sodipodi:nodetypes="csacaac" />
    <path
       style="fill:#2c89a0;fill-opacity:0.64361704;stroke:none"
       d="m 209.13436,860.70676 c 0,0 3.7124,0.94537 5.39091,1.83088 1.04957,0.55371 1.78756,1.60347 2.84803,2.13602 1.39014,0.6981 4.47547,1.32229 4.47547,1.32229 0,0 -0.67178,1.35325 -1.32229,1.52573 -1.87607,0.49745 -3.70979,-1.16541 -5.49263,-1.93258 -1.29538,-0.55743 -2.69329,-1.01419 -3.76347,-1.9326 -0.92124,-0.79059 -2.13602,-2.94974 -2.13602,-2.94974 z"
       id="path3808"
       inkscape:connector-curvature="0"
       sodipodi:nodetypes="caacaaac" />
    <path
       style="fill:#2c89a0;fill-opacity:0.64361704;stroke:none"
       d="m 207.91378,863.55479 c 0,0 3.71828,1.58254 5.49262,2.54288 1.68781,0.9135 4.88234,3.05146 4.88234,3.05146 0,0 -1.34748,1.02794 -2.13602,1.01715 -1.86492,-0.0255 -3.41336,-1.53714 -4.98405,-2.54288 -1.19957,-0.76811 -2.78087,-1.34172 -3.35661,-2.6446 -0.19234,-0.43527 0.10172,-1.42401 0.10172,-1.42401 z"
       id="path3810"
       inkscape:connector-curvature="0"
       sodipodi:nodetypes="cacaaac" />
    <path
       style="fill:#164450;fill-opacity:0.71808543;stroke:none"
       d="m 173.05126,840.39316 3.07166,6.03836 0.34129,6.81251 0.6826,9.59943 c 0,0 2.33152,2.33408 3.92489,2.63211 2.68918,0.50299 8.02044,-1.70312 8.02044,-1.70312 l -6.82591,-9.28979 -2.73036,-5.57387 -3.41295,-5.88353 z"
       id="path3812"
       inkscape:connector-curvature="0"
       sodipodi:nodetypes="ccccaccccc" />
    <path
       style="fill:#2c89a0;stroke:none"
       d="m 189.9008,864.99242 -1.94789,-2.1114 c 0,0 -5.01107,1.29927 -7.4669,0.81208 -1.30224,-0.25834 -3.49573,-1.90958 -3.49573,-1.90958 0,0 0.88859,6.13473 1.87249,9.05585 0.88112,2.61597 3.57113,7.47109 3.57113,7.47109 l 4.54507,-7.63351 z"
       id="path3816"
       inkscape:connector-curvature="0"
       sodipodi:nodetypes="ccacaccc" />
    <path
       style="fill:#006680;fill-opacity:0.84042556;stroke:none"
       d="m 182.10196,877.7984 c 0,0 1.44909,4.9627 2.67085,7.23159 1.20095,2.23026 2.8368,4.22769 4.51223,6.14655 1.96611,2.25176 4.04403,4.45997 6.45997,6.25003 1.43755,1.06513 4.70669,2.61648 4.70669,2.61648 l 4.51224,-0.58539 1.80488,-6.73194 1.80489,-3.5123 c 0,0 -11.41558,-2.91381 -11.43098,-5.26847 -0.009,-1.4415 5.41467,-4.39039 5.41467,-4.39039 0,0 0.96342,-1.83278 0.9207,-2.81736 -0.14249,-3.28405 -3.8741,-9.11203 -3.8741,-9.11203 l 1.44933,-10.60796 -4.2061,2.69996 -0.48234,2.05414 -1.21296,-0.59854 -6.28917,4.60747 z"
       id="path3818"
       inkscape:connector-curvature="0"
       sodipodi:nodetypes="caaaccccscaccccccc" />
    <path
       style="fill:#37abc8;fill-opacity:0.77659577;stroke:none"
       d="m 207.19235,874.79015 c 1.53551,-1.20221 5.63123,-2.00679 5.63123,-2.00679 l 2.66672,4.93076 6.49579,9.89037 3.95141,7.78636 2.76597,13.44916 6.71739,18.05016 -3.9514,-2.83139 -7.11253,-8.14027 -5.13681,-9.55598 -8.29796,-10.26384 -6.42087,-8.09191 c 0,0 -9.23958,-1.33933 -9.65501,-4.67871 -0.27217,-2.18792 3.37092,-3.1753 5.40773,-4.315 1.69651,-0.94929 4.02396,-0.83078 5.53197,-2.02171 0.7007,-0.55335 0.70313,-1.65063 1.40637,-2.20121 z"
       id="path3820"
       inkscape:connector-curvature="0"
       sodipodi:nodetypes="acccccccccccaaaa" />
    <path
       style="fill:#37abc8;stroke:none"
       d="m 207.13136,888.66358 -1.00692,3.16464 c 0,0 -1.55034,2.48301 -1.87002,3.88387 -0.23469,1.02844 0.68778,2.3648 0,3.16463 -1.04344,1.21345 -4.74695,0.71924 -4.74695,0.71924 l 1.43847,1.43847 c 0,0 2.30323,1.37396 3.59618,1.58232 0.9986,0.16093 2.01021,-0.33062 3.02079,-0.28769 0.5356,0.0228 1.17089,-0.056 1.58232,0.28769 0.62881,0.52529 0.41301,1.61687 0.86308,2.30156 0.98724,1.50187 2.49135,2.60374 3.88387,3.74002 1.44266,1.17718 3.29211,1.8424 4.60311,3.16464 1.62925,1.64322 2.53677,3.87243 3.88387,5.75384 1.01607,1.41917 3.16463,4.17159 3.16463,4.17159 0,0 1.00694,2.15771 2.15771,2.3016 1.15078,0.14382 0,-2.44541 0.57539,-3.0208 0.57539,-0.57539 -4.12125,-4.79124 -5.75389,-7.48007 -1.59211,-2.6221 -2.40502,-5.65552 -3.88386,-8.34313 -1.45555,-2.64525 -3.17518,-5.13943 -4.89081,-7.6239 -2.10341,-3.04603 -6.47312,-8.91852 -6.61697,-8.91852 z"
       id="path3822"
       inkscape:connector-curvature="0"
       sodipodi:nodetypes="ccaaccaaaaaaacssaaac" />
    <path
       style="fill:#afdde9;stroke:none"
       d="m 230.86614,922.61151 c 0.57607,1.29788 0.86308,4.17155 0.86308,4.17155 0,0 -2.09372,-2.53088 -3.02078,-3.88388 -0.31607,-0.46129 -0.56467,-0.96556 -0.86309,-1.43841 -7.12678,-11.29342 -22.138,-33.39003 -22.138,-33.39003 l 1.9994,0.58137 c 0,0 3.95813,4.22052 5.75389,6.48458 2.11638,2.66833 4.18418,5.39989 5.89773,8.34314 1.75914,3.02156 2.67584,6.48663 4.45926,9.49392 2.03017,3.42331 5.43383,5.99991 7.04851,9.63776 z"
       id="path3824"
       inkscape:connector-curvature="0"
       sodipodi:nodetypes="acaaccaaaa" />
    <path
       style="fill:#0b2228;stroke:none"
       d="m 180.80734,842.20096 c -0.34705,-0.0376 -0.71632,0.0943 -1.00693,0.28769 -0.51119,0.3402 -0.97178,0.8511 -1.15078,1.43847 -0.16831,0.55231 -0.1585,1.23428 0.14385,1.72617 0.38328,0.62353 1.14007,1.09711 1.87001,1.15078 0.72838,0.0535 2.01386,-0.86309 2.01386,-0.86309 l 0.2877,-1.15078 0.86308,-0.14384 -1.15078,-1.43847 c 0,0 -1.16616,-0.93075 -1.87001,-1.00693 z"
       id="path3826"
       inkscape:connector-curvature="0"
       sodipodi:nodetypes="aaaaacccca" />
    <path
       style="fill:#0b2228;fill-opacity:1;stroke:none"
       d="m 176.42434,839.57349 -3.02741,-1.9286 -4.97361,-2.67862 -4.86548,-2.35718 -4.86548,-2.25004 -3.78426,-1.17859 -1.51371,-0.10715 1.51371,1.39288 4.32487,2.03574 4.00051,1.82147 5.29797,3.1072 3.24365,2.35718 1.29746,1.07144 1.29746,0.64288 z"
       id="path3828"
       inkscape:connector-curvature="0"
       sodipodi:nodetypes="ccccccccccccccc" />
    <path
       style="fill:#1e4048;fill-opacity:0.85638296;stroke:none"
       d="m 197.94568,898.44313 -1.62745,0.71201 -0.30514,2.23773 1.01715,2.13602 1.93259,2.84803 0.91544,1.52573 2.03431,0.10171 2.54288,0 -2.74631,-0.712 -2.13602,-1.52573 -0.6103,-4.37376 1.22059,1.93259 0.30514,2.6446 1.72916,1.72916 0.71202,-1.62745 -1.11887,-4.17032 2.44116,0.71201 0,1.52572 -0.20342,1.62745 1.01714,-0.30515 -0.20343,2.03431 1.3223,-1.62745 -0.61029,-3.15317 c 0,0 -3.45832,-1.11887 -3.86518,-1.3223 -0.40686,-0.20343 -1.72916,-1.83087 -2.13602,-1.93259 -0.40686,-0.10171 -1.62745,-1.01715 -1.62745,-1.01715 z"
       id="path3830"
       inkscape:connector-curvature="0" />
    <path
       style="fill:#000000;fill-opacity:1;stroke:none;display:inline"
       d="m 48.852052,893.47043 c 1.289693,0.22375 2.618211,0.0676 3.927231,0.10454 1.167606,0.0328 2.335603,0.056 3.502656,0.10449 1.309827,0.0544 2.641171,-0.0416 3.927226,0.20908 1.470876,0.28663 2.922744,0.76838 4.245647,1.46343 1.404712,0.73804 2.767422,1.64687 3.821093,2.82234 0.943885,1.05298 1.540685,2.37629 2.122826,3.65855 0.548002,1.20706 0.99498,2.46969 1.273689,3.76308 0.228747,1.06158 0.289212,2.15567 0.318424,3.24048 0.02161,0.80188 0.254136,1.68477 -0.106141,2.40419 -0.633162,1.26438 -2.474914,1.55912 -3.290382,2.7178 -0.36334,0.51628 -0.06818,1.49253 -0.636844,1.777 -0.329327,0.16477 -0.697946,-0.37841 -1.061411,-0.31357 -1.093183,0.19503 -1.774919,1.31646 -2.653533,1.98609 -1.175528,0.89586 -3.50266,2.7178 -3.50266,2.7178 0,0 -1.802028,-2.20534 -2.653533,-3.34499 -1.326199,-1.77497 -2.681016,-3.53938 -3.821081,-5.43559 -0.725537,-1.20677 -1.240142,-2.52581 -1.910546,-3.76309 -0.842914,-1.55571 -1.979545,-2.96578 -2.653529,-4.59938 -0.316575,-0.7673 -0.386733,-1.61345 -0.636849,-2.40419 -0.246321,-0.77877 -0.436333,-1.59253 -0.849127,-2.29969 -0.550896,-0.9437 -1.321482,-1.75896 -2.122826,-2.50872 -0.513008,-0.47996 -1.698259,-1.25436 -1.698259,-1.25436 l 2.547387,-1.67247 c 0,0 1.249428,0.51246 1.910542,0.62718 z"
       id="path3766-1-6"
       inkscape:connector-curvature="0"
       sodipodi:nodetypes="aaaaaaaaaaaaaacaaaaaaacca" />
    <path
       style="fill:#000000;fill-opacity:1;stroke:none;display:inline"
       d="m 71.267535,910.87762 c 0,0 1.875769,-1.64604 2.891009,-2.36836 0.855346,-0.60856 1.810178,-1.06644 2.684503,-1.64757 1.764527,-1.17277 3.274753,-2.74377 5.162513,-3.70697 0.96892,-0.49438 3.2153,0.0493 3.09751,-1.0297 -0.0712,-0.65191 -2.26972,0.1604 -1.96176,-0.20596 2.19002,-2.60528 1.64256,-2.08305 2.68451,-2.88318 0.92716,-0.71202 2.37169,-0.73218 3.09751,-1.64757 0.41942,-0.52897 0.10648,-1.42005 0.51625,-1.95645 0.74765,-0.97874 2.06992,-1.3616 3.20076,-1.85352 1.1875,-0.51654 2.45295,-0.84956 3.71701,-1.13266 1.39146,-0.3117 2.81232,-0.49688 4.23327,-0.61783 1.3721,-0.1168 2.75604,-0.19557 4.13001,-0.103 1.07825,0.0727 2.14746,0.27371 3.20076,0.51487 1.05063,0.24058 2.28553,0.21963 3.0975,0.92674 0.6265,0.54559 0.83394,1.45991 1.03251,2.2654 0.14813,0.60087 0.29649,1.26546 0.10325,1.85349 -0.23606,0.71829 -0.96197,1.1684 -1.4455,1.75053 -0.17149,0.20641 -0.41162,0.37088 -0.51625,0.61782 -0.25595,0.60403 0.0382,1.34781 -0.20651,1.95645 -0.35616,0.88572 -1.06116,1.60846 -1.75525,2.2654 -0.39473,0.37355 -0.99337,0.51021 -1.34226,0.92674 -0.2666,0.31827 -0.32519,0.7643 -0.51624,1.13266 -0.43934,0.8471 -0.87986,1.70239 -1.44551,2.47131 -0.30265,0.41146 -0.64466,0.79993 -1.03251,1.1327 -0.47032,0.4036 -1.16448,0.54388 -1.54874,1.0297 -0.43161,0.54571 -0.30003,1.40396 -0.72276,1.95649 -0.71836,0.93896 -2.05004,1.22788 -2.89101,2.05944 -0.33242,0.3287 -0.48433,0.81356 -0.826,1.1327 -0.5645,0.52726 -1.47356,0.6374 -1.96176,1.23566 -0.55684,0.68235 -0.37357,1.78799 -0.92925,2.47132 -0.28266,0.34757 -0.8995,0.34034 -1.13575,0.72079 -0.34618,0.55751 0.19584,1.43779 -0.2065,1.95648 -0.35987,0.46391 -1.1684,0.28406 -1.652,0.61783 -0.30085,0.20762 -0.47281,0.55731 -0.72276,0.82374 -0.26602,0.28361 -0.51228,0.59377 -0.82601,0.82379 -0.65736,0.48199 -1.37156,0.95713 -2.16825,1.1327 -0.70653,0.1557 -1.47657,-0.31482 -2.16826,-0.10296 -0.8225,0.25189 -1.37909,1.0265 -2.065,1.54457 -0.58717,0.44346 -1.12182,0.96378 -1.75526,1.33862 -0.29151,0.17249 -0.62132,0.27055 -0.92925,0.41191 -0.7272,0.33377 -2.168255,1.0297 -2.168255,1.0297 0,0 -0.795313,-0.0521 -1.032502,0.20596 -0.421224,0.45817 0.197552,1.38014 -0.206502,1.85348 -0.41678,0.48823 -1.263584,0.27163 -1.858506,0.51483 -0.327868,0.13405 -0.600695,0.38253 -0.929253,0.51487 -0.495411,0.19956 -1.548749,0.41188 -1.548749,0.41188 0,0 0.340242,-1.50384 0.309745,-2.26536 -0.045,-1.12343 -0.347316,-2.23493 -0.722752,-3.2951 -0.43568,-1.2303 -1.144882,-2.34699 -1.755254,-3.50102 -0.495938,-0.93775 -1.389008,-1.73215 -1.548757,-2.78027 -0.25359,-1.66378 0.721651,-3.28849 1.032506,-4.94264 0.231395,-1.23125 0.6195,-2.45427 0.6195,-3.70697 0,-0.62635 -0.309746,-1.85348 -0.309746,-1.85348 z"
       id="path3768-7-1"
       inkscape:connector-curvature="0"
       sodipodi:nodetypes="caaaasaaaaaaaaaaaaaaaaaaaaaaaaaaaaaaaaaaacaaaacaaaaaac" />
    <path
       style="fill:#000000;fill-opacity:1;stroke:none;display:inline"
       d="m 144.88882,912.27085 -2.6446,-0.81373 -6.0012,-0.81372 -4.78062,-0.40685 -6.71321,0 -9.45952,0.81373 -6.50977,1.22057 -4.17033,0.20342 -3.96689,0.20346 -1.83088,1.42399 -1.42401,1.62746 -1.83088,0.91543 -0.71201,2.5429 -1.22058,0.50856 0,2.33947 -1.72916,0.20342 -2.54288,2.44118 -1.62745,0.50855 -1.83087,-0.10171 -2.6446,2.23776 1.93259,3.76346 1.01715,2.44117 1.83087,2.94974 1.11888,1.83087 0.61029,1.62745 0.81372,-2.13604 c 0,0 0.32553,0.90662 0.71201,0.91543 1.82726,0.0417 3.56003,-4.1703 3.56003,-4.1703 0,0 0.88494,1.33704 1.52573,1.22057 1.43597,-0.26103 2.23774,-3.76346 2.23774,-3.76346 0,0 1.56669,3.34901 2.94973,3.05145 1.3735,-0.29549 1.42403,-3.96688 1.42403,-3.96688 0,0 1.2029,2.72951 2.33945,2.54289 1.64756,-0.2706 2.0343,-4.57719 2.0343,-4.57719 0,0 1.20252,2.99001 2.54288,3.15315 1.05685,0.12865 1.8479,-1.12609 2.54289,-1.93258 0.78252,-0.90808 0.92741,-2.09265 1.72915,-3.15315 0.59437,-0.78621 -0.2584,1.87414 0.40686,2.23771 1.09397,0.59788 2.59801,-0.52177 3.45833,-1.42399 0.69565,-0.7296 1.01715,-2.84806 1.01715,-2.84806 0,0 1.60315,0.6458 2.44117,0.6103 1.36048,-0.0576 3.0429,-0.23688 3.86518,-1.32227 0.3691,-0.48723 -0.35873,-1.4289 0.10172,-1.83092 0.64055,-0.55922 2.54288,0.20346 2.54288,0.20346 0,0 2.80775,0.43648 3.96689,-0.20346 0.97997,-0.54097 1.93259,-2.74627 1.93259,-2.74627 l 2.74631,0.20342 3.9669,-1.62745 1.11887,-1.62747 -1.52573,-1.11885 2.33944,-1.11886 z"
       id="path3770-4-8"
       inkscape:connector-curvature="0"
       sodipodi:nodetypes="ccccccccccccccccccccccccccacacacacaasaacaaacaccccccc" />
    <path
       style="fill:#000000;fill-opacity:1;stroke:none;display:inline"
       d="m 108.1696,914.00001 c 0,0 4.13656,-0.0241 6.20464,0 4.34074,0.0509 8.68206,0.12973 13.01955,0.30513 2.9522,0.11942 5.92491,0.0866 8.84923,0.5086 1.03377,0.14918 3.05146,0.71201 3.05146,0.71201 l -0.50857,0.61027 c 0,0 -2.23859,-0.0467 -3.35661,-0.10171 -2.98696,-0.14702 -5.96532,-0.43827 -8.95095,-0.61027 -2.88034,-0.16597 -5.76572,-0.23625 -8.64579,-0.40688 -2.37524,-0.1407 -4.76212,-0.18987 -7.12007,-0.50855 -0.85663,-0.1158 -2.54289,-0.5086 -2.54289,-0.5086 z"
       id="path3774-0-9"
       inkscape:connector-curvature="0"
       sodipodi:nodetypes="caaaccaaaac" />
    <path
       style="fill:#000000;fill-opacity:1;stroke:none;display:inline"
       d="m 102.67697,916.64461 c 0,0 3.52806,0.17433 5.28921,0.30513 1.86732,0.13871 3.73389,0.2967 5.59434,0.50861 2.48213,0.28269 4.94368,0.72914 7.42521,1.01715 2.84183,0.32982 5.68342,0.77573 8.54408,0.81373 2.48065,0.0328 7.42522,-0.5086 7.42522,-0.5086 0,0 -3.85969,-0.58503 -5.79778,-0.81373 -3.17959,-0.37512 -6.38081,-0.54733 -9.56123,-0.91544 -2.75315,-0.3186 -5.47257,-0.9499 -8.23894,-1.11886 -2.60605,-0.15916 -7.83208,0.10171 -7.83208,0.10171 0,0 -2.23773,0.50859 -2.84803,0.6103 z"
       id="path3776-9-2"
       inkscape:connector-curvature="0"
       sodipodi:nodetypes="caaaacaaacc" />
    <path
       style="fill:#000000;fill-opacity:1;stroke:none;display:inline"
       d="m 129.93668,921.42523 c 0,0 -5.63184,-0.92857 -8.44237,-1.42399 -2.95367,-0.52069 -5.87026,-1.27963 -8.84923,-1.62745 -2.66384,-0.31104 -5.35552,-0.30468 -8.03551,-0.40689 -1.32177,-0.0504 -3.96689,-0.10171 -3.96689,-0.10171 0,0 4.82052,0.77973 7.22178,1.22061 3.94363,0.72407 7.81381,1.89784 11.79897,2.33943 1.34838,0.14943 2.71226,0.0745 4.06861,0.10171 2.23754,0.0449 6.27335,2.29608 6.71321,0.10175 0.0359,-0.17902 -0.50857,-0.20346 -0.50857,-0.20346 z"
       id="path3778-4-7"
       inkscape:connector-curvature="0"
       sodipodi:nodetypes="caaacaaaac" />
    <path
       style="fill:#000000;fill-opacity:1;stroke:none;display:inline"
       d="m 123.12175,923.35786 -2.74632,0.91539 -7.62864,-1.11886 c 0,0 -9.9681,-1.83087 -10.27324,-2.23771 -0.30515,-0.40689 -4.88233,-1.83088 -4.88233,-1.83088 l 3.86518,0.61027 7.22178,1.32232 c 0,0 9.25609,1.83087 9.76467,1.83087 0.50857,0 4.6789,0.5086 4.6789,0.5086 z"
       id="path3780-8-9"
       inkscape:connector-curvature="0" />
    <path
       style="fill:#000000;fill-opacity:1;stroke:none;display:inline"
       d="m 96.47235,920.71322 c 0,0 1.91039,0.2057 2.84803,0.40688 1.79411,0.38498 3.52656,1.01565 5.28919,1.52574 2.10264,0.60848 4.16099,1.39635 6.30635,1.83088 1.70643,0.34561 5.18748,0.61026 5.18748,0.61026 0,0 -2.83904,-0.28871 -3.86519,0.50859 -0.43253,0.33606 -0.10032,1.32582 -0.61029,1.52575 -2.0615,0.80811 -3.94311,-2.03126 -6.0012,-2.84807 -2.15267,-0.85429 -4.48883,-1.20968 -6.61149,-2.136 -0.89039,-0.38856 -2.54288,-1.42403 -2.54288,-1.42403 z"
       id="path3782-8-5"
       inkscape:connector-curvature="0"
       sodipodi:nodetypes="caaacaaaac" />
    <path
       style="fill:#000000;fill-opacity:1;stroke:none;display:inline"
       d="m 94.53976,921.62869 3.76346,1.22057 9.9681,4.6789 -2.44117,-0.30513 -1.93259,-0.61031 -3.76346,-1.32228 z"
       id="path3784-2-4"
       inkscape:connector-curvature="0"
       sodipodi:nodetypes="ccccccc" />
    <path
       style="fill:#000000;fill-opacity:1;stroke:none;display:inline"
       d="m 92.60717,922.84926 3.86518,1.93259 9.45952,4.06863 c 0,0 -3.45832,0.81368 -3.56004,0.40684 -0.10171,-0.40684 -3.61389,-1.12571 -5.18748,-2.136 -1.75619,-1.12759 -4.57718,-4.27206 -4.57718,-4.27206 z"
       id="path3786-4-3"
       inkscape:connector-curvature="0"
       sodipodi:nodetypes="cccsac" />
    <path
       style="fill:#000000;fill-opacity:1;stroke:none;display:inline"
       d="m 90.97972,924.57843 4.6789,3.25486 4.98406,3.45833 c 0,0 -2.65729,-1.23599 -3.76347,-0.61027 -0.79461,0.44945 -1.01715,2.94974 -1.01715,2.54285 0,-0.40684 -2.23774,-4.47547 -2.23774,-4.47547 l -2.33945,-2.44114 z"
       id="path3788-5-1"
       inkscape:connector-curvature="0"
       sodipodi:nodetypes="cccasccc" />
    <path
       style="fill:#000000;fill-opacity:1;stroke:none;display:inline"
       d="m 98.50665,914.71203 11.59554,-1.93259 c 0,0 -1.66603,1.24614 -2.64459,1.5257 -0.97857,0.27961 -2.03466,0.0585 -3.05146,0.10171 -1.96735,0.0837 -5.89949,0.30518 -5.89949,0.30518 z"
       id="path3790-5-2"
       inkscape:connector-curvature="0"
       sodipodi:nodetypes="ccaac" />
    <path
       style="fill:#000000;fill-opacity:1;stroke:none;display:inline"
       d="m 97.18435,916.03431 3.35661,-0.81373 5.18748,0.10175 -3.15318,0.81369 -3.3566,0.30517 z"
       id="path3792-1-3"
       inkscape:connector-curvature="0" />
    <path
       style="fill:#000000;fill-opacity:1;stroke:none;display:inline"
       d="m 96.1672,917.76348 2.54288,-0.71202 3.86518,-0.20343 -3.25488,0.81374 z"
       id="path3794-7-3"
       inkscape:connector-curvature="0" />
    <path
       style="fill:#000000;fill-opacity:1;stroke:none;display:inline"
       d="m 95.45519,918.4755 2.54289,-0.30513 c 0,0 -0.36702,1.00426 -0.81373,1.11886 -0.61704,0.15828 -1.72916,-0.81373 -1.72916,-0.81373 z"
       id="path3796-1-4"
       inkscape:connector-curvature="0"
       sodipodi:nodetypes="ccac" />
    <path
       style="fill:#000000;fill-opacity:1;stroke:none;display:inline"
       d="m 110.00047,895.9964 c 0,0 -4.54546,-0.44753 -6.81491,-0.30513 -3.39905,0.21323 -6.86161,0.58616 -10.06982,1.72917 -0.8438,0.3006 -2.33945,1.32228 -2.33945,1.32228 0,0 3.65252,0.69684 5.49263,0.6103 1.83323,-0.0862 3.56671,-0.9176 5.3909,-1.11886 2.2245,-0.24548 4.7153,0.90671 6.71321,-0.10175 0.7991,-0.40331 1.62744,-2.13601 1.62744,-2.13601 z"
       id="path3798-1-1"
       inkscape:connector-curvature="0"
       sodipodi:nodetypes="caacaaac" />
    <path
       style="fill:#000000;fill-opacity:1;stroke:none;display:inline"
       d="m 106.1353,900.26846 c 0,0 -4.8209,0.0158 -7.22178,0.20342 -2.38562,0.1865 -4.81583,0.27017 -7.12007,0.91544 -1.28623,0.3602 -2.45035,1.06478 -3.66176,1.62745 -1.12772,0.52381 -3.3566,1.62745 -3.3566,1.62745 0,0 1.61201,0.45045 2.44117,0.50855 2.06758,0.1449 4.13988,-0.22595 6.20463,-0.40684 2.78623,-0.24415 5.76046,0.16406 8.34065,-0.91544 1.73416,-0.72556 4.37376,-3.56003 4.37376,-3.56003 z"
       id="path3800-5-1"
       inkscape:connector-curvature="0"
       sodipodi:nodetypes="caaacaaac" />
    <path
       style="fill:#000000;fill-opacity:1;stroke:none;display:inline"
       d="m 84.26651,907.28682 c 0.40686,0.10171 3.39029,-0.2072 5.08577,-0.30517 3.66129,-0.21153 7.45154,-1.59146 10.98525,-0.61027 0.98766,0.27421 2.54288,1.72917 2.54288,1.72917 0,0 -1.44763,0.75653 -2.23773,0.91544 -3.8892,0.78201 -7.93369,0.0848 -11.90069,0.10171 -0.712,0.004 -1.46291,0.23206 -2.13602,0 -0.93616,-0.3228 -2.33946,-1.83088 -2.33946,-1.83088 z"
       id="path3802-2-3"
       inkscape:connector-curvature="0"
       sodipodi:nodetypes="caacaaac" />
    <path
       style="fill:#000000;fill-opacity:1;stroke:none;display:inline"
       d="m 82.94422,910.54169 c 0,0 1.60599,1.63655 2.64459,2.03429 2.50855,0.96074 5.35014,0.54293 8.03551,0.61031 1.32232,0.0333 2.6876,0.23447 3.9669,-0.10171 1.18821,-0.31224 3.25488,-1.72917 3.25488,-1.72917 0,0 -4.54471,0.18908 -6.81492,0.10171 -2.58579,-0.0995 -5.15018,-0.51503 -7.73036,-0.71197 -1.11767,-0.0853 -3.3566,-0.20346 -3.3566,-0.20346 z"
       id="path3804-7-8"
       inkscape:connector-curvature="0"
       sodipodi:nodetypes="caaacaac" />
    <path
       style="fill:#000000;fill-opacity:1;stroke:none;display:inline"
       d="m 80.90991,912.06743 c 0,0 1.44522,2.32604 2.64459,2.74631 3.52434,1.23491 6.2187,2.76008 9.45952,2.44118 1.01115,-0.0995 2.74632,-1.32232 2.74632,-1.32232 0,0 -4.27659,-0.79049 -6.40806,-1.22057 -2.07289,-0.41827 -4.2345,-0.55399 -6.20463,-1.32232 -0.8072,-0.31478 -2.23774,-1.32228 -2.23774,-1.32228 z"
       id="path3806-6-7"
       inkscape:connector-curvature="0"
       sodipodi:nodetypes="csacaac" />
    <path
       style="fill:#000000;fill-opacity:1;stroke:none;display:inline"
       d="m 80.40133,914.40685 c 0,0 3.7124,0.94541 5.39091,1.83092 1.04957,0.55369 1.78756,1.60348 2.84803,2.13602 1.39014,0.69809 4.47547,1.32228 4.47547,1.32228 0,0 -0.67178,1.35324 -1.32229,1.52574 -1.87607,0.49746 -3.70979,-1.16541 -5.49263,-1.93258 -1.29538,-0.55744 -2.69329,-1.0142 -3.76347,-1.93259 -0.92124,-0.79063 -2.13602,-2.94979 -2.13602,-2.94979 z"
       id="path3808-1-4"
       inkscape:connector-curvature="0"
       sodipodi:nodetypes="caacaaac" />
    <path
       style="fill:#000000;fill-opacity:1;stroke:none;display:inline"
       d="m 79.180749,917.25492 c 0,0 3.718281,1.58253 5.492621,2.5429 1.68781,0.91348 4.88234,3.05144 4.88234,3.05144 0,0 -1.34748,1.02796 -2.13602,1.01715 -1.86492,-0.0254 -3.41337,-1.53713 -4.98405,-2.54289 -1.19957,-0.76809 -2.780871,-1.34169 -3.356606,-2.6446 -0.19234,-0.43527 0.101715,-1.424 0.101715,-1.424 z"
       id="path3810-4-2"
       inkscape:connector-curvature="0"
       sodipodi:nodetypes="cacaaac" />
    <path
       style="fill:#000000;fill-opacity:1;stroke:none;display:inline"
       d="m 44.318229,894.09329 3.07166,6.03833 0.341293,6.81254 0.682592,9.59941 c 0,0 2.331517,2.33412 3.92489,2.63214 2.689184,0.50298 8.02044,-1.70314 8.02044,-1.70314 l -6.825903,-9.28981 -2.730363,-5.57384 -3.412949,-5.88354 z"
       id="path3812-2-7"
       inkscape:connector-curvature="0"
       sodipodi:nodetypes="ccccaccccc" />
    <path
       style="fill:#000000;fill-opacity:1;stroke:none;display:inline"
       d="m 61.167768,918.69255 -1.947889,-2.11141 c 0,0 -5.011078,1.29927 -7.466901,0.81208 -1.302244,-0.25834 -3.495731,-1.90957 -3.495731,-1.90957 0,0 0.888594,6.13474 1.872493,9.05583 0.881117,2.616 3.571127,7.47109 3.571127,7.47109 l 4.545068,-7.63349 z"
       id="path3816-3-7"
       inkscape:connector-curvature="0"
       sodipodi:nodetypes="ccacaccc" />
    <path
       style="fill:#000000;fill-opacity:1;stroke:none;display:inline"
       d="m 53.36893,931.49853 c 0,0 1.449083,4.9627 2.670845,7.23159 1.200954,2.23024 2.836799,4.22771 4.51223,6.14653 1.966108,2.25177 4.04403,4.45997 6.459979,6.25003 1.437548,1.06516 4.706682,2.6165 4.706682,2.6165 l 4.512239,-0.5854 1.804887,-6.73194 1.804891,-3.51228 c 0,0 -11.415579,-2.91382 -11.430979,-5.2685 -0.0094,-1.44149 5.41467,-4.39039 5.41467,-4.39039 0,0 0.963412,-1.83275 0.920695,-2.81735 -0.142494,-3.28404 -3.874101,-9.11201 -3.874101,-9.11201 l 1.449332,-10.60797 -4.206105,2.69993 -0.482338,2.05416 -1.212958,-0.59854 -6.289178,4.60749 z"
       id="path3818-2-9"
       inkscape:connector-curvature="0"
       sodipodi:nodetypes="caaaccccscaccccccc" />
    <path
       style="fill:#000000;fill-opacity:1;stroke:none;display:inline"
       d="m 78.046358,929.89336 c 2.018662,-1.38264 5.416712,-4.95373 5.416712,-4.95373 l 3.00263,7.8456 6.59082,9.78184 4.00921,7.70091 2.80644,13.30156 6.81566,17.85206 -4.00921,-2.8003 -7.21658,-8.05094 -5.21196,-9.4511 -8.41936,-10.15119 -6.514799,-8.00314 c 0,0 -9.374746,-1.3246 -9.796257,-4.62735 -0.276152,-2.16394 3.680893,-2.81602 5.486849,-4.26765 0.692372,-0.55652 1.305487,-1.21828 2.050144,-1.7026 1.556226,-1.0122 3.458069,-1.4249 4.989701,-2.47397 z"
       id="path3820-2-3"
       inkscape:connector-curvature="0"
       sodipodi:nodetypes="acccccccccccaaaa" />
    <path
       style="fill:#000000;fill-opacity:1;stroke:none;display:inline"
       d="m 78.398334,942.36369 -1.006927,3.16467 c 0,0 -1.550336,2.48299 -1.870016,3.88387 -0.234695,1.02841 0.687779,2.36478 0,3.16463 -1.043438,1.21342 -4.746951,0.71924 -4.746951,0.71924 l 1.438472,1.43846 c 0,0 2.303227,1.37394 3.596178,1.58231 0.998597,0.16094 2.010212,-0.33061 3.020789,-0.28767 0.535599,0.0229 1.170891,-0.056 1.582321,0.28767 0.62881,0.52531 0.41301,1.6169 0.86308,2.30156 0.98724,1.50189 2.49135,2.60374 3.88387,3.74002 1.44266,1.17721 3.29211,1.84243 4.60311,3.16467 1.62925,1.6432 2.53677,3.8724 3.88387,5.75381 1.01607,1.41917 3.16463,4.17159 3.16463,4.17159 0,0 1.00694,2.15771 2.15771,2.30161 1.15078,0.14381 0,-2.44542 0.57539,-3.02081 0.57539,-0.57539 -4.12125,-4.79121 -5.75389,-7.48008 -1.59211,-2.62207 -2.40502,-5.65551 -3.88386,-8.34309 -1.45555,-2.64527 -3.17518,-5.13944 -4.89081,-7.62393 -2.10341,-3.04604 -6.473121,-8.91853 -6.616966,-8.91853 z"
       id="path3822-1-1"
       inkscape:connector-curvature="0"
       sodipodi:nodetypes="ccaaccaaaaaaacssaaac" />
    <path
       style="fill:#000000;fill-opacity:1;stroke:none;display:inline"
       d="m 102.13311,976.31163 c 0.57607,1.29788 0.86308,4.17155 0.86308,4.17155 0,0 -2.09372,-2.53088 -3.02079,-3.88388 -0.31606,-0.46129 -0.56466,-0.96556 -0.86308,-1.43841 -7.12678,-11.29341 -22.138001,-33.39001 -22.138001,-33.39001 l 1.999405,0.58138 c 0,0 3.958126,4.22051 5.753886,6.48458 2.11638,2.66829 4.18418,5.39989 5.89773,8.34314 1.75914,3.02156 2.67584,6.48662 4.45926,9.49392 2.03017,3.42328 5.43383,5.99988 7.04851,9.63773 z"
       id="path3824-6-9"
       inkscape:connector-curvature="0"
       sodipodi:nodetypes="acaaccaaaa" />
    <path
       style="fill:#000000;fill-opacity:1;stroke:none;display:inline"
       d="m 52.074308,895.9011 c -0.347046,-0.0374 -0.716322,0.0943 -1.006926,0.28767 -0.511201,0.34021 -0.971783,0.85109 -1.150781,1.43845 -0.168311,0.55233 -0.158505,1.23429 0.14385,1.72617 0.383275,0.62357 1.140069,1.09712 1.870008,1.15079 0.728371,0.0535 2.013861,-0.86307 2.013861,-0.86307 l 0.287695,-1.15078 0.863086,-0.14386 -1.150781,-1.43845 c 0,0 -1.166164,-0.93078 -1.870012,-1.00692 z"
       id="path3826-8-8"
       inkscape:connector-curvature="0"
       sodipodi:nodetypes="aaaaacccca" />
    <path
       style="fill:#000000;fill-opacity:1;stroke:none;display:inline"
       d="m 47.691305,893.27362 -3.02741,-1.92864 -4.973603,-2.67859 -4.865482,-2.35719 -4.865483,-2.25003 -3.784262,-1.17859 -1.513705,-0.10715 1.513705,1.39288 4.32487,2.03574 4.000506,1.82147 5.297971,3.10719 3.243654,2.35718 1.297461,1.07143 1.29746,0.64289 z"
       id="path3828-5-6"
       inkscape:connector-curvature="0"
       sodipodi:nodetypes="ccccccccccccccc" />
    <path
       style="fill:#000000;fill-opacity:1;stroke:none;display:inline"
       d="m 69.212653,952.14325 -1.627449,0.71201 -0.305144,2.23776 1.017152,2.13601 1.932593,2.84802 0.915436,1.52574 2.034304,0.10171 2.542886,0 -2.746311,-0.71202 -2.136023,-1.5257 -0.610292,-4.37376 1.220585,1.93258 0.305144,2.6446 1.729159,1.72917 0.712012,-1.62745 -1.118866,-4.17035 2.441158,0.71202 0,1.52574 -0.203421,1.62745 1.017147,-0.30517 -0.203433,2.03434 1.322304,-1.62746 -0.610297,-3.15319 c 0,0 -3.458318,-1.11886 -3.865177,-1.32228 -0.406864,-0.20342 -1.72916,-1.83087 -2.136023,-1.93263 -0.406859,-0.10171 -1.627444,-1.01714 -1.627444,-1.01714 z"
       id="path3830-7-5"
       inkscape:connector-curvature="0" />
  </g>
</svg>
