<?xml version="1.0" encoding="UTF-8" standalone="no"?>
<svg
   width="1440"
   height="718"
   viewBox="0 0 1440 718"
   fill="none"
   version="1.1"
   id="svg176"
   xmlns="http://www.w3.org/2000/svg"
   xmlns:svg="http://www.w3.org/2000/svg">
  <defs
     id="defs176" />
  <path
     fill-rule="evenodd"
     clip-rule="evenodd"
     d="m 4.80209,473.077 c -9.75433,0 -17.66179,7.89 -17.66179,17.622 0,9.733 7.90746,17.622 17.66179,17.622 9.75441,0 17.66181,-7.889 17.66181,-17.622 0,-9.732 -7.9074,-17.622 -17.66181,-17.622 z m -18.16159,17.622 c 0,-10.008 8.13123,-18.121 18.16159,-18.121 10.03041,0 18.16161,8.113 18.16161,18.121 0,10.008 -8.1312,18.121 -18.16161,18.121 -10.03036,0 -18.16159,-8.113 -18.16159,-18.121 z"
     fill="white"
     id="path23"
     style="fill:#082940;fill-opacity:1" />
  <path
     fill-rule="evenodd"
     clip-rule="evenodd"
     d="m 4.80209,450.578 c -22.20809,0 -40.21139,17.963 -40.21139,40.121 0,22.158 18.0033,40.121 40.21139,40.121 22.20811,0 40.21131,-17.963 40.21131,-40.121 0,-22.158 -18.0032,-40.121 -40.21131,-40.121 z m -40.71119,40.121 c 0,-22.434 18.2271,-40.62 40.71119,-40.62 22.48421,0 40.71111,18.186 40.71111,40.62 0,22.434 -18.2269,40.62 -40.71111,40.62 -22.48409,0 -40.71119,-18.186 -40.71119,-40.62 z"
     fill="white"
     id="path24"
     style="fill:#082940;fill-opacity:1" />
  <path
     fill-rule="evenodd"
     clip-rule="evenodd"
     d="m 4.80209,428.069 c -34.66739,0 -62.77089,28.041 -62.77089,62.63 0,34.59 28.1035,62.63 62.77089,62.63 34.66741,0 62.77091,-28.04 62.77091,-62.63 0,-34.589 -28.1035,-62.63 -62.77091,-62.63 z m -63.27069,62.63 c 0,-34.865 28.3273,-63.129 63.27069,-63.129 34.94341,0 63.27071,28.264 63.27071,63.129 0,34.865 -28.3273,63.129 -63.27071,63.129 -34.94339,0 -63.27069,-28.264 -63.27069,-63.129 z"
     fill="white"
     id="path25"
     style="fill:#082940;fill-opacity:1" />
  <path
     fill-rule="evenodd"
     clip-rule="evenodd"
     d="m 4.80209,405.57 c -47.12119,0 -85.32039,38.114 -85.32039,85.129 0,47.016 38.1992,85.129 85.32039,85.129 47.12121,0 85.32051,-38.113 85.32051,-85.129 0,-47.015 -38.1993,-85.129 -85.32051,-85.129 z m -85.82019,85.129 c 0,-47.291 38.423,-85.628 85.82019,-85.628 47.39721,0 85.82021,38.337 85.82021,85.628 0,47.291 -38.423,85.628 -85.82021,85.628 -47.39719,0 -85.82019,-38.337 -85.82019,-85.628 z"
     fill="white"
     id="path26"
     style="fill:#082940;fill-opacity:1" />
  <path
     fill-rule="evenodd"
     clip-rule="evenodd"
     d="m 4.80209,383.061 c -59.58049,0 -107.88009,48.191 -107.88009,107.638 0,59.447 48.2996,107.638 107.88009,107.638 59.58051,0 107.87991,-48.191 107.87991,-107.638 0,-59.447 -48.2994,-107.638 -107.87991,-107.638 z M -103.578,490.699 c 0,-59.722 48.5236,-108.137 108.38009,-108.137 59.85651,0 108.37991,48.415 108.37991,108.137 0,59.722 -48.5234,108.137 -108.37991,108.137 -59.85649,0 -108.38009,-48.415 -108.38009,-108.137 z"
     fill="white"
     id="path27"
     style="fill:#082940;fill-opacity:1" />
  <path
     fill-rule="evenodd"
     clip-rule="evenodd"
     d="m 4.80209,360.562 c -72.03419,0 -130.42909,58.264 -130.42909,130.137 0,71.873 58.3949,130.137 130.42909,130.137 72.03431,0 130.42991,-58.264 130.42991,-130.137 0,-71.873 -58.3956,-130.137 -130.42991,-130.137 z M -126.127,490.699 c 0,-72.148 58.6188,-130.636 130.92909,-130.636 72.31031,0 130.92891,58.488 130.92891,130.636 0,72.148 -58.6186,130.636 -130.92891,130.636 -72.31029,0 -130.92909,-58.488 -130.92909,-130.636 z"
     fill="white"
     id="path28"
     style="fill:#082940;fill-opacity:1" />
  <path
     fill-rule="evenodd"
     clip-rule="evenodd"
     d="m 4.80209,338.063 c -84.48799,0 -152.97909,68.338 -152.97909,152.636 0,84.299 68.4911,152.636 152.97909,152.636 84.48801,0 152.97891,-68.337 152.97891,-152.636 0,-84.298 -68.4909,-152.636 -152.97891,-152.636 z M -148.677,490.699 c 0,-84.574 68.7151,-153.134 153.47909,-153.134 84.76411,0 153.47891,68.56 153.47891,153.134 0,84.574 -68.7148,153.135 -153.47891,153.135 -84.76399,0 -153.47909,-68.561 -153.47909,-153.135 z"
     fill="white"
     id="path29"
     style="fill:#082940;fill-opacity:1" />
  <path
     fill-rule="evenodd"
     clip-rule="evenodd"
     d="m 4.80209,315.554 c -96.94729,0 -175.53909,78.415 -175.53909,175.145 0,96.73 78.5918,175.145 175.53909,175.145 96.94691,0 175.53891,-78.415 175.53891,-175.145 0,-96.73 -78.592,-175.145 -175.53891,-175.145 z M -171.236,490.699 c 0,-97.005 78.8148,-175.643 176.03809,-175.643 97.22291,0 176.03891,78.638 176.03891,175.643 0,97.006 -78.816,175.644 -176.03891,175.644 -97.22329,0 -176.03809,-78.638 -176.03809,-175.644 z"
     fill="white"
     id="path30"
     style="fill:#082940;fill-opacity:1" />
  <path
     fill-rule="evenodd"
     clip-rule="evenodd"
     d="m 4.80209,293.055 c -109.40109,0 -198.08809,88.488 -198.08809,197.644 0,109.156 88.687,197.644 198.08809,197.644 C 114.203,688.343 202.89,599.855 202.89,490.699 202.89,381.543 114.203,293.055 4.80209,293.055 Z M -193.786,490.699 c 0,-109.431 88.911,-198.142 198.58809,-198.142 109.67691,0 198.58791,88.711 198.58791,198.142 0,109.431 -88.911,198.143 -198.58791,198.143 -109.67709,0 -198.58809,-88.712 -198.58809,-198.143 z"
     fill="white"
     id="path31"
     style="fill:#082940;fill-opacity:1" />
  <path
     fill-rule="evenodd"
     clip-rule="evenodd"
     d="m 4.80209,270.546 c -121.86009,0 -220.64809,98.566 -220.64809,220.153 0,121.587 98.788,220.153 220.64809,220.153 C 126.662,710.852 225.45,612.286 225.45,490.699 225.45,369.112 126.662,270.546 4.80209,270.546 Z M -216.345,490.699 c 0,-121.862 99.011,-220.651 221.14709,-220.651 122.13591,0 221.14791,98.789 221.14791,220.651 0,121.863 -99.012,220.652 -221.14791,220.652 -122.13609,0 -221.14709,-98.789 -221.14709,-220.652 z"
     fill="white"
     id="path32"
     style="fill:#082940;fill-opacity:1" />
  <path
     fill-rule="evenodd"
     clip-rule="evenodd"
     d="m 4.80209,248.047 c -134.31409,0 -243.19709,108.639 -243.19709,242.652 0,134.013 108.883,242.652 243.19709,242.652 C 139.116,733.351 247.999,624.712 247.999,490.699 247.999,356.686 139.116,248.047 4.80209,248.047 Z M -238.895,490.699 c 0,-134.288 109.107,-243.15 243.69709,-243.15 134.58991,0 243.69691,108.862 243.69691,243.15 C 248.499,624.988 139.392,733.85 4.80209,733.85 -129.788,733.85 -238.895,624.988 -238.895,490.699 Z"
     fill="white"
     id="path33"
     style="fill:#082940;fill-opacity:1" />
  <path
     fill-rule="evenodd"
     clip-rule="evenodd"
     d="m 4.80209,225.538 c -146.77309,0 -265.75709,118.717 -265.75709,265.161 0,146.444 118.984,265.161 265.75709,265.161 C 151.576,755.86 270.559,637.143 270.559,490.699 270.559,344.255 151.576,225.538 4.80209,225.538 Z M -261.455,490.699 c 0,-146.72 119.208,-265.659 266.25709,-265.659 147.04991,0 266.25691,118.939 266.25691,265.659 0,146.72 -119.207,265.66 -266.25691,265.66 -147.04909,0 -266.25709,-118.94 -266.25709,-265.66 z"
     fill="white"
     id="path34"
     style="fill:#082940;fill-opacity:1" />
  <path
     fill-rule="evenodd"
     clip-rule="evenodd"
     d="m 4.80209,203.039 c -159.22709,0 -288.30609,128.79 -288.30609,287.66 0,158.87 129.079,287.66 288.30609,287.66 159.22691,0 288.30591,-128.79 288.30591,-287.66 0,-158.87 -129.079,-287.66 -288.30591,-287.66 z M -284.004,490.699 c 0,-159.145 129.303,-288.158 288.80609,-288.158 159.50291,0 288.80591,129.013 288.80591,288.158 0,159.146 -129.303,288.159 -288.80591,288.159 -159.50309,0 -288.80609,-129.013 -288.80609,-288.159 z"
     fill="white"
     id="path35"
     style="fill:#082940;fill-opacity:1" />
  <path
     fill-rule="evenodd"
     clip-rule="evenodd"
     d="m 4.80209,180.53 c -171.68609,0 -310.86609,138.868 -310.86609,310.169 0,171.302 139.18,310.169 310.86609,310.169 C 176.489,800.868 315.668,662.001 315.668,490.699 315.668,319.398 176.489,180.53 4.80209,180.53 Z M -306.564,490.699 c 0,-171.577 139.404,-310.667 311.36609,-310.667 171.96291,0 311.36591,139.09 311.36591,310.667 0,171.577 -139.403,310.668 -311.36591,310.668 C -167.16,801.367 -306.564,662.276 -306.564,490.699 Z"
     fill="white"
     id="path36"
     style="fill:#082940;fill-opacity:1" />
  <path
     fill-rule="evenodd"
     clip-rule="evenodd"
     d="m 4.80209,158.031 c -184.14009,0 -333.41509,148.941 -333.41509,332.668 0,183.728 149.275,332.668 333.41509,332.668 C 188.942,823.367 338.218,674.427 338.218,490.699 338.218,306.972 188.942,158.031 4.80209,158.031 Z M -329.113,490.699 c 0,-184.003 149.499,-333.166 333.91509,-333.166 184.41591,0 333.91491,149.163 333.91491,333.166 0,184.003 -149.499,333.167 -333.91491,333.167 -184.41609,0 -333.91509,-149.164 -333.91509,-333.167 z"
     fill="white"
     id="path37"
     style="fill:#082940;fill-opacity:1" />
  <path
     fill-rule="evenodd"
     clip-rule="evenodd"
     d="m 4.80209,135.522 c -196.59909,0 -355.97509,159.018 -355.97509,355.177 0,196.159 159.376,355.177 355.97509,355.177 C 201.402,845.876 360.777,686.858 360.777,490.699 360.777,294.54 201.402,135.522 4.80209,135.522 Z M -351.673,490.699 c 0,-196.434 159.6,-355.675 356.47509,-355.675 196.87591,0 356.47491,159.241 356.47491,355.675 0,196.434 -159.599,355.676 -356.47491,355.676 -196.87509,0 -356.47509,-159.242 -356.47509,-355.676 z"
     fill="white"
     id="path38"
     style="fill:#082940;fill-opacity:1" />
  <path
     fill-rule="evenodd"
     clip-rule="evenodd"
     d="m 4.80209,113.023 c -209.05309,0 -378.52409,169.092 -378.52409,377.676 0,208.585 169.471,377.676 378.52409,377.676 C 213.855,868.375 383.327,699.284 383.327,490.699 383.327,282.115 213.855,113.023 4.80209,113.023 Z M -374.222,490.699 c 0,-208.86 169.695,-378.174 379.02409,-378.174 209.32891,0 379.02391,169.314 379.02391,378.174 0,208.86 -169.695,378.175 -379.02391,378.175 -209.32909,0 -379.02409,-169.315 -379.02409,-378.175 z"
     fill="white"
     id="path39"
     style="fill:#082940;fill-opacity:1" />
  <path
     fill-rule="evenodd"
     clip-rule="evenodd"
     d="m 4.80209,90.5145 c -221.51309,0 -401.08409,179.1685 -401.08409,400.1845 0,221.016 179.571,400.185 401.08409,400.185 C 226.315,890.884 405.886,711.715 405.886,490.699 405.886,269.683 226.315,90.5145 4.80209,90.5145 Z M -396.782,490.699 C -396.782,269.408 -216.987,90.0159 4.80209,90.0159 226.591,90.0159 406.386,269.408 406.386,490.699 406.386,711.99 226.591,891.383 4.80209,891.383 -216.987,891.383 -396.782,711.99 -396.782,490.699 Z"
     fill="white"
     id="path40"
     style="fill:#082940;fill-opacity:1" />
  <path
     fill-rule="evenodd"
     clip-rule="evenodd"
     d="m 4.80209,68.0155 c -233.96609,0 -423.63409,189.2415 -423.63409,422.6835 0,233.442 189.668,422.684 423.63409,422.684 C 238.768,913.383 428.436,724.141 428.436,490.699 428.436,257.257 238.768,68.0155 4.80209,68.0155 Z M -419.331,490.699 C -419.331,256.982 -229.44,67.5169 4.80209,67.5169 239.045,67.5169 428.935,256.982 428.935,490.699 428.935,724.416 239.045,913.881 4.80209,913.881 -229.44,913.881 -419.331,724.416 -419.331,490.699 Z"
     fill="white"
     id="path41"
     style="fill:#082940;fill-opacity:1" />
  <path
     fill-rule="evenodd"
     clip-rule="evenodd"
     d="m 4.80209,45.5066 c -246.42609,0 -446.19309,199.3194 -446.19309,445.1924 0,245.873 199.767,445.193 446.19309,445.193 C 251.228,935.892 450.995,736.572 450.995,490.699 450.995,244.826 251.228,45.5066 4.80209,45.5066 Z M -441.891,490.699 C -441.891,244.551 -241.9,45.0079 4.80209,45.0079 251.504,45.0079 451.495,244.551 451.495,490.699 451.495,736.848 251.504,936.39 4.80209,936.39 -241.9,936.39 -441.891,736.848 -441.891,490.699 Z"
     fill="white"
     id="path42"
     style="fill:#082940;fill-opacity:1" />
  <path
     fill-rule="evenodd"
     clip-rule="evenodd"
     d="M 4.80209,23.0076 C -254.077,23.0076 -463.941,232.4 -463.941,490.699 c 0,258.299 209.864,467.692 468.74309,467.692 C 263.682,958.391 473.545,748.998 473.545,490.699 473.545,232.4 263.682,23.0076 4.80209,23.0076 Z M -464.44,490.699 C -464.44,232.125 -254.353,22.5089 4.80209,22.5089 263.958,22.5089 474.045,232.125 474.045,490.699 474.045,749.273 263.958,958.889 4.80209,958.889 -254.353,958.889 -464.44,749.273 -464.44,490.699 Z"
     fill="white"
     id="path43"
     style="fill:#082940;fill-opacity:1" />
  <path
     fill-rule="evenodd"
     clip-rule="evenodd"
     d="M 4.80197,0.498635 C -266.564,0.379021 -486.54,219.822 -486.5,490.699 -486.46,761.427 -266.534,980.88 4.79211,980.9 276.118,980.91 496.084,761.437 496.094,490.699 v -0.249 h 0.01 C 495.979,219.837 276.055,0.618213 4.80197,0.498635 Z M 496.594,490.949 h 0.01 v -0.25 C 496.614,219.696 276.414,0.119724 4.80222,-1.21088e-5 -266.84,-0.119748 -487.04,219.547 -487,490.699 -486.96,761.702 -266.81,981.378 4.79205,981.398 276.311,981.408 496.449,761.847 496.594,490.949 Z"
     fill="white"
     id="path44"
     style="fill:#082940;fill-opacity:1" />
  <path
     fill-rule="evenodd"
     clip-rule="evenodd"
     d="m 719.781,705.178 c -109.401,0 -198.088,88.488 -198.088,197.643 0,109.159 88.687,197.649 198.088,197.649 109.401,0 198.088,-88.49 198.088,-197.649 0,-109.155 -88.687,-197.643 -198.088,-197.643 z M 521.193,902.821 c 0,-109.431 88.911,-198.142 198.588,-198.142 109.677,0 198.588,88.711 198.588,198.142 0,109.429 -88.911,198.139 -198.588,198.139 -109.677,0 -198.588,-88.71 -198.588,-198.139 z"
     fill="white"
     id="path53"
     style="fill:#082940;fill-opacity:1" />
  <path
     fill-rule="evenodd"
     clip-rule="evenodd"
     d="m 719.781,682.669 c -121.861,0 -220.648,98.565 -220.648,220.152 0,121.589 98.787,220.149 220.648,220.149 121.86,0 220.647,-98.56 220.647,-220.149 0,-121.587 -98.787,-220.152 -220.647,-220.152 z M 498.633,902.821 c 0,-121.862 99.011,-220.651 221.148,-220.651 122.136,0 221.147,98.789 221.147,220.651 0,121.859 -99.011,220.649 -221.147,220.649 -122.137,0 -221.148,-98.79 -221.148,-220.649 z"
     fill="white"
     id="path54"
     style="fill:#082940;fill-opacity:1" />
  <path
     fill-rule="evenodd"
     clip-rule="evenodd"
     d="m 719.781,660.17 c -134.314,0 -243.198,108.639 -243.198,242.651 0,134.009 108.884,242.649 243.198,242.649 134.314,0 243.197,-108.64 243.197,-242.649 0,-134.012 -108.883,-242.651 -243.197,-242.651 z M 476.084,902.821 c 0,-134.288 109.106,-243.15 243.697,-243.15 134.59,0 243.697,108.862 243.697,243.15 0,134.289 -109.107,243.149 -243.697,243.149 -134.591,0 -243.697,-108.86 -243.697,-243.149 z"
     fill="white"
     id="path55"
     style="fill:#082940;fill-opacity:1" />
  <path
     fill-rule="evenodd"
     clip-rule="evenodd"
     d="m 719.781,637.661 c -146.774,0 -265.757,118.716 -265.757,265.16 0,146.449 118.983,265.159 265.757,265.159 146.773,0 265.756,-118.71 265.756,-265.159 0,-146.444 -118.983,-265.16 -265.756,-265.16 z m -266.257,265.16 c 0,-146.719 119.207,-265.659 266.257,-265.659 147.049,0 266.256,118.94 266.256,265.659 0,146.719 -119.207,265.659 -266.256,265.659 -147.05,0 -266.257,-118.94 -266.257,-265.659 z"
     fill="white"
     id="path56"
     style="fill:#082940;fill-opacity:1" />
  <path
     fill-rule="evenodd"
     clip-rule="evenodd"
     d="m 719.781,615.162 c -159.228,0 -288.307,128.789 -288.307,287.659 0,158.869 129.079,287.659 288.307,287.659 159.227,0 288.309,-128.79 288.309,-287.659 0,-158.87 -129.082,-287.659 -288.309,-287.659 z M 430.975,902.821 c 0,-159.145 129.302,-288.158 288.806,-288.158 159.503,0 288.809,129.013 288.809,288.158 0,159.149 -129.306,288.159 -288.809,288.159 -159.504,0 -288.806,-129.01 -288.806,-288.159 z"
     fill="white"
     id="path57"
     style="fill:#082940;fill-opacity:1" />
  <path
     fill-rule="evenodd"
     clip-rule="evenodd"
     d="m 719.781,592.653 c -171.687,0 -310.866,138.867 -310.866,310.168 0,171.299 139.179,310.169 310.866,310.169 171.686,0 310.869,-138.87 310.869,-310.169 0,-171.301 -139.183,-310.168 -310.869,-310.168 z M 408.415,902.821 c 0,-171.576 139.403,-310.667 311.366,-310.667 171.962,0 311.369,139.091 311.369,310.667 0,171.579 -139.407,310.669 -311.369,310.669 -171.963,0 -311.366,-139.09 -311.366,-310.669 z"
     fill="white"
     id="path58"
     style="fill:#082940;fill-opacity:1" />
  <path
     fill-rule="evenodd"
     clip-rule="evenodd"
     d="m 719.781,570.154 c -184.141,0 -333.416,148.94 -333.416,332.667 0,183.729 149.275,332.669 333.416,332.669 184.14,0 333.419,-148.94 333.419,-332.669 0,-183.727 -149.279,-332.667 -333.419,-332.667 z M 385.865,902.821 c 0,-184.002 149.499,-333.166 333.916,-333.166 184.416,0 333.919,149.164 333.919,333.166 0,183.999 -149.503,333.169 -333.919,333.169 -184.417,0 -333.916,-149.17 -333.916,-333.169 z"
     fill="white"
     id="path59"
     style="fill:#082940;fill-opacity:1" />
  <path
     fill-rule="evenodd"
     clip-rule="evenodd"
     d="m 719.781,547.645 c -196.6,0 -355.975,159.018 -355.975,355.176 0,196.159 159.375,355.179 355.975,355.179 196.599,0 355.979,-159.02 355.979,-355.179 0,-196.158 -159.38,-355.176 -355.979,-355.176 z M 363.306,902.821 c 0,-196.434 159.599,-355.675 356.475,-355.675 196.875,0 356.479,159.241 356.479,355.675 0,196.439 -159.604,355.679 -356.479,355.679 -196.876,0 -356.475,-159.24 -356.475,-355.679 z"
     fill="white"
     id="path60"
     style="fill:#082940;fill-opacity:1" />
  <path
     fill-rule="evenodd"
     clip-rule="evenodd"
     d="m 719.781,525.146 c -209.054,0 -378.525,169.091 -378.525,377.675 0,208.589 169.471,377.679 378.525,377.679 209.053,0 378.529,-169.09 378.529,-377.679 0,-208.584 -169.476,-377.675 -378.529,-377.675 z M 340.756,902.821 c 0,-208.859 169.695,-378.174 379.025,-378.174 209.329,0 379.029,169.315 379.029,378.174 0,208.859 -169.7,378.179 -379.029,378.179 -209.33,0 -379.025,-169.32 -379.025,-378.179 z"
     fill="white"
     id="path61"
     style="fill:#082940;fill-opacity:1" />
  <path
     fill-rule="evenodd"
     clip-rule="evenodd"
     d="m 719.781,502.637 c -221.513,0 -401.084,179.169 -401.084,400.184 0,221.019 179.571,400.189 401.084,400.189 221.512,0 401.079,-179.17 401.079,-400.189 0,-221.015 -179.567,-400.184 -401.079,-400.184 z M 318.197,902.821 c 0,-221.291 179.795,-400.683 401.584,-400.683 221.788,0 401.579,179.392 401.579,400.683 0,221.289 -179.791,400.679 -401.579,400.679 -221.789,0 -401.584,-179.39 -401.584,-400.679 z"
     fill="white"
     id="path62"
     style="fill:#082940;fill-opacity:1" />
  <path
     fill-rule="evenodd"
     clip-rule="evenodd"
     d="m 719.781,480.138 c -233.967,0 -423.634,189.242 -423.634,422.683 0,233.439 189.667,422.689 423.634,422.689 233.966,0 423.629,-189.25 423.629,-422.689 0,-233.441 -189.663,-422.683 -423.629,-422.683 z M 295.647,902.821 c 0,-233.717 189.891,-423.182 424.134,-423.182 234.242,0 424.129,189.465 424.129,423.182 C 1143.91,1136.54 954.023,1326 719.781,1326 485.538,1326 295.647,1136.54 295.647,902.821 Z"
     fill="white"
     id="path63"
     style="fill:#082940;fill-opacity:1" />
  <path
     fill-rule="evenodd"
     clip-rule="evenodd"
     d="m 719.771,457.629 c -246.429,0 -447.163,199.318 -447.163,445.192 0,245.879 200.734,445.189 447.163,445.189 246.427,0 446.189,-199.31 446.189,-445.189 0,-245.875 -199.762,-445.192 -446.189,-445.192 z M 272.108,902.821 c 0,-246.151 200.96,-445.691 447.663,-445.691 246.703,0 446.689,199.541 446.689,445.691 0,246.149 -199.986,445.689 -446.689,445.689 -246.703,0 -447.663,-199.54 -447.663,-445.689 z"
     fill="white"
     id="path64"
     style="fill:#082940;fill-opacity:1" />
  <path
     fill-rule="evenodd"
     clip-rule="evenodd"
     d="m 719.781,435.13 c -258.88,0 -468.743,209.393 -468.743,467.691 0,258.299 209.863,467.689 468.743,467.689 258.879,0 468.739,-209.39 468.739,-467.689 0,-258.298 -209.86,-467.691 -468.739,-467.691 z M 250.538,902.821 c 0,-258.574 210.087,-468.19 469.243,-468.19 259.155,0 469.239,209.616 469.239,468.19 0,258.579 -210.084,468.189 -469.239,468.189 -259.156,0 -469.243,-209.61 -469.243,-468.189 z"
     fill="white"
     id="path65"
     style="fill:#082940;fill-opacity:1" />
  <path
     fill-rule="evenodd"
     clip-rule="evenodd"
     d="m 719.771,412.621 c -271.336,0 -491.303,219.473 -491.303,490.2 0,270.729 219.966,489.049 491.304,490.199 271.754,1.16 491.538,-218.78 491.298,-490.198 C 1210.83,632.094 991.107,412.621 719.771,412.621 Z m -491.802,490.2 c 0,-271.003 220.189,-490.699 491.802,-490.699 271.612,0 491.559,219.697 491.799,490.699 0.24,271.689 -219.767,491.859 -491.8,490.699 -271.611,-1.16 -491.801,-219.69 -491.801,-490.699 z"
     fill="white"
     id="path66"
     style="fill:#082940;fill-opacity:1" />
</svg>
