<?xml version="1.0" encoding="UTF-8" standalone="no"?>
<svg
   width="1440"
   height="718"
   viewBox="0 0 1440 718"
   fill="none"
   version="1.1"
   id="svg176"
   sodipodi:docname="cliff-circle-pattern-top.svg"
   inkscape:export-filename="white-circle-pattern-top.svg"
   inkscape:export-xdpi="96"
   inkscape:export-ydpi="96"
   inkscape:version="1.3.2 (091e20e, 2023-11-25, custom)"
   xmlns:inkscape="http://www.inkscape.org/namespaces/inkscape"
   xmlns:sodipodi="http://sodipodi.sourceforge.net/DTD/sodipodi-0.dtd"
   xmlns="http://www.w3.org/2000/svg"
   xmlns:svg="http://www.w3.org/2000/svg">
  <defs
     id="defs176" />
  <sodipodi:namedview
     id="namedview176"
     pagecolor="#ffffff"
     bordercolor="#000000"
     borderopacity="0.25"
     inkscape:showpageshadow="2"
     inkscape:pageopacity="0.0"
     inkscape:pagecheckerboard="0"
     inkscape:deskcolor="#d1d1d1"
     inkscape:zoom="0.24233139"
     inkscape:cx="872.7718"
     inkscape:cy="938.79709"
     inkscape:window-width="1920"
     inkscape:window-height="1009"
     inkscape:window-x="-8"
     inkscape:window-y="-8"
     inkscape:window-maximized="1"
     inkscape:current-layer="svg176" />
  <path
     fill-rule="evenodd"
     clip-rule="evenodd"
     d="m -750.36216,-304.68327 c -9.75433,0 -17.66179,7.89 -17.66179,17.63 0,9.73 7.90746,17.62 17.66179,17.62 9.75441,0 17.66181,-7.89 17.66181,-17.62 0,-9.74 -7.9074,-17.63 -17.66181,-17.63 z m -18.16159,17.63 c 0,-10.01 8.13123,-18.12 18.16159,-18.12 10.03041,0 18.16161,8.11 18.16161,18.12 0,10 -8.1312,18.12 -18.16161,18.12 -10.03036,0 -18.16159,-8.12 -18.16159,-18.12 z"
     fill="#ffffff"
     id="path1" />
  <path
     fill-rule="evenodd"
     clip-rule="evenodd"
     d="m -750.36216,-327.17327 c -22.20809,0 -40.21139,17.96 -40.21139,40.12 0,22.15 18.0033,40.12 40.21139,40.12 22.20811,0 40.21131,-17.97 40.21131,-40.12 0,-22.16 -18.0032,-40.12 -40.21131,-40.12 z m -40.71119,40.12 c 0,-22.44 18.2271,-40.62 40.71119,-40.62 22.48421,0 40.71111,18.18 40.71111,40.62 0,22.43 -18.2269,40.62 -40.71111,40.62 -22.48409,0 -40.71119,-18.19 -40.71119,-40.62 z"
     fill="#ffffff"
     id="path2" />
  <path
     fill-rule="evenodd"
     clip-rule="evenodd"
     d="m -750.36216,-349.68327 c -34.66739,0 -62.77089,28.04 -62.77089,62.63 0,34.59 28.1035,62.63 62.77089,62.63 34.66741,0 62.77091,-28.04 62.77091,-62.63 0,-34.59 -28.1035,-62.63 -62.77091,-62.63 z m -63.27069,62.63 c 0,-34.87 28.3273,-63.13 63.27069,-63.13 34.94341,0 63.27071,28.26 63.27071,63.13 0,34.86 -28.3273,63.13 -63.27071,63.13 -34.94339,0 -63.27069,-28.27 -63.27069,-63.13 z"
     fill="#ffffff"
     id="path3" />
  <path
     fill-rule="evenodd"
     clip-rule="evenodd"
     d="m -750.36216,-372.18327 c -47.12119,0 -85.32039,38.11 -85.32039,85.13 0,47.01 38.1992,85.13 85.32039,85.13 47.12121,0 85.32051,-38.12 85.32051,-85.13 0,-47.02 -38.1993,-85.13 -85.32051,-85.13 z m -85.82019,85.13 c 0,-47.29 38.423,-85.63 85.82019,-85.63 47.39721,0 85.82021,38.34 85.82021,85.63 0,47.29 -38.423,85.62 -85.82021,85.62 -47.39719,0 -85.82019,-38.33 -85.82019,-85.62 z"
     fill="#ffffff"
     id="path4" />
  <path
     fill-rule="evenodd"
     clip-rule="evenodd"
     d="m -750.36216,-394.69327 c -59.58049,0 -107.88009,48.19 -107.88009,107.64 0,59.44 48.2996,107.63 107.88009,107.63 59.58051,0 107.87991,-48.19 107.87991,-107.63 0,-59.45 -48.2994,-107.64 -107.87991,-107.64 z m -108.38009,107.64 c 0,-59.73 48.5236,-108.14 108.38009,-108.14 59.85651,0 108.37991,48.41 108.37991,108.14 0,59.72 -48.5234,108.13 -108.37991,108.13 -59.85649,0 -108.38009,-48.41 -108.38009,-108.13 z"
     fill="#ffffff"
     id="path5" />
  <path
     fill-rule="evenodd"
     clip-rule="evenodd"
     d="m -750.36216,-417.19327 c -72.03419,0 -130.42909,58.26 -130.42909,130.14 0,71.87 58.3949,130.13 130.42909,130.13 72.03431,0 130.42991,-58.26 130.42991,-130.13 0,-71.88 -58.3956,-130.14 -130.42991,-130.14 z m -130.92909,130.14 c 0,-72.15 58.6188,-130.64 130.92909,-130.64 72.31031,0 130.92891,58.49 130.92891,130.64 0,72.14 -58.6186,130.63 -130.92891,130.63 -72.31029,0 -130.92909,-58.49 -130.92909,-130.63 z"
     fill="#ffffff"
     id="path6" />
  <path
     fill-rule="evenodd"
     clip-rule="evenodd"
     d="m -750.36216,-439.69327 c -84.48799,0 -152.97909,68.34 -152.97909,152.64 0,84.29 68.4911,152.63 152.97909,152.63 84.48801,0 152.97891,-68.34 152.97891,-152.63 0,-84.3 -68.4909,-152.64 -152.97891,-152.64 z m -153.47909,152.64 c 0,-84.58 68.7151,-153.14 153.47909,-153.14 84.76411,0 153.47891,68.56 153.47891,153.14 0,84.57 -68.7148,153.13 -153.47891,153.13 -84.76399,0 -153.47909,-68.56 -153.47909,-153.13 z"
     fill="#ffffff"
     id="path7" />
  <path
     fill-rule="evenodd"
     clip-rule="evenodd"
     d="m -750.36216,-462.20327 c -96.94729,0 -175.53909,78.42 -175.53909,175.15 0,96.73 78.5918,175.14 175.53909,175.14 96.94691,0 175.53891,-78.41 175.53891,-175.14 0,-96.73 -78.592,-175.15 -175.53891,-175.15 z m -176.03809,175.15 c 0,-97.01 78.8148,-175.65 176.03809,-175.65 97.22291,0 176.03891,78.64 176.03891,175.65 0,97 -78.816,175.64 -176.03891,175.64 -97.22329,0 -176.03809,-78.64 -176.03809,-175.64 z"
     fill="#ffffff"
     id="path8" />
  <path
     fill-rule="evenodd"
     clip-rule="evenodd"
     d="m -750.36216,-484.70327 c -109.40109,0 -198.08809,88.49 -198.08809,197.65 0,109.15 88.687,197.639996 198.08809,197.639996 109.40091,0 198.08791,-88.489996 198.08791,-197.639996 0,-109.16 -88.687,-197.65 -198.08791,-197.65 z m -198.58809,197.65 c 0,-109.43 88.911,-198.15 198.58809,-198.15 109.67691,0 198.58791,88.72 198.58791,198.15 0,109.43 -88.911,198.139996 -198.58791,198.139996 -109.67709,0 -198.58809,-88.709996 -198.58809,-198.139996 z"
     fill="#ffffff"
     id="path9" />
  <path
     fill-rule="evenodd"
     clip-rule="evenodd"
     d="m -750.36216,-507.21327 c -121.86009,0 -220.64809,98.57 -220.64809,220.16 0,121.58 98.788,220.149996 220.64809,220.149996 121.85991,0 220.64791,-98.569996 220.64791,-220.149996 0,-121.59 -98.788,-220.16 -220.64791,-220.16 z m -221.14709,220.16 c 0,-121.87 99.011,-220.66 221.14709,-220.66 122.13591,0 221.14791,98.79 221.14791,220.66 0,121.86 -99.012,220.649996 -221.14791,220.649996 -122.13609,0 -221.14709,-98.789996 -221.14709,-220.649996 z"
     fill="#ffffff"
     id="path10" />
  <path
     fill-rule="evenodd"
     clip-rule="evenodd"
     d="m -750.36216,-529.71327 c -134.31409,0 -243.19709,108.64 -243.19709,242.66 0,134.01 108.883,242.649996 243.19709,242.649996 134.31391,0 243.19691,-108.639996 243.19691,-242.649996 0,-134.02 -108.883,-242.66 -243.19691,-242.66 z m -243.69709,242.66 c 0,-134.29 109.107,-243.15 243.69709,-243.15 134.58991,0 243.69691,108.86 243.69691,243.15 0,134.28 -109.107,243.149996 -243.69691,243.149996 -134.59009,0 -243.69709,-108.869996 -243.69709,-243.149996 z"
     fill="#ffffff"
     id="path11" />
  <path
     fill-rule="evenodd"
     clip-rule="evenodd"
     d="m -750.36216,-552.21327 c -146.77309,0 -265.75714,118.71 -265.75714,265.16 0,146.44 118.98405,265.159996 265.75714,265.159996 146.77391,0 265.75691,-118.719996 265.75691,-265.159996 0,-146.45 -118.983,-265.16 -265.75691,-265.16 z m -266.25714,265.16 c 0,-146.72 119.20805,-265.66 266.25714,-265.66 147.04991,0 266.25691,118.94 266.25691,265.66 0,146.72 -119.207,265.659996 -266.25691,265.659996 -147.04909,0 -266.25714,-118.939996 -266.25714,-265.659996 z"
     fill="#ffffff"
     id="path12" />
  <path
     fill-rule="evenodd"
     clip-rule="evenodd"
     d="m -750.36216,-574.71327 c -159.22709,0 -288.30614,128.79 -288.30614,287.66 0,158.87 129.07905,287.65999554 288.30614,287.65999554 159.22691,0 288.30591,-128.78999554 288.30591,-287.65999554 0,-158.87 -129.079,-287.66 -288.30591,-287.66 z m -288.80614,287.66 c 0,-159.15 129.30305,-288.16 288.80614,-288.16 159.50291,0 288.80591,129.01 288.80591,288.16 0,159.14 -129.303,288.1499955 -288.80591,288.1499955 -159.50309,0 -288.80614,-129.0099955 -288.80614,-288.1499955 z"
     fill="#ffffff"
     id="path13" />
  <path
     fill-rule="evenodd"
     clip-rule="evenodd"
     d="m -750.36216,-597.22327 c -171.68609,0 -310.86614,138.86 -310.86614,310.17 0,171.3 139.18005,310.169996 310.86614,310.169996 171.68691,0 310.86591,-138.869996 310.86591,-310.169996 0,-171.31 -139.179,-310.17 -310.86591,-310.17 z m -311.36614,310.17 c 0,-171.58 139.40405,-310.67 311.36614,-310.67 171.96291,0 311.36591,139.09 311.36591,310.67 0,171.57 -139.403,310.659996 -311.36591,310.659996 -171.96209,0 -311.36614,-139.089996 -311.36614,-310.659996 z"
     fill="#ffffff"
     id="path14" />
  <path
     fill-rule="evenodd"
     clip-rule="evenodd"
     d="m -750.36216,-619.72527 c -184.14009,0 -333.41514,148.942 -333.41514,332.672 0,183.72 149.27505,332.659996 333.41514,332.659996 184.13991,0 333.41591,-148.939996 333.41591,-332.659996 0,-183.73 -149.276,-332.672 -333.41591,-332.672 z m -333.91514,332.672 c 0,-184.01 149.49905,-333.17 333.91514,-333.17 184.41591,0 333.91491,149.16 333.91491,333.17 0,184 -149.499,333.159996 -333.91491,333.159996 -184.41609,0 -333.91514,-149.159996 -333.91514,-333.159996 z"
     fill="#ffffff"
     id="path15" />
  <path
     fill-rule="evenodd"
     clip-rule="evenodd"
     d="m -750.36216,-642.23427 c -196.59909,0 -355.97514,159.021 -355.97514,355.181 0,196.149996 159.37605,355.169996 355.97514,355.169996 196.59991,0 355.97491,-159.02 355.97491,-355.169996 0,-196.16 -159.375,-355.181 -355.97491,-355.181 z m -356.47514,355.181 c 0,-196.44 159.60005,-355.679 356.47514,-355.679 196.87591,0 356.47491,159.239 356.47491,355.679 0,196.429996 -159.599,355.669996 -356.47491,355.669996 -196.87509,0 -356.47514,-159.24 -356.47514,-355.669996 z"
     fill="#ffffff"
     id="path16" />
  <path
     fill-rule="evenodd"
     clip-rule="evenodd"
     d="m -750.36216,-664.73327 c -209.05309,0 -378.52414,169.09 -378.52414,377.68 0,208.579996 169.47105,377.669996 378.52414,377.669996 209.05291,0 378.52491,-169.09 378.52491,-377.669996 0,-208.59 -169.472,-377.68 -378.52491,-377.68 z m -379.02414,377.68 c 0,-208.86 169.69505,-378.178 379.02414,-378.178 209.32891,0 379.02391,169.318 379.02391,378.178 0,208.859996 -169.695,378.169996 -379.02391,378.169996 -209.32909,0 -379.02414,-169.31 -379.02414,-378.169996 z"
     fill="#ffffff"
     id="path17" />
  <path
     fill-rule="evenodd"
     clip-rule="evenodd"
     d="m -750.36216,-687.24227 c -221.51309,0 -401.08414,179.169 -401.08414,400.189 0,221.009996 179.57105,400.18 401.08414,400.18 221.51291,0 401.08391,-179.170004 401.08391,-400.18 0,-221.02 -179.571,-400.189 -401.08391,-400.189 z m -401.58414,400.189 c 0,-221.3 179.79505,-400.687 401.58414,-400.687 221.78891,0 401.58391,179.387 401.58391,400.687 0,221.289996 -179.795,400.68 -401.58391,400.68 -221.78909,0 -401.58414,-179.390004 -401.58414,-400.68 z"
     fill="#ffffff"
     id="path18" />
  <path
     fill-rule="evenodd"
     clip-rule="evenodd"
     d="m -750.36216,-709.74127 c -233.96609,0 -423.63414,189.238 -423.63414,422.688 0,233.439996 189.66805,422.68 423.63414,422.68 233.96591,0 423.63391,-189.240004 423.63391,-422.68 0,-233.45 -189.668,-422.688 -423.63391,-422.688 z m -424.13314,422.688 c 0,-233.72 189.89105,-423.186 424.13314,-423.186 234.24291,0 424.13291,189.466 424.13291,423.186 0,233.709996 -189.89,423.18 -424.13291,423.18 -234.24209,0 -424.13314,-189.470004 -424.13314,-423.18 z"
     fill="#ffffff"
     id="path19" />
  <path
     fill-rule="evenodd"
     clip-rule="evenodd"
     d="m -750.36216,-732.24927 c -246.42609,0 -446.19314,199.316 -446.19314,445.196 0,245.869996 199.76705,445.19 446.19314,445.19 246.42591,0 446.19291,-199.320004 446.19291,-445.19 0,-245.88 -199.767,-445.196 -446.19291,-445.196 z m -446.69314,445.196 c 0,-246.15 199.99105,-445.695 446.69314,-445.695 246.70191,0 446.69291,199.545 446.69291,445.695 0,246.139996 -199.991,445.69 -446.69291,445.69 -246.70209,0 -446.69314,-199.550004 -446.69314,-445.69 z"
     fill="#ffffff"
     id="path20" />
  <path
     fill-rule="evenodd"
     clip-rule="evenodd"
     d="m -750.36216,-754.74827 c -258.87914,0 -468.74314,209.395 -468.74314,467.695 0,258.299996 209.864,467.69 468.74314,467.69 258.87991,0 468.74291,-209.390004 468.74291,-467.69 0,-258.3 -209.863,-467.695 -468.74291,-467.695 z m -469.24214,467.695 c 0,-258.58 210.087,-468.194 469.24214,-468.194 259.15591,0 469.24291,209.614 469.24291,468.194 0,258.569996 -210.087,468.19 -469.24291,468.19 -259.15514,0 -469.24214,-209.620004 -469.24214,-468.19 z"
     fill="#ffffff"
     id="path21" />
  <path
     fill-rule="evenodd"
     clip-rule="evenodd"
     d="m -259.06025,-287.30327 c -0.135,-270.62 -220.039,-490.144 -491.30172,-489.954 -271.19633,0.189 -490.96333,219.664 -491.30233,490.204 -0.34,270.979996 219.796,490.42 491.29192,490.2 271.33613,-0.22 491.30213,-219.480004 491.30213,-490.2 v -0.25 z m 0.49,0.5 h 0.01 v -0.25 c 0,-271.01 -220.18,-490.893 -491.80209,-490.703 -271.47196,0.19 -491.46196,219.883 -491.80196,490.703 -0.34,271.259996 220.02,490.91 491.79235,490.7 271.5287,-0.22 491.6667,-219.570004 491.8017,-490.45 z"
     fill="#ffffff"
     id="path22" />
  <path
     fill-rule="evenodd"
     clip-rule="evenodd"
     d="m -750.36216,-1128.0363 c -9.75433,0 -17.66179,7.89 -17.66179,17.622 0,9.733 7.90746,17.622 17.66179,17.622 9.75441,0 17.66181,-7.889 17.66181,-17.622 0,-9.732 -7.9074,-17.622 -17.66181,-17.622 z m -18.16159,17.622 c 0,-10.008 8.13123,-18.121 18.16159,-18.121 10.03041,0 18.16161,8.113 18.16161,18.121 0,10.008 -8.1312,18.121 -18.16161,18.121 -10.03036,0 -18.16159,-8.113 -18.16159,-18.121 z"
     fill="#ffffff"
     id="path23" />
  <path
     fill-rule="evenodd"
     clip-rule="evenodd"
     d="m -750.36216,-1150.5353 c -22.20809,0 -40.21139,17.963 -40.21139,40.121 0,22.158 18.0033,40.121 40.21139,40.121 22.20811,0 40.21131,-17.963 40.21131,-40.121 0,-22.158 -18.0032,-40.121 -40.21131,-40.121 z m -40.71119,40.121 c 0,-22.434 18.2271,-40.62 40.71119,-40.62 22.48421,0 40.71111,18.186 40.71111,40.62 0,22.434 -18.2269,40.62 -40.71111,40.62 -22.48409,0 -40.71119,-18.186 -40.71119,-40.62 z"
     fill="#ffffff"
     id="path24" />
  <path
     fill-rule="evenodd"
     clip-rule="evenodd"
     d="m -750.36216,-1173.0443 c -34.66739,0 -62.77089,28.041 -62.77089,62.63 0,34.59 28.1035,62.63 62.77089,62.63 34.66741,0 62.77091,-28.04 62.77091,-62.63 0,-34.589 -28.1035,-62.63 -62.77091,-62.63 z m -63.27069,62.63 c 0,-34.865 28.3273,-63.129 63.27069,-63.129 34.94341,0 63.27071,28.264 63.27071,63.129 0,34.865 -28.3273,63.129 -63.27071,63.129 -34.94339,0 -63.27069,-28.264 -63.27069,-63.129 z"
     fill="#ffffff"
     id="path25" />
  <path
     fill-rule="evenodd"
     clip-rule="evenodd"
     d="m -750.36216,-1195.5433 c -47.12119,0 -85.32039,38.114 -85.32039,85.129 0,47.016 38.1992,85.129 85.32039,85.129 47.12121,0 85.32051,-38.113 85.32051,-85.129 0,-47.015 -38.1993,-85.129 -85.32051,-85.129 z m -85.82019,85.129 c 0,-47.291 38.423,-85.628 85.82019,-85.628 47.39721,0 85.82021,38.337 85.82021,85.628 0,47.291 -38.423,85.628 -85.82021,85.628 -47.39719,0 -85.82019,-38.337 -85.82019,-85.628 z"
     fill="#ffffff"
     id="path26" />
  <path
     fill-rule="evenodd"
     clip-rule="evenodd"
     d="m -750.36216,-1218.0523 c -59.58049,0 -107.88009,48.191 -107.88009,107.638 0,59.447 48.2996,107.638 107.88009,107.638 59.58051,0 107.87991,-48.191 107.87991,-107.638 0,-59.447 -48.2994,-107.638 -107.87991,-107.638 z m -108.38009,107.638 c 0,-59.722 48.5236,-108.137 108.38009,-108.137 59.85651,0 108.37991,48.415 108.37991,108.137 0,59.722 -48.5234,108.137 -108.37991,108.137 -59.85649,0 -108.38009,-48.415 -108.38009,-108.137 z"
     fill="#ffffff"
     id="path27" />
  <path
     fill-rule="evenodd"
     clip-rule="evenodd"
     d="m -750.36216,-1240.5513 c -72.03419,0 -130.42909,58.264 -130.42909,130.137 0,71.873 58.3949,130.13703 130.42909,130.13703 72.03431,0 130.42991,-58.26403 130.42991,-130.13703 0,-71.873 -58.3956,-130.137 -130.42991,-130.137 z m -130.92909,130.137 c 0,-72.148 58.6188,-130.636 130.92909,-130.636 72.31031,0 130.92891,58.488 130.92891,130.636 0,72.148 -58.6186,130.63603 -130.92891,130.63603 -72.31029,0 -130.92909,-58.48803 -130.92909,-130.63603 z"
     fill="#ffffff"
     id="path28" />
  <path
     fill-rule="evenodd"
     clip-rule="evenodd"
     d="m -750.36216,-1263.0503 c -84.48799,0 -152.97909,68.338 -152.97909,152.636 0,84.299 68.4911,152.63603 152.97909,152.63603 84.48801,0 152.97891,-68.33703 152.97891,-152.63603 0,-84.298 -68.4909,-152.636 -152.97891,-152.636 z m -153.47909,152.636 c 0,-84.574 68.7151,-153.134 153.47909,-153.134 84.76411,0 153.47891,68.56 153.47891,153.134 0,84.574 -68.7148,153.13503 -153.47891,153.13503 -84.76399,0 -153.47909,-68.56103 -153.47909,-153.13503 z"
     fill="#ffffff"
     id="path29" />
  <path
     fill-rule="evenodd"
     clip-rule="evenodd"
     d="m -750.36216,-1285.5593 c -96.94729,0 -175.53909,78.415 -175.53909,175.145 0,96.73 78.5918,175.14503 175.53909,175.14503 96.94691,0 175.53891,-78.41503 175.53891,-175.14503 0,-96.73 -78.592,-175.145 -175.53891,-175.145 z m -176.03809,175.145 c 0,-97.005 78.8148,-175.643 176.03809,-175.643 97.22291,0 176.03891,78.638 176.03891,175.643 0,97.006 -78.816,175.64403 -176.03891,175.64403 -97.22329,0 -176.03809,-78.63803 -176.03809,-175.64403 z"
     fill="#ffffff"
     id="path30" />
  <path
     fill-rule="evenodd"
     clip-rule="evenodd"
     d="m -750.36216,-1308.0583 c -109.40109,0 -198.08809,88.488 -198.08809,197.644 0,109.156 88.687,197.64403 198.08809,197.64403 109.40091,0 198.08791,-88.48803 198.08791,-197.64403 0,-109.156 -88.687,-197.644 -198.08791,-197.644 z m -198.58809,197.644 c 0,-109.431 88.911,-198.142 198.58809,-198.142 109.67691,0 198.58791,88.711 198.58791,198.142 0,109.431 -88.911,198.14303 -198.58791,198.14303 -109.67709,0 -198.58809,-88.71203 -198.58809,-198.14303 z"
     fill="#ffffff"
     id="path31" />
  <path
     fill-rule="evenodd"
     clip-rule="evenodd"
     d="m -750.36216,-1330.5673 c -121.86009,0 -220.64809,98.566 -220.64809,220.153 0,121.58703 98.788,220.15303 220.64809,220.15303 121.85991,0 220.64791,-98.566 220.64791,-220.15303 0,-121.587 -98.788,-220.153 -220.64791,-220.153 z m -221.14709,220.153 c 0,-121.862 99.011,-220.651 221.14709,-220.651 122.13591,0 221.14791,98.789 221.14791,220.651 0,121.86303 -99.012,220.65203 -221.14791,220.65203 -122.13609,0 -221.14709,-98.789 -221.14709,-220.65203 z"
     fill="#ffffff"
     id="path32" />
  <path
     fill-rule="evenodd"
     clip-rule="evenodd"
     d="m -750.36216,-1353.0663 c -134.31409,0 -243.19709,108.639 -243.19709,242.652 0,134.01303 108.883,242.65203 243.19709,242.65203 134.31391,0 243.19691,-108.639 243.19691,-242.65203 0,-134.013 -108.883,-242.652 -243.19691,-242.652 z m -243.69709,242.652 c 0,-134.288 109.107,-243.15 243.69709,-243.15 134.58991,0 243.69691,108.862 243.69691,243.15 0,134.28903 -109.107,243.15103 -243.69691,243.15103 -134.59009,0 -243.69709,-108.862 -243.69709,-243.15103 z"
     fill="#ffffff"
     id="path33" />
  <path
     fill-rule="evenodd"
     clip-rule="evenodd"
     d="m -750.36216,-1375.5753 c -146.77309,0 -265.75714,118.717 -265.75714,265.161 0,146.44403 118.98405,265.16103 265.75714,265.16103 146.77391,0 265.75691,-118.717 265.75691,-265.16103 0,-146.444 -118.983,-265.161 -265.75691,-265.161 z m -266.25714,265.161 c 0,-146.72 119.20805,-265.659 266.25714,-265.659 147.04991,0 266.25691,118.939 266.25691,265.659 0,146.72003 -119.207,265.66003 -266.25691,265.66003 -147.04909,0 -266.25714,-118.94 -266.25714,-265.66003 z"
     fill="#ffffff"
     id="path34" />
  <path
     fill-rule="evenodd"
     clip-rule="evenodd"
     d="m -750.36216,-1398.0743 c -159.22709,0 -288.30614,128.79 -288.30614,287.66 0,158.87003 129.07905,287.66003 288.30614,287.66003 159.22691,0 288.30591,-128.79 288.30591,-287.66003 0,-158.87 -129.079,-287.66 -288.30591,-287.66 z m -288.80614,287.66 c 0,-159.145 129.30305,-288.158 288.80614,-288.158 159.50291,0 288.80591,129.013 288.80591,288.158 0,159.14603 -129.303,288.15903 -288.80591,288.15903 -159.50309,0 -288.80614,-129.013 -288.80614,-288.15903 z"
     fill="#ffffff"
     id="path35" />
  <path
     fill-rule="evenodd"
     clip-rule="evenodd"
     d="m -750.36216,-1420.5833 c -171.68609,0 -310.86614,138.868 -310.86614,310.169 0,171.30203 139.18005,310.16903 310.86614,310.16903 171.68691,0 310.86591,-138.867 310.86591,-310.16903 0,-171.301 -139.179,-310.169 -310.86591,-310.169 z m -311.36614,310.169 c 0,-171.577 139.40405,-310.667 311.36614,-310.667 171.96291,0 311.36591,139.09 311.36591,310.667 0,171.57703 -139.403,310.66803 -311.36591,310.66803 -171.96209,0 -311.36614,-139.091 -311.36614,-310.66803 z"
     fill="#ffffff"
     id="path36" />
  <path
     fill-rule="evenodd"
     clip-rule="evenodd"
     d="m -750.36216,-1443.0823 c -184.14009,0 -333.41514,148.941 -333.41514,332.668 0,183.72803 149.27505,332.66803 333.41514,332.66803 184.13991,0 333.41591,-148.94 333.41591,-332.66803 0,-183.727 -149.276,-332.668 -333.41591,-332.668 z m -333.91514,332.668 c 0,-184.003 149.49905,-333.166 333.91514,-333.166 184.41591,0 333.91491,149.163 333.91491,333.166 0,184.00303 -149.499,333.16703 -333.91491,333.16703 -184.41609,0 -333.91514,-149.164 -333.91514,-333.16703 z"
     fill="#ffffff"
     id="path37" />
  <path
     fill-rule="evenodd"
     clip-rule="evenodd"
     d="m -750.36216,-1465.5913 c -196.59909,0 -355.97514,159.018 -355.97514,355.177 0,196.15903 159.37605,355.17703 355.97514,355.17703 196.59991,0 355.97491,-159.018 355.97491,-355.17703 0,-196.159 -159.375,-355.177 -355.97491,-355.177 z m -356.47514,355.177 c 0,-196.434 159.60005,-355.675 356.47514,-355.675 196.87591,0 356.47491,159.241 356.47491,355.675 0,196.43403 -159.599,355.67603 -356.47491,355.67603 -196.87509,0 -356.47514,-159.242 -356.47514,-355.67603 z"
     fill="#ffffff"
     id="path38" />
  <path
     fill-rule="evenodd"
     clip-rule="evenodd"
     d="m -750.36216,-1488.0903 c -209.05309,0 -378.52414,169.092 -378.52414,377.676 0,208.58503 169.47105,377.67603 378.52414,377.67603 209.05291,0 378.52491,-169.091 378.52491,-377.67603 0,-208.584 -169.472,-377.676 -378.52491,-377.676 z m -379.02414,377.676 c 0,-208.86 169.69505,-378.174 379.02414,-378.174 209.32891,0 379.02391,169.314 379.02391,378.174 0,208.86003 -169.695,378.17503 -379.02391,378.17503 -209.32909,0 -379.02414,-169.315 -379.02414,-378.17503 z"
     fill="#ffffff"
     id="path39" />
  <path
     fill-rule="evenodd"
     clip-rule="evenodd"
     d="m -750.36216,-1510.5988 c -221.51309,0 -401.08414,179.1685 -401.08414,400.1845 0,221.01603 179.57105,400.18503 401.08414,400.18503 221.51291,0 401.08391,-179.169 401.08391,-400.18503 0,-221.016 -179.571,-400.1845 -401.08391,-400.1845 z m -401.58414,400.1845 c 0,-221.291 179.79505,-400.6831 401.58414,-400.6831 221.78891,0 401.58391,179.3921 401.58391,400.6831 0,221.29103 -179.795,400.68403 -401.58391,400.68403 -221.78909,0 -401.58414,-179.393 -401.58414,-400.68403 z"
     fill="#ffffff"
     id="path40" />
  <path
     fill-rule="evenodd"
     clip-rule="evenodd"
     d="m -750.36216,-1533.0978 c -233.96609,0 -423.63414,189.2415 -423.63414,422.6835 0,233.44203 189.66805,422.68403 423.63414,422.68403 233.96591,0 423.63391,-189.242 423.63391,-422.68403 0,-233.442 -189.668,-422.6835 -423.63391,-422.6835 z m -424.13314,422.6835 c 0,-233.717 189.89105,-423.1821 424.13314,-423.1821 234.24291,0 424.13291,189.4651 424.13291,423.1821 0,233.71703 -189.89,423.18203 -424.13291,423.18203 -234.24209,0 -424.13314,-189.465 -424.13314,-423.18203 z"
     fill="#ffffff"
     id="path41" />
  <path
     fill-rule="evenodd"
     clip-rule="evenodd"
     d="m -750.36216,-1555.6067 c -246.42609,0 -446.19314,199.3194 -446.19314,445.1924 0,245.87303 199.76705,445.19303 446.19314,445.19303 246.42591,0 446.19291,-199.32 446.19291,-445.19303 0,-245.873 -199.767,-445.1924 -446.19291,-445.1924 z m -446.69314,445.1924 c 0,-246.148 199.99105,-445.6911 446.69314,-445.6911 246.70191,0 446.69291,199.5431 446.69291,445.6911 0,246.14903 -199.991,445.69103 -446.69291,445.69103 -246.70209,0 -446.69314,-199.542 -446.69314,-445.69103 z"
     fill="#ffffff"
     id="path42" />
  <path
     fill-rule="evenodd"
     clip-rule="evenodd"
     d="m -750.36216,-1578.1057 c -258.87914,0 -468.74314,209.3924 -468.74314,467.6914 0,258.29903 209.864,467.69203 468.74314,467.69203 258.87991,0 468.74291,-209.393 468.74291,-467.69203 0,-258.299 -209.863,-467.6914 -468.74291,-467.6914 z m -469.24214,467.6914 c 0,-258.574 210.087,-468.1901 469.24214,-468.1901 259.15591,0 469.24291,209.6161 469.24291,468.1901 0,258.57403 -210.087,468.19003 -469.24291,468.19003 -259.15514,0 -469.24214,-209.616 -469.24214,-468.19003 z"
     fill="#ffffff"
     id="path43" />
  <path
     fill-rule="evenodd"
     clip-rule="evenodd"
     d="m -750.36228,-1600.6146 c -271.36602,-0.1197 -491.34202,219.3233 -491.30202,490.2003 0.04,270.72803 219.966,490.18103 491.29216,490.20103 271.32589,0.01 491.29189,-219.463 491.30189,-490.20103 v -0.249 h 0.01 c -0.125,-270.613 -220.049,-489.8318 -491.30203,-489.9513 z m 491.79203,490.4503 h 0.01 v -0.25 c 0.01,-271.003 -220.19,-490.5793 -491.80178,-490.699 -271.64227,-0.1197 -491.84227,219.547 -491.80227,490.699 0.04,271.00303 220.19,490.67903 491.7921,490.69903 271.51895,0.01 491.65695,-219.551 491.80195,-490.44903 z"
     fill="#ffffff"
     id="path44" />
  <path
     fill-rule="evenodd"
     clip-rule="evenodd"
     d="m -35.383251,-715.91427 c -9.755,0 -17.662,7.89 -17.662,17.622 0,9.733 7.907,17.623 17.662,17.623 9.754,0 17.662,-7.89 17.662,-17.623 0,-9.732 -7.908,-17.622 -17.662,-17.622 z m -18.162,17.622 c 0,-10.007 8.131,-18.12 18.162,-18.12 10.03,0 18.161,8.113 18.161,18.12 0,10.008 -8.131,18.121 -18.161,18.121 -10.031,0 -18.162,-8.113 -18.162,-18.121 z"
     fill="#ffffff"
     id="path45" />
  <path
     fill-rule="evenodd"
     clip-rule="evenodd"
     d="m -35.383251,-738.41327 c -22.208,0 -40.212,17.963 -40.212,40.121 0,22.159 18.004,40.122 40.212,40.122 22.208,0 40.2110004,-17.963 40.2110004,-40.122 0,-22.158 -18.0030004,-40.121 -40.2110004,-40.121 z m -40.711,40.121 c 0,-22.433 18.227,-40.619 40.711,-40.619 22.484,0 40.7110004,18.186 40.7110004,40.619 0,22.434 -18.2270004,40.62 -40.7110004,40.62 -22.484,0 -40.711,-18.186 -40.711,-40.62 z"
     fill="#ffffff"
     id="path46" />
  <path
     fill-rule="evenodd"
     clip-rule="evenodd"
     d="m -35.383251,-760.92227 c -34.668,0 -62.771,28.041 -62.771,62.63 0,34.59 28.103,62.631 62.771,62.631 34.66700042,0 62.771,-28.041 62.771,-62.631 0,-34.589 -28.10399958,-62.63 -62.771,-62.63 z m -63.271,62.63 c 0,-34.865 28.327,-63.128 63.271,-63.128 34.94300042,0 63.27,28.263 63.27,63.128 0,34.866 -28.32699958,63.129 -63.27,63.129 -34.944,0 -63.271,-28.263 -63.271,-63.129 z"
     fill="#ffffff"
     id="path47" />
  <path
     fill-rule="evenodd"
     clip-rule="evenodd"
     d="m -35.383251,-783.42127 c -47.122,0 -85.320999,38.114 -85.320999,85.129 0,47.016 38.198999,85.13 85.320999,85.13 47.121,0 85.32,-38.114 85.32,-85.13 0,-47.015 -38.199,-85.129 -85.32,-85.129 z m -85.820999,85.129 c 0,-47.29 38.422999,-85.627 85.820999,-85.627 47.397,0 85.82,38.337 85.82,85.627 0,47.291 -38.423,85.628 -85.82,85.628 -47.398,0 -85.820999,-38.337 -85.820999,-85.628 z"
     fill="#ffffff"
     id="path48" />
  <path
     fill-rule="evenodd"
     clip-rule="evenodd"
     d="m -35.383251,-805.93027 c -59.581,0 -107.879999,48.192 -107.879999,107.638 0,59.447 48.298999,107.639 107.879999,107.639 59.58,0 107.88,-48.192 107.88,-107.639 0,-59.446 -48.3,-107.638 -107.88,-107.638 z m -108.379999,107.638 c 0,-59.722 48.522999,-108.136 108.379999,-108.136 59.856,0 108.38,48.414 108.38,108.136 0,59.723 -48.524,108.139 -108.38,108.139 -59.857,0 -108.379999,-48.416 -108.379999,-108.139 z"
     fill="#ffffff"
     id="path49" />
  <path
     fill-rule="evenodd"
     clip-rule="evenodd"
     d="m -35.383251,-828.42927 c -72.034999,0 -130.429999,58.265 -130.429999,130.137 0,71.873 58.395,130.139 130.429999,130.139 72.034,0 130.429,-58.266 130.429,-130.139 0,-71.872 -58.395,-130.137 -130.429,-130.137 z m -130.929999,130.137 c 0,-72.148 58.619,-130.635 130.929999,-130.635 72.31,0 130.929,58.487 130.929,130.635 0,72.149 -58.619,130.639 -130.929,130.639 -72.310999,0 -130.929999,-58.49 -130.929999,-130.639 z"
     fill="#ffffff"
     id="path50" />
  <path
     fill-rule="evenodd"
     clip-rule="evenodd"
     d="m -35.383251,-850.92827 c -84.487999,0 -152.978999,68.338 -152.978999,152.636 0,84.299 68.491,152.639 152.978999,152.639 84.488,0 152.979001,-68.34 152.979001,-152.639 0,-84.298 -68.491001,-152.636 -152.979001,-152.636 z m -153.478999,152.636 c 0,-84.573 68.715,-153.134 153.478999,-153.134 84.764,0 153.479001,68.561 153.479001,153.134 0,84.574 -68.715001,153.139 -153.479001,153.139 -84.763999,0 -153.478999,-68.565 -153.478999,-153.139 z"
     fill="#ffffff"
     id="path51" />
  <path
     fill-rule="evenodd"
     clip-rule="evenodd"
     d="m -35.383251,-873.43627 c -96.947999,0 -175.538999,78.415 -175.538999,175.144 0,96.73 78.591,175.149 175.538999,175.149 96.947,0 175.538001,-78.419 175.538001,-175.149 0,-96.729 -78.591001,-175.144 -175.538001,-175.144 z m -176.038999,175.144 c 0,-97.005 78.815,-175.643 176.038999,-175.643 97.223,0 176.038001,78.638 176.038001,175.643 0,97.006 -78.815001,175.649 -176.038001,175.649 -97.223999,0 -176.038999,-78.643 -176.038999,-175.649 z"
     fill="#ffffff"
     id="path52" />
  <path
     fill-rule="evenodd"
     clip-rule="evenodd"
     d="m -35.383251,-895.93527 c -109.400999,0 -198.087999,88.488 -198.087999,197.643 0,109.159 88.687,197.649 198.087999,197.649 109.401,0 198.088001,-88.49 198.088001,-197.649 0,-109.155 -88.687001,-197.643 -198.088001,-197.643 z m -198.587999,197.643 c 0,-109.431 88.911,-198.142 198.587999,-198.142 109.677,0 198.588001,88.711 198.588001,198.142 0,109.429 -88.911001,198.139 -198.588001,198.139 -109.676999,0 -198.587999,-88.71 -198.587999,-198.139 z"
     fill="#ffffff"
     id="path53" />
  <path
     fill-rule="evenodd"
     clip-rule="evenodd"
     d="m -35.383251,-918.44427 c -121.860999,0 -220.647999,98.565 -220.647999,220.152 0,121.589 98.787,220.149 220.647999,220.149 121.86,0 220.647001,-98.56 220.647001,-220.149 0,-121.587 -98.787001,-220.152 -220.647001,-220.152 z m -221.147999,220.152 c 0,-121.862 99.011,-220.651 221.147999,-220.651 122.136,0 221.147001,98.789 221.147001,220.651 0,121.859 -99.011001,220.649 -221.147001,220.649 -122.136999,0 -221.147999,-98.79 -221.147999,-220.649 z"
     fill="#ffffff"
     id="path54" />
  <path
     fill-rule="evenodd"
     clip-rule="evenodd"
     d="m -35.383251,-940.94327 c -134.313999,0 -243.197999,108.639 -243.197999,242.651 0,134.009 108.884,242.649 243.197999,242.649 134.314,0 243.197001,-108.64 243.197001,-242.649 0,-134.012 -108.883001,-242.651 -243.197001,-242.651 z m -243.696999,242.651 c 0,-134.288 109.106,-243.15 243.696999,-243.15 134.59,0 243.697001,108.862 243.697001,243.15 0,134.289 -109.107001,243.149 -243.697001,243.149 -134.590999,0 -243.696999,-108.86 -243.696999,-243.149 z"
     fill="#ffffff"
     id="path55" />
  <path
     fill-rule="evenodd"
     clip-rule="evenodd"
     d="m -35.383251,-963.45227 c -146.773999,0 -265.756999,118.716 -265.756999,265.16 0,146.449 118.983,265.159 265.756999,265.159 146.773001,0 265.756001,-118.71 265.756001,-265.159 0,-146.444 -118.983,-265.16 -265.756001,-265.16 z m -266.256999,265.16 c 0,-146.719 119.207,-265.659 266.256999,-265.659 147.049001,0 266.256001,118.94 266.256001,265.659 0,146.719 -119.207,265.659 -266.256001,265.659 -147.049999,0 -266.256999,-118.94 -266.256999,-265.659 z"
     fill="#ffffff"
     id="path56" />
  <path
     fill-rule="evenodd"
     clip-rule="evenodd"
     d="m -35.383251,-985.95127 c -159.227999,0 -288.306999,128.789 -288.306999,287.659 0,158.869 129.079,287.659 288.306999,287.659 159.227001,0 288.309001,-128.79 288.309001,-287.659 0,-158.87 -129.082,-287.659 -288.309001,-287.659 z m -288.805999,287.659 c 0,-159.145 129.302,-288.158 288.805999,-288.158 159.503001,0 288.809001,129.013 288.809001,288.158 0,159.149 -129.306,288.159 -288.809001,288.159 -159.503999,0 -288.805999,-129.01 -288.805999,-288.159 z"
     fill="#ffffff"
     id="path57" />
  <path
     fill-rule="evenodd"
     clip-rule="evenodd"
     d="m -35.383251,-1008.4603 c -171.686999,0 -310.865999,138.86703 -310.865999,310.16803 0,171.299 139.179,310.169 310.865999,310.169 171.686001,0 310.869001,-138.87 310.869001,-310.169 0,-171.301 -139.183,-310.16803 -310.869001,-310.16803 z m -311.365999,310.16803 c 0,-171.576 139.403,-310.66703 311.365999,-310.66703 171.962001,0 311.369001,139.09103 311.369001,310.66703 0,171.579 -139.407,310.669 -311.369001,310.669 -171.962999,0 -311.365999,-139.09 -311.365999,-310.669 z"
     fill="#ffffff"
     id="path58" />
  <path
     fill-rule="evenodd"
     clip-rule="evenodd"
     d="m -35.383251,-1030.9593 c -184.140999,0 -333.415999,148.94003 -333.415999,332.66703 0,183.729 149.275,332.669 333.415999,332.669 184.140001,0 333.419001,-148.94 333.419001,-332.669 0,-183.727 -149.279,-332.66703 -333.419001,-332.66703 z m -333.915999,332.66703 c 0,-184.002 149.499,-333.16603 333.915999,-333.16603 184.416001,0 333.919001,149.16403 333.919001,333.16603 0,183.999 -149.503,333.169 -333.919001,333.169 -184.416999,0 -333.915999,-149.17 -333.915999,-333.169 z"
     fill="#ffffff"
     id="path59" />
  <path
     fill-rule="evenodd"
     clip-rule="evenodd"
     d="m -35.383251,-1053.4683 c -196.599999,0 -355.974999,159.01803 -355.974999,355.17603 0,196.159 159.375,355.179 355.974999,355.179 196.599001,0 355.979001,-159.02 355.979001,-355.179 0,-196.158 -159.38,-355.17603 -355.979001,-355.17603 z m -356.474999,355.17603 c 0,-196.434 159.599,-355.67503 356.474999,-355.67503 196.875001,0 356.479001,159.24103 356.479001,355.67503 0,196.439 -159.604,355.679 -356.479001,355.679 -196.875999,0 -356.474999,-159.24 -356.474999,-355.679 z"
     fill="#ffffff"
     id="path60" />
  <path
     fill-rule="evenodd"
     clip-rule="evenodd"
     d="m -35.383251,-1075.9673 c -209.053999,0 -378.524999,169.09103 -378.524999,377.67503 0,208.589 169.471,377.679 378.524999,377.679 209.053001,0 378.529001,-169.09 378.529001,-377.679 0,-208.584 -169.476,-377.67503 -378.529001,-377.67503 z m -379.024999,377.67503 c 0,-208.859 169.695,-378.17403 379.024999,-378.17403 209.329001,0 379.029001,169.31503 379.029001,378.17403 0,208.859 -169.7,378.179 -379.029001,378.179 -209.329999,0 -379.024999,-169.32 -379.024999,-378.179 z"
     fill="#ffffff"
     id="path61" />
  <path
     fill-rule="evenodd"
     clip-rule="evenodd"
     d="m -35.383251,-1098.4763 c -221.512999,0 -401.083999,179.16903 -401.083999,400.18403 0,221.019 179.571,400.189 401.083999,400.189 221.512001,0 401.079001,-179.17 401.079001,-400.189 0,-221.015 -179.567,-400.18403 -401.079001,-400.18403 z m -401.583999,400.18403 c 0,-221.291 179.795,-400.68303 401.583999,-400.68303 221.788001,0 401.579001,179.39203 401.579001,400.68303 0,221.289 -179.791,400.679 -401.579001,400.679 -221.788999,0 -401.583999,-179.39 -401.583999,-400.679 z"
     fill="#ffffff"
     id="path62" />
  <path
     fill-rule="evenodd"
     clip-rule="evenodd"
     d="m -35.383251,-1120.9753 c -233.966999,0 -423.633999,189.24203 -423.633999,422.68303 0,233.439 189.667,422.689 423.633999,422.689 233.966001,0 423.629001,-189.25 423.629001,-422.689 0,-233.441 -189.663,-422.68303 -423.629001,-422.68303 z m -424.133999,422.68303 c 0,-233.717 189.891,-423.18203 424.133999,-423.18203 234.242001,0 424.129001,189.46503 424.129001,423.18203 0,233.719 -189.887,423.179 -424.129001,423.179 -234.242999,0 -424.133999,-189.46 -424.133999,-423.179 z"
     fill="#ffffff"
     id="path63" />
  <path
     fill-rule="evenodd"
     clip-rule="evenodd"
     d="m -35.393251,-1143.4843 c -246.428999,0 -447.162999,199.31803 -447.162999,445.19203 0,245.879 200.734,445.189 447.162999,445.189 246.427001,0 446.189001,-199.31 446.189001,-445.189 0,-245.875 -199.762,-445.19203 -446.189001,-445.19203 z m -447.662999,445.19203 c 0,-246.151 200.96,-445.69103 447.662999,-445.69103 246.703001,0 446.689001,199.54103 446.689001,445.69103 0,246.149 -199.986,445.689 -446.689001,445.689 -246.702999,0 -447.662999,-199.54 -447.662999,-445.689 z"
     fill="#ffffff"
     id="path64" />
  <path
     fill-rule="evenodd"
     clip-rule="evenodd"
     d="m -35.383251,-1165.9833 c -258.879999,0 -468.742999,209.39303 -468.742999,467.69103 0,258.299 209.863,467.689 468.742999,467.689 258.879001,0 468.739001,-209.39 468.739001,-467.689 0,-258.298 -209.86,-467.69103 -468.739001,-467.69103 z m -469.242999,467.69103 c 0,-258.574 210.087,-468.19003 469.242999,-468.19003 259.155001,0 469.239001,209.61603 469.239001,468.19003 0,258.579 -210.084,468.189 -469.239001,468.189 -259.155999,0 -469.242999,-209.61 -469.242999,-468.189 z"
     fill="#ffffff"
     id="path65" />
  <path
     fill-rule="evenodd"
     clip-rule="evenodd"
     d="m -35.393251,-1188.4923 c -271.335999,0 -491.302999,219.47303 -491.302999,490.20003 0,270.729 219.966,489.049 491.303999,490.199 271.754001,1.16 491.538001,-218.78 491.298001,-490.198 -0.24,-270.728 -219.963,-490.20103 -491.299001,-490.20103 z m -491.801999,490.20003 c 0,-271.003 220.189,-490.69903 491.801999,-490.69903 271.612001,0 491.559001,219.69703 491.799001,490.69903 0.24,271.689 -219.767,491.859 -491.800001,490.699 -271.610999,-1.16 -491.800999,-219.69 -491.800999,-490.699 z"
     fill="#ffffff"
     id="path66" />
  <path
     fill-rule="evenodd"
     clip-rule="evenodd"
     d="m -35.383251,106.56673 c -9.755,0 -17.662,7.89 -17.662,17.62 0,9.73 7.907,17.62 17.662,17.62 9.754,0 17.662,-7.89 17.662,-17.62 0,-9.73 -7.908,-17.62 -17.662,-17.62 z m -18.162,17.62 c 0,-10.01 8.131,-18.12 18.162,-18.12 10.03,0 18.161,8.11 18.161,18.12 0,10.01 -8.131,18.12 -18.161,18.12 -10.031,0 -18.162,-8.11 -18.162,-18.12 z"
     fill="#ffffff"
     id="path67"
     style="fill:#b56d2a;fill-opacity:1" />
  <path
     fill-rule="evenodd"
     clip-rule="evenodd"
     d="m -35.383251,84.066726 c -22.208,0 -40.212,17.960004 -40.212,40.120004 0,22.16 18.004,40.12 40.212,40.12 22.208,0 40.2110004,-17.96 40.2110004,-40.12 0,-22.16 -18.0030004,-40.120004 -40.2110004,-40.120004 z m -40.711,40.120004 c 0,-22.43 18.227,-40.620004 40.711,-40.620004 22.484,0 40.7110004,18.190004 40.7110004,40.620004 0,22.43 -18.2270004,40.62 -40.7110004,40.62 -22.484,0 -40.711,-18.19 -40.711,-40.62 z"
     fill="#ffffff"
     id="path68"
     style="fill:#b56d2a;fill-opacity:1" />
  <path
     fill-rule="evenodd"
     clip-rule="evenodd"
     d="m -35.383251,61.556726 c -34.668,0 -62.771,28.04 -62.771,62.630004 0,34.59 28.103,62.63 62.771,62.63 34.66700042,0 62.771,-28.04 62.771,-62.63 0,-34.590004 -28.10399958,-62.630004 -62.771,-62.630004 z m -63.271,62.630004 c 0,-34.860004 28.327,-63.130004 63.271,-63.130004 34.94300042,0 63.27,28.27 63.27,63.130004 0,34.87 -28.32699958,63.13 -63.27,63.13 -34.944,0 -63.271,-28.26 -63.271,-63.13 z"
     fill="#ffffff"
     id="path69"
     style="fill:#b56d2a;fill-opacity:1" />
  <path
     fill-rule="evenodd"
     clip-rule="evenodd"
     d="m -35.383251,39.056726 c -47.122,0 -85.320999,38.12 -85.320999,85.130004 0,47.02 38.198999,85.13 85.320999,85.13 47.121,0 85.32,-38.11 85.32,-85.13 0,-47.010004 -38.199,-85.130004 -85.32,-85.130004 z m -85.820999,85.130004 c 0,-47.290004 38.422999,-85.630004 85.820999,-85.630004 47.397,0 85.82,38.34 85.82,85.630004 0,47.29 -38.423,85.63 -85.82,85.63 -47.398,0 -85.820999,-38.34 -85.820999,-85.63 z"
     fill="#ffffff"
     id="path70"
     style="fill:#b56d2a;fill-opacity:1" />
  <path
     fill-rule="evenodd"
     clip-rule="evenodd"
     d="m -35.383251,16.546726 c -59.581,0 -107.879999,48.19 -107.879999,107.640004 0,59.45 48.298999,107.64 107.879999,107.64 59.58,0 107.88,-48.19 107.88,-107.64 0,-59.450004 -48.3,-107.640004 -107.88,-107.640004 z M -143.76325,124.18673 c 0,-59.720004 48.522999,-108.140004 108.379999,-108.140004 59.856,0 108.38,48.42 108.38,108.140004 0,59.72 -48.524,108.14 -108.38,108.14 -59.857,0 -108.379999,-48.42 -108.379999,-108.14 z"
     fill="#ffffff"
     id="path71"
     style="fill:#b56d2a;fill-opacity:1" />
  <path
     fill-rule="evenodd"
     clip-rule="evenodd"
     d="m -35.383251,-5.9532745 c -72.034999,0 -130.429999,58.2700005 -130.429999,130.1400045 0,71.87 58.395,130.14 130.429999,130.14 72.034,0 130.429,-58.27 130.429,-130.14 0,-71.870004 -58.395,-130.1400045 -130.429,-130.1400045 z M -166.31325,124.18673 c 0,-72.150004 58.619,-130.6300045 130.929999,-130.6300045 72.31,0 130.929,58.4800005 130.929,130.6300045 0,72.15 -58.619,130.64 -130.929,130.64 -72.310999,0 -130.929999,-58.49 -130.929999,-130.64 z"
     fill="#ffffff"
     id="path72"
     style="fill:#b56d2a;fill-opacity:1" />
  <path
     fill-rule="evenodd"
     clip-rule="evenodd"
     d="m -35.383251,-28.453274 c -84.487999,0 -152.978999,68.34 -152.978999,152.640004 0,84.3 68.491,152.64 152.978999,152.64 84.488,0 152.979001,-68.34 152.979001,-152.64 0,-84.300004 -68.491001,-152.640004 -152.979001,-152.640004 z M -188.86225,124.18673 c 0,-84.570004 68.715,-153.130004 153.478999,-153.130004 84.764,0 153.479001,68.56 153.479001,153.130004 0,84.57 -68.715001,153.14 -153.479001,153.14 -84.763999,0 -153.478999,-68.57 -153.478999,-153.14 z"
     fill="#ffffff"
     id="path73"
     style="fill:#b56d2a;fill-opacity:1" />
  <path
     fill-rule="evenodd"
     clip-rule="evenodd"
     d="m -35.383251,-50.953274 c -96.947999,0 -175.538999,78.41 -175.538999,175.140004 0,96.73 78.591,175.15 175.538999,175.15 96.947,0 175.538001,-78.42 175.538001,-175.15 0,-96.730004 -78.591001,-175.140004 -175.538001,-175.140004 z M -211.42225,124.18673 c 0,-97.000004 78.815,-175.640004 176.038999,-175.640004 97.223,0 176.038001,78.64 176.038001,175.640004 0,97.01 -78.815001,175.64 -176.038001,175.64 -97.223999,0 -176.038999,-78.63 -176.038999,-175.64 z"
     fill="#ffffff"
     id="path74"
     style="fill:#b56d2a;fill-opacity:1" />
  <path
     fill-rule="evenodd"
     clip-rule="evenodd"
     d="m -35.383251,-73.453274 c -109.400999,0 -198.087999,88.48 -198.087999,197.640004 0,109.16 88.687,197.64 198.087999,197.64 109.401,0 198.088001,-88.48 198.088001,-197.64 0,-109.160004 -88.687001,-197.640004 -198.088001,-197.640004 z M -233.97125,124.18673 c 0,-109.430004 88.911,-198.140004 198.587999,-198.140004 109.677,0 198.588001,88.71 198.588001,198.140004 0,109.43 -88.911001,198.14 -198.588001,198.14 -109.676999,0 -198.587999,-88.71 -198.587999,-198.14 z"
     fill="#ffffff"
     id="path75"
     style="fill:#b56d2a;fill-opacity:1" />
  <path
     fill-rule="evenodd"
     clip-rule="evenodd"
     d="m -35.383251,-95.963274 c -121.860999,0 -220.647999,98.5599995 -220.647999,220.150004 0,121.59 98.787,220.15 220.647999,220.15 121.86,0 220.647001,-98.56 220.647001,-220.15 0,-121.5900045 -98.787001,-220.150004 -220.647001,-220.150004 z M -256.53125,124.18673 c 0,-121.8600045 99.011,-220.650004 221.147999,-220.650004 122.136,0 221.147001,98.7899995 221.147001,220.650004 0,121.86 -99.011001,220.65 -221.147001,220.65 -122.136999,0 -221.147999,-98.79 -221.147999,-220.65 z"
     fill="#ffffff"
     id="path76"
     style="fill:#b56d2a;fill-opacity:1" />
  <path
     fill-rule="evenodd"
     clip-rule="evenodd"
     d="m -35.383251,-118.46327 c -134.313999,0 -243.197999,108.6399955 -243.197999,242.65 0,134.01 108.884,242.65 243.197999,242.65 134.314,0 243.197001,-108.64 243.197001,-242.65 0,-134.0100045 -108.883001,-242.65 -243.197001,-242.65 z m -243.696999,242.65 c 0,-134.290004 109.106,-243.15 243.696999,-243.15 134.59,0 243.697001,108.859996 243.697001,243.15 0,134.29 -109.107001,243.15 -243.697001,243.15 -134.590999,0 -243.696999,-108.86 -243.696999,-243.15 z"
     fill="#ffffff"
     id="path77"
     style="fill:#b56d2a;fill-opacity:1" />
  <path
     fill-rule="evenodd"
     clip-rule="evenodd"
     d="m -35.383251,-140.97327 c -146.773999,0 -265.756999,118.719996 -265.756999,265.16 0,146.45 118.983,265.16 265.756999,265.16 146.773001,0 265.756001,-118.71 265.756001,-265.16 0,-146.440004 -118.983,-265.16 -265.756001,-265.16 z m -266.256999,265.16 c 0,-146.720004 119.207,-265.66 266.256999,-265.66 147.049001,0 266.256001,118.939996 266.256001,265.66 0,146.72 -119.207,265.66 -266.256001,265.66 -147.049999,0 -266.256999,-118.94 -266.256999,-265.66 z"
     fill="#ffffff"
     id="path78"
     style="fill:#b56d2a;fill-opacity:1" />
  <path
     fill-rule="evenodd"
     clip-rule="evenodd"
     d="m -35.383251,-163.47327 c -159.227999,0 -288.306999,128.789996 -288.306999,287.66 0,158.87 129.079,287.66 288.306999,287.66 159.227001,0 288.309001,-128.79 288.309001,-287.66 0,-158.870004 -129.082,-287.66 -288.309001,-287.66 z m -288.805999,287.66 c 0,-159.140004 129.302,-288.16 288.805999,-288.16 159.503001,0 288.809001,129.019996 288.809001,288.16 0,159.15 -129.306,288.16 -288.809001,288.16 -159.503999,0 -288.805999,-129.01 -288.805999,-288.16 z"
     fill="#ffffff"
     id="path79"
     style="fill:#b56d2a;fill-opacity:1" />
  <path
     fill-rule="evenodd"
     clip-rule="evenodd"
     d="m -35.383251,-185.98327 c -171.686999,0 -310.865999,138.869996 -310.865999,310.17 0,171.3 139.179,310.17 310.865999,310.17 171.686001,0 310.869001,-138.87 310.869001,-310.17 0,-171.300004 -139.183,-310.17 -310.869001,-310.17 z m -311.365999,310.17 c 0,-171.580004 139.403,-310.67 311.365999,-310.67 171.962001,0 311.369001,139.089996 311.369001,310.67 0,171.58 -139.407,310.67 -311.369001,310.67 -171.962999,0 -311.365999,-139.09 -311.365999,-310.67 z"
     fill="#ffffff"
     id="path80"
     style="fill:#b56d2a;fill-opacity:1" />
  <path
     fill-rule="evenodd"
     clip-rule="evenodd"
     d="m -35.383251,-208.48327 c -184.140999,0 -333.415999,148.939996 -333.415999,332.67 0,183.73 149.275,332.67 333.415999,332.67 184.140001,0 333.419001,-148.94 333.419001,-332.67 0,-183.730004 -149.279,-332.67 -333.419001,-332.67 z m -333.915999,332.67 c 0,-184.000004 149.499,-333.17 333.915999,-333.17 184.416001,0 333.919001,149.169996 333.919001,333.17 0,184 -149.503,333.17 -333.919001,333.17 -184.416999,0 -333.915999,-149.17 -333.915999,-333.17 z"
     fill="#ffffff"
     id="path81"
     style="fill:#b56d2a;fill-opacity:1" />
  <path
     fill-rule="evenodd"
     clip-rule="evenodd"
     d="m -35.383251,-230.99327 c -196.599999,0 -355.974999,159.019996 -355.974999,355.18 0,196.16 159.375,355.18 355.974999,355.18 196.599001,0 355.979001,-159.02 355.979001,-355.18 0,-196.160004 -159.38,-355.18 -355.979001,-355.18 z m -356.474999,355.18 c 0,-196.430004 159.599,-355.67 356.474999,-355.67 196.875001,0 356.479001,159.239996 356.479001,355.67 0,196.43 -159.604,355.68 -356.479001,355.68 -196.875999,0 -356.474999,-159.25 -356.474999,-355.68 z"
     fill="#ffffff"
     id="path82"
     style="fill:#b56d2a;fill-opacity:1" />
  <path
     fill-rule="evenodd"
     clip-rule="evenodd"
     d="m -35.383251,-253.48327 c -209.053999,0 -378.524999,169.089996 -378.524999,377.67 0,208.59 169.471,377.68 378.524999,377.68 209.053001,0 378.529001,-169.09 378.529001,-377.68 0,-208.580004 -169.476,-377.67 -378.529001,-377.67 z m -379.024999,377.67 c 0,-208.860004 169.695,-378.17 379.024999,-378.17 209.329001,0 379.029001,169.309996 379.029001,378.17 0,208.86 -169.7,378.18 -379.029001,378.18 -209.329999,0 -379.024999,-169.32 -379.024999,-378.18 z"
     fill="#ffffff"
     id="path83"
     style="fill:#b56d2a;fill-opacity:1" />
  <path
     fill-rule="evenodd"
     clip-rule="evenodd"
     d="m -35.383251,-275.99327 c -221.512999,0 -401.083999,179.159996 -401.083999,400.18 0,221.02 179.571,400.19 401.083999,400.19 221.512001,0 401.079001,-179.17 401.079001,-400.19 0,-221.020004 -179.567,-400.18 -401.079001,-400.18 z m -401.583999,400.18 c 0,-221.290004 179.795,-400.68 401.583999,-400.68 221.788001,0 401.579001,179.389996 401.579001,400.68 0,221.29 -179.791,400.68 -401.579001,400.68 -221.788999,0 -401.583999,-179.39 -401.583999,-400.68 z"
     fill="#ffffff"
     id="path84"
     style="fill:#b56d2a;fill-opacity:1" />
  <path
     fill-rule="evenodd"
     clip-rule="evenodd"
     d="m -35.383251,-298.49327 c -233.966999,0 -423.633999,189.24 -423.633999,422.68 0,233.44 189.667,422.68 423.633999,422.68 233.966001,0 423.629001,-189.24 423.629001,-422.68 0,-233.44 -189.663,-422.68 -423.629001,-422.68 z m -424.133999,422.68 c 0,-233.72 189.891,-423.18 424.133999,-423.18 234.242001,0 424.129001,189.46 424.129001,423.18 0,233.72 -189.887,423.18 -424.129001,423.18 -234.242999,0 -424.133999,-189.46 -424.133999,-423.18 z"
     fill="#ffffff"
     id="path85"
     style="fill:#b56d2a;fill-opacity:1" />
  <path
     fill-rule="evenodd"
     clip-rule="evenodd"
     d="m -35.383251,-321.00327 c -246.425999,0 -446.192999,199.32 -446.192999,445.19 0,245.87 199.767,445.19 446.192999,445.19 246.425001,0 446.189001,-199.32 446.189001,-445.19 0,-245.87 -199.764,-445.19 -446.189001,-445.19 z m -446.692999,445.19 c 0,-246.15 199.991,-445.69 446.692999,-445.69 246.701001,0 446.689001,199.54 446.689001,445.69 0,246.15 -199.988,445.69 -446.689001,445.69 -246.701999,0 -446.692999,-199.54 -446.692999,-445.69 z"
     fill="#ffffff"
     id="path86"
     style="fill:#b56d2a;fill-opacity:1" />
  <path
     fill-rule="evenodd"
     clip-rule="evenodd"
     d="m -35.383251,-343.50327 c -258.879999,0 -468.742999,209.39 -468.742999,467.69 0,258.3 209.863,467.69 468.742999,467.69 258.879001,0 468.739001,-209.39 468.739001,-467.69 0,-258.3 -209.86,-467.69 -468.739001,-467.69 z m -469.242999,467.69 c 0,-258.57 210.087,-468.19 469.242999,-468.19 259.155001,0 469.239001,209.62 469.239001,468.19 0,258.58 -210.084,468.19 -469.239001,468.19 -259.155999,0 -469.242999,-209.61 -469.242999,-468.19 z"
     fill="#ffffff"
     id="path87"
     style="fill:#b56d2a;fill-opacity:1" />
  <path
     fill-rule="evenodd"
     clip-rule="evenodd"
     d="m -35.394251,-366.01327 c -271.334999,-0.34 -491.301999,219.47 -491.301999,490.2 0,270.73 219.967,490.2 491.302999,490.2 271.336001,-0.01 491.539001,-219.48 491.299001,-490.2 -0.24,-270.38 -220.193,-489.85 -491.300001,-490.2 z m -491.800999,490.2 c 0,-271 220.189,-491.04 491.801999,-490.7 271.382001,0.35 491.559001,220.05 491.799001,490.7 0.24,270.99 -220.187,490.69 -491.799001,490.7 -271.612999,0 -491.801999,-219.7 -491.801999,-490.7 z"
     fill="#ffffff"
     id="path88"
     style="fill:#b56d2a;fill-opacity:1" />
  <path
     fill-rule="evenodd"
     clip-rule="evenodd"
     d="m 680.05575,-304.68327 c -9.76,0 -17.66,7.89 -17.66,17.63 0,9.73 7.9,17.62 17.66,17.62 9.75,0 17.66,-7.89 17.66,-17.62 0,-9.74 -7.91,-17.63 -17.66,-17.63 z m -18.16,17.63 c 0,-10.01 8.13,-18.12 18.16,-18.12 10.03,0 18.16,8.11 18.16,18.12 0,10 -8.13,18.12 -18.16,18.12 -10.03,0 -18.16,-8.12 -18.16,-18.12 z"
     fill="#ffffff"
     id="path89"
     style="fill:#b56d2a;fill-opacity:1" />
  <path
     fill-rule="evenodd"
     clip-rule="evenodd"
     d="m 680.05575,-327.18327 c -22.21,0 -40.21,17.97 -40.21,40.13 0,22.15 18,40.12 40.21,40.12 22.21,0 40.21,-17.97 40.21,-40.12 0,-22.16 -18,-40.13 -40.21,-40.13 z m -40.71,40.13 c 0,-22.44 18.22,-40.62 40.71,-40.62 22.48,0 40.71,18.18 40.71,40.62 0,22.43 -18.23,40.62 -40.71,40.62 -22.49,0 -40.71,-18.19 -40.71,-40.62 z"
     fill="#ffffff"
     id="path90"
     style="fill:#b56d2a;fill-opacity:1" />
  <path
     fill-rule="evenodd"
     clip-rule="evenodd"
     d="m 680.05575,-349.68327 c -34.67,0 -62.77,28.04 -62.77,62.63 0,34.59 28.1,62.63 62.77,62.63 34.67,0 62.77,-28.04 62.77,-62.63 0,-34.59 -28.1,-62.63 -62.77,-62.63 z m -63.27,62.63 c 0,-34.87 28.33,-63.13 63.27,-63.13 34.94,0 63.27,28.26 63.27,63.13 0,34.86 -28.33,63.12 -63.27,63.12 -34.94,0 -63.27,-28.26 -63.27,-63.12 z"
     fill="#ffffff"
     id="path91"
     style="fill:#b56d2a;fill-opacity:1" />
  <path
     fill-rule="evenodd"
     clip-rule="evenodd"
     d="m 680.05575,-372.18327 c -47.12,0 -85.32,38.11 -85.32,85.13 0,47.01 38.2,85.13 85.32,85.13 47.12,0 85.32,-38.12 85.32,-85.13 0,-47.02 -38.2,-85.13 -85.32,-85.13 z m -85.82,85.13 c 0,-47.29 38.42,-85.63 85.82,-85.63 47.4,0 85.82,38.34 85.82,85.63 0,47.29 -38.42,85.62 -85.82,85.62 -47.4,0 -85.82,-38.33 -85.82,-85.62 z"
     fill="#ffffff"
     id="path92"
     style="fill:#b56d2a;fill-opacity:1" />
  <path
     fill-rule="evenodd"
     clip-rule="evenodd"
     d="m 680.05575,-394.69327 c -59.58,0 -107.88,48.19 -107.88,107.64 0,59.44 48.3,107.63 107.88,107.63 59.58,0 107.88,-48.19 107.88,-107.63 0,-59.45 -48.3,-107.64 -107.88,-107.64 z m -108.38,107.64 c 0,-59.73 48.52,-108.14 108.38,-108.14 59.86,0 108.38,48.41 108.38,108.14 0,59.72 -48.52,108.13 -108.38,108.13 -59.86,0 -108.38,-48.41 -108.38,-108.13 z"
     fill="#ffffff"
     id="path93"
     style="fill:#b56d2a;fill-opacity:1" />
  <path
     fill-rule="evenodd"
     clip-rule="evenodd"
     d="m 680.05575,-417.19327 c -72.04,0 -130.43,58.26 -130.43,130.14 0,71.87 58.39,130.13 130.43,130.13 72.03,0 130.43,-58.26 130.43,-130.13 0,-71.88 -58.4,-130.14 -130.43,-130.14 z m -130.93,130.14 c 0,-72.15 58.62,-130.64 130.93,-130.64 72.31,0 130.93,58.49 130.93,130.64 0,72.14 -58.62,130.63 -130.93,130.63 -72.31,0 -130.93,-58.49 -130.93,-130.63 z"
     fill="#ffffff"
     id="path94"
     style="fill:#b56d2a;fill-opacity:1" />
  <path
     fill-rule="evenodd"
     clip-rule="evenodd"
     d="m 680.05575,-439.69327 c -84.49,0 -152.98,68.34 -152.98,152.64 0,84.29 68.49,152.63 152.98,152.63 84.49,0 152.98,-68.34 152.98,-152.63 0,-84.3 -68.49,-152.64 -152.98,-152.64 z m -153.48,152.64 c 0,-84.58 68.72,-153.14 153.48,-153.14 84.76,0 153.48,68.56 153.48,153.14 0,84.57 -68.72,153.13 -153.48,153.13 -84.76,0 -153.48,-68.56 -153.48,-153.13 z"
     fill="#ffffff"
     id="path95"
     style="fill:#b56d2a;fill-opacity:1" />
  <path
     fill-rule="evenodd"
     clip-rule="evenodd"
     d="m 680.05575,-462.20327 c -96.95,0 -175.54,78.42 -175.54,175.15 0,96.73 78.59,175.14 175.54,175.14 96.95,0 175.54,-78.41 175.54,-175.14 0,-96.73 -78.59,-175.15 -175.54,-175.15 z m -176.04,175.15 c 0,-97.01 78.82,-175.65 176.04,-175.65 97.22,0 176.04,78.64 176.04,175.65 0,97 -78.82,175.64 -176.04,175.64 -97.22,0 -176.04,-78.64 -176.04,-175.64 z"
     fill="#ffffff"
     id="path96"
     style="fill:#b56d2a;fill-opacity:1" />
  <path
     fill-rule="evenodd"
     clip-rule="evenodd"
     d="m 680.05575,-484.70327 c -109.4,0 -198.09,88.49 -198.09,197.65 0,109.15 88.69,197.639996 198.09,197.639996 109.4,0 198.09,-88.489996 198.09,-197.639996 0,-109.16 -88.69,-197.65 -198.09,-197.65 z m -198.59,197.65 c 0,-109.44 88.91,-198.15 198.59,-198.15 109.68,0 198.59,88.71 198.59,198.15 0,109.43 -88.91,198.139996 -198.59,198.139996 -109.68,0 -198.59,-88.709996 -198.59,-198.139996 z"
     fill="#ffffff"
     id="path97"
     style="fill:#b56d2a;fill-opacity:1" />
  <path
     fill-rule="evenodd"
     clip-rule="evenodd"
     d="m 680.05575,-507.21327 c -121.86,0 -220.65,98.57 -220.65,220.16 0,121.58 98.79,220.149996 220.65,220.149996 121.86,0 220.65,-98.569996 220.65,-220.149996 0,-121.59 -98.79,-220.16 -220.65,-220.16 z m -221.15,220.16 c 0,-121.87 99.01,-220.66 221.15,-220.66 122.14,0 221.15,98.79 221.15,220.66 0,121.86 -99.01,220.649996 -221.15,220.649996 -122.14,0 -221.15,-98.789996 -221.15,-220.649996 z"
     fill="#ffffff"
     id="path98"
     style="fill:#b56d2a;fill-opacity:1" />
  <path
     fill-rule="evenodd"
     clip-rule="evenodd"
     d="m 680.05575,-529.71327 c -134.32,0 -243.2,108.64 -243.2,242.66 0,134.01 108.88,242.649996 243.2,242.649996 134.31,0 243.2,-108.639996 243.2,-242.649996 0,-134.02 -108.89,-242.66 -243.2,-242.66 z m -243.7,242.66 c 0,-134.29 109.11,-243.15 243.7,-243.15 134.59,0 243.7,108.86 243.7,243.15 0,134.28 -109.11,243.149996 -243.7,243.149996 -134.59,0 -243.7,-108.869996 -243.7,-243.149996 z"
     fill="#ffffff"
     id="path99"
     style="fill:#b56d2a;fill-opacity:1" />
  <path
     fill-rule="evenodd"
     clip-rule="evenodd"
     d="m 680.05575,-552.21327 c -146.77,0 -265.76,118.71 -265.76,265.16 0,146.44 118.99,265.159996 265.76,265.159996 146.77,0 265.76,-118.719996 265.76,-265.159996 0,-146.45 -118.99,-265.16 -265.76,-265.16 z m -266.26,265.16 c 0,-146.72 119.21,-265.66 266.26,-265.66 147.05,0 266.26,118.94 266.26,265.66 0,146.72 -119.21,265.659996 -266.26,265.659996 -147.05,0 -266.26,-118.939996 -266.26,-265.659996 z"
     fill="#ffffff"
     id="path100"
     style="fill:#b56d2a;fill-opacity:1" />
  <path
     fill-rule="evenodd"
     clip-rule="evenodd"
     d="m 680.05575,-574.71327 c -159.23,0 -288.31,128.79 -288.31,287.66 0,158.87 129.08,287.65999554 288.31,287.65999554 159.23,0 288.31,-128.78999554 288.31,-287.65999554 0,-158.87 -129.08,-287.66 -288.31,-287.66 z m -288.81,287.66 c 0,-159.15 129.31,-288.16 288.81,-288.16 159.5,0 288.81,129.01 288.81,288.16 0,159.14 -129.31,288.1499955 -288.81,288.1499955 -159.5,0 -288.81,-129.0099955 -288.81,-288.1499955 z"
     fill="#ffffff"
     id="path101"
     style="fill:#b56d2a;fill-opacity:1" />
  <path
     fill-rule="evenodd"
     clip-rule="evenodd"
     d="m 680.05575,-597.22327 c -171.69,0 -310.87,138.86 -310.87,310.17 0,171.3 139.18,310.159996 310.87,310.159996 171.69,0 310.87,-138.859996 310.87,-310.159996 0,-171.31 -139.18,-310.17 -310.87,-310.17 z m -311.37,310.17 c 0,-171.58 139.41,-310.67 311.37,-310.67 171.96,0 311.37,139.09 311.37,310.67 0,171.57 -139.41,310.659996 -311.37,310.659996 -171.96,0 -311.37,-139.089996 -311.37,-310.659996 z"
     fill="#ffffff"
     id="path102"
     style="fill:#b56d2a;fill-opacity:1" />
  <path
     fill-rule="evenodd"
     clip-rule="evenodd"
     d="m 680.05575,-619.72527 c -184.14,0 -333.42,148.942 -333.42,332.672 0,183.72 149.28,332.659996 333.42,332.659996 184.14,0 333.40995,-148.939996 333.40995,-332.659996 0,-183.73 -149.26995,-332.672 -333.40995,-332.672 z m -333.92,332.672 c 0,-184.01 149.5,-333.17 333.92,-333.17 184.42,0 333.90995,149.16 333.90995,333.17 0,184 -149.48995,333.159996 -333.90995,333.159996 -184.42,0 -333.92,-149.159996 -333.92,-333.159996 z"
     fill="#ffffff"
     id="path103"
     style="fill:#b56d2a;fill-opacity:1" />
  <path
     fill-rule="evenodd"
     clip-rule="evenodd"
     d="m 680.05575,-642.23427 c -196.6,0 -355.98,159.021 -355.98,355.181 0,196.149996 159.38,355.169996 355.98,355.169996 196.6,0 355.96995,-159.02 355.96995,-355.169996 0,-196.16 -159.36995,-355.181 -355.96995,-355.181 z m -356.48,355.181 c 0,-196.44 159.6,-355.679 356.48,-355.679 196.87,0 356.46995,159.239 356.46995,355.679 0,196.429996 -159.59995,355.669996 -356.46995,355.669996 -196.88,0 -356.48,-159.24 -356.48,-355.669996 z"
     fill="#ffffff"
     id="path104"
     style="fill:#b56d2a;fill-opacity:1" />
  <path
     fill-rule="evenodd"
     clip-rule="evenodd"
     d="m 680.05575,-664.73327 c -209.05,0 -378.53,169.09 -378.53,377.68 0,208.579996 169.48,377.669996 378.53,377.669996 209.05,0 378.51995,-169.09 378.51995,-377.669996 0,-208.59 -169.46995,-377.68 -378.51995,-377.68 z m -379.03,377.68 c 0,-208.86 169.7,-378.178 379.03,-378.178 209.33,0 379.01995,169.318 379.01995,378.178 0,208.859996 -169.68995,378.169996 -379.01995,378.169996 -209.33,0 -379.03,-169.31 -379.03,-378.169996 z"
     fill="#ffffff"
     id="path105"
     style="fill:#b56d2a;fill-opacity:1" />
  <path
     fill-rule="evenodd"
     clip-rule="evenodd"
     d="m 680.05575,-687.24227 c -221.51,0 -401.08,179.169 -401.08,400.189 0,221.009996 179.57,400.18 401.08,400.18 221.51,0 401.07995,-179.170004 401.07995,-400.18 0,-221.02 -179.56995,-400.189 -401.07995,-400.189 z m -401.58,400.189 c 0,-221.3 179.79,-400.687 401.58,-400.687 221.79,0 401.57995,179.387 401.57995,400.687 0,221.289996 -179.78995,400.68 -401.57995,400.68 -221.79,0 -401.58,-179.390004 -401.58,-400.68 z"
     fill="#ffffff"
     id="path106"
     style="fill:#b56d2a;fill-opacity:1" />
  <path
     fill-rule="evenodd"
     clip-rule="evenodd"
     d="m 680.05575,-709.74127 c -233.97,0 -423.63,189.238 -423.63,422.688 0,233.439996 189.66,422.68 423.63,422.68 233.97,0 423.62995,-189.240004 423.62995,-422.68 0,-233.45 -189.65995,-422.688 -423.62995,-422.688 z m -424.13,422.688 c 0,-233.72 189.89,-423.186 424.13,-423.186 234.24,0 424.12995,189.466 424.12995,423.186 0,233.709996 -189.88995,423.18 -424.12995,423.18 -234.24,0 -424.13,-189.470004 -424.13,-423.18 z"
     fill="#ffffff"
     id="path107"
     style="fill:#b56d2a;fill-opacity:1" />
  <path
     fill-rule="evenodd"
     clip-rule="evenodd"
     d="m 680.05575,-732.24927 c -246.43,0 -446.194,199.316 -446.194,445.196 0,245.869996 199.764,445.19 446.194,445.19 246.42,0 446.18995,-199.320004 446.18995,-445.19 0,-245.88 -199.76995,-445.196 -446.18995,-445.196 z m -446.694,445.196 c 0,-246.15 199.994,-445.695 446.694,-445.695 246.7,0 446.68995,199.545 446.68995,445.695 0,246.139996 -199.98995,445.69 -446.68995,445.69 -246.7,0 -446.694,-199.550004 -446.694,-445.69 z"
     fill="#ffffff"
     id="path108"
     style="fill:#b56d2a;fill-opacity:1" />
  <path
     fill-rule="evenodd"
     clip-rule="evenodd"
     d="m 680.05575,-754.74827 c -258.88,0 -468.744,209.395 -468.744,467.695 0,258.299996 209.864,467.69 468.744,467.69 258.88,0 468.73995,-209.390004 468.73995,-467.69 0,-258.3 -209.85995,-467.695 -468.73995,-467.695 z m -469.243,467.695 c 0,-258.58 210.083,-468.194 469.243,-468.194 259.15,0 469.23995,209.614 469.23995,468.194 0,258.569996 -210.08995,468.19 -469.23995,468.19 -259.16,0 -469.243,-209.620004 -469.243,-468.19 z"
     fill="#ffffff"
     id="path109" />
  <path
     fill-rule="evenodd"
     clip-rule="evenodd"
     d="m 680.05575,-777.25727 c -271.34,0 -491.303,219.474 -491.303,490.204 0,270.729996 219.963,490.2 491.303,490.2 271.34,0 491.29995,-219.470004 491.29995,-490.2 0,-270.73 -219.95995,-490.204 -491.29995,-490.204 z m -491.803,490.204 c 0,-271.01 220.183,-490.703 491.803,-490.703 271.61,0 491.79995,219.693 491.79995,490.703 0,270.999996 -220.18995,490.7 -491.79995,490.7 -271.62,0 -491.803,-219.700004 -491.803,-490.7 z"
     fill="#ffffff"
     id="path110" />
  <path
     fill-rule="evenodd"
     clip-rule="evenodd"
     d="m 680.05575,-1128.0363 c -9.76,0 -17.66,7.89 -17.66,17.622 0,9.733 7.9,17.622 17.66,17.622 9.75,0 17.66,-7.889 17.66,-17.622 0,-9.732 -7.91,-17.622 -17.66,-17.622 z m -18.16,17.622 c 0,-10.008 8.13,-18.121 18.16,-18.121 10.03,0 18.16,8.113 18.16,18.121 0,10.008 -8.13,18.121 -18.16,18.121 -10.03,0 -18.16,-8.113 -18.16,-18.121 z"
     fill="#ffffff"
     id="path111" />
  <path
     fill-rule="evenodd"
     clip-rule="evenodd"
     d="m 680.05575,-1150.5353 c -22.21,0 -40.21,17.963 -40.21,40.121 0,22.158 18,40.121 40.21,40.121 22.21,0 40.21,-17.963 40.21,-40.121 0,-22.158 -18,-40.121 -40.21,-40.121 z m -40.71,40.121 c 0,-22.434 18.22,-40.62 40.71,-40.62 22.48,0 40.71,18.186 40.71,40.62 0,22.434 -18.23,40.62 -40.71,40.62 -22.49,0 -40.71,-18.186 -40.71,-40.62 z"
     fill="#ffffff"
     id="path112" />
  <path
     fill-rule="evenodd"
     clip-rule="evenodd"
     d="m 680.05575,-1173.0443 c -34.67,0 -62.77,28.041 -62.77,62.63 0,34.59 28.1,62.63 62.77,62.63 34.67,0 62.77,-28.04 62.77,-62.63 0,-34.589 -28.1,-62.63 -62.77,-62.63 z m -63.27,62.63 c 0,-34.865 28.33,-63.129 63.27,-63.129 34.94,0 63.27,28.264 63.27,63.129 0,34.865 -28.33,63.129 -63.27,63.129 -34.94,0 -63.27,-28.264 -63.27,-63.129 z"
     fill="#ffffff"
     id="path113" />
  <path
     fill-rule="evenodd"
     clip-rule="evenodd"
     d="m 680.05575,-1195.5433 c -47.12,0 -85.32,38.114 -85.32,85.129 0,47.016 38.2,85.129 85.32,85.129 47.12,0 85.32,-38.113 85.32,-85.129 0,-47.015 -38.2,-85.129 -85.32,-85.129 z m -85.82,85.129 c 0,-47.291 38.42,-85.628 85.82,-85.628 47.4,0 85.82,38.337 85.82,85.628 0,47.291 -38.42,85.628 -85.82,85.628 -47.4,0 -85.82,-38.337 -85.82,-85.628 z"
     fill="#ffffff"
     id="path114" />
  <path
     fill-rule="evenodd"
     clip-rule="evenodd"
     d="m 680.05575,-1218.0523 c -59.58,0 -107.88,48.191 -107.88,107.638 0,59.447 48.3,107.638 107.88,107.638 59.58,0 107.88,-48.191 107.88,-107.638 0,-59.447 -48.3,-107.638 -107.88,-107.638 z m -108.38,107.638 c 0,-59.722 48.52,-108.137 108.38,-108.137 59.86,0 108.38,48.415 108.38,108.137 0,59.722 -48.52,108.137 -108.38,108.137 -59.86,0 -108.38,-48.415 -108.38,-108.137 z"
     fill="#ffffff"
     id="path115" />
  <path
     fill-rule="evenodd"
     clip-rule="evenodd"
     d="m 680.05575,-1240.5513 c -72.04,0 -130.43,58.264 -130.43,130.137 0,71.873 58.39,130.13703 130.43,130.13703 72.03,0 130.43,-58.26403 130.43,-130.13703 0,-71.873 -58.4,-130.137 -130.43,-130.137 z m -130.93,130.137 c 0,-72.148 58.62,-130.636 130.93,-130.636 72.31,0 130.93,58.488 130.93,130.636 0,72.148 -58.62,130.63603 -130.93,130.63603 -72.31,0 -130.93,-58.48803 -130.93,-130.63603 z"
     fill="#ffffff"
     id="path116" />
  <path
     fill-rule="evenodd"
     clip-rule="evenodd"
     d="m 680.05575,-1263.0503 c -84.49,0 -152.98,68.338 -152.98,152.636 0,84.299 68.49,152.63603 152.98,152.63603 84.49,0 152.98,-68.33703 152.98,-152.63603 0,-84.298 -68.49,-152.636 -152.98,-152.636 z m -153.48,152.636 c 0,-84.574 68.72,-153.134 153.48,-153.134 84.76,0 153.48,68.56 153.48,153.134 0,84.574 -68.72,153.13503 -153.48,153.13503 -84.76,0 -153.48,-68.56103 -153.48,-153.13503 z"
     fill="#ffffff"
     id="path117" />
  <path
     fill-rule="evenodd"
     clip-rule="evenodd"
     d="m 680.05575,-1285.5593 c -96.95,0 -175.54,78.415 -175.54,175.145 0,96.73 78.59,175.14503 175.54,175.14503 96.95,0 175.54,-78.41503 175.54,-175.14503 0,-96.73 -78.59,-175.145 -175.54,-175.145 z m -176.04,175.145 c 0,-97.005 78.82,-175.643 176.04,-175.643 97.22,0 176.04,78.638 176.04,175.643 0,97.006 -78.82,175.64403 -176.04,175.64403 -97.22,0 -176.04,-78.63803 -176.04,-175.64403 z"
     fill="#ffffff"
     id="path118" />
  <path
     fill-rule="evenodd"
     clip-rule="evenodd"
     d="m 680.05575,-1308.0583 c -109.4,0 -198.09,88.488 -198.09,197.644 0,109.156 88.69,197.64403 198.09,197.64403 109.4,0 198.09,-88.48803 198.09,-197.64403 0,-109.156 -88.69,-197.644 -198.09,-197.644 z m -198.59,197.644 c 0,-109.431 88.91,-198.142 198.59,-198.142 109.68,0 198.59,88.711 198.59,198.142 0,109.431 -88.91,198.14303 -198.59,198.14303 -109.68,0 -198.59,-88.71203 -198.59,-198.14303 z"
     fill="#ffffff"
     id="path119" />
  <path
     fill-rule="evenodd"
     clip-rule="evenodd"
     d="m 680.05575,-1330.5673 c -121.86,0 -220.65,98.566 -220.65,220.153 0,121.58703 98.79,220.15303 220.65,220.15303 121.86,0 220.65,-98.566 220.65,-220.15303 0,-121.587 -98.79,-220.153 -220.65,-220.153 z m -221.15,220.153 c 0,-121.862 99.01,-220.651 221.15,-220.651 122.14,0 221.15,98.789 221.15,220.651 0,121.86303 -99.01,220.65203 -221.15,220.65203 -122.14,0 -221.15,-98.789 -221.15,-220.65203 z"
     fill="#ffffff"
     id="path120" />
  <path
     fill-rule="evenodd"
     clip-rule="evenodd"
     d="m 680.05575,-1353.0663 c -134.32,0 -243.2,108.639 -243.2,242.652 0,134.01303 108.88,242.65203 243.2,242.65203 134.31,0 243.2,-108.639 243.2,-242.65203 0,-134.013 -108.89,-242.652 -243.2,-242.652 z m -243.7,242.652 c 0,-134.288 109.11,-243.15 243.7,-243.15 134.59,0 243.7,108.862 243.7,243.15 0,134.28903 -109.11,243.15103 -243.7,243.15103 -134.59,0 -243.7,-108.862 -243.7,-243.15103 z"
     fill="#ffffff"
     id="path121" />
  <path
     fill-rule="evenodd"
     clip-rule="evenodd"
     d="m 680.05575,-1375.5753 c -146.77,0 -265.76,118.717 -265.76,265.161 0,146.44403 118.99,265.16103 265.76,265.16103 146.77,0 265.76,-118.717 265.76,-265.16103 0,-146.444 -118.99,-265.161 -265.76,-265.161 z m -266.26,265.161 c 0,-146.72 119.21,-265.659 266.26,-265.659 147.05,0 266.26,118.939 266.26,265.659 0,146.72003 -119.21,265.66003 -266.26,265.66003 -147.05,0 -266.26,-118.94 -266.26,-265.66003 z"
     fill="#ffffff"
     id="path122" />
  <path
     fill-rule="evenodd"
     clip-rule="evenodd"
     d="m 680.05575,-1398.0743 c -159.23,0 -288.31,128.79 -288.31,287.66 0,158.87003 129.08,287.66003 288.31,287.66003 159.23,0 288.31,-128.79 288.31,-287.66003 0,-158.87 -129.08,-287.66 -288.31,-287.66 z m -288.81,287.66 c 0,-159.145 129.31,-288.158 288.81,-288.158 159.5,0 288.81,129.013 288.81,288.158 0,159.14603 -129.31,288.15903 -288.81,288.15903 -159.5,0 -288.81,-129.013 -288.81,-288.15903 z"
     fill="#ffffff"
     id="path123" />
  <path
     fill-rule="evenodd"
     clip-rule="evenodd"
     d="m 680.05575,-1420.5833 c -171.69,0 -310.87,138.868 -310.87,310.169 0,171.30203 139.18,310.16903 310.87,310.16903 171.69,0 310.87,-138.867 310.87,-310.16903 0,-171.301 -139.18,-310.169 -310.87,-310.169 z m -311.37,310.169 c 0,-171.577 139.41,-310.667 311.37,-310.667 171.96,0 311.37,139.09 311.37,310.667 0,171.57703 -139.41,310.66803 -311.37,310.66803 -171.96,0 -311.37,-139.091 -311.37,-310.66803 z"
     fill="#ffffff"
     id="path124" />
  <path
     fill-rule="evenodd"
     clip-rule="evenodd"
     d="m 680.05575,-1443.0823 c -184.14,0 -333.42,148.941 -333.42,332.668 0,183.72803 149.28,332.66803 333.42,332.66803 184.14,0 333.40995,-148.94 333.40995,-332.66803 0,-183.727 -149.26995,-332.668 -333.40995,-332.668 z m -333.92,332.668 c 0,-184.003 149.5,-333.166 333.92,-333.166 184.42,0 333.90995,149.163 333.90995,333.166 0,184.00303 -149.48995,333.16703 -333.90995,333.16703 -184.42,0 -333.92,-149.164 -333.92,-333.16703 z"
     fill="#ffffff"
     id="path125" />
  <path
     fill-rule="evenodd"
     clip-rule="evenodd"
     d="m 680.05575,-1465.5913 c -196.6,0 -355.98,159.018 -355.98,355.177 0,196.15903 159.38,355.17703 355.98,355.17703 196.6,0 355.96995,-159.018 355.96995,-355.17703 0,-196.159 -159.36995,-355.177 -355.96995,-355.177 z m -356.48,355.177 c 0,-196.434 159.6,-355.675 356.48,-355.675 196.87,0 356.46995,159.241 356.46995,355.675 0,196.43403 -159.59995,355.67603 -356.46995,355.67603 -196.88,0 -356.48,-159.242 -356.48,-355.67603 z"
     fill="#ffffff"
     id="path126" />
  <path
     fill-rule="evenodd"
     clip-rule="evenodd"
     d="m 680.05575,-1488.0903 c -209.05,0 -378.53,169.092 -378.53,377.676 0,208.58503 169.48,377.67603 378.53,377.67603 209.05,0 378.51995,-169.091 378.51995,-377.67603 0,-208.584 -169.46995,-377.676 -378.51995,-377.676 z m -379.03,377.676 c 0,-208.86 169.7,-378.174 379.03,-378.174 209.33,0 379.01995,169.314 379.01995,378.174 0,208.86003 -169.68995,378.17503 -379.01995,378.17503 -209.33,0 -379.03,-169.315 -379.03,-378.17503 z"
     fill="#ffffff"
     id="path127" />
  <path
     fill-rule="evenodd"
     clip-rule="evenodd"
     d="m 680.05575,-1510.5988 c -221.51,0 -401.08,179.1685 -401.08,400.1845 0,221.01603 179.57,400.18503 401.08,400.18503 221.51,0 401.07995,-179.169 401.07995,-400.18503 0,-221.016 -179.56995,-400.1845 -401.07995,-400.1845 z m -401.58,400.1845 c 0,-221.291 179.79,-400.6831 401.58,-400.6831 221.79,0 401.57995,179.3921 401.57995,400.6831 0,221.29103 -179.78995,400.68403 -401.57995,400.68403 -221.79,0 -401.58,-179.393 -401.58,-400.68403 z"
     fill="#ffffff"
     id="path128" />
  <path
     fill-rule="evenodd"
     clip-rule="evenodd"
     d="m 680.05575,-1533.0978 c -233.97,0 -423.63,189.2415 -423.63,422.6835 0,233.44203 189.66,422.68403 423.63,422.68403 233.97,0 423.62995,-189.242 423.62995,-422.68403 0,-233.442 -189.65995,-422.6835 -423.62995,-422.6835 z m -424.13,422.6835 c 0,-233.717 189.89,-423.1821 424.13,-423.1821 234.24,0 424.12995,189.4651 424.12995,423.1821 0,233.71703 -189.88995,423.18203 -424.12995,423.18203 -234.24,0 -424.13,-189.465 -424.13,-423.18203 z"
     fill="#ffffff"
     id="path129" />
  <path
     fill-rule="evenodd"
     clip-rule="evenodd"
     d="m 680.05575,-1555.6067 c -246.43,0 -446.194,199.3194 -446.194,445.1924 0,245.87303 199.764,445.19303 446.194,445.19303 246.42,0 446.18995,-199.32 446.18995,-445.19303 0,-245.873 -199.76995,-445.1924 -446.18995,-445.1924 z m -446.694,445.1924 c 0,-246.148 199.994,-445.6911 446.694,-445.6911 246.7,0 446.68995,199.5431 446.68995,445.6911 0,246.14903 -199.98995,445.69103 -446.68995,445.69103 -246.7,0 -446.694,-199.542 -446.694,-445.69103 z"
     fill="#ffffff"
     id="path130" />
  <path
     fill-rule="evenodd"
     clip-rule="evenodd"
     d="m 680.05575,-1578.1057 c -258.88,0 -468.744,209.3924 -468.744,467.6914 0,258.29903 209.864,467.69203 468.744,467.69203 258.88,0 468.73995,-209.393 468.73995,-467.69203 0,-258.299 -209.85995,-467.6914 -468.73995,-467.6914 z m -469.243,467.6914 c 0,-258.574 210.083,-468.1901 469.243,-468.1901 259.15,0 469.23995,209.6161 469.23995,468.1901 0,258.57403 -210.08995,468.19003 -469.23995,468.19003 -259.16,0 -469.243,-209.616 -469.243,-468.19003 z"
     fill="#ffffff"
     id="path131" />
  <path
     fill-rule="evenodd"
     clip-rule="evenodd"
     d="m 680.05575,-1600.6146 c -271.34,0 -491.303,219.4703 -491.303,490.2003 0,270.73003 219.963,490.20103 491.303,490.20103 271.34,0 491.29995,-219.471 491.29995,-490.20103 0,-270.73 -219.95995,-490.2003 -491.29995,-490.2003 z m -491.803,490.2003 c 0,-271.005 220.183,-490.699 491.803,-490.699 271.61,0 491.79995,219.694 491.79995,490.699 0,271.00603 -220.18995,490.69903 -491.79995,490.69903 -271.62,0 -491.803,-219.693 -491.803,-490.69903 z"
     fill="#ffffff"
     id="path132" />
  <path
     fill-rule="evenodd"
     clip-rule="evenodd"
     d="m 1395.0357,-715.91427 c -9.76,0 -17.66,7.89 -17.66,17.622 0,9.733 7.9,17.623 17.66,17.623 9.75,0 17.66,-7.89 17.66,-17.623 0,-9.732 -7.91,-17.622 -17.66,-17.622 z m -18.16,17.622 c 0,-10.007 8.13,-18.12 18.16,-18.12 10.03,0 18.16,8.113 18.16,18.12 0,10.008 -8.13,18.121 -18.16,18.121 -10.03,0 -18.16,-8.113 -18.16,-18.121 z"
     fill="#ffffff"
     id="path133"
     style="fill:#b56d2a;fill-opacity:1" />
  <path
     fill-rule="evenodd"
     clip-rule="evenodd"
     d="m 1395.0357,-738.41327 c -22.21,0 -40.21,17.963 -40.21,40.121 0,22.159 18,40.122 40.21,40.122 22.21,0 40.21,-17.963 40.21,-40.122 0,-22.158 -18,-40.121 -40.21,-40.121 z m -40.71,40.121 c 0,-22.433 18.22,-40.619 40.71,-40.619 22.48,0 40.71,18.186 40.71,40.619 0,22.434 -18.23,40.62 -40.71,40.62 -22.49,0 -40.71,-18.186 -40.71,-40.62 z"
     fill="#ffffff"
     id="path134" />
  <path
     fill-rule="evenodd"
     clip-rule="evenodd"
     d="m 1395.0357,-760.92227 c -34.67,0 -62.77,28.041 -62.77,62.63 0,34.59 28.1,62.631 62.77,62.631 34.67,0 62.77,-28.041 62.77,-62.631 0,-34.589 -28.1,-62.63 -62.77,-62.63 z m -63.27,62.63 c 0,-34.865 28.32,-63.128 63.27,-63.128 34.94,0 63.27,28.263 63.27,63.128 0,34.866 -28.33,63.129 -63.27,63.129 -34.95,0 -63.27,-28.263 -63.27,-63.129 z"
     fill="#ffffff"
     id="path135" />
  <path
     fill-rule="evenodd"
     clip-rule="evenodd"
     d="m 1395.0357,-783.42127 c -47.12,0 -85.32,38.114 -85.32,85.129 0,47.016 38.2,85.13 85.32,85.13 47.12,0 85.32,-38.114 85.32,-85.13 0,-47.015 -38.2,-85.129 -85.32,-85.129 z m -85.82,85.129 c 0,-47.29 38.42,-85.627 85.82,-85.627 47.4,0 85.82,38.337 85.82,85.627 0,47.291 -38.42,85.628 -85.82,85.628 -47.4,0 -85.82,-38.337 -85.82,-85.628 z"
     fill="#ffffff"
     id="path136" />
  <path
     fill-rule="evenodd"
     clip-rule="evenodd"
     d="m 1395.0357,-805.93027 c -59.58,0 -107.88,48.192 -107.88,107.638 0,59.447 48.3,107.639 107.88,107.639 59.58,0 107.88,-48.192 107.88,-107.639 0,-59.446 -48.3,-107.638 -107.88,-107.638 z m -108.38,107.638 c 0,-59.722 48.52,-108.136 108.38,-108.136 59.85,0 108.38,48.414 108.38,108.136 0,59.723 -48.53,108.139 -108.38,108.139 -59.86,0 -108.38,-48.416 -108.38,-108.139 z"
     fill="#ffffff"
     id="path137" />
  <path
     fill-rule="evenodd"
     clip-rule="evenodd"
     d="m 1395.0357,-828.42927 c -72.04,0 -130.43,58.265 -130.43,130.137 0,71.873 58.39,130.139 130.43,130.139 72.03,0 130.43,-58.266 130.43,-130.139 0,-71.872 -58.4,-130.137 -130.43,-130.137 z m -130.93,130.137 c 0,-72.148 58.62,-130.635 130.93,-130.635 72.31,0 130.93,58.487 130.93,130.635 0,72.149 -58.62,130.639 -130.93,130.639 -72.31,0 -130.93,-58.49 -130.93,-130.639 z"
     fill="#ffffff"
     id="path138" />
  <path
     fill-rule="evenodd"
     clip-rule="evenodd"
     d="m 1395.0357,-850.92827 c -84.49,0 -152.98,68.338 -152.98,152.636 0,84.299 68.49,152.639 152.98,152.639 84.49,0 152.98,-68.34 152.98,-152.639 0,-84.298 -68.49,-152.636 -152.98,-152.636 z m -153.48,152.636 c 0,-84.573 68.71,-153.134 153.48,-153.134 84.76,0 153.48,68.561 153.48,153.134 0,84.574 -68.72,153.139 -153.48,153.139 -84.77,0 -153.48,-68.565 -153.48,-153.139 z"
     fill="#ffffff"
     id="path139" />
  <path
     fill-rule="evenodd"
     clip-rule="evenodd"
     d="m 1395.0357,-873.43627 c -96.95,0 -175.54,78.415 -175.54,175.144 0,96.73 78.59,175.149 175.54,175.149 96.95,0 175.54,-78.419 175.54,-175.149 0,-96.729 -78.59,-175.144 -175.54,-175.144 z m -176.04,175.144 c 0,-97.005 78.81,-175.643 176.04,-175.643 97.22,0 176.04,78.638 176.04,175.643 0,97.006 -78.82,175.649 -176.04,175.649 -97.23,0 -176.04,-78.643 -176.04,-175.649 z"
     fill="#ffffff"
     id="path140" />
  <path
     fill-rule="evenodd"
     clip-rule="evenodd"
     d="m 1395.0357,-895.93527 c -109.4,0 -198.09,88.488 -198.09,197.643 0,109.159 88.69,197.649 198.09,197.649 109.4,0 198.09,-88.49 198.09,-197.649 0,-109.155 -88.69,-197.643 -198.09,-197.643 z m -198.59,197.643 c 0,-109.431 88.91,-198.142 198.59,-198.142 109.67,0 198.59,88.711 198.59,198.142 0,109.429 -88.92,198.139 -198.59,198.139 -109.68,0 -198.59,-88.71 -198.59,-198.139 z"
     fill="#ffffff"
     id="path141" />
  <path
     fill-rule="evenodd"
     clip-rule="evenodd"
     d="m 1395.0357,-918.44427 c -121.86,0 -220.65,98.565 -220.65,220.152 0,121.589 98.79,220.149 220.65,220.149 121.86,0 220.65,-98.56 220.65,-220.149 0,-121.587 -98.79,-220.152 -220.65,-220.152 z m -221.15,220.152 c 0,-121.862 99.01,-220.651 221.15,-220.651 122.13,0 221.15,98.789 221.15,220.651 0,121.859 -99.02,220.649 -221.15,220.649 -122.14,0 -221.15,-98.79 -221.15,-220.649 z"
     fill="#ffffff"
     id="path142" />
  <path
     fill-rule="evenodd"
     clip-rule="evenodd"
     d="m 1395.0357,-940.94327 c -134.32,0 -243.2,108.639 -243.2,242.651 0,134.009 108.88,242.649 243.2,242.649 134.31,0 243.2,-108.64 243.2,-242.649 0,-134.012 -108.89,-242.651 -243.2,-242.651 z m -243.7,242.651 c 0,-134.288 109.11,-243.15 243.7,-243.15 134.59,0 243.69,108.862 243.69,243.15 0,134.289 -109.1,243.149 -243.69,243.149 -134.59,0 -243.7,-108.86 -243.7,-243.149 z"
     fill="#ffffff"
     id="path143" />
  <path
     fill-rule="evenodd"
     clip-rule="evenodd"
     d="m 1395.0357,-963.45227 c -146.78,0 -265.76,118.716 -265.76,265.16 0,146.449 118.98,265.159 265.76,265.159 146.77,0 265.75,-118.71 265.75,-265.159 0,-146.444 -118.98,-265.16 -265.75,-265.16 z m -266.26,265.16 c 0,-146.719 119.21,-265.659 266.26,-265.659 147.05,0 266.25,118.94 266.25,265.659 0,146.719 -119.2,265.659 -266.25,265.659 -147.05,0 -266.26,-118.94 -266.26,-265.659 z"
     fill="#ffffff"
     id="path144" />
  <path
     fill-rule="evenodd"
     clip-rule="evenodd"
     d="m 1395.0357,-985.95127 c -159.23,0 -288.31,128.789 -288.31,287.659 0,158.869 129.08,287.659 288.31,287.659 159.22,0 288.3,-128.79 288.3,-287.659 0,-158.87 -129.08,-287.659 -288.3,-287.659 z m -288.81,287.659 c 0,-159.145 129.3,-288.158 288.81,-288.158 159.5,0 288.8,129.013 288.8,288.158 0,159.149 -129.3,288.159 -288.8,288.159 -159.51,0 -288.81,-129.01 -288.81,-288.159 z"
     fill="#ffffff"
     id="path145" />
  <path
     fill-rule="evenodd"
     clip-rule="evenodd"
     d="m 1395.0357,-1008.4603 c -171.69,0 -310.87,138.86703 -310.87,310.16803 0,171.299 139.18,310.169 310.87,310.169 171.68,0 310.86,-138.87 310.86,-310.169 0,-171.301 -139.18,-310.16803 -310.86,-310.16803 z m -311.37,310.16803 c 0,-171.576 139.41,-310.66703 311.37,-310.66703 171.96,0 311.36,139.09103 311.36,310.66703 0,171.579 -139.4,310.669 -311.36,310.669 -171.96,0 -311.37,-139.09 -311.37,-310.669 z"
     fill="#ffffff"
     id="path146" />
  <path
     fill-rule="evenodd"
     clip-rule="evenodd"
     d="m 1395.0357,-1030.9593 c -184.14,0 -333.42,148.94003 -333.42,332.66703 0,183.729 149.28,332.669 333.42,332.669 184.14,0 333.41,-148.94 333.41,-332.669 0,-183.727 -149.27,-332.66703 -333.41,-332.66703 z m -333.92,332.66703 c 0,-184.002 149.5,-333.16603 333.92,-333.16603 184.41,0 333.91,149.16403 333.91,333.16603 0,183.999 -149.5,333.169 -333.91,333.169 -184.42,0 -333.92,-149.17 -333.92,-333.169 z"
     fill="#ffffff"
     id="path147" />
  <path
     fill-rule="evenodd"
     clip-rule="evenodd"
     d="m 1395.0357,-1053.4683 c -196.6,0 -355.98,159.01803 -355.98,355.17603 0,196.159 159.38,355.179 355.98,355.179 196.6,0 355.97,-159.02 355.97,-355.179 0,-196.158 -159.37,-355.17603 -355.97,-355.17603 z m -356.48,355.17603 c 0,-196.434 159.6,-355.67503 356.48,-355.67503 196.87,0 356.47,159.24103 356.47,355.67503 0,196.439 -159.6,355.679 -356.47,355.679 -196.88,0 -356.48,-159.24 -356.48,-355.679 z"
     fill="#ffffff"
     id="path148" />
  <path
     fill-rule="evenodd"
     clip-rule="evenodd"
     d="m 1395.0357,-1075.9673 c -209.06,0 -378.53,169.09103 -378.53,377.67503 0,208.589 169.47,377.679 378.53,377.679 209.05,0 378.52,-169.09 378.52,-377.679 0,-208.584 -169.47,-377.67503 -378.52,-377.67503 z m -379.03,377.67503 c 0,-208.859 169.7,-378.17403 379.03,-378.17403 209.33,0 379.02,169.31503 379.02,378.17403 0,208.859 -169.69,378.179 -379.02,378.179 -209.33,0 -379.03,-169.32 -379.03,-378.179 z"
     fill="#ffffff"
     id="path149" />
  <path
     fill-rule="evenodd"
     clip-rule="evenodd"
     d="m 1395.0357,-1098.4763 c -221.51,0 -401.08995,179.16903 -401.08995,400.18403 0,221.019 179.57995,400.189 401.08995,400.189 221.51,0 401.08,-179.17 401.08,-400.189 0,-221.015 -179.57,-400.18403 -401.08,-400.18403 z m -401.58995,400.18403 c 0,-221.291 179.79995,-400.68303 401.58995,-400.68303 221.79,0 401.58,179.39203 401.58,400.68303 0,221.289 -179.79,400.679 -401.58,400.679 -221.79,0 -401.58995,-179.39 -401.58995,-400.679 z"
     fill="#ffffff"
     id="path150" />
  <path
     fill-rule="evenodd"
     clip-rule="evenodd"
     d="m 1395.0357,-1120.9753 c -233.97,0 -423.63995,189.24203 -423.63995,422.68303 0,233.439 189.66995,422.689 423.63995,422.689 233.96,0 423.63,-189.25 423.63,-422.689 0,-233.441 -189.67,-422.68303 -423.63,-422.68303 z m -424.13995,422.68303 c 0,-233.717 189.89995,-423.18203 424.13995,-423.18203 234.24,0 424.13,189.46503 424.13,423.18203 0,233.719 -189.89,423.179 -424.13,423.179 -234.24,0 -424.13995,-189.46 -424.13995,-423.179 z"
     fill="#ffffff"
     id="path151" />
  <path
     fill-rule="evenodd"
     clip-rule="evenodd"
     d="m 1395.0357,-1143.4843 c -246.43,0 -446.19995,199.31903 -446.19995,445.19203 0,245.869 199.76995,445.189 446.19995,445.189 246.42,0 446.19,-199.32 446.19,-445.189 0,-245.873 -199.77,-445.19203 -446.19,-445.19203 z m -446.68995,445.19203 c 0,-246.148 199.98995,-445.69103 446.68995,-445.69103 246.7,0 446.69,199.54303 446.69,445.69103 0,246.149 -199.99,445.689 -446.69,445.689 -246.7,0 -446.68995,-199.54 -446.68995,-445.689 z"
     fill="#ffffff"
     id="path152" />
  <path
     fill-rule="evenodd"
     clip-rule="evenodd"
     d="m 1395.0357,-1165.9833 c -258.88,0 -468.73995,209.39303 -468.73995,467.69103 0,258.299 209.85995,467.689 468.73995,467.689 258.88,0 468.74,-209.39 468.74,-467.689 0,-258.298 -209.86,-467.69103 -468.74,-467.69103 z m -469.23995,467.69103 c 0,-258.574 210.07995,-468.19003 469.23995,-468.19003 259.15,0 469.24,209.61603 469.24,468.19003 0,258.579 -210.09,468.189 -469.24,468.189 -259.16,0 -469.23995,-209.61 -469.23995,-468.189 z"
     fill="#ffffff"
     id="path153" />
  <path
     fill-rule="evenodd"
     clip-rule="evenodd"
     d="m 1886.3357,-698.29227 c 0.35,-271.186 -219.6,-490.85803 -491.3,-490.20003 -271.25,0.658 -491.19995,219.61303 -491.29995,490.20103 -0.09,270.728 219.95995,490.168 491.29995,490.198 271.3,0.03 490.94,-219.44 491.3,-490.199 z m -491.3,-490.69903 c 271.98,-0.658 492.15,219.23803 491.8,490.70003 -0.36,271.028 -220.22,490.728 -491.8,490.698 -271.61,-0.03 -491.88995,-219.7 -491.79995,-490.699 0.1,-270.863 220.27995,-490.04003 491.79995,-490.69903 z"
     fill="#ffffff"
     id="path154" />
  <path
     fill-rule="evenodd"
     clip-rule="evenodd"
     d="m 1395.0357,106.56673 c -9.76,0 -17.66,7.89 -17.66,17.62 0,9.73 7.9,17.62 17.66,17.62 9.75,0 17.66,-7.89 17.66,-17.62 0,-9.73 -7.91,-17.62 -17.66,-17.62 z m -18.16,17.62 c 0,-10.01 8.13,-18.12 18.16,-18.12 10.03,0 18.16,8.11 18.16,18.12 0,10.01 -8.13,18.12 -18.16,18.12 -10.03,0 -18.16,-8.11 -18.16,-18.12 z"
     fill="#ffffff"
     id="path155"
     style="fill:#b56d2a;fill-opacity:1" />
  <path
     fill-rule="evenodd"
     clip-rule="evenodd"
     d="m 1395.0357,84.066726 c -22.21,0 -40.21,17.960004 -40.21,40.120004 0,22.16 18,40.12 40.21,40.12 22.21,0 40.21,-17.96 40.21,-40.12 0,-22.16 -18,-40.120004 -40.21,-40.120004 z m -40.71,40.120004 c 0,-22.43 18.22,-40.620004 40.71,-40.620004 22.48,0 40.71,18.190004 40.71,40.620004 0,22.43 -18.23,40.62 -40.71,40.62 -22.49,0 -40.71,-18.19 -40.71,-40.62 z"
     fill="#ffffff"
     id="path156"
     style="fill:#b56d2a;fill-opacity:1" />
  <path
     fill-rule="evenodd"
     clip-rule="evenodd"
     d="m 1395.0357,61.556726 c -34.67,0 -62.77,28.04 -62.77,62.630004 0,34.59 28.1,62.63 62.77,62.63 34.67,0 62.77,-28.04 62.77,-62.63 0,-34.590004 -28.1,-62.630004 -62.77,-62.630004 z m -63.27,62.630004 c 0,-34.860004 28.32,-63.130004 63.27,-63.130004 34.94,0 63.27,28.27 63.27,63.130004 0,34.87 -28.33,63.13 -63.27,63.13 -34.95,0 -63.27,-28.26 -63.27,-63.13 z"
     fill="#ffffff"
     id="path157"
     style="fill:#b56d2a;fill-opacity:1" />
  <path
     fill-rule="evenodd"
     clip-rule="evenodd"
     d="m 1395.0357,39.056726 c -47.12,0 -85.32,38.12 -85.32,85.130004 0,47.02 38.2,85.13 85.32,85.13 47.12,0 85.32,-38.11 85.32,-85.13 0,-47.010004 -38.2,-85.130004 -85.32,-85.130004 z m -85.82,85.130004 c 0,-47.290004 38.42,-85.630004 85.82,-85.630004 47.4,0 85.82,38.34 85.82,85.630004 0,47.29 -38.42,85.63 -85.82,85.63 -47.4,0 -85.82,-38.34 -85.82,-85.63 z"
     fill="#ffffff"
     id="path158"
     style="fill:#b56d2a;fill-opacity:1" />
  <path
     fill-rule="evenodd"
     clip-rule="evenodd"
     d="m 1395.0357,16.546726 c -59.58,0 -107.88,48.19 -107.88,107.640004 0,59.45 48.3,107.64 107.88,107.64 59.58,0 107.88,-48.19 107.88,-107.64 0,-59.450004 -48.3,-107.640004 -107.88,-107.640004 z m -108.38,107.640004 c 0,-59.720004 48.52,-108.140004 108.38,-108.140004 59.85,0 108.38,48.42 108.38,108.140004 0,59.72 -48.53,108.14 -108.38,108.14 -59.86,0 -108.38,-48.42 -108.38,-108.14 z"
     fill="#ffffff"
     id="path159"
     style="fill:#b56d2a;fill-opacity:1" />
  <path
     fill-rule="evenodd"
     clip-rule="evenodd"
     d="m 1395.0357,-5.9532745 c -72.04,0 -130.43,58.2700005 -130.43,130.1400045 0,71.87 58.39,130.14 130.43,130.14 72.03,0 130.43,-58.27 130.43,-130.14 0,-71.870004 -58.4,-130.1400045 -130.43,-130.1400045 z m -130.93,130.1400045 c 0,-72.150004 58.62,-130.6300045 130.93,-130.6300045 72.31,0 130.93,58.4800005 130.93,130.6300045 0,72.15 -58.62,130.64 -130.93,130.64 -72.31,0 -130.93,-58.49 -130.93,-130.64 z"
     fill="#ffffff"
     id="path160"
     style="fill:#b56d2a;fill-opacity:1" />
  <path
     fill-rule="evenodd"
     clip-rule="evenodd"
     d="m 1395.0357,-28.453274 c -84.49,0 -152.98,68.34 -152.98,152.640004 0,84.3 68.49,152.64 152.98,152.64 84.49,0 152.98,-68.34 152.98,-152.64 0,-84.300004 -68.49,-152.640004 -152.98,-152.640004 z m -153.48,152.640004 c 0,-84.570004 68.71,-153.130004 153.48,-153.130004 84.76,0 153.48,68.56 153.48,153.130004 0,84.57 -68.72,153.14 -153.48,153.14 -84.77,0 -153.48,-68.57 -153.48,-153.14 z"
     fill="#ffffff"
     id="path161"
     style="fill:#b56d2a;fill-opacity:1" />
  <path
     fill-rule="evenodd"
     clip-rule="evenodd"
     d="m 1395.0357,-50.953274 c -96.95,0 -175.54,78.41 -175.54,175.140004 0,96.73 78.59,175.15 175.54,175.15 96.95,0 175.54,-78.42 175.54,-175.15 0,-96.730004 -78.59,-175.140004 -175.54,-175.140004 z m -176.04,175.140004 c 0,-97.000004 78.81,-175.640004 176.04,-175.640004 97.22,0 176.04,78.64 176.04,175.640004 0,97.01 -78.82,175.64 -176.04,175.64 -97.23,0 -176.04,-78.63 -176.04,-175.64 z"
     fill="#ffffff"
     id="path162"
     style="fill:#b56d2a;fill-opacity:1" />
  <path
     fill-rule="evenodd"
     clip-rule="evenodd"
     d="m 1395.0357,-73.453274 c -109.4,0 -198.09,88.48 -198.09,197.640004 0,109.16 88.69,197.64 198.09,197.64 109.4,0 198.09,-88.48 198.09,-197.64 0,-109.160004 -88.69,-197.640004 -198.09,-197.640004 z m -198.59,197.640004 c 0,-109.430004 88.91,-198.140004 198.59,-198.140004 109.67,0 198.59,88.71 198.59,198.140004 0,109.43 -88.92,198.14 -198.59,198.14 -109.68,0 -198.59,-88.71 -198.59,-198.14 z"
     fill="#ffffff"
     id="path163"
     style="fill:#b56d2a;fill-opacity:1" />
  <path
     fill-rule="evenodd"
     clip-rule="evenodd"
     d="m 1395.0357,-95.963274 c -121.86,0 -220.65,98.5599995 -220.65,220.150004 0,121.59 98.79,220.15 220.65,220.15 121.86,0 220.65,-98.56 220.65,-220.15 0,-121.5900045 -98.79,-220.150004 -220.65,-220.150004 z m -221.15,220.150004 c 0,-121.8600045 99.01,-220.650004 221.15,-220.650004 122.13,0 221.15,98.7899995 221.15,220.650004 0,121.86 -99.02,220.65 -221.15,220.65 -122.14,0 -221.15,-98.79 -221.15,-220.65 z"
     fill="#ffffff"
     id="path164"
     style="fill:#b56d2a;fill-opacity:1" />
  <path
     fill-rule="evenodd"
     clip-rule="evenodd"
     d="m 1395.0357,-118.46327 c -134.32,0 -243.2,108.6399955 -243.2,242.65 0,134.01 108.88,242.65 243.2,242.65 134.31,0 243.2,-108.64 243.2,-242.65 0,-134.0100045 -108.89,-242.65 -243.2,-242.65 z m -243.7,242.65 c 0,-134.290004 109.11,-243.15 243.7,-243.15 134.59,0 243.69,108.859996 243.69,243.15 0,134.29 -109.1,243.15 -243.69,243.15 -134.59,0 -243.7,-108.86 -243.7,-243.15 z"
     fill="#ffffff"
     id="path165"
     style="fill:#b56d2a;fill-opacity:1" />
  <path
     fill-rule="evenodd"
     clip-rule="evenodd"
     d="m 1395.0357,-140.97327 c -146.78,0 -265.76,118.719996 -265.76,265.16 0,146.45 118.98,265.16 265.76,265.16 146.77,0 265.75,-118.71 265.75,-265.16 0,-146.440004 -118.98,-265.16 -265.75,-265.16 z m -266.26,265.16 c 0,-146.720004 119.21,-265.66 266.26,-265.66 147.05,0 266.25,118.939996 266.25,265.66 0,146.72 -119.2,265.66 -266.25,265.66 -147.05,0 -266.26,-118.94 -266.26,-265.66 z"
     fill="#ffffff"
     id="path166"
     style="fill:#b56d2a;fill-opacity:1" />
  <path
     fill-rule="evenodd"
     clip-rule="evenodd"
     d="m 1395.0357,-163.47327 c -159.23,0 -288.31,128.789996 -288.31,287.66 0,158.87 129.08,287.66 288.31,287.66 159.22,0 288.3,-128.79 288.3,-287.66 0,-158.870004 -129.08,-287.66 -288.3,-287.66 z m -288.81,287.66 c 0,-159.140004 129.3,-288.16 288.81,-288.16 159.5,0 288.8,129.019996 288.8,288.16 0,159.15 -129.3,288.16 -288.8,288.16 -159.51,0 -288.81,-129.01 -288.81,-288.16 z"
     fill="#ffffff"
     id="path167"
     style="fill:#b56d2a;fill-opacity:1" />
  <path
     fill-rule="evenodd"
     clip-rule="evenodd"
     d="m 1395.0357,-185.98327 c -171.69,0 -310.87,138.869996 -310.87,310.17 0,171.3 139.18,310.17 310.87,310.17 171.68,0 310.86,-138.87 310.86,-310.17 0,-171.300004 -139.18,-310.17 -310.86,-310.17 z m -311.37,310.17 c 0,-171.580004 139.41,-310.67 311.37,-310.67 171.96,0 311.36,139.089996 311.36,310.67 0,171.58 -139.4,310.67 -311.36,310.67 -171.96,0 -311.37,-139.09 -311.37,-310.67 z"
     fill="#ffffff"
     id="path168"
     style="fill:#b56d2a;fill-opacity:1" />
  <path
     fill-rule="evenodd"
     clip-rule="evenodd"
     d="m 1395.0357,-208.48327 c -184.14,0 -333.42,148.939996 -333.42,332.67 0,183.73 149.28,332.67 333.42,332.67 184.14,0 333.41,-148.94 333.41,-332.67 0,-183.730004 -149.27,-332.67 -333.41,-332.67 z m -333.92,332.67 c 0,-184.000004 149.5,-333.17 333.92,-333.17 184.41,0 333.91,149.169996 333.91,333.17 0,184 -149.5,333.17 -333.91,333.17 -184.42,0 -333.92,-149.17 -333.92,-333.17 z"
     fill="#ffffff"
     id="path169"
     style="fill:#b56d2a;fill-opacity:1" />
  <path
     fill-rule="evenodd"
     clip-rule="evenodd"
     d="m 1395.0357,-230.99327 c -196.6,0 -355.98,159.019996 -355.98,355.18 0,196.16 159.38,355.18 355.98,355.18 196.6,0 355.97,-159.02 355.97,-355.18 0,-196.160004 -159.37,-355.18 -355.97,-355.18 z m -356.48,355.18 c 0,-196.430004 159.6,-355.67 356.48,-355.67 196.87,0 356.47,159.239996 356.47,355.67 0,196.43 -159.6,355.68 -356.47,355.68 -196.88,0 -356.48,-159.25 -356.48,-355.68 z"
     fill="#ffffff"
     id="path170"
     style="fill:#b56d2a;fill-opacity:1" />
  <path
     fill-rule="evenodd"
     clip-rule="evenodd"
     d="m 1395.0357,-253.48327 c -209.06,0 -378.53,169.089996 -378.53,377.67 0,208.59 169.47,377.68 378.53,377.68 209.05,0 378.52,-169.09 378.52,-377.68 0,-208.580004 -169.47,-377.67 -378.52,-377.67 z m -379.03,377.67 c 0,-208.860004 169.7,-378.17 379.03,-378.17 209.33,0 379.02,169.309996 379.02,378.17 0,208.86 -169.69,378.18 -379.02,378.18 -209.33,0 -379.03,-169.32 -379.03,-378.18 z"
     fill="#ffffff"
     id="path171"
     style="fill:#b56d2a;fill-opacity:1" />
  <path
     fill-rule="evenodd"
     clip-rule="evenodd"
     d="m 1395.0357,-275.99327 c -221.51,0 -401.08995,179.159996 -401.08995,400.18 0,221.02 179.57995,400.19 401.08995,400.19 221.51,0 401.08,-179.17 401.08,-400.19 0,-221.020004 -179.57,-400.18 -401.08,-400.18 z m -401.58995,400.18 c 0,-221.290004 179.79995,-400.68 401.58995,-400.68 221.79,0 401.58,179.389996 401.58,400.68 0,221.29 -179.79,400.68 -401.58,400.68 -221.79,0 -401.58995,-179.39 -401.58995,-400.68 z"
     fill="#ffffff"
     id="path172"
     style="fill:#b56d2a;fill-opacity:1" />
  <path
     fill-rule="evenodd"
     clip-rule="evenodd"
     d="m 1395.0357,-298.49327 c -233.97,0 -423.63995,189.24 -423.63995,422.68 0,233.44 189.66995,422.68 423.63995,422.68 233.96,0 423.63,-189.24 423.63,-422.68 0,-233.44 -189.67,-422.68 -423.63,-422.68 z m -424.13995,422.68 c 0,-233.72 189.89995,-423.18 424.13995,-423.18 234.24,0 424.13,189.46 424.13,423.18 0,233.72 -189.89,423.18 -424.13,423.18 -234.24,0 -424.13995,-189.46 -424.13995,-423.18 z"
     fill="#ffffff"
     id="path173"
     style="fill:#b56d2a;fill-opacity:1" />
  <path
     fill-rule="evenodd"
     clip-rule="evenodd"
     d="m 1395.0357,-321.00327 c -246.43,0 -446.19995,199.32 -446.19995,445.19 0,245.87 199.76995,445.19 446.19995,445.19 246.42,0 446.19,-199.32 446.19,-445.19 0,-245.87 -199.77,-445.19 -446.19,-445.19 z m -446.68995,445.19 c 0,-246.15 199.98995,-445.69 446.68995,-445.69 246.7,0 446.69,199.54 446.69,445.69 0,246.15 -199.99,445.69 -446.69,445.69 -246.7,0 -446.68995,-199.54 -446.68995,-445.69 z"
     fill="#ffffff"
     id="path174"
     style="fill:#b56d2a;fill-opacity:1" />
  <path
     fill-rule="evenodd"
     clip-rule="evenodd"
     d="m 1395.0357,-343.50327 c -258.88,0 -468.73995,209.39 -468.73995,467.69 0,258.3 209.85995,467.69 468.73995,467.69 258.88,0 468.74,-209.39 468.74,-467.69 0,-258.3 -209.86,-467.69 -468.74,-467.69 z m -469.23995,467.69 c 0,-258.57 210.07995,-468.19 469.23995,-468.19 259.15,0 469.24,209.62 469.24,468.19 0,258.58 -210.09,468.19 -469.24,468.19 -259.16,0 -469.23995,-209.61 -469.23995,-468.19 z"
     fill="#ffffff"
     id="path175"
     style="fill:#b56d2a;fill-opacity:1" />
  <path
     fill-rule="evenodd"
     clip-rule="evenodd"
     d="m 1395.0357,-366.01327 c -271.51,-0.44 -491.43995,219.1 -491.29995,490.2 0.14,270.73 219.95995,490.2 491.29995,490.2 271.33,0 491.3,-219.47 491.3,-490.2 0,-270.73 -219.97,-489.76 -491.3,-490.2 z m -491.79995,490.2 c -0.14,-271.37 220.01995,-491.14 491.79995,-490.7 271.61,0.44 491.8,219.7 491.8,490.7 0,271 -220.19,490.7 -491.8,490.7 -271.61,0 -491.65995,-219.7 -491.79995,-490.7 z"
     fill="#ffffff"
     id="path176"
     style="fill:#b56d2a;fill-opacity:1" />
</svg>
