<?xml version="1.0" encoding="UTF-8" standalone="no"?>
<svg
   width="1440"
   height="718"
   viewBox="0 0 1440 718"
   fill="none"
   version="1.1"
   id="svg176"
   sodipodi:docname="cliff-circle-pattern-top.svg"
   inkscape:export-filename="white-circle-pattern-top.svg"
   inkscape:export-xdpi="96"
   inkscape:export-ydpi="96"
   inkscape:version="1.3.2 (091e20e, 2023-11-25, custom)"
   xmlns:inkscape="http://www.inkscape.org/namespaces/inkscape"
   xmlns:sodipodi="http://sodipodi.sourceforge.net/DTD/sodipodi-0.dtd"
   xmlns="http://www.w3.org/2000/svg"
   xmlns:svg="http://www.w3.org/2000/svg">
  <defs
     id="defs176" />
  <sodipodi:namedview
     id="namedview176"
     pagecolor="#ffffff"
     bordercolor="#000000"
     borderopacity="0.25"
     inkscape:showpageshadow="2"
     inkscape:pageopacity="0.0"
     inkscape:pagecheckerboard="0"
     inkscape:deskcolor="#d1d1d1"
     inkscape:zoom="0.17135417"
     inkscape:cx="37.933131"
     inkscape:cy="-306.38298"
     inkscape:window-width="1920"
     inkscape:window-height="1009"
     inkscape:window-x="-1928"
     inkscape:window-y="-8"
     inkscape:window-maximized="1"
     inkscape:current-layer="svg176" />
  <path
     fill-rule="evenodd"
     clip-rule="evenodd"
     d="m -35.383251,84.066726 c -22.208,0 -40.212,17.960004 -40.212,40.120004 0,22.16 18.004,40.12 40.212,40.12 22.208,0 40.2110004,-17.96 40.2110004,-40.12 0,-22.16 -18.0030004,-40.120004 -40.2110004,-40.120004 z m -40.711,40.120004 c 0,-22.43 18.227,-40.620004 40.711,-40.620004 22.484,0 40.7110004,18.190004 40.7110004,40.620004 0,22.43 -18.2270004,40.62 -40.7110004,40.62 -22.484,0 -40.711,-18.19 -40.711,-40.62 z"
     fill="#ffffff"
     id="path68"
     style="fill:#b56d2a;fill-opacity:1" />
  <path
     fill-rule="evenodd"
     clip-rule="evenodd"
     d="m -35.383251,61.556726 c -34.668,0 -62.771,28.04 -62.771,62.630004 0,34.59 28.103,62.63 62.771,62.63 34.66700042,0 62.771,-28.04 62.771,-62.63 0,-34.590004 -28.10399958,-62.630004 -62.771,-62.630004 z m -63.271,62.630004 c 0,-34.860004 28.327,-63.130004 63.271,-63.130004 34.94300042,0 63.27,28.27 63.27,63.130004 0,34.87 -28.32699958,63.13 -63.27,63.13 -34.944,0 -63.271,-28.26 -63.271,-63.13 z"
     fill="#ffffff"
     id="path69"
     style="fill:#b56d2a;fill-opacity:1" />
  <path
     fill-rule="evenodd"
     clip-rule="evenodd"
     d="m -35.383251,39.056726 c -47.122,0 -85.320999,38.12 -85.320999,85.130004 0,47.02 38.198999,85.13 85.320999,85.13 47.121,0 85.32,-38.11 85.32,-85.13 0,-47.010004 -38.199,-85.130004 -85.32,-85.130004 z m -85.820999,85.130004 c 0,-47.290004 38.422999,-85.630004 85.820999,-85.630004 47.397,0 85.82,38.34 85.82,85.630004 0,47.29 -38.423,85.63 -85.82,85.63 -47.398,0 -85.820999,-38.34 -85.820999,-85.63 z"
     fill="#ffffff"
     id="path70"
     style="fill:#b56d2a;fill-opacity:1" />
  <path
     fill-rule="evenodd"
     clip-rule="evenodd"
     d="m -35.383251,16.546726 c -59.581,0 -107.879999,48.19 -107.879999,107.640004 0,59.45 48.298999,107.64 107.879999,107.64 59.58,0 107.88,-48.19 107.88,-107.64 0,-59.450004 -48.3,-107.640004 -107.88,-107.640004 z M -143.76325,124.18673 c 0,-59.720004 48.522999,-108.140004 108.379999,-108.140004 59.856,0 108.38,48.42 108.38,108.140004 0,59.72 -48.524,108.14 -108.38,108.14 -59.857,0 -108.379999,-48.42 -108.379999,-108.14 z"
     fill="#ffffff"
     id="path71"
     style="fill:#b56d2a;fill-opacity:1" />
  <path
     fill-rule="evenodd"
     clip-rule="evenodd"
     d="m -35.383251,-5.9532745 c -72.034999,0 -130.429999,58.2700005 -130.429999,130.1400045 0,71.87 58.395,130.14 130.429999,130.14 72.034,0 130.429,-58.27 130.429,-130.14 0,-71.870004 -58.395,-130.1400045 -130.429,-130.1400045 z M -166.31325,124.18673 c 0,-72.150004 58.619,-130.6300045 130.929999,-130.6300045 72.31,0 130.929,58.4800005 130.929,130.6300045 0,72.15 -58.619,130.64 -130.929,130.64 -72.310999,0 -130.929999,-58.49 -130.929999,-130.64 z"
     fill="#ffffff"
     id="path72"
     style="fill:#b56d2a;fill-opacity:1" />
  <path
     fill-rule="evenodd"
     clip-rule="evenodd"
     d="m -35.383251,-28.453274 c -84.487999,0 -152.978999,68.34 -152.978999,152.640004 0,84.3 68.491,152.64 152.978999,152.64 84.488,0 152.979001,-68.34 152.979001,-152.64 0,-84.300004 -68.491001,-152.640004 -152.979001,-152.640004 z M -188.86225,124.18673 c 0,-84.570004 68.715,-153.130004 153.478999,-153.130004 84.764,0 153.479001,68.56 153.479001,153.130004 0,84.57 -68.715001,153.14 -153.479001,153.14 -84.763999,0 -153.478999,-68.57 -153.478999,-153.14 z"
     fill="#ffffff"
     id="path73"
     style="fill:#b56d2a;fill-opacity:1" />
  <path
     fill-rule="evenodd"
     clip-rule="evenodd"
     d="m -35.383251,-50.953274 c -96.947999,0 -175.538999,78.41 -175.538999,175.140004 0,96.73 78.591,175.15 175.538999,175.15 96.947,0 175.538001,-78.42 175.538001,-175.15 0,-96.730004 -78.591001,-175.140004 -175.538001,-175.140004 z M -211.42225,124.18673 c 0,-97.000004 78.815,-175.640004 176.038999,-175.640004 97.223,0 176.038001,78.64 176.038001,175.640004 0,97.01 -78.815001,175.64 -176.038001,175.64 -97.223999,0 -176.038999,-78.63 -176.038999,-175.64 z"
     fill="#ffffff"
     id="path74"
     style="fill:#b56d2a;fill-opacity:1" />
  <path
     fill-rule="evenodd"
     clip-rule="evenodd"
     d="m -35.383251,-73.453274 c -109.400999,0 -198.087999,88.48 -198.087999,197.640004 0,109.16 88.687,197.64 198.087999,197.64 109.401,0 198.088001,-88.48 198.088001,-197.64 0,-109.160004 -88.687001,-197.640004 -198.088001,-197.640004 z M -233.97125,124.18673 c 0,-109.430004 88.911,-198.140004 198.587999,-198.140004 109.677,0 198.588001,88.71 198.588001,198.140004 0,109.43 -88.911001,198.14 -198.588001,198.14 -109.676999,0 -198.587999,-88.71 -198.587999,-198.14 z"
     fill="#ffffff"
     id="path75"
     style="fill:#b56d2a;fill-opacity:1" />
  <path
     fill-rule="evenodd"
     clip-rule="evenodd"
     d="m -35.383251,-95.963274 c -121.860999,0 -220.647999,98.5599995 -220.647999,220.150004 0,121.59 98.787,220.15 220.647999,220.15 121.86,0 220.647001,-98.56 220.647001,-220.15 0,-121.5900045 -98.787001,-220.150004 -220.647001,-220.150004 z M -256.53125,124.18673 c 0,-121.8600045 99.011,-220.650004 221.147999,-220.650004 122.136,0 221.147001,98.7899995 221.147001,220.650004 0,121.86 -99.011001,220.65 -221.147001,220.65 -122.136999,0 -221.147999,-98.79 -221.147999,-220.65 z"
     fill="#ffffff"
     id="path76"
     style="fill:#b56d2a;fill-opacity:1" />
  <path
     fill-rule="evenodd"
     clip-rule="evenodd"
     d="m -35.383251,-118.46327 c -134.313999,0 -243.197999,108.6399955 -243.197999,242.65 0,134.01 108.884,242.65 243.197999,242.65 134.314,0 243.197001,-108.64 243.197001,-242.65 0,-134.0100045 -108.883001,-242.65 -243.197001,-242.65 z m -243.696999,242.65 c 0,-134.290004 109.106,-243.15 243.696999,-243.15 134.59,0 243.697001,108.859996 243.697001,243.15 0,134.29 -109.107001,243.15 -243.697001,243.15 -134.590999,0 -243.696999,-108.86 -243.696999,-243.15 z"
     fill="#ffffff"
     id="path77"
     style="fill:#b56d2a;fill-opacity:1" />
  <path
     fill-rule="evenodd"
     clip-rule="evenodd"
     d="m -35.383251,-140.97327 c -146.773999,0 -265.756999,118.719996 -265.756999,265.16 0,146.45 118.983,265.16 265.756999,265.16 146.773001,0 265.756001,-118.71 265.756001,-265.16 0,-146.440004 -118.983,-265.16 -265.756001,-265.16 z m -266.256999,265.16 c 0,-146.720004 119.207,-265.66 266.256999,-265.66 147.049001,0 266.256001,118.939996 266.256001,265.66 0,146.72 -119.207,265.66 -266.256001,265.66 -147.049999,0 -266.256999,-118.94 -266.256999,-265.66 z"
     fill="#ffffff"
     id="path78"
     style="fill:#b56d2a;fill-opacity:1" />
  <path
     fill-rule="evenodd"
     clip-rule="evenodd"
     d="m -35.383251,-163.47327 c -159.227999,0 -288.306999,128.789996 -288.306999,287.66 0,158.87 129.079,287.66 288.306999,287.66 159.227001,0 288.309001,-128.79 288.309001,-287.66 0,-158.870004 -129.082,-287.66 -288.309001,-287.66 z m -288.805999,287.66 c 0,-159.140004 129.302,-288.16 288.805999,-288.16 159.503001,0 288.809001,129.019996 288.809001,288.16 0,159.15 -129.306,288.16 -288.809001,288.16 -159.503999,0 -288.805999,-129.01 -288.805999,-288.16 z"
     fill="#ffffff"
     id="path79"
     style="fill:#b56d2a;fill-opacity:1" />
  <path
     fill-rule="evenodd"
     clip-rule="evenodd"
     d="m -35.383251,-185.98327 c -171.686999,0 -310.865999,138.869996 -310.865999,310.17 0,171.3 139.179,310.17 310.865999,310.17 171.686001,0 310.869001,-138.87 310.869001,-310.17 0,-171.300004 -139.183,-310.17 -310.869001,-310.17 z m -311.365999,310.17 c 0,-171.580004 139.403,-310.67 311.365999,-310.67 171.962001,0 311.369001,139.089996 311.369001,310.67 0,171.58 -139.407,310.67 -311.369001,310.67 -171.962999,0 -311.365999,-139.09 -311.365999,-310.67 z"
     fill="#ffffff"
     id="path80"
     style="fill:#b56d2a;fill-opacity:1" />
  <path
     fill-rule="evenodd"
     clip-rule="evenodd"
     d="m -35.383251,-208.48327 c -184.140999,0 -333.415999,148.939996 -333.415999,332.67 0,183.73 149.275,332.67 333.415999,332.67 184.140001,0 333.419001,-148.94 333.419001,-332.67 0,-183.730004 -149.279,-332.67 -333.419001,-332.67 z m -333.915999,332.67 c 0,-184.000004 149.499,-333.17 333.915999,-333.17 184.416001,0 333.919001,149.169996 333.919001,333.17 0,184 -149.503,333.17 -333.919001,333.17 -184.416999,0 -333.915999,-149.17 -333.915999,-333.17 z"
     fill="#ffffff"
     id="path81"
     style="fill:#b56d2a;fill-opacity:1" />
  <path
     fill-rule="evenodd"
     clip-rule="evenodd"
     d="m -35.383251,-230.99327 c -196.599999,0 -355.974999,159.019996 -355.974999,355.18 0,196.16 159.375,355.18 355.974999,355.18 196.599001,0 355.979001,-159.02 355.979001,-355.18 0,-196.160004 -159.38,-355.18 -355.979001,-355.18 z m -356.474999,355.18 c 0,-196.430004 159.599,-355.67 356.474999,-355.67 196.875001,0 356.479001,159.239996 356.479001,355.67 0,196.43 -159.604,355.68 -356.479001,355.68 -196.875999,0 -356.474999,-159.25 -356.474999,-355.68 z"
     fill="#ffffff"
     id="path82"
     style="fill:#b56d2a;fill-opacity:1" />
  <path
     fill-rule="evenodd"
     clip-rule="evenodd"
     d="m -35.383251,-253.48327 c -209.053999,0 -378.524999,169.089996 -378.524999,377.67 0,208.59 169.471,377.68 378.524999,377.68 209.053001,0 378.529001,-169.09 378.529001,-377.68 0,-208.580004 -169.476,-377.67 -378.529001,-377.67 z m -379.024999,377.67 c 0,-208.860004 169.695,-378.17 379.024999,-378.17 209.329001,0 379.029001,169.309996 379.029001,378.17 0,208.86 -169.7,378.18 -379.029001,378.18 -209.329999,0 -379.024999,-169.32 -379.024999,-378.18 z"
     fill="#ffffff"
     id="path83"
     style="fill:#b56d2a;fill-opacity:1" />
  <path
     fill-rule="evenodd"
     clip-rule="evenodd"
     d="m -35.383251,-275.99327 c -221.512999,0 -401.083999,179.159996 -401.083999,400.18 0,221.02 179.571,400.19 401.083999,400.19 221.512001,0 401.079001,-179.17 401.079001,-400.19 0,-221.020004 -179.567,-400.18 -401.079001,-400.18 z m -401.583999,400.18 c 0,-221.290004 179.795,-400.68 401.583999,-400.68 221.788001,0 401.579001,179.389996 401.579001,400.68 0,221.29 -179.791,400.68 -401.579001,400.68 -221.788999,0 -401.583999,-179.39 -401.583999,-400.68 z"
     fill="#ffffff"
     id="path84"
     style="fill:#b56d2a;fill-opacity:1" />
  <path
     fill-rule="evenodd"
     clip-rule="evenodd"
     d="m -35.383251,-298.49327 c -233.966999,0 -423.633999,189.24 -423.633999,422.68 0,233.44 189.667,422.68 423.633999,422.68 233.966001,0 423.629001,-189.24 423.629001,-422.68 0,-233.44 -189.663,-422.68 -423.629001,-422.68 z m -424.133999,422.68 c 0,-233.72 189.891,-423.18 424.133999,-423.18 234.242001,0 424.129001,189.46 424.129001,423.18 0,233.72 -189.887,423.18 -424.129001,423.18 -234.242999,0 -424.133999,-189.46 -424.133999,-423.18 z"
     fill="#ffffff"
     id="path85"
     style="fill:#b56d2a;fill-opacity:1" />
  <path
     fill-rule="evenodd"
     clip-rule="evenodd"
     d="m -35.383251,-321.00327 c -246.425999,0 -446.192999,199.32 -446.192999,445.19 0,245.87 199.767,445.19 446.192999,445.19 246.425001,0 446.189001,-199.32 446.189001,-445.19 0,-245.87 -199.764,-445.19 -446.189001,-445.19 z m -446.692999,445.19 c 0,-246.15 199.991,-445.69 446.692999,-445.69 246.701001,0 446.689001,199.54 446.689001,445.69 0,246.15 -199.988,445.69 -446.689001,445.69 -246.701999,0 -446.692999,-199.54 -446.692999,-445.69 z"
     fill="#ffffff"
     id="path86"
     style="fill:#b56d2a;fill-opacity:1" />
  <path
     fill-rule="evenodd"
     clip-rule="evenodd"
     d="m -35.383251,-343.50327 c -258.879999,0 -468.742999,209.39 -468.742999,467.69 0,258.3 209.863,467.69 468.742999,467.69 258.879001,0 468.739001,-209.39 468.739001,-467.69 0,-258.3 -209.86,-467.69 -468.739001,-467.69 z m -469.242999,467.69 c 0,-258.57 210.087,-468.19 469.242999,-468.19 259.155001,0 469.239001,209.62 469.239001,468.19 0,258.58 -210.084,468.19 -469.239001,468.19 -259.155999,0 -469.242999,-209.61 -469.242999,-468.19 z"
     fill="#ffffff"
     id="path87"
     style="fill:#b56d2a;fill-opacity:1" />
  <path
     fill-rule="evenodd"
     clip-rule="evenodd"
     d="m -35.394251,-366.01327 c -271.334999,-0.34 -491.301999,219.47 -491.301999,490.2 0,270.73 219.967,490.2 491.302999,490.2 271.336001,-0.01 491.539001,-219.48 491.299001,-490.2 -0.24,-270.38 -220.193,-489.85 -491.300001,-490.2 z m -491.800999,490.2 c 0,-271 220.189,-491.04 491.801999,-490.7 271.382001,0.35 491.559001,220.05 491.799001,490.7 0.24,270.99 -220.187,490.69 -491.799001,490.7 -271.612999,0 -491.801999,-219.7 -491.801999,-490.7 z"
     fill="#ffffff"
     id="path88"
     style="fill:#b56d2a;fill-opacity:1" />
  <path
     fill-rule="evenodd"
     clip-rule="evenodd"
     d="m 680.05575,-574.71327 c -159.23,0 -288.31,128.79 -288.31,287.66 0,158.87 129.08,287.65999554 288.31,287.65999554 159.23,0 288.31,-128.78999554 288.31,-287.65999554 0,-158.87 -129.08,-287.66 -288.31,-287.66 z m -288.81,287.66 c 0,-159.15 129.31,-288.16 288.81,-288.16 159.5,0 288.81,129.01 288.81,288.16 0,159.14 -129.31,288.1499955 -288.81,288.1499955 -159.5,0 -288.81,-129.0099955 -288.81,-288.1499955 z"
     fill="#ffffff"
     id="path101"
     style="fill:#b56d2a;fill-opacity:1" />
  <path
     fill-rule="evenodd"
     clip-rule="evenodd"
     d="m 680.05575,-597.22327 c -171.69,0 -310.87,138.86 -310.87,310.17 0,171.3 139.18,310.159996 310.87,310.159996 171.69,0 310.87,-138.859996 310.87,-310.159996 0,-171.31 -139.18,-310.17 -310.87,-310.17 z m -311.37,310.17 c 0,-171.58 139.41,-310.67 311.37,-310.67 171.96,0 311.37,139.09 311.37,310.67 0,171.57 -139.41,310.659996 -311.37,310.659996 -171.96,0 -311.37,-139.089996 -311.37,-310.659996 z"
     fill="#ffffff"
     id="path102"
     style="fill:#b56d2a;fill-opacity:1" />
  <path
     fill-rule="evenodd"
     clip-rule="evenodd"
     d="m 680.05575,-619.72527 c -184.14,0 -333.42,148.942 -333.42,332.672 0,183.72 149.28,332.659996 333.42,332.659996 184.14,0 333.40995,-148.939996 333.40995,-332.659996 0,-183.73 -149.26995,-332.672 -333.40995,-332.672 z m -333.92,332.672 c 0,-184.01 149.5,-333.17 333.92,-333.17 184.42,0 333.90995,149.16 333.90995,333.17 0,184 -149.48995,333.159996 -333.90995,333.159996 -184.42,0 -333.92,-149.159996 -333.92,-333.159996 z"
     fill="#ffffff"
     id="path103"
     style="fill:#b56d2a;fill-opacity:1" />
  <path
     fill-rule="evenodd"
     clip-rule="evenodd"
     d="m 680.05575,-642.23427 c -196.6,0 -355.98,159.021 -355.98,355.181 0,196.149996 159.38,355.169996 355.98,355.169996 196.6,0 355.96995,-159.02 355.96995,-355.169996 0,-196.16 -159.36995,-355.181 -355.96995,-355.181 z m -356.48,355.181 c 0,-196.44 159.6,-355.679 356.48,-355.679 196.87,0 356.46995,159.239 356.46995,355.679 0,196.429996 -159.59995,355.669996 -356.46995,355.669996 -196.88,0 -356.48,-159.24 -356.48,-355.669996 z"
     fill="#ffffff"
     id="path104"
     style="fill:#b56d2a;fill-opacity:1" />
  <path
     fill-rule="evenodd"
     clip-rule="evenodd"
     d="m 680.05575,-664.73327 c -209.05,0 -378.53,169.09 -378.53,377.68 0,208.579996 169.48,377.669996 378.53,377.669996 209.05,0 378.51995,-169.09 378.51995,-377.669996 0,-208.59 -169.46995,-377.68 -378.51995,-377.68 z m -379.03,377.68 c 0,-208.86 169.7,-378.178 379.03,-378.178 209.33,0 379.01995,169.318 379.01995,378.178 0,208.859996 -169.68995,378.169996 -379.01995,378.169996 -209.33,0 -379.03,-169.31 -379.03,-378.169996 z"
     fill="#ffffff"
     id="path105"
     style="fill:#b56d2a;fill-opacity:1" />
  <path
     fill-rule="evenodd"
     clip-rule="evenodd"
     d="m 680.05575,-687.24227 c -221.51,0 -401.08,179.169 -401.08,400.189 0,221.009996 179.57,400.18 401.08,400.18 221.51,0 401.07995,-179.170004 401.07995,-400.18 0,-221.02 -179.56995,-400.189 -401.07995,-400.189 z m -401.58,400.189 c 0,-221.3 179.79,-400.687 401.58,-400.687 221.79,0 401.57995,179.387 401.57995,400.687 0,221.289996 -179.78995,400.68 -401.57995,400.68 -221.79,0 -401.58,-179.390004 -401.58,-400.68 z"
     fill="#ffffff"
     id="path106"
     style="fill:#b56d2a;fill-opacity:1" />
  <path
     fill-rule="evenodd"
     clip-rule="evenodd"
     d="m 680.05575,-709.74127 c -233.97,0 -423.63,189.238 -423.63,422.688 0,233.439996 189.66,422.68 423.63,422.68 233.97,0 423.62995,-189.240004 423.62995,-422.68 0,-233.45 -189.65995,-422.688 -423.62995,-422.688 z m -424.13,422.688 c 0,-233.72 189.89,-423.186 424.13,-423.186 234.24,0 424.12995,189.466 424.12995,423.186 0,233.709996 -189.88995,423.18 -424.12995,423.18 -234.24,0 -424.13,-189.470004 -424.13,-423.18 z"
     fill="#ffffff"
     id="path107"
     style="fill:#b56d2a;fill-opacity:1" />
  <path
     fill-rule="evenodd"
     clip-rule="evenodd"
     d="m 680.05575,-732.24927 c -246.43,0 -446.194,199.316 -446.194,445.196 0,245.869996 199.764,445.19 446.194,445.19 246.42,0 446.18995,-199.320004 446.18995,-445.19 0,-245.88 -199.76995,-445.196 -446.18995,-445.196 z m -446.694,445.196 c 0,-246.15 199.994,-445.695 446.694,-445.695 246.7,0 446.68995,199.545 446.68995,445.695 0,246.139996 -199.98995,445.69 -446.68995,445.69 -246.7,0 -446.694,-199.550004 -446.694,-445.69 z"
     fill="#ffffff"
     id="path108"
     style="fill:#b56d2a;fill-opacity:1" />
  <path
     fill-rule="evenodd"
     clip-rule="evenodd"
     d="m 680.05575,-754.74827 c -258.88,0 -468.744,209.395 -468.744,467.695 0,258.299996 209.864,467.69 468.744,467.69 258.88,0 468.73995,-209.390004 468.73995,-467.69 0,-258.3 -209.85995,-467.695 -468.73995,-467.695 z m -469.243,467.695 c 0,-258.58 210.083,-468.194 469.243,-468.194 259.15,0 469.23995,209.614 469.23995,468.194 0,258.569996 -210.08995,468.19 -469.23995,468.19 -259.16,0 -469.243,-209.620004 -469.243,-468.19 z"
     fill="#ffffff"
     id="path109"
     style="fill:#b56d2a;fill-opacity:1" />
  <path
     fill-rule="evenodd"
     clip-rule="evenodd"
     d="m 680.05575,-777.25727 c -271.34,0 -491.303,219.474 -491.303,490.204 0,270.729996 219.963,490.2 491.303,490.2 271.34,0 491.29995,-219.470004 491.29995,-490.2 0,-270.73 -219.95995,-490.204 -491.29995,-490.204 z m -491.803,490.204 c 0,-271.01 220.183,-490.703 491.803,-490.703 271.61,0 491.79995,219.693 491.79995,490.703 0,270.999996 -220.18995,490.7 -491.79995,490.7 -271.62,0 -491.803,-219.700004 -491.803,-490.7 z"
     fill="#ffffff"
     id="path110"
     style="fill:#b56d2a;fill-opacity:1" />
  <path
     fill-rule="evenodd"
     clip-rule="evenodd"
     d="m 1395.0357,106.56673 c -9.76,0 -17.66,7.89 -17.66,17.62 0,9.73 7.9,17.62 17.66,17.62 9.75,0 17.66,-7.89 17.66,-17.62 0,-9.73 -7.91,-17.62 -17.66,-17.62 z m -18.16,17.62 c 0,-10.01 8.13,-18.12 18.16,-18.12 10.03,0 18.16,8.11 18.16,18.12 0,10.01 -8.13,18.12 -18.16,18.12 -10.03,0 -18.16,-8.11 -18.16,-18.12 z"
     fill="#ffffff"
     id="path155"
     style="fill:#b56d2a;fill-opacity:1" />
  <path
     fill-rule="evenodd"
     clip-rule="evenodd"
     d="m 1395.0357,84.066726 c -22.21,0 -40.21,17.960004 -40.21,40.120004 0,22.16 18,40.12 40.21,40.12 22.21,0 40.21,-17.96 40.21,-40.12 0,-22.16 -18,-40.120004 -40.21,-40.120004 z m -40.71,40.120004 c 0,-22.43 18.22,-40.620004 40.71,-40.620004 22.48,0 40.71,18.190004 40.71,40.620004 0,22.43 -18.23,40.62 -40.71,40.62 -22.49,0 -40.71,-18.19 -40.71,-40.62 z"
     fill="#ffffff"
     id="path156"
     style="fill:#b56d2a;fill-opacity:1" />
  <path
     fill-rule="evenodd"
     clip-rule="evenodd"
     d="m 1395.0357,61.556726 c -34.67,0 -62.77,28.04 -62.77,62.630004 0,34.59 28.1,62.63 62.77,62.63 34.67,0 62.77,-28.04 62.77,-62.63 0,-34.590004 -28.1,-62.630004 -62.77,-62.630004 z m -63.27,62.630004 c 0,-34.860004 28.32,-63.130004 63.27,-63.130004 34.94,0 63.27,28.27 63.27,63.130004 0,34.87 -28.33,63.13 -63.27,63.13 -34.95,0 -63.27,-28.26 -63.27,-63.13 z"
     fill="#ffffff"
     id="path157"
     style="fill:#b56d2a;fill-opacity:1" />
  <path
     fill-rule="evenodd"
     clip-rule="evenodd"
     d="m 1395.0357,39.056726 c -47.12,0 -85.32,38.12 -85.32,85.130004 0,47.02 38.2,85.13 85.32,85.13 47.12,0 85.32,-38.11 85.32,-85.13 0,-47.010004 -38.2,-85.130004 -85.32,-85.130004 z m -85.82,85.130004 c 0,-47.290004 38.42,-85.630004 85.82,-85.630004 47.4,0 85.82,38.34 85.82,85.630004 0,47.29 -38.42,85.63 -85.82,85.63 -47.4,0 -85.82,-38.34 -85.82,-85.63 z"
     fill="#ffffff"
     id="path158"
     style="fill:#b56d2a;fill-opacity:1" />
  <path
     fill-rule="evenodd"
     clip-rule="evenodd"
     d="m 1395.0357,16.546726 c -59.58,0 -107.88,48.19 -107.88,107.640004 0,59.45 48.3,107.64 107.88,107.64 59.58,0 107.88,-48.19 107.88,-107.64 0,-59.450004 -48.3,-107.640004 -107.88,-107.640004 z m -108.38,107.640004 c 0,-59.720004 48.52,-108.140004 108.38,-108.140004 59.85,0 108.38,48.42 108.38,108.140004 0,59.72 -48.53,108.14 -108.38,108.14 -59.86,0 -108.38,-48.42 -108.38,-108.14 z"
     fill="#ffffff"
     id="path159"
     style="fill:#b56d2a;fill-opacity:1" />
  <path
     fill-rule="evenodd"
     clip-rule="evenodd"
     d="m 1395.0357,-5.9532745 c -72.04,0 -130.43,58.2700005 -130.43,130.1400045 0,71.87 58.39,130.14 130.43,130.14 72.03,0 130.43,-58.27 130.43,-130.14 0,-71.870004 -58.4,-130.1400045 -130.43,-130.1400045 z m -130.93,130.1400045 c 0,-72.150004 58.62,-130.6300045 130.93,-130.6300045 72.31,0 130.93,58.4800005 130.93,130.6300045 0,72.15 -58.62,130.64 -130.93,130.64 -72.31,0 -130.93,-58.49 -130.93,-130.64 z"
     fill="#ffffff"
     id="path160"
     style="fill:#b56d2a;fill-opacity:1" />
  <path
     fill-rule="evenodd"
     clip-rule="evenodd"
     d="m 1395.0357,-28.453274 c -84.49,0 -152.98,68.34 -152.98,152.640004 0,84.3 68.49,152.64 152.98,152.64 84.49,0 152.98,-68.34 152.98,-152.64 0,-84.300004 -68.49,-152.640004 -152.98,-152.640004 z m -153.48,152.640004 c 0,-84.570004 68.71,-153.130004 153.48,-153.130004 84.76,0 153.48,68.56 153.48,153.130004 0,84.57 -68.72,153.14 -153.48,153.14 -84.77,0 -153.48,-68.57 -153.48,-153.14 z"
     fill="#ffffff"
     id="path161"
     style="fill:#b56d2a;fill-opacity:1" />
  <path
     fill-rule="evenodd"
     clip-rule="evenodd"
     d="m 1395.0357,-50.953274 c -96.95,0 -175.54,78.41 -175.54,175.140004 0,96.73 78.59,175.15 175.54,175.15 96.95,0 175.54,-78.42 175.54,-175.15 0,-96.730004 -78.59,-175.140004 -175.54,-175.140004 z m -176.04,175.140004 c 0,-97.000004 78.81,-175.640004 176.04,-175.640004 97.22,0 176.04,78.64 176.04,175.640004 0,97.01 -78.82,175.64 -176.04,175.64 -97.23,0 -176.04,-78.63 -176.04,-175.64 z"
     fill="#ffffff"
     id="path162"
     style="fill:#b56d2a;fill-opacity:1" />
  <path
     fill-rule="evenodd"
     clip-rule="evenodd"
     d="m 1395.0357,-73.453274 c -109.4,0 -198.09,88.48 -198.09,197.640004 0,109.16 88.69,197.64 198.09,197.64 109.4,0 198.09,-88.48 198.09,-197.64 0,-109.160004 -88.69,-197.640004 -198.09,-197.640004 z m -198.59,197.640004 c 0,-109.430004 88.91,-198.140004 198.59,-198.140004 109.67,0 198.59,88.71 198.59,198.140004 0,109.43 -88.92,198.14 -198.59,198.14 -109.68,0 -198.59,-88.71 -198.59,-198.14 z"
     fill="#ffffff"
     id="path163"
     style="fill:#b56d2a;fill-opacity:1" />
  <path
     fill-rule="evenodd"
     clip-rule="evenodd"
     d="m 1395.0357,-95.963274 c -121.86,0 -220.65,98.5599995 -220.65,220.150004 0,121.59 98.79,220.15 220.65,220.15 121.86,0 220.65,-98.56 220.65,-220.15 0,-121.5900045 -98.79,-220.150004 -220.65,-220.150004 z m -221.15,220.150004 c 0,-121.8600045 99.01,-220.650004 221.15,-220.650004 122.13,0 221.15,98.7899995 221.15,220.650004 0,121.86 -99.02,220.65 -221.15,220.65 -122.14,0 -221.15,-98.79 -221.15,-220.65 z"
     fill="#ffffff"
     id="path164"
     style="fill:#b56d2a;fill-opacity:1" />
  <path
     fill-rule="evenodd"
     clip-rule="evenodd"
     d="m 1395.0357,-118.46327 c -134.32,0 -243.2,108.6399955 -243.2,242.65 0,134.01 108.88,242.65 243.2,242.65 134.31,0 243.2,-108.64 243.2,-242.65 0,-134.0100045 -108.89,-242.65 -243.2,-242.65 z m -243.7,242.65 c 0,-134.290004 109.11,-243.15 243.7,-243.15 134.59,0 243.69,108.859996 243.69,243.15 0,134.29 -109.1,243.15 -243.69,243.15 -134.59,0 -243.7,-108.86 -243.7,-243.15 z"
     fill="#ffffff"
     id="path165"
     style="fill:#b56d2a;fill-opacity:1" />
  <path
     fill-rule="evenodd"
     clip-rule="evenodd"
     d="m 1395.0357,-140.97327 c -146.78,0 -265.76,118.719996 -265.76,265.16 0,146.45 118.98,265.16 265.76,265.16 146.77,0 265.75,-118.71 265.75,-265.16 0,-146.440004 -118.98,-265.16 -265.75,-265.16 z m -266.26,265.16 c 0,-146.720004 119.21,-265.66 266.26,-265.66 147.05,0 266.25,118.939996 266.25,265.66 0,146.72 -119.2,265.66 -266.25,265.66 -147.05,0 -266.26,-118.94 -266.26,-265.66 z"
     fill="#ffffff"
     id="path166"
     style="fill:#b56d2a;fill-opacity:1" />
  <path
     fill-rule="evenodd"
     clip-rule="evenodd"
     d="m 1395.0357,-163.47327 c -159.23,0 -288.31,128.789996 -288.31,287.66 0,158.87 129.08,287.66 288.31,287.66 159.22,0 288.3,-128.79 288.3,-287.66 0,-158.870004 -129.08,-287.66 -288.3,-287.66 z m -288.81,287.66 c 0,-159.140004 129.3,-288.16 288.81,-288.16 159.5,0 288.8,129.019996 288.8,288.16 0,159.15 -129.3,288.16 -288.8,288.16 -159.51,0 -288.81,-129.01 -288.81,-288.16 z"
     fill="#ffffff"
     id="path167"
     style="fill:#b56d2a;fill-opacity:1" />
  <path
     fill-rule="evenodd"
     clip-rule="evenodd"
     d="m 1395.0357,-185.98327 c -171.69,0 -310.87,138.869996 -310.87,310.17 0,171.3 139.18,310.17 310.87,310.17 171.68,0 310.86,-138.87 310.86,-310.17 0,-171.300004 -139.18,-310.17 -310.86,-310.17 z m -311.37,310.17 c 0,-171.580004 139.41,-310.67 311.37,-310.67 171.96,0 311.36,139.089996 311.36,310.67 0,171.58 -139.4,310.67 -311.36,310.67 -171.96,0 -311.37,-139.09 -311.37,-310.67 z"
     fill="#ffffff"
     id="path168"
     style="fill:#b56d2a;fill-opacity:1" />
  <path
     fill-rule="evenodd"
     clip-rule="evenodd"
     d="m 1395.0357,-208.48327 c -184.14,0 -333.42,148.939996 -333.42,332.67 0,183.73 149.28,332.67 333.42,332.67 184.14,0 333.41,-148.94 333.41,-332.67 0,-183.730004 -149.27,-332.67 -333.41,-332.67 z m -333.92,332.67 c 0,-184.000004 149.5,-333.17 333.92,-333.17 184.41,0 333.91,149.169996 333.91,333.17 0,184 -149.5,333.17 -333.91,333.17 -184.42,0 -333.92,-149.17 -333.92,-333.17 z"
     fill="#ffffff"
     id="path169"
     style="fill:#b56d2a;fill-opacity:1" />
  <path
     fill-rule="evenodd"
     clip-rule="evenodd"
     d="m 1395.0357,-230.99327 c -196.6,0 -355.98,159.019996 -355.98,355.18 0,196.16 159.38,355.18 355.98,355.18 196.6,0 355.97,-159.02 355.97,-355.18 0,-196.160004 -159.37,-355.18 -355.97,-355.18 z m -356.48,355.18 c 0,-196.430004 159.6,-355.67 356.48,-355.67 196.87,0 356.47,159.239996 356.47,355.67 0,196.43 -159.6,355.68 -356.47,355.68 -196.88,0 -356.48,-159.25 -356.48,-355.68 z"
     fill="#ffffff"
     id="path170"
     style="fill:#b56d2a;fill-opacity:1" />
  <path
     fill-rule="evenodd"
     clip-rule="evenodd"
     d="m 1395.0357,-253.48327 c -209.06,0 -378.53,169.089996 -378.53,377.67 0,208.59 169.47,377.68 378.53,377.68 209.05,0 378.52,-169.09 378.52,-377.68 0,-208.580004 -169.47,-377.67 -378.52,-377.67 z m -379.03,377.67 c 0,-208.860004 169.7,-378.17 379.03,-378.17 209.33,0 379.02,169.309996 379.02,378.17 0,208.86 -169.69,378.18 -379.02,378.18 -209.33,0 -379.03,-169.32 -379.03,-378.18 z"
     fill="#ffffff"
     id="path171"
     style="fill:#b56d2a;fill-opacity:1" />
  <path
     fill-rule="evenodd"
     clip-rule="evenodd"
     d="m 1395.0357,-275.99327 c -221.51,0 -401.08995,179.159996 -401.08995,400.18 0,221.02 179.57995,400.19 401.08995,400.19 221.51,0 401.08,-179.17 401.08,-400.19 0,-221.020004 -179.57,-400.18 -401.08,-400.18 z m -401.58995,400.18 c 0,-221.290004 179.79995,-400.68 401.58995,-400.68 221.79,0 401.58,179.389996 401.58,400.68 0,221.29 -179.79,400.68 -401.58,400.68 -221.79,0 -401.58995,-179.39 -401.58995,-400.68 z"
     fill="#ffffff"
     id="path172"
     style="fill:#b56d2a;fill-opacity:1" />
  <path
     fill-rule="evenodd"
     clip-rule="evenodd"
     d="m 1395.0357,-298.49327 c -233.97,0 -423.63995,189.24 -423.63995,422.68 0,233.44 189.66995,422.68 423.63995,422.68 233.96,0 423.63,-189.24 423.63,-422.68 0,-233.44 -189.67,-422.68 -423.63,-422.68 z m -424.13995,422.68 c 0,-233.72 189.89995,-423.18 424.13995,-423.18 234.24,0 424.13,189.46 424.13,423.18 0,233.72 -189.89,423.18 -424.13,423.18 -234.24,0 -424.13995,-189.46 -424.13995,-423.18 z"
     fill="#ffffff"
     id="path173"
     style="fill:#b56d2a;fill-opacity:1" />
  <path
     fill-rule="evenodd"
     clip-rule="evenodd"
     d="m 1395.0357,-321.00327 c -246.43,0 -446.19995,199.32 -446.19995,445.19 0,245.87 199.76995,445.19 446.19995,445.19 246.42,0 446.19,-199.32 446.19,-445.19 0,-245.87 -199.77,-445.19 -446.19,-445.19 z m -446.68995,445.19 c 0,-246.15 199.98995,-445.69 446.68995,-445.69 246.7,0 446.69,199.54 446.69,445.69 0,246.15 -199.99,445.69 -446.69,445.69 -246.7,0 -446.68995,-199.54 -446.68995,-445.69 z"
     fill="#ffffff"
     id="path174"
     style="fill:#b56d2a;fill-opacity:1" />
  <path
     fill-rule="evenodd"
     clip-rule="evenodd"
     d="m 1395.0357,-343.50327 c -258.88,0 -468.73995,209.39 -468.73995,467.69 0,258.3 209.85995,467.69 468.73995,467.69 258.88,0 468.74,-209.39 468.74,-467.69 0,-258.3 -209.86,-467.69 -468.74,-467.69 z m -469.23995,467.69 c 0,-258.57 210.07995,-468.19 469.23995,-468.19 259.15,0 469.24,209.62 469.24,468.19 0,258.58 -210.09,468.19 -469.24,468.19 -259.16,0 -469.23995,-209.61 -469.23995,-468.19 z"
     fill="#ffffff"
     id="path175"
     style="fill:#b56d2a;fill-opacity:1" />
  <path
     fill-rule="evenodd"
     clip-rule="evenodd"
     d="m 1395.0357,-366.01327 c -271.51,-0.44 -491.43995,219.1 -491.29995,490.2 0.14,270.73 219.95995,490.2 491.29995,490.2 271.33,0 491.3,-219.47 491.3,-490.2 0,-270.73 -219.97,-489.76 -491.3,-490.2 z m -491.79995,490.2 c -0.14,-271.37 220.01995,-491.14 491.79995,-490.7 271.61,0.44 491.8,219.7 491.8,490.7 0,271 -220.19,490.7 -491.8,490.7 -271.61,0 -491.65995,-219.7 -491.79995,-490.7 z"
     fill="#ffffff"
     id="path176"
     style="fill:#b56d2a;fill-opacity:1" />
</svg>
