<?xml version="1.0" encoding="UTF-8" standalone="no"?>
<!-- Created with Inkscape (http://www.inkscape.org/) -->

<svg
   width="120"
   height="88"
   viewBox="0 0 31.75 23.283344"
   version="1.1"
   id="svg6305"
   sodipodi:docname="country-culture.svg"
   inkscape:version="1.2.1 (9c6d41e410, 2022-07-14)"
   xmlns:inkscape="http://www.inkscape.org/namespaces/inkscape"
   xmlns:sodipodi="http://sodipodi.sourceforge.net/DTD/sodipodi-0.dtd"
   xmlns="http://www.w3.org/2000/svg"
   xmlns:svg="http://www.w3.org/2000/svg">
  <sodipodi:namedview
     id="namedview8108"
     pagecolor="#ffffff"
     bordercolor="#000000"
     borderopacity="0.25"
     inkscape:showpageshadow="2"
     inkscape:pageopacity="0.0"
     inkscape:pagecheckerboard="0"
     inkscape:deskcolor="#d1d1d1"
     showgrid="false"
     inkscape:zoom="9.4204545"
     inkscape:cx="47.609168"
     inkscape:cy="44.053076"
     inkscape:window-width="1920"
     inkscape:window-height="1009"
     inkscape:window-x="-8"
     inkscape:window-y="-8"
     inkscape:window-maximized="1"
     inkscape:current-layer="svg6305" />
  <defs
     id="defs6302" />
  <g
     id="layer1"
     style="fill:#5f5f5f;fill-opacity:1">
    <path
       id="path6150"
       style="fill:#5f5f5f;stroke-width:0.211667;fill-opacity:1"
       d="M 10.803494,0.68454905 C 9.707747,0.75245905 8.645558,1.248105 7.9261515,2.1030673 c -0.473978,0.563299 -0.637118,0.638769 -0.982886,0.453719 -0.583943,-0.3125 -1.841205,-0.275652 -2.517158,0.0739 -1.0868,0.56201 -1.4170346,1.12954 -1.4221346,2.442228 -0.0044,1.134959 -0.05545,1.256516 -0.806153,1.915646 -1.21735504,1.068849 -1.68735104,2.150959 -1.57974804,3.6385367 0.118027,1.631739 0.91702704,2.790487 2.50010464,3.626136 1.086133,0.573299 1.278897,0.606313 3.012219,0.512113 l 1.852083,-0.100769 v 1.999361 1.998845 l -0.823722,0.990637 c -0.806619,0.969849 -1.716175,2.556319 -1.716175,2.993099 0,0.1424 1.105726,0.219625 3.1341755,0.219625 h 3.134692 l 0.394292,-0.89917 c 0.216852,-0.49477 0.942151,-1.43783 1.611789,-2.09548 1.739657,-1.708518 2.695713,-2.028306 8.415506,-2.814815 3.018575,-0.415069 3.16762,-0.642106 0.678511,-1.034045 l -1.493966,-0.235131 v -1.403532 -1.403532 l 1.028878,0.0987 c 1.960667,0.1884 3.413596,-1.021786 3.415296,-2.843754 8.61e-4,-0.9618087 -0.584911,-1.8615657 -1.548226,-2.3771157 -0.445127,-0.23822 -0.51423,-0.39606 -0.42168,-0.966349 0.20973,-1.292409 -1.05366,-2.652035 -2.463932,-2.652035 -0.549488,0 -1.524721,0.482129 -1.906861,0.942579 -0.198706,0.239449 -0.476109,0.298488 -0.967899,0.206188 -0.379078,-0.07112 -0.887708,-0.02331 -1.130164,0.106454 -0.424511,0.22719 -0.408964,0.264515 0.416512,1.010274 1.686713,1.523849 2.247074,3.5648767 1.509469,5.4963057 -0.316166,0.827889 -0.347073,1.066768 -0.127124,0.982369 0.229739,-0.08815 0.290938,0.204537 0.290938,1.393196 v 1.504301 l -2.487187,0.01189 c -2.298964,0.01128 -2.79975,0.08797 -5.55625,0.852144 -0.247115,0.06851 -0.331675,-0.15276 -0.380855,-0.999939 l -0.06304,-1.088822 1.756482,0.104386 c 1.631372,0.09707 1.83953,0.06134 2.920752,-0.506429 1.609372,-0.845099 2.539896,-2.225884 2.539896,-3.768762 0,-0.6129197 -0.135322,-1.4357427 -0.300756,-1.8283117 -0.388738,-0.922469 -1.490422,-2.036296 -2.382801,-2.409156 -0.782423,-0.326919 -0.787308,-0.341381 -0.494543,-1.36219 C 15.386144,3.4161233 14.47141,1.8310103 12.744983,1.039051 12.130328,0.75708905 11.460948,0.64380705 10.803499,0.68455105 Z M 26.377738,17.153311 c -0.0692,-0.0011 -0.402787,0.239355 -0.74104,0.534334 -0.558603,0.48714 -1.810571,1.152117 -3.938261,2.091346 -1.693246,0.747459 -2.35555,1.684534 -1.945618,2.752803 0.112829,0.29401 0.834848,0.334347 5.92677,0.334347 6.486136,0 6.175716,0.08848 5.355229,-1.519804 -0.619021,-1.213389 -2.219035,-2.864212 -3.473173,-3.583761 -0.582083,-0.333949 -1.114707,-0.608265 -1.183907,-0.609265 z" />
  </g>
</svg>
