<svg id="eho-logo" height="25.709" viewBox="0 0 35.227 25.709" width="35.227" xmlns="http://www.w3.org/2000/svg"><g transform="translate(-859.436 -557.371)"><path d="m894.625 566.85a1.192 1.192 0 0 0 -.52-.852q-8.268-4.294-16.574-8.516a1.1 1.1 0 0 0 -.87-.037q-8.384 4.26-16.741 8.581c-.2.1-.45.351-.457.541-.043 1.1-.021 2.211-.021 3.379h1.988v13.134h31.134v-13.18h2.087c-.001-1.066.04-2.062-.026-3.05zm-5.48 12.731h-24.318c0-3.784-.007-7.509.018-11.234a.91.91 0 0 1 .422-.652q5.687-2.971 11.4-5.881a1.011 1.011 0 0 1 .794.022q5.626 2.9 11.222 5.853a.913.913 0 0 1 .438.644c.031 3.727.024 7.452.024 11.248z"/><path d="m867.412 564.405h11.254v3.047h-11.254z" transform="translate(3.948 3.481)"/><path d="m867.421 568.24h11.2v2.988h-11.2z" transform="translate(3.952 5.379)"/></g></svg>