<?xml version="1.0" encoding="UTF-8" standalone="no"?>
<!-- Created with Inkscape (http://www.inkscape.org/) -->

<svg
   width="24"
   height="24"
   viewBox="0 0 6.3499999 6.3499999"
   version="1.1"
   id="svg5"
   xml:space="preserve"
   xmlns="http://www.w3.org/2000/svg"
   xmlns:svg="http://www.w3.org/2000/svg"><defs
     id="defs2" /><g
     id="layer1"><path
       style="fill:#6c8ca6;stroke-width:0.0512318;fill-opacity:1"
       d="M 1.0412718,5.7337711 C 1.0130943,5.7235909 0.9270634,5.7013844 0.850092,5.6844236 0.6788681,5.6466945 0.370768,5.3834407 0.2701772,5.1889194 L 0.1959466,5.0453732 V 3.3744264 c 0,-1.1346215 0.018453,-1.7068644 0.057492,-1.7828501 0.086016,-0.1674247 0.3071135,-0.3919576 0.4804425,-0.4879082 l 0.1536955,-0.085082 1.2964506,-0.016718 1.2964505,-0.0167181 0.074001,0.0614151 c 0.089749,0.074485 0.097252,0.3125158 0.012523,0.3972456 l -0.061478,0.061478 H 2.213912 0.9223008 L 0.7896671,1.662915 0.6570333,1.8205413 v 1.5547093 1.5547092 l 0.1326338,0.1576263 0.1326337,0.1576262 1.5964405,-0.00163 1.5964405,-0.00163 0.076848,-0.06241 C 4.2342958,5.1452163 4.303434,5.0732735 4.3456698,5.0196689 L 4.4224618,4.9222059 4.4481328,4.2511914 4.4738038,3.580177 4.631863,3.564753 c 0.095258,-0.0093 0.1838278,0.015625 0.2229141,0.062721 L 4.9196321,3.705619 4.9016451,4.3601433 4.8836581,5.0146676 4.7765558,5.2195949 C 4.7099578,5.3470248 4.5759074,5.4826478 4.4220912,5.5782192 l -0.2473636,0.1536953 -1.541112,0.010183 c -0.8476116,0.0056 -1.5641663,0.00185 -1.5923438,-0.00833 z M 2.6915723,4.0779282 C 2.5587885,3.9431172 2.4501471,3.8107514 2.4501471,3.783782 c 0,-0.026969 0.4887302,-0.5381623 1.0860671,-1.1359843 L 4.6222813,1.5608487 4.3046916,1.230112 C 4.1300173,1.0482068 3.9871019,0.86637135 3.9871019,0.82603335 c 0,-0.040338 0.04216,-0.1114963 0.09369,-0.1581297 l 0.09369,-0.084788 h 0.9280418 0.9280417 l 0.079753,0.113863 0.079753,0.1138631 V 1.6737517 c 0,0.4968525 -0.022498,0.9049473 -0.053034,0.9620053 C 6.1043684,2.696798 6.0299742,2.734853 5.943313,2.734853 H 5.8026242 L 5.4978558,2.4268704 5.1930874,2.1188882 4.0901572,3.2209637 C 3.4835456,3.8271052 2.9750255,4.3230392 2.9601124,4.3230392 c -0.014913,0 -0.1357561,-0.1102999 -0.2685401,-0.245111 z"
       id="path302" /></g></svg>
