<?xml version="1.0" encoding="UTF-8" standalone="no"?>
<!-- Created with Inkscape (http://www.inkscape.org/) -->

<svg
   width="120"
   height="88"
   viewBox="0 0 31.75 23.283344"
   version="1.1"
   id="svg6305"
   inkscape:version="1.2.1 (9c6d41e410, 2022-07-14)"
   sodipodi:docname="find-fun.svg"
   xmlns:inkscape="http://www.inkscape.org/namespaces/inkscape"
   xmlns:sodipodi="http://sodipodi.sourceforge.net/DTD/sodipodi-0.dtd"
   xmlns="http://www.w3.org/2000/svg"
   xmlns:svg="http://www.w3.org/2000/svg">
  <sodipodi:namedview
     id="namedview6307"
     pagecolor="#ffffff"
     bordercolor="#000000"
     borderopacity="0.25"
     inkscape:showpageshadow="2"
     inkscape:pageopacity="0.0"
     inkscape:pagecheckerboard="0"
     inkscape:deskcolor="#d1d1d1"
     inkscape:document-units="mm"
     showgrid="false"
     inkscape:zoom="2.0888418"
     inkscape:cx="140.02975"
     inkscape:cy="143.62026"
     inkscape:window-width="1920"
     inkscape:window-height="1009"
     inkscape:window-x="-8"
     inkscape:window-y="-8"
     inkscape:window-maximized="1"
     inkscape:current-layer="layer1" />
  <defs
     id="defs6302" />
  <g
     inkscape:label="Layer 1"
     inkscape:groupmode="layer"
     id="layer1">
    <path
       id="path6150-2"
       style="fill:#5f5f5f;stroke-width:0.211667;fill-opacity:1"
       d="m 18.678132,3.9132442 c -0.0737,-0.0113 -0.12174,-0.0105 -0.13694,0.005 -0.28324,0.28323 -1.71836,4.09072 -1.62936,4.32274 0.0554,0.14442 0.28185,0.31985 0.50333,0.39015 0.29956,0.0951 0.38948,0.29751 0.35088,0.78962 -0.0403,0.51365 0.0614,0.7193498 0.45475,0.9203598 0.59944,0.3063 1.15314,0.15379 0.98961,-0.27234 -0.0636,-0.1656398 -0.0292,-0.2479298 0.076,-0.1829298 0.10516,0.065 0.22817,0.007 0.27337,-0.12868 0.0582,-0.17454 0.34022,-0.13242 0.9648,0.14315 0.75489,0.3328598 0.865,0.4612698 0.75912,0.8831498 -0.0681,0.2715 -0.007,0.63511 0.13695,0.80822 0.37541,0.45234 1.16772,0.3873 1.50688,-0.12351 0.24987,-0.3763 0.37475,-0.40583 0.88625,-0.21136 0.84421,0.32097 1.14472,0.28465 1.62626,-0.19689 0.48874,-0.48872 0.57787,-2.1628298 0.19585,-3.6798698 -0.18578,-0.73785 -0.35363,-0.949 -0.91467,-1.15187 -1.05484,-0.38144 -1.25857,-0.30305 -1.71514,0.65887 -0.49225,1.03712 -1.325,1.30088 -2.04639,0.64803 -0.42559,-0.38517 -0.42649,-0.41606 -0.0434,-2.21072 0.10742,-0.5032 0.017,-0.59099 -1.07332,-1.03353 -0.4913,-0.1994 -0.94369,-0.34324 -1.16478,-0.37724 z m -6.47764,0.0351 c -0.19093,0.0162 -0.44638,0.0942 -0.82631,0.23926 -1.31727,0.50306 -1.42545,0.686 -1.05058,1.77405 0.28198,0.81857 0.28024,0.96846 -0.015,1.41904 -0.21544,0.32879 -0.5302,0.50223 -0.90692,0.50023 -0.75671,-0.004 -0.95016,-0.15797 -1.39216,-1.10795 -0.20314,-0.43655 -0.49988,-0.79375 -0.65939,-0.79375 -0.54841,0 -2.22987,0.83197 -2.23087,1.10381 -0.002,0.4232 1.30006,3.6226798 1.61178,3.9609998 0.2172,0.23573 0.39074,0.25075 0.7891,0.0692 0.44729,-0.2038 0.53955,-0.16898 0.74414,0.28008 0.46778,1.02664 1.913,0.44598 1.63608,-0.65732 -0.11779,-0.46932 -0.0385,-0.58035 0.60461,-0.8490398 0.93178,-0.38932 1.17668,-0.38944 1.17668,5.1e-4 0,0.4953698 0.76729,0.8056398 1.29449,0.5234898 0.35963,-0.19248 0.42588,-0.37601 0.33538,-0.9337998 -0.0957,-0.58975 -0.0333,-0.73055 0.41496,-0.93482 0.45831,-0.20883 0.50811,-0.32996 0.37879,-0.91881 -0.0819,-0.37297 -0.22394,-0.82407 -0.31574,-1.00252 -0.36432,-0.70799 -0.83768,-1.88097 -0.83768,-2.07636 0,-0.11367 -0.13975,-0.32281 -0.31057,-0.46457 -0.12337,-0.10239 -0.24988,-0.14798 -0.4408,-0.13178 z m 3.59254,7.1142998 c -3.81321,-0.0202 -7.59054,1.81036 -10.12444,5.26221 -0.66577,0.90698 -2.02985,3.40608 -2.02985,3.71863 10e-4,0.0646 0.47032,0.11731 1.04386,0.11731 0.83989,0 1.06882,-0.0785 1.1715,-0.40204 0.37586,-1.18421 3.38343,-4.88963 3.96875,-4.88963 0.0911,0 0.16537,1.19063 0.16537,2.64583 0,2.50472 0.023,2.64584 0.42375,2.64584 0.40323,0 0.42323,-0.1409 0.42323,-2.97346 v -2.97398 l 0.89968,-0.40825 c 1.78265,-0.80919 1.74615,-0.86993 1.74615,2.91249 0,2.98547 0.038,3.33784 0.36535,3.40134 0.33234,0.0645 0.37033,-0.24892 0.42323,-3.48868 l 0.0579,-3.55999 h 1.24954 1.24901 l -0.0455,3.54552 c -0.0445,3.45531 -0.0344,3.54501 0.39119,3.54501 0.42365,0 0.43667,-0.10522 0.43667,-3.50676 v -3.50677 l 0.47645,0.15038 c 0.26194,0.0827 0.80952,0.2652 1.21698,0.40566 l 0.74104,0.2558 0.0584,3.10059 c 0.0553,2.92613 0.0823,3.1011 0.47645,3.1011 0.39438,0 0.41755,-0.15313 0.41755,-2.75126 0,-1.51341 0.0616,-2.75177 0.13694,-2.75177 0.0753,0 0.55585,0.34348 1.06815,0.76327 1.04339,0.85496 2.33033,2.48615 3.02979,3.84059 0.45095,0.87318 0.49499,0.89917 1.5043,0.89917 h 1.03973 l -0.32918,-0.79375 c -0.98302,-2.36942 -2.96716,-4.83214 -5.01054,-6.21978 -2.05268,-1.39394 -4.35353,-2.0725 -6.64146,-2.08462 z" />
  </g>
</svg>
