<svg width="64" height="7" viewBox="0 0 64 7" fill="none" xmlns="http://www.w3.org/2000/svg">
<g id="Group">
<path id="Vector" d="M1.04183 0.746002H2.08372L3.73372 3.55546L5.35535 0.746002H6.39723L6.68102 6.6933H5.58237L5.38778 2.57438L3.96075 4.9987H3.43372L1.99859 2.63519L1.80399 6.6933H0.749939L1.04183 0.746002Z" fill="#5F5F5F"/>
<path id="Vector_2" d="M12.4378 0.746002H13.5972L15.8553 6.6933H14.6067L14.0878 5.18519H11.8743L11.3554 6.6933H10.1797L12.4378 0.746002ZM13.7675 4.26087L12.981 1.95006L12.1864 4.26087H13.7675Z" fill="#5F5F5F"/>
<path id="Vector_3" d="M19.4229 0.746002H21.3932C21.7662 0.746002 22.0864 0.802758 22.3459 0.916272C22.6053 1.02979 22.8202 1.17168 22.9783 1.35006C23.1364 1.52843 23.258 1.71897 23.331 1.92573C23.404 2.13249 23.4405 2.33114 23.4405 2.52168C23.4405 2.89465 23.3594 3.22708 23.1972 3.51492C23.0351 3.80276 22.7837 4.03384 22.4432 4.20411L23.8175 6.6933H22.5526L21.3486 4.346H20.5013V6.6933H19.4229V0.746002ZM21.4013 3.42168C21.6851 3.42168 21.908 3.33654 22.0662 3.17033C22.2243 3.00411 22.3013 2.80141 22.3013 2.56222C22.3013 2.30681 22.2162 2.10006 22.0499 1.9379C21.8837 1.77573 21.6648 1.6987 21.3972 1.6987H20.4972V3.42168H21.4013Z" fill="#5F5F5F"/>
<path id="Vector_4" d="M27.5472 0.746002H29.5175C29.8905 0.746002 30.2108 0.802758 30.4702 0.916272C30.7297 1.02979 30.9445 1.17168 31.1026 1.35006C31.2607 1.52843 31.3824 1.71897 31.4553 1.92573C31.5283 2.13249 31.5648 2.33114 31.5648 2.52168C31.5648 2.89465 31.4837 3.22708 31.3216 3.51492C31.1594 3.80276 30.908 4.03384 30.5675 4.20411L31.9418 6.6933H30.677L29.4729 4.346H28.6256V6.6933H27.5472V0.746002ZM29.5256 3.42168C29.8094 3.42168 30.0324 3.33654 30.1905 3.17033C30.3486 3.00411 30.4256 2.80141 30.4256 2.56222C30.4256 2.30681 30.3405 2.10006 30.1743 1.9379C30.008 1.77573 29.7891 1.6987 29.5216 1.6987H28.6216V3.42168H29.5256Z" fill="#5F5F5F"/>
<path id="Vector_5" d="M35.6715 0.746002H36.7945V6.6933H35.6715V0.746002Z" fill="#5F5F5F"/>
<path id="Vector_6" d="M43.808 6.85547C43.3742 6.85547 42.9688 6.77439 42.5959 6.61223C42.2229 6.45006 41.8945 6.22304 41.6148 5.93925C41.3351 5.65547 41.1161 5.32304 40.954 4.94195C40.7918 4.56087 40.7148 4.15547 40.7148 3.72168C40.7148 3.2879 40.7959 2.87844 40.954 2.50142C41.1161 2.12033 41.3351 1.7879 41.6107 1.50817C41.8864 1.22439 42.2148 1.00141 42.5918 0.839251C42.9688 0.677089 43.3742 0.596008 43.808 0.596008C44.2418 0.596008 44.6472 0.677089 45.0202 0.839251C45.3932 1.00141 45.7215 1.22439 46.0013 1.50817C46.281 1.79195 46.4999 2.12033 46.6621 2.50142C46.8243 2.8825 46.9013 3.2879 46.9013 3.72168C46.9013 4.15547 46.8202 4.56493 46.6621 4.94195C46.4999 5.32304 46.281 5.65547 46.0013 5.93925C45.7215 6.22304 45.3932 6.45006 45.0202 6.61223C44.6472 6.77439 44.2418 6.85547 43.808 6.85547ZM43.808 5.79331C44.0999 5.79331 44.3634 5.73655 44.6026 5.62304C44.8418 5.50952 45.0445 5.35547 45.2107 5.16493C45.3769 4.97033 45.5067 4.74736 45.5959 4.49195C45.6851 4.23655 45.7297 3.96898 45.7297 3.68925C45.7297 3.40547 45.6851 3.13385 45.5959 2.88249C45.5067 2.63114 45.3769 2.40817 45.2107 2.21763C45.0445 2.02709 44.8418 1.87709 44.6026 1.76763C44.3634 1.65817 44.0999 1.60142 43.808 1.60142C43.5121 1.60142 43.2445 1.65817 43.0094 1.76763C42.7742 1.87709 42.5756 2.02709 42.4094 2.21763C42.2432 2.40817 42.1134 2.63114 42.0242 2.88249C41.9351 3.13385 41.8905 3.40547 41.8905 3.68925C41.8905 3.96898 41.9351 4.23655 42.0242 4.49195C42.1134 4.74736 42.2432 4.97033 42.4094 5.16493C42.5756 5.35952 42.7783 5.50952 43.0094 5.62304C43.2445 5.73655 43.508 5.79331 43.808 5.79331Z" fill="#5F5F5F"/>
<path id="Vector_7" d="M51.9243 1.73519H49.9094V0.746002H55.0661V1.73519H53.0513V6.6933H51.9283V1.73519H51.9243Z" fill="#5F5F5F"/>
<path id="Vector_8" d="M60.0729 1.73519H58.058V0.746002H63.2148V1.73519H61.1999V6.6933H60.077V1.73519H60.0729Z" fill="#5F5F5F"/>
</g>
</svg>
