<?xml version="1.0" encoding="UTF-8" standalone="no"?>
<svg
   id="svc-logo"
   height="32.73"
   viewBox="0 0 61.886 32.73"
   width="61.886"
   version="1.1"
   sodipodi:docname="logo_SVC_white.svg"
   inkscape:version="1.2.1 (9c6d41e410, 2022-07-14)"
   xmlns:inkscape="http://www.inkscape.org/namespaces/inkscape"
   xmlns:sodipodi="http://sodipodi.sourceforge.net/DTD/sodipodi-0.dtd"
   xmlns="http://www.w3.org/2000/svg"
   xmlns:svg="http://www.w3.org/2000/svg">
  <defs
     id="defs1304" />
  <sodipodi:namedview
     id="namedview1302"
     pagecolor="#ffffff"
     bordercolor="#000000"
     borderopacity="0.25"
     inkscape:showpageshadow="2"
     inkscape:pageopacity="0.0"
     inkscape:pagecheckerboard="0"
     inkscape:deskcolor="#d1d1d1"
     showgrid="false"
     inkscape:zoom="19.552079"
     inkscape:cx="24.984555"
     inkscape:cy="16.366546"
     inkscape:window-width="1920"
     inkscape:window-height="1009"
     inkscape:window-x="-8"
     inkscape:window-y="-8"
     inkscape:window-maximized="1"
     inkscape:current-layer="svc-logo" />
  <g
     id="g1299"
     style="fill:#ffffff">
    <path
       d="m308.926 125.1h.01a2.884 2.884 0 0 0 1.72-.055l.209-.073.2.069a3 3 0 0 0 1.768.071h.01l-1.973-.687zm1.978-1.612a5.5 5.5 0 0 1 -1.221-.139l-2.646.921h.006a1.385 1.385 0 0 0 1.187.131l2.633-.917 2.657.925a1.426 1.426 0 0 0 1.215-.121h.005l-2.664-.928a5.467 5.467 0 0 1 -1.173.128m-5.009-3.281-1.782.62a.552.552 0 0 0 .692.3l1.32-.46c-.085-.152-.162-.309-.233-.469m1.9 2.311-2.068.72a.935.935 0 0 0 .965.209l1.676-.583a5.584 5.584 0 0 1 -.577-.349m-2.3-3.662-1.8.627v.005a.458.458 0 0 0 .6.336l1.3-.454c-.043-.169-.078-.34-.105-.514m10.69.539 1.3.453a.459.459 0 0 0 .6-.335l-1.8-.627c-.027.174-.063.345-.106.513m1.518-1.387s.553-.428.538-.607l-.954.331-.79.275.79.275.957.334c.014-.179-.541-.609-.541-.609m-2.907 3.869 1.422.495a.7.7 0 0 0 .809-.262l-1.859-.648a5.446 5.446 0 0 1 -.375.42m-1.374 1.007 1.684.587a.941.941 0 0 0 .968-.207l-2.073-.722a5.358 5.358 0 0 1 -.584.347m2.267-2.184 1.321.46a.555.555 0 0 0 .694-.3l-1.783-.621c-.071.16-.149.316-.235.468m-9.03.736-1.856.647a.7.7 0 0 0 .808.264l1.419-.494a5.553 5.553 0 0 1 -.373-.421m9.657-4.3 1.8-.627a.46.46 0 0 0 -.6-.334l-1.3.454c.045.167.08.338.109.512m-3.51-6.213c-.085-.023-.171-.044-.257-.063a2.565 2.565 0 0 0 -1.4.092l-.258.089-.222-.078a2.657 2.657 0 0 0 -1.515-.067l-.148.038 1.885.657zm1.168 2.567 2.079-.725a.949.949 0 0 0 -.972-.206l-1.693.59a5.5 5.5 0 0 1 .59.344m1.181 1.075 1.861-.648a.7.7 0 0 0 -.813-.261l-1.425.5a5.606 5.606 0 0 1 .38.418m.756 1.224 1.784-.622a.557.557 0 0 0 -.7-.3l-1.323.46c.086.152.166.307.237.468m-4.985-3.229a5.5 5.5 0 0 1 1.117.115l2.687-.936h-.006a1.441 1.441 0 0 0 -1.222-.119l-2.616.911-2.586-.9a1.415 1.415 0 0 0 -1.206.13l2.667.929a5.475 5.475 0 0 1 1.165-.126m-5.288 4.087-1.3-.454a.46.46 0 0 0 -.6.335v.005l1.8.627c.028-.174.063-.345.107-.513m.527-1.3-1.321-.46a.555.555 0 0 0 -.694.3l1.783.621c.071-.16.15-.316.235-.468m2.272-2.183-1.685-.587a.942.942 0 0 0 -.969.207l2.074.722a5.48 5.48 0 0 1 .585-.346m-3.184 4.816-.79-.275-.877-.305c-.014.179.443.581.443.581s-.459.4-.445.582l.88-.307zm1.784-3.84-1.423-.5a.7.7 0 0 0 -.81.263l1.86.648a5.448 5.448 0 0 1 .376-.419m1.678 2.282c0-.961.979-1.237 1.9-1.272a3.721 3.721 0 0 1 2.789 1.165h.023v-.681a7.73 7.73 0 0 0 -2.812-.627c-.824.006-2.377.34-2.377 1.768 0 2.926 4.9.747 4.9 2.717 0 1.069-1.481 1.218-1.911 1.224a3.309 3.309 0 0 1 -2.782-1.272h-.066l.053.889a11.832 11.832 0 0 0 2.705.526c2.144 0 2.628-1.415 2.628-1.81 0-2.985-5.052-.848-5.052-2.627"
       transform="translate(-279.936 -110.798)"
       id="path1249"
       style="fill:#ffffff" />
    <path
       d="m328.584 137.322v6.236l-4.752-4.905v4.764h-.651v-6.236l4.752 4.905v-4.764zm-10.626-.115a3.168 3.168 0 1 0 3.247 3.167 3.137 3.137 0 0 0 -3.247-3.167m0 5.793a2.626 2.626 0 1 1 2.64-2.626 2.579 2.579 0 0 1 -2.64 2.626m-8.922-5.678h4.343v.541h-1.847v5.554h-.65v-5.554h-1.846zm-29.036 4.571c0 1-.815 1.648-2.075 1.648a2.322 2.322 0 0 1 -2.274-1.409l.553-.234a1.8 1.8 0 0 0 1.73 1.1c.873 0 1.415-.421 1.415-1.1 0-.751-.552-1.018-1.528-1.423-1.029-.425-1.757-.8-1.757-1.74a1.663 1.663 0 0 1 1.86-1.532 1.968 1.968 0 0 1 1.773.945l-.537.279a1.337 1.337 0 0 0 -1.246-.684 1.093 1.093 0 0 0 -1.2.974c0 .672.659.937 1.423 1.245 1.262.5 1.862.922 1.862 1.927m6.813-4.571h.65v6.095h-.65v-2.451h-3.868v2.451h-.65v-6.095h.65v3.1h3.863zm4.013 5.554h3.139v.541h-3.789v-6.095h3.721v.541h-3.071v2.562h2.729v.541h-2.729zm8.42-2.021 1.617 2.562h-.74l-1.51-2.427-.025-.025h-1.087l.18-.541h.821a1.327 1.327 0 0 0 1.4-1.3 1.281 1.281 0 0 0 -1.356-1.258h-1.58v5.554h-.65v-6.095h2.258a1.874 1.874 0 0 1 1.977 1.8 1.819 1.819 0 0 1 -1.258 1.714zm6.046-3.681-2.979 6.243h.679l.869-1.834h2.849l.827 1.76.035.073h.708zm-1.175 3.866 1.165-2.5 1.173 2.5z"
       transform="translate(-271.173 -119.073)"
       id="path1251"
       style="fill:#ffffff" />
    <path
       d="m306.336 151.075h.56v4.912h-.56z"
       transform="translate(-280.801 -123.435)"
       id="path1253"
       style="fill:#ffffff" />
    <path
       d="m299.12 151.238h3.374v.42h-1.434v4.315h-.5v-4.315h-1.44z"
       transform="translate(-278.537 -123.486)"
       id="path1255"
       style="fill:#ffffff" />
    <path
       d="m293.8 151.073-2.314 4.85h.528l.675-1.425h2.211l.642 1.368.027.058h.55zm-.912 3 .9-1.941.912 1.941z"
       transform="translate(-276.14 -123.434)"
       id="path1257"
       style="fill:#ffffff" />
    <path
       d="m278.454 151.073-2.314 4.85h.527l.675-1.425h2.214l.642 1.368.027.058h.55zm-.912 3 .9-1.941.911 1.941z"
       transform="translate(-271.327 -123.434)"
       id="path1259"
       style="fill:#ffffff" />
    <path
       d="m271.455 154.86-1.751-3.73-.027-.058h-.55l2.321 4.85 2.314-4.85h-.527z"
       transform="translate(-269.127 -123.434)"
       id="path1261"
       style="fill:#ffffff" />
    <path
       d="m312 151.1a2.461 2.461 0 1 0 2.523 2.46 2.437 2.437 0 0 0 -2.523-2.46zm0 4.5a2.04 2.04 0 1 1 2.051-2.04 2 2 0 0 1 -2.051 2.04z"
       transform="translate(-281.785 -123.444)"
       id="path1263"
       style="fill:#ffffff" />
    <path
       d="m323.331 151.15v4.844l-3.692-3.81v3.7h-.5v-4.844l3.692 3.811v-3.7z"
       transform="translate(-284.817 -123.424)"
       id="path1265"
       style="fill:#ffffff" />
    <path
       d="m286.687 155.6a2.04 2.04 0 1 1 0-4.08 2.046 2.046 0 0 1 1.489.611l.315-.325a2.55 2.55 0 0 0 -1.8-.707 2.461 2.461 0 1 0 0 4.921 2.542 2.542 0 0 0 1.826-.732l-.316-.324a2.04 2.04 0 0 1 -1.514.636z"
       transform="translate(-273.845 -123.444)"
       id="path1267"
       style="fill:#ffffff" />
    <path
       d="m306.9 153.029v2.958h-.56v-4.912h.56v.682"
       transform="translate(-280.801 -123.435)"
       id="path1269"
       style="fill:#ffffff" />
    <path
       d="m299.12 151.238h3.374v.42h-1.434v4.315h-.5v-4.315h-1.44z"
       transform="translate(-278.537 -123.486)"
       id="path1271"
       style="fill:#ffffff" />
    <path
       d="m293.8 151.073-2.314 4.85h.528l.675-1.425h2.211l.642 1.368.027.058h.55zm-.912 3 .9-1.941.912 1.941z"
       transform="translate(-276.14 -123.434)"
       id="path1273"
       style="fill:#ffffff" />
    <path
       d="m278.454 151.073-2.314 4.85h.527l.675-1.425h2.214l.642 1.368.027.058h.55zm-.912 3 .9-1.941.911 1.941z"
       transform="translate(-271.327 -123.434)"
       id="path1275"
       style="fill:#ffffff" />
    <path
       d="m271.455 154.86-1.751-3.73-.027-.058h-.55l2.321 4.85 2.314-4.85h-.527z"
       transform="translate(-269.127 -123.434)"
       id="path1277"
       style="fill:#ffffff" />
    <path
       d="m323.331 151.15v4.844l-3.692-3.81v3.7h-.5v-4.844l3.692 3.811v-3.7z"
       transform="translate(-284.817 -123.424)"
       id="path1279"
       style="fill:#ffffff" />
    <path
       d="m286.687 155.6a2.04 2.04 0 1 1 0-4.08 2.046 2.046 0 0 1 1.489.611l.315-.325a2.55 2.55 0 0 0 -1.8-.707 2.461 2.461 0 1 0 0 4.921 2.542 2.542 0 0 0 1.826-.732l-.316-.324a2.04 2.04 0 0 1 -1.514.636z"
       transform="translate(-273.845 -123.444)"
       id="path1281"
       style="fill:#ffffff" />
    <path
       d="m340.757 151.265h.53v4.3h1.95v.435h-2.48z"
       transform="translate(-291.601 -123.495)"
       id="path1283"
       style="fill:#ffffff" />
    <path
       d="m334.271 155.631a2.04 2.04 0 1 1 0-4.08 2.043 2.043 0 0 1 1.489.611l.315-.325a2.551 2.551 0 0 0 -1.8-.708 2.462 2.462 0 1 0 0 4.922 2.542 2.542 0 0 0 1.826-.732l-.316-.324a2.04 2.04 0 0 1 -1.514.636z"
       transform="translate(-288.774 -123.452)"
       id="path1285"
       style="fill:#ffffff" />
    <path
       d="m346.23 151.211h.56v3.136a1.316 1.316 0 1 0 2.63 0v-3.136h.561v3.189a1.877 1.877 0 0 1 -3.751 0z"
       transform="translate(-293.318 -123.478)"
       id="path1287"
       style="fill:#ffffff" />
    <path
       d="m356.777 153.371a1.01 1.01 0 0 0 .654-1 1.3 1.3 0 0 0 -1.375-1.269h-1.532v4.968h1.723a1.474 1.474 0 0 0 1.558-1.468 1.19 1.19 0 0 0 -1.028-1.231zm-1.747-1.843h1.034a.848.848 0 0 1 .891.855.857.857 0 0 1 -.9.863h-1.025zm1.222 4.135h-1.222v-2h1.214a1.014 1.014 0 0 1 1.1.987 1.024 1.024 0 0 1 -1.092 1.013z"
       transform="translate(-295.92 -123.444)"
       id="path1289"
       style="fill:#ffffff" />
    <path
       d="m340.757 151.265h.53v4.3h1.95v.435h-2.48z"
       transform="translate(-291.601 -123.495)"
       id="path1291"
       style="fill:#ffffff" />
    <path
       d="m334.271 155.631a2.04 2.04 0 1 1 0-4.08 2.043 2.043 0 0 1 1.489.611l.315-.325a2.551 2.551 0 0 0 -1.8-.708 2.462 2.462 0 1 0 0 4.922 2.542 2.542 0 0 0 1.826-.732l-.316-.324a2.04 2.04 0 0 1 -1.514.636z"
       transform="translate(-288.774 -123.452)"
       id="path1293"
       style="fill:#ffffff" />
    <path
       d="m346.23 151.211h.56v3.136a1.316 1.316 0 1 0 2.63 0v-3.136h.561v3.189a1.877 1.877 0 0 1 -3.751 0z"
       transform="translate(-293.318 -123.478)"
       id="path1295"
       style="fill:#ffffff" />
    <path
       d="m356.777 153.371a1.01 1.01 0 0 0 .654-1 1.3 1.3 0 0 0 -1.375-1.269h-1.532v4.968h1.723a1.474 1.474 0 0 0 1.558-1.468 1.19 1.19 0 0 0 -1.028-1.231zm-1.747-1.843h1.034a.848.848 0 0 1 .891.855.857.857 0 0 1 -.9.863h-1.025zm1.222 4.135h-1.222v-2h1.214a1.014 1.014 0 0 1 1.1.987 1.024 1.024 0 0 1 -1.092 1.013z"
       transform="translate(-295.92 -123.444)"
       id="path1297"
       style="fill:#ffffff" />
  </g>
</svg>
