<?xml version="1.0" encoding="UTF-8" standalone="no"?>
<svg
   id="wvc-logo"
   height="20"
   viewBox="0 0 60 20"
   width="60"
   version="1.1"
   sodipodi:docname="logo_WVC_grey.svg"
   inkscape:version="1.2.1 (9c6d41e410, 2022-07-14)"
   xmlns:inkscape="http://www.inkscape.org/namespaces/inkscape"
   xmlns:sodipodi="http://sodipodi.sourceforge.net/DTD/sodipodi-0.dtd"
   xmlns="http://www.w3.org/2000/svg"
   xmlns:svg="http://www.w3.org/2000/svg">
  <defs
     id="defs9281" />
  <sodipodi:namedview
     id="namedview9279"
     pagecolor="#ffffff"
     bordercolor="#000000"
     borderopacity="0.25"
     inkscape:showpageshadow="2"
     inkscape:pageopacity="0.0"
     inkscape:pagecheckerboard="0"
     inkscape:deskcolor="#d1d1d1"
     showgrid="false"
     inkscape:zoom="20.166667"
     inkscape:cx="24.322314"
     inkscape:cy="10.016529"
     inkscape:window-width="1920"
     inkscape:window-height="1009"
     inkscape:window-x="-8"
     inkscape:window-y="-8"
     inkscape:window-maximized="1"
     inkscape:current-layer="wvc-logo" />
  <g
     id="g9276"
     style="fill:#56565b;fill-opacity:1">
    <path
       d="m38.12 12.2h-3.2a1.11 1.11 0 0 1 .551 1.015 4.739 4.739 0 0 1 -.362 1.592l-1.6 4.352-2.873-6.959h-2.58a2.313 2.313 0 0 1 .533 2.862l-1.892 4.3-2.856-7.162h-3.011a4.793 4.793 0 0 1 1.27 2.1l2.942 7.265a3.135 3.135 0 0 0 1.789 1.93l3.069-6.795 2.1 4.86a3.3 3.3 0 0 0 1.806 1.93z"
       transform="translate(-19.773 -12.198)"
       id="path9238"
       style="fill:#56565b;fill-opacity:1" />
    <path
       d="m52.864 22.491a4.08 4.08 0 0 1 -2.6.78 7.04 7.04 0 0 1 -1.48-.136v-2.778h.791c.964 0 1.29.068 1.548.355v-1.624h-2.34v-2.288a8.915 8.915 0 0 1 1.1-.051 2.4 2.4 0 0 1 1.806.508v-1.675h-5.604c.447.237.517.592.517 2.066v4.724c0 1.473-.069 1.829-.517 2.067h6.142z"
       transform="translate(-27.694 -13.296)"
       id="path9240"
       style="fill:#56565b;fill-opacity:1" />
    <path
       d="m63.419 21.59c0-2.71-4.18-2.523-4.18-4.183 0-.49.447-.914 1.221-.914a3.19 3.19 0 0 1 2.305 1.016v-1.931a8.36 8.36 0 0 0 -2.22-.322c-1.719 0-3.475 1.016-3.475 2.692 0 3.048 4.181 2.608 4.181 4.318 0 .609-.55 1.05-1.5 1.05a4.8 4.8 0 0 1 -3.165-1.338l.568 2.117a6.853 6.853 0 0 0 2.374.458c2.2 0 3.887-1.186 3.887-2.964z"
       transform="translate(-30.989 -13.19)"
       id="path9242"
       style="fill:#56565b;fill-opacity:1" />
    <path
       d="m74.6 15.582h-7.349l-.5 1.676a3.094 3.094 0 0 1 1.962-.508h.877v5.622c0 1.473-.069 1.829-.533 2.067h3.218c-.447-.238-.518-.594-.518-2.067v-5.622h.776c.808 0 1.359.118 1.635.508l.43-1.676z"
       transform="translate(-34.176 -13.296)"
       id="path9244"
       style="fill:#56565b;fill-opacity:1" />
    <path
       d="m82.856 24.439c-.447-.238-.516-.594-.516-2.067v-4.724c0-1.473.069-1.829.516-2.066h-3.218c.447.237.517.592.517 2.066v4.724c0 1.473-.069 1.829-.517 2.067z"
       transform="translate(-38.219 -13.296)"
       id="path9246"
       style="fill:#56565b;fill-opacity:1" />
    <path
       d="m95.534 15.582h-2.942c.585.3.653.948.653 1.93v3.588l-3.767-4.4c-.377-.457-.637-.8-.876-1.117h-2.602c.533.3.791.88.791 2.083v4.843c0 .983-.068 1.625-.653 1.931h2.942c-.585-.305-.653-.948-.653-1.931v-3.659l3.887 4.539a3.758 3.758 0 0 0 2.563 1.117v-6.994c0-.982.086-1.625.653-1.93z"
       transform="translate(-40.215 -13.296)"
       id="path9248"
       style="fill:#56565b;fill-opacity:1" />
    <path
       d="m100.508 16.9a.775.775 0 1 1 .778.785.766.766 0 0 1 -.778-.785zm.778.942a.94.94 0 1 0 -.968-.942.946.946 0 0 0 .967.946zm-.2-.867h.191l.29.469h.187l-.313-.477a.283.283 0 0 0 .286-.3c0-.213-.128-.307-.39-.307h-.418v1.082h.167zm0-.139v-.336h.227c.115 0 .24.025.24.159 0 .167-.126.177-.268.177z"
       transform="translate(-44.705 -13.421)"
       id="path9250"
       style="fill:#56565b;fill-opacity:1" />
    <path
       d="m43.107 35-1.856 4.524h.673l.441-1.107h2.223l.018.045.43 1.061h.7l-1.882-4.523zm1.293 2.93h-1.85l.039-.1.426-1.066c.146-.374.33-.892.384-1.074l.069-.226.069.226c.047.157.187.52.311.84l.089.229z"
       transform="translate(-26.178 -19.594)"
       id="path9252"
       style="fill:#56565b;fill-opacity:1" />
    <path
       d="m21.525 38.77-.069.253-.069-.253c-.04-.145-.165-.489-.257-.74l-.038-.107-1.092-2.923h-.71l1.79 4.524h.745l1.767-4.524h-.7l-1.088 2.95c-.097.278-.235.662-.279.82z"
       transform="translate(-19.29 -19.594)"
       id="path9254"
       style="fill:#56565b;fill-opacity:1" />
    <path
       d="m27.874 35-1.855 4.524h.673l.441-1.107h2.223l.018.045.43 1.061h.7l-1.883-4.523zm.831 1.764.463 1.169h-1.85l.04-.1.425-1.066c.146-.368.329-.888.385-1.074l.069-.226.069.226c.048.162.2.556.325.872z"
       transform="translate(-21.401 -19.594)"
       id="path9256"
       style="fill:#56565b;fill-opacity:1" />
    <path
       d="m36.176 39c-.939 0-1.5-.665-1.5-1.777s.56-1.776 1.5-1.776a1.247 1.247 0 0 1 1.121.538l.584-.32a1.919 1.919 0 0 0 -1.706-.778 2.139 2.139 0 0 0 -2.175 2.336 2.139 2.139 0 0 0 2.176 2.335 2.05 2.05 0 0 0 1.728-.8l-.539-.315a1.375 1.375 0 0 1 -1.189.557z"
       transform="translate(-23.904 -19.559)"
       id="path9258"
       style="fill:#56565b;fill-opacity:1" />
    <path
       d="m49.907 39.522h.654v-3.98h1.549v-.542h-3.752v.545h1.549z"
       transform="translate(-28.407 -19.594)"
       id="path9260"
       style="fill:#56565b;fill-opacity:1" />
    <path
       d="m25.122 15.403h.654v4.525h-.654z"
       id="path9262"
       style="fill:#56565b;fill-opacity:1" />
    <path
       d="m61.222 34.888a2.153 2.153 0 0 0 -2.2 2.342 2.2 2.2 0 1 0 4.391-.014 2.143 2.143 0 0 0 -2.191-2.328zm.008 4.119a1.588 1.588 0 0 1 -1.537-1.79c0-1.08.592-1.777 1.507-1.777a1.591 1.591 0 0 1 1.546 1.79 1.572 1.572 0 0 1 -1.516 1.777z"
       transform="translate(-31.753 -19.559)"
       id="path9264"
       style="fill:#56565b;fill-opacity:1" />
    <path
       d="m70.807 37.332v.649.451.247l-.132-.209c-.079-.124-.306-.469-.438-.657l-2-2.816h-.7v4.524h.631v-2.349c0-.12 0-.324 0-.525v-.111c0-.191 0-.365 0-.443v-.226l.13.186c.028.04.067.1.111.163.1.148.2.3.283.409l2.1 2.9h.65v-4.525h-.631z"
       transform="translate(-34.424 -19.594)"
       id="path9266"
       style="fill:#56565b;fill-opacity:1" />
    <path
       d="m80.8 39c-.944 0-1.507-.665-1.507-1.777s.563-1.776 1.507-1.776a1.258 1.258 0 0 1 1.128.538l.587-.32a1.932 1.932 0 0 0 -1.714-.778 2.145 2.145 0 0 0 -2.188 2.335 2.144 2.144 0 0 0 2.187 2.337 2.068 2.068 0 0 0 1.738-.8l-.538-.315a1.384 1.384 0 0 1 -1.2.556z"
       transform="translate(-37.898 -19.559)"
       id="path9268"
       style="fill:#56565b;fill-opacity:1" />
    <path
       d="m87.2 35h-.658v4.525h3.322v-.546h-2.664z"
       transform="translate(-40.385 -19.594)"
       id="path9270"
       style="fill:#56565b;fill-opacity:1" />
    <path
       d="m94.946 39.036c-.847 0-1.294-.493-1.294-1.423v-2.613h-.652v2.635a1.958 1.958 0 0 0 3.917.014v-2.649h-.658v2.662c-.005.911-.445 1.374-1.313 1.374z"
       transform="translate(-42.408 -19.594)"
       id="path9272"
       style="fill:#56565b;fill-opacity:1" />
    <path
       d="m104.969 38.159a1.032 1.032 0 0 0 -.846-1.017l-.207-.05.2-.083a.913.913 0 0 0 .636-.869c0-.715-.547-1.142-1.463-1.142h-2.127v4.524h2.05c1.148-.001 1.757-.472 1.757-1.363zm-3.2-2.662h1.507c.708 0 .813.428.813.683 0 .321-.213.664-.813.664h-1.506zm1.5 3.527h-1.5v-1.689h1.522c.638 0 1.019.315 1.019.844.001.56-.35.844-1.04.844z"
       transform="translate(-44.969 -19.594)"
       id="path9274"
       style="fill:#56565b;fill-opacity:1" />
  </g>
</svg>
