<?xml version="1.0" encoding="UTF-8" standalone="no"?>
<svg
   id="mvc-logo"
   height="41.909"
   viewBox="0 0 43.534 41.909"
   width="43.534"
   version="1.1"
   sodipodi:docname="logo_MVC_white.svg"
   inkscape:version="1.2.1 (9c6d41e410, 2022-07-14)"
   xmlns:inkscape="http://www.inkscape.org/namespaces/inkscape"
   xmlns:sodipodi="http://sodipodi.sourceforge.net/DTD/sodipodi-0.dtd"
   xmlns="http://www.w3.org/2000/svg"
   xmlns:svg="http://www.w3.org/2000/svg">
  <defs
     id="defs493" />
  <sodipodi:namedview
     id="namedview491"
     pagecolor="#ffffff"
     bordercolor="#000000"
     borderopacity="0.25"
     inkscape:showpageshadow="2"
     inkscape:pageopacity="0.0"
     inkscape:pagecheckerboard="0"
     inkscape:deskcolor="#d1d1d1"
     showgrid="false"
     inkscape:zoom="19.780954"
     inkscape:cx="15.899132"
     inkscape:cy="20.979777"
     inkscape:window-width="1920"
     inkscape:window-height="1009"
     inkscape:window-x="-8"
     inkscape:window-y="-8"
     inkscape:window-maximized="1"
     inkscape:current-layer="mvc-logo" />
  <g
     id="g488"
     style="fill:#ffffff">
    <path
       d="m126.151 84.15-1.19 2.436c-.808 1.438-1.942 3.2-3.681 3.64a4.424 4.424 0 0 1 -1.919-.022l-2.1 3.437a1.64 1.64 0 0 0 .595.393c3.693 1.41 5.18-.107 8.816-8.329l3.435 7.324h4.574l-2.161-4.942 1.223-2.555 3.378 7.385 4.377.028-7.659-16.845-3.528 1.755 2.765 6.287-1.212 2.471-5.064-10.953-3.718 1.9z"
       transform="translate(-107.834 -75.66)"
       id="path444"
       style="fill:#ffffff" />
    <path
       d="m98.538 156.23h.6l.95 1.619.935-1.619h.6l.165 3.428h-.632l-.113-2.375-.822 1.4h-.3l-.827-1.362-.113 2.339h-.606z"
       transform="translate(-93.81 -135.481)"
       id="path446"
       style="fill:#ffffff" />
    <path
       d="m120.253 156.23h.667l1.3 3.428h-.72l-.3-.869h-1.27l-.3.869h-.678zm.765 2.025-.452-1.331-.457 1.331z"
       transform="translate(-109.09 -135.481)"
       id="path448"
       style="fill:#ffffff" />
    <path
       d="m139.116 156.23h1.135a1.384 1.384 0 0 1 .55.1 1.05 1.05 0 0 1 .364.249.971.971 0 0 1 .2.332 1.024 1.024 0 0 1 .064.344 1.145 1.145 0 0 1 -.141.573 1 1 0 0 1 -.434.4l.791 1.434h-.729l-.693-1.352h-.488v1.352h-.621zm1.14 1.542a.5.5 0 0 0 .383-.144.49.49 0 0 0 .136-.349.477.477 0 0 0 -.144-.36.517.517 0 0 0 -.375-.139h-.519v.992z"
       transform="translate(-124.06 -135.481)"
       id="path450"
       style="fill:#ffffff" />
    <path
       d="m156.784 156.23h1.135a1.383 1.383 0 0 1 .55.1 1.052 1.052 0 0 1 .365.249.979.979 0 0 1 .2.332 1.025 1.025 0 0 1 .064.344 1.145 1.145 0 0 1 -.141.573 1.007 1.007 0 0 1 -.434.4l.791 1.434h-.729l-.693-1.352h-.488v1.352h-.621zm1.14 1.542a.5.5 0 0 0 .383-.144.49.49 0 0 0 .136-.349.478.478 0 0 0 -.144-.36.518.518 0 0 0 -.375-.139h-.519v.992z"
       transform="translate(-137.178 -135.481)"
       id="path452"
       style="fill:#ffffff" />
    <path
       d="m174.453 156.23h.647v3.428h-.647z"
       transform="translate(-150.297 -135.481)"
       id="path454"
       style="fill:#ffffff" />
    <path
       d="m187 159.483a1.724 1.724 0 0 1 -.7-.141 1.776 1.776 0 0 1 -.565-.388 1.823 1.823 0 0 1 -.38-.576 1.856 1.856 0 0 1 0-1.408 1.821 1.821 0 0 1 .377-.573 1.761 1.761 0 0 1 .565-.386 1.743 1.743 0 0 1 .7-.141 1.725 1.725 0 0 1 .7.141 1.827 1.827 0 0 1 .945 2.367 1.836 1.836 0 0 1 -.38.576 1.783 1.783 0 0 1 -.565.388 1.725 1.725 0 0 1 -.697.141zm0-.612a1.04 1.04 0 0 0 .806-.362 1.188 1.188 0 0 0 .221-.388 1.435 1.435 0 0 0 0-.928 1.158 1.158 0 0 0 -.221-.383 1.032 1.032 0 0 0 -.349-.26 1.153 1.153 0 0 0 -.917 0 1.038 1.038 0 0 0 -.347.26 1.163 1.163 0 0 0 -.221.383 1.44 1.44 0 0 0 0 .928 1.193 1.193 0 0 0 .221.388 1.031 1.031 0 0 0 .806.362z"
       transform="translate(-158.292 -135.214)"
       id="path456"
       style="fill:#ffffff" />
    <path
       d="m206.444 156.8h-1.161v-.57h2.968v.57h-1.161v2.858h-.647z"
       transform="translate(-173.188 -135.481)"
       id="path458"
       style="fill:#ffffff" />
    <path
       d="m224.172 156.8h-1.161v-.57h2.968v.57h-1.161v2.858h-.647z"
       transform="translate(-186.351 -135.481)"
       id="path460"
       style="fill:#ffffff" />
    <path
       d="m80.652 180.549h.606l2.048 4.976 2.048-4.976h.606l-2.654 6.443z"
       transform="translate(-80.652 -153.537)"
       id="path462"
       style="fill:#ffffff" />
    <path
       d="m106.384 185.846h-.606l-.581-1.4h-2.941l-.573 1.4h-.606l2.654-6.443zm-3.9-1.951h2.49l-1.245-3.025z"
       transform="translate(-95.816 -152.686)"
       id="path464"
       style="fill:#ffffff" />
    <path
       d="m129.021 181.344a2.7 2.7 0 0 0 -1.892-.795 2.673 2.673 0 0 0 0 5.345 2.751 2.751 0 0 0 1.892-.779l.385.386a3.222 3.222 0 1 1 0-4.542z"
       transform="translate(-112.776 -153.135)"
       id="path466"
       style="fill:#ffffff" />
    <path
       d="m153.627 185.846h-.606l-.582-1.4h-2.939l-.573 1.4h-.606l2.654-6.443zm-3.9-1.951h2.49l-1.245-3.025z"
       transform="translate(-130.893 -152.686)"
       id="path468"
       style="fill:#ffffff" />
    <path
       d="m172.375 181.106v5.594h-.557v-5.591h-2.089v-.557h4.734v.557z"
       transform="translate(-146.79 -153.537)"
       id="path470"
       style="fill:#ffffff" />
    <path
       d="m193.684 180.549h.557v6.151h-.557z"
       transform="translate(-164.576 -153.537)"
       id="path472"
       style="fill:#ffffff" />
    <path
       d="m204.626 186.435a3.213 3.213 0 1 1 3.211-3.213 3.212 3.212 0 0 1 -3.211 3.213zm0-5.886a2.673 2.673 0 1 0 2.638 2.673 2.654 2.654 0 0 0 -2.638-2.673z"
       transform="translate(-170.316 -153.135)"
       id="path474"
       style="fill:#ffffff" />
    <path
       d="m231.844 180.977v4.869h-.557v-6.446l4.186 5.165v-4.865h.557v6.443z"
       transform="translate(-192.495 -152.686)"
       id="path476"
       style="fill:#ffffff" />
    <path
       d="m126.062 214.775a2.7 2.7 0 0 0 -1.892-.8 2.673 2.673 0 0 0 0 5.345 2.753 2.753 0 0 0 1.892-.779l.385.385a3.222 3.222 0 1 1 0-4.542z"
       transform="translate(-110.579 -177.957)"
       id="path478"
       style="fill:#ffffff" />
    <path
       d="m152.25 220.129h-4.186v-6.149h.557v5.591h3.629z"
       transform="translate(-130.704 -178.359)"
       id="path480"
       style="fill:#ffffff" />
    <path
       d="m166.707 217.89v-3.91h.557v3.91a1.814 1.814 0 1 0 3.629 0v-3.91h.557v3.91a2.371 2.371 0 1 1 -4.743 0z"
       transform="translate(-144.546 -178.359)"
       id="path482"
       style="fill:#ffffff" />
    <path
       d="m193.72 220.129h-2.867v-6.149h2.728a1.609 1.609 0 0 1 1.606 1.607 1.472 1.472 0 0 1 -.746 1.271 1.664 1.664 0 0 1 1.024 1.525 1.742 1.742 0 0 1 -1.745 1.746zm-.139-3.492a1.049 1.049 0 0 0 0-2.1h-2.171v2.1zm.139.558h-2.31v2.377h2.31a1.189 1.189 0 0 0 0-2.377z"
       transform="translate(-162.474 -178.359)"
       id="path484"
       style="fill:#ffffff" />
    <path
       d="m211.885 215.6a.833.833 0 0 1 -1.182 0 .812.812 0 0 1 -.242-.593.834.834 0 1 1 1.424.593zm-1.1-1.1a.7.7 0 0 0 -.209.509.7.7 0 0 0 .208.512.716.716 0 0 0 1.017 0 .728.728 0 0 0 0-1.021.716.716 0 0 0 -1.016 0zm.492.047a.7.7 0 0 1 .25.033.228.228 0 0 1 .142.233.2.2 0 0 1 -.089.181.349.349 0 0 1 -.133.044.222.222 0 0 1 .157.09.253.253 0 0 1 .05.142v.067.068a.153.153 0 0 0 .008.048l.006.012h-.151v-.009-.01-.029-.073a.224.224 0 0 0 -.087-.21.39.39 0 0 0 -.18-.029h-.127v.361h-.162v-.918zm.175.145a.423.423 0 0 0 -.2-.034h-.138v.332h.146a.44.44 0 0 0 .154-.02.165.165 0 0 0 .034-.278z"
       transform="translate(-177.033 -178.5)"
       id="path486"
       style="fill:#ffffff" />
  </g>
</svg>
