<?xml version="1.0" encoding="UTF-8" standalone="no"?>
<!-- Created with Inkscape (http://www.inkscape.org/) -->

<svg
   width="212"
   height="31.999998"
   viewBox="0 0 56.091668 8.4666661"
   version="1.1"
   id="svg1"
   xml:space="preserve"
   xmlns:inkscape="http://www.inkscape.org/namespaces/inkscape"
   xmlns:sodipodi="http://sodipodi.sourceforge.net/DTD/sodipodi-0.dtd"
   xmlns="http://www.w3.org/2000/svg"
   xmlns:svg="http://www.w3.org/2000/svg"><sodipodi:namedview
     id="namedview1"
     pagecolor="#ffffff"
     bordercolor="#000000"
     borderopacity="0.25"
     inkscape:showpageshadow="2"
     inkscape:pageopacity="0.0"
     inkscape:pagecheckerboard="0"
     inkscape:deskcolor="#d1d1d1"
     inkscape:document-units="mm" /><defs
     id="defs1" /><g
     inkscape:label="Layer 1"
     inkscape:groupmode="layer"
     id="layer1"><g
       id="g4"
       transform="matrix(0.54934714,0,0,0.54934714,-44.700691,-52.682465)"><g
         style="fill:none"
         id="g3"
         transform="matrix(0.48412049,0,0,0.48412049,81.417252,96.63519)"><path
           id="Vector-4"
           d="m 14.3391,13.4406 -1.881,3.8432 c -1.2771,2.2703 -3.06491,5.0514 -5.81356,5.7406 -1.06216,0.3729 -2.0027,0.0365 -3.02838,-0.0365 l -3.312159,5.4203 c 0.247297,0.2675 0.595946,0.4905 0.940539,0.6202 5.82973,2.2257 8.17703,-0.1702 13.91756,-13.1392 l 5.4243,11.5541 h 7.2203 l -3.4095,-7.796 1.9298,-4.0297 5.3351,11.6514 6.9122,0.0446 L 26.481,0.731126 20.9108,3.50005 25.277,13.4203 23.3635,17.3203 15.3608,0.04599 9.49049,3.03788 Z"
           fill="#5f5f5f" /></g><g
         style="fill:none"
         id="g1"
         transform="matrix(0.47950859,0,0,0.47950859,100.24029,97.520819)"><g
           id="Group"><path
             id="Vector"
             d="m 1.04183,0.746002 h 1.04189 l 1.65,2.809458 1.62163,-2.809458 H 6.39723 L 6.68102,6.6933 H 5.58237 L 5.38778,2.57438 3.96075,4.9987 H 3.43372 L 1.99859,2.63519 1.80399,6.6933 H 0.749939 Z"
             fill="#5f5f5f" /><path
             id="Vector_2"
             d="m 12.4378,0.746002 h 1.1594 L 15.8553,6.6933 H 14.6067 L 14.0878,5.18519 H 11.8743 L 11.3554,6.6933 H 10.1797 Z M 13.7675,4.26087 12.981,1.95006 12.1864,4.26087 Z"
             fill="#5f5f5f" /><path
             id="Vector_3"
             d="m 19.4229,0.746002 h 1.9703 c 0.373,0 0.6932,0.056756 0.9527,0.17027 0.2594,0.113518 0.4743,0.255408 0.6324,0.433788 0.1581,0.17837 0.2797,0.36891 0.3527,0.57567 0.073,0.20676 0.1095,0.40541 0.1095,0.59595 0,0.37297 -0.0811,0.7054 -0.2433,0.99324 -0.1621,0.28784 -0.4135,0.51892 -0.754,0.68919 L 23.8175,6.6933 H 22.5526 L 21.3486,4.346 h -0.8473 v 2.3473 h -1.0784 z m 1.9784,2.675678 c 0.2838,0 0.5067,-0.08514 0.6649,-0.25135 0.1581,-0.16622 0.2351,-0.36892 0.2351,-0.60811 0,-0.25541 -0.0851,-0.46216 -0.2514,-0.62432 C 21.8837,1.77573 21.6648,1.6987 21.3972,1.6987 h -0.9 v 1.72298 z"
             fill="#5f5f5f" /><path
             id="Vector_4"
             d="m 27.5472,0.746002 h 1.9703 c 0.373,0 0.6933,0.056756 0.9527,0.17027 0.2595,0.113518 0.4743,0.255408 0.6324,0.433788 0.1581,0.17837 0.2798,0.36891 0.3527,0.57567 0.073,0.20676 0.1095,0.40541 0.1095,0.59595 0,0.37297 -0.0811,0.7054 -0.2432,0.99324 -0.1622,0.28784 -0.4136,0.51892 -0.7541,0.68919 L 31.9418,6.6933 H 30.677 L 29.4729,4.346 h -0.8473 v 2.3473 h -1.0784 z m 1.9784,2.675678 c 0.2838,0 0.5068,-0.08514 0.6649,-0.25135 0.1581,-0.16622 0.2351,-0.36892 0.2351,-0.60811 0,-0.25541 -0.0851,-0.46216 -0.2513,-0.62432 C 30.008,1.77573 29.7891,1.6987 29.5216,1.6987 h -0.9 v 1.72298 z"
             fill="#5f5f5f" /><path
             id="Vector_5"
             d="m 35.6715,0.746002 h 1.123 V 6.6933 h -1.123 z"
             fill="#5f5f5f" /><path
             id="Vector_6"
             d="m 43.808,6.85547 c -0.4338,0 -0.8392,-0.08108 -1.2121,-0.24324 C 42.2229,6.45006 41.8945,6.22304 41.6148,5.93925 41.3351,5.65547 41.1161,5.32304 40.954,4.94195 40.7918,4.56087 40.7148,4.15547 40.7148,3.72168 c 0,-0.43378 0.0811,-0.84324 0.2392,-1.22026 0.1621,-0.38109 0.3811,-0.71352 0.6567,-0.99325 0.2757,-0.28378 0.6041,-0.50676 0.9811,-0.668919 0.377,-0.162162 0.7824,-0.243243 1.2162,-0.243243 0.4338,0 0.8392,0.081081 1.2122,0.243243 0.373,0.162159 0.7013,0.385139 0.9811,0.668919 0.2797,0.28378 0.4986,0.61216 0.6608,0.99325 0.1622,0.38108 0.2392,0.78648 0.2392,1.22026 0,0.43379 -0.0811,0.84325 -0.2392,1.22027 -0.1622,0.38109 -0.3811,0.71352 -0.6608,0.9973 -0.2798,0.28379 -0.6081,0.51081 -0.9811,0.67298 -0.373,0.16216 -0.7784,0.24324 -1.2122,0.24324 z m 0,-1.06216 c 0.2919,0 0.5554,-0.05676 0.7946,-0.17027 0.2392,-0.11352 0.4419,-0.26757 0.6081,-0.45811 0.1662,-0.1946 0.296,-0.41757 0.3852,-0.67298 0.0892,-0.2554 0.1338,-0.52297 0.1338,-0.8027 0,-0.28378 -0.0446,-0.5554 -0.1338,-0.80676 C 45.5067,2.63114 45.3769,2.40817 45.2107,2.21763 45.0445,2.02709 44.8418,1.87709 44.6026,1.76763 44.3634,1.65817 44.0999,1.60142 43.808,1.60142 c -0.2959,0 -0.5635,0.05675 -0.7986,0.16621 -0.2352,0.10946 -0.4338,0.25946 -0.6,0.45 -0.1662,0.19054 -0.296,0.41351 -0.3852,0.66486 -0.0891,0.25136 -0.1337,0.52298 -0.1337,0.80676 0,0.27973 0.0446,0.5473 0.1337,0.8027 0.0892,0.25541 0.219,0.47838 0.3852,0.67298 0.1662,0.19459 0.3689,0.34459 0.6,0.45811 0.2351,0.11351 0.4986,0.17027 0.7986,0.17027 z"
             fill="#5f5f5f" /><path
             id="Vector_7"
             d="M 51.9243,1.73519 H 49.9094 V 0.746002 h 5.1567 V 1.73519 H 53.0513 V 6.6933 h -1.123 V 1.73519 Z"
             fill="#5f5f5f" /><path
             id="Vector_8"
             d="M 60.0729,1.73519 H 58.058 V 0.746002 h 5.1568 V 1.73519 H 61.1999 V 6.6933 H 60.077 V 1.73519 Z"
             fill="#5f5f5f" /></g></g><g
         style="fill:none"
         id="g2"
         transform="matrix(0.48146923,0,0,0.48146923,100.2432,102.39848)"><g
           id="Group-0"><path
             id="Vector-1"
             d="M 0.417511,0.877106 H 1.8567 L 6.72157,12.6906 11.5864,0.877106 h 1.4392 L 6.72157,16.1731 Z"
             fill="#5f5f5f" /><path
             id="Vector_2-6"
             d="M 25.5202,15.4717 H 24.081 l -1.3824,-3.3284 h -6.9851 l -1.3622,3.3284 H 12.9121 L 19.2162,0.175751 Z m -9.2635,-4.6338 h 5.9149 L 19.2121,3.65818 Z"
             fill="#5f5f5f" /><path
             id="Vector_3-3"
             d="m 39.0081,3.71494 c -1.1473,-1.14729 -2.7649,-1.88918 -4.496,-1.88918 -3.4824,0 -6.2675,2.86216 -6.2675,6.34459 0,3.48245 2.781,6.34455 6.2675,6.34455 1.7311,0 3.3487,-0.7378 4.496,-1.8486 l 0.9162,0.9162 c -1.3824,1.3824 -3.3081,2.2176 -5.4122,2.2176 -4.204,0 -7.6297,-3.4257 -7.6297,-7.62975 0,-4.20406 3.4257,-7.629731 7.6297,-7.629731 2.1,0 4.0298,0.875671 5.4122,2.258111 z"
             fill="#5f5f5f" /><path
             id="Vector_4-2"
             d="m 54.4175,15.4717 h -1.4392 l -1.3824,-3.3284 h -6.9851 l -1.3622,3.3284 H 41.8094 L 48.1135,0.175751 Z M 45.154,10.8379 h 5.9149 L 48.1094,3.65818 Z"
             fill="#5f5f5f" /><path
             id="Vector_5-6"
             d="M 61.1878,2.19873 V 15.4717 H 59.8662 V 2.19873 H 54.904 V 0.877106 h 11.25 V 2.19873 Z"
             fill="#5f5f5f" /><path
             id="Vector_6-6"
             d="M 69.5554,0.877106 H 70.877 V 15.4717 h -1.3216 z"
             fill="#5f5f5f" /><path
             id="Vector_7-8"
             d="m 81.9121,15.8041 c -4.2243,0 -7.6297,-3.4256 -7.6297,-7.62969 0,-4.20406 3.4054,-7.629732 7.6297,-7.629732 4.2041,0 7.6297,3.425672 7.6297,7.629732 0,4.20409 -3.4256,7.62969 -7.6297,7.62969 z m 0,-13.97429 c -3.4824,0 -6.2676,2.86216 -6.2676,6.3446 0,3.48239 2.7852,6.34459 6.2676,6.34459 3.4824,0 6.2676,-2.8622 6.2676,-6.34459 0,-3.48244 -2.7811,-6.3446 -6.2676,-6.3446 z"
             fill="#5f5f5f" /><path
             id="Vector_8-2"
             d="M 93.8797,3.90953 V 15.4676 H 92.558 V 0.171692 L 102.503,12.4312 V 0.873042 h 1.321 V 16.169 Z"
             fill="#5f5f5f" /><path
             id="Vector_9"
             d="m 126.166,3.71494 c -1.147,-1.14729 -2.765,-1.88918 -4.496,-1.88918 -3.482,0 -6.267,2.86216 -6.267,6.34459 0,3.48245 2.785,6.34455 6.267,6.34455 1.731,0 3.349,-0.7378 4.496,-1.8486 l 0.916,0.9162 c -1.382,1.3824 -3.308,2.2176 -5.408,2.2176 -4.204,0 -7.629,-3.4257 -7.629,-7.62975 0,-4.20406 3.425,-7.629731 7.629,-7.629731 2.1,0 4.03,0.875671 5.408,2.258111 z"
             fill="#5f5f5f" /><path
             id="Vector_10"
             d="m 140.562,15.4717 h -9.944 V 0.877106 h 1.321 V 14.1501 h 8.623 z"
             fill="#5f5f5f" /><path
             id="Vector_11"
             d="M 142.022,10.1568 V 0.873047 h 1.321 V 10.1568 c 0,2.396 1.926,4.3581 4.322,4.3581 2.375,0 4.301,-1.9662 4.301,-4.3581 V 0.873047 h 1.322 V 10.1568 c 0,3.1135 -2.53,5.6433 -5.623,5.6433 -3.114,0.004 -5.643,-2.5298 -5.643,-5.6433 z"
             fill="#5f5f5f" /><path
             id="Vector_12"
             d="m 163.605,15.4717 h -6.81 V 0.877106 h 6.482 c 2.1,0 3.815,1.710814 3.815,3.814864 0,1.43919 -0.876,2.50946 -1.772,3.01622 1.265,0.50675 2.433,1.86892 2.433,3.62031 -0.004,2.2946 -1.853,4.1432 -4.148,4.1432 z m -0.332,-8.29054 c 1.362,0 2.453,-1.11081 2.453,-2.48919 0,-1.36216 -1.091,-2.48919 -2.453,-2.48919 h -5.157 v 4.98243 h 5.157 z m 0.332,1.32162 h -5.489 V 14.146 h 5.489 c 1.537,0 2.781,-1.2648 2.781,-2.8216 0,-1.55676 -1.244,-2.82162 -2.781,-2.82162 z"
             fill="#5f5f5f" /></g></g><text
         xml:space="preserve"
         style="font-size:2.41713px;font-family:'Century Gothic';-inkscape-font-specification:'Century Gothic';opacity:0.985965;fill:#5f5f5f;fill-opacity:1;stroke:none;stroke-width:0.0161861"
         x="181.35091"
         y="104.62453"
         id="text3"><tspan
           sodipodi:role="line"
           id="tspan3"
           style="fill:#5f5f5f;fill-opacity:1;stroke:none;stroke-width:0.0161861"
           x="181.35091"
           y="104.62453">®</tspan></text></g></g></svg>
