<?xml version="1.0" encoding="UTF-8" standalone="no"?>
<!-- Created with Inkscape (http://www.inkscape.org/) -->

<svg
   width="32"
   height="32"
   viewBox="0 0 8.4666665 8.4666666"
   version="1.1"
   id="svg1"
   xml:space="preserve"
   inkscape:version="1.3.2 (091e20e, 2023-11-25, custom)"
   sodipodi:docname="phone-icon-white.svg"
   xmlns:inkscape="http://www.inkscape.org/namespaces/inkscape"
   xmlns:sodipodi="http://sodipodi.sourceforge.net/DTD/sodipodi-0.dtd"
   xmlns="http://www.w3.org/2000/svg"
   xmlns:svg="http://www.w3.org/2000/svg"><sodipodi:namedview
     id="namedview1"
     pagecolor="#ffffff"
     bordercolor="#000000"
     borderopacity="0.25"
     inkscape:showpageshadow="2"
     inkscape:pageopacity="0.0"
     inkscape:pagecheckerboard="0"
     inkscape:deskcolor="#d1d1d1"
     inkscape:document-units="mm"
     inkscape:zoom="16.388211"
     inkscape:cx="12.447972"
     inkscape:cy="17.176981"
     inkscape:window-width="1920"
     inkscape:window-height="1009"
     inkscape:window-x="1912"
     inkscape:window-y="-8"
     inkscape:window-maximized="1"
     inkscape:current-layer="layer1" /><defs
     id="defs1" /><g
     inkscape:label="Layer 1"
     inkscape:groupmode="layer"
     id="layer1"><path
       style="fill:#ffffff;stroke:none;stroke-width:0.211587"
       d="M 1.6270551,0.65883712 C 0.19807631,1.3165718 0.39903693,2.9788559 0.82491375,3.6445232 1.8340608,5.2218712 2.7751484,6.3583139 4.5248023,7.5670331 5.2126959,8.0422519 5.7031485,8.2312383 6.5393134,8.0850372 7.1428161,7.9795161 8.0637096,7.0372247 7.9913971,6.6749326 7.8891706,6.1627576 7.2492831,5.5794428 6.8237643,5.3192695 6.48418,5.1116401 5.8131341,6.1141729 5.167609,6.0508741 4.4318635,5.978729 3.4854034,4.9069432 3.0681259,4.3719467 2.9280671,4.1923737 2.4434881,3.6361315 2.4642894,3.3901263 2.5090975,2.8601909 3.1639154,2.2042121 3.2351999,1.885116 c 0,0 -0.2667005,-0.7080126 -1.3955808,-1.3229007 m 0.032681,0.36548064 C 2.2093328,1.0496245 2.4732676,1.3504599 2.7206238,1.6071927 3.2517278,2.1896634 2.3338784,2.5814655 2.2445438,3.2520058 2.1784741,3.7479094 2.6898291,4.3054847 2.9818654,4.6515734 3.4465567,5.2022783 4.4853481,6.4142113 5.3167185,6.3103426 5.7739924,6.2532117 6.4946896,5.4850531 6.8698843,5.6622289 7.1466398,5.7929183 7.7149445,6.3297431 7.7081757,6.6476273 7.6987803,7.0890363 6.8072669,7.767657 6.4705327,7.8067753 5.615843,7.9060653 4.9485008,7.5852996 4.2722162,7.0965243 3.0421013,6.2074749 1.8272113,4.8946436 1.0879689,3.5262367 0.70942063,2.8255072 0.56050098,2.0636202 1.3132934,1.2932295 1.4412286,1.1623043 1.6725237,0.90363627 1.8723001,0.92769594 Z"
       id="path1"
       sodipodi:nodetypes="cssssssssscscssssssssss" /></g></svg>
