<?xml version="1.0" encoding="UTF-8" standalone="no"?>
<!-- Created with Inkscape (http://www.inkscape.org/) -->

<svg
   width="32"
   height="38"
   viewBox="0 0 8.4666665 10.054167"
   version="1.1"
   id="svg1"
   xml:space="preserve"
   inkscape:export-filename="bitmap.svg"
   inkscape:export-xdpi="96"
   inkscape:export-ydpi="96"
   inkscape:version="1.3.2 (091e20e, 2023-11-25, custom)"
   sodipodi:docname="Phone.svg"
   xmlns:inkscape="http://www.inkscape.org/namespaces/inkscape"
   xmlns:sodipodi="http://sodipodi.sourceforge.net/DTD/sodipodi-0.dtd"
   xmlns="http://www.w3.org/2000/svg"
   xmlns:svg="http://www.w3.org/2000/svg"><sodipodi:namedview
     id="namedview1"
     pagecolor="#ffffff"
     bordercolor="#000000"
     borderopacity="0.25"
     inkscape:showpageshadow="2"
     inkscape:pageopacity="0.0"
     inkscape:pagecheckerboard="0"
     inkscape:deskcolor="#d1d1d1"
     inkscape:document-units="mm"
     inkscape:zoom="5.7941077"
     inkscape:cx="-3.6243717"
     inkscape:cy="27.873144"
     inkscape:window-width="1920"
     inkscape:window-height="1009"
     inkscape:window-x="1912"
     inkscape:window-y="-8"
     inkscape:window-maximized="1"
     inkscape:current-layer="layer1" /><defs
     id="defs1" /><g
     inkscape:label="Layer 1"
     inkscape:groupmode="layer"
     id="layer1"><path
       style="fill:#000000"
       id="path1"
       d="" /><path
       style="opacity:0.985965;fill:#ffffff;stroke-width:0.0909692"
       d="M 3.4217079,3.6154752 C 3.5190312,3.4368103 3.4740842,3.2062239 3.4412801,3.0054301 3.3520683,2.458774 3.2497692,1.8439531 2.8627156,1.4477477 2.4632368,1.0388273 1.0289279,1.2303313 0.48056266,1.8444769 0.12455596,2.2431908 0.32938836,2.918844 0.41378296,3.4466653 0.50384246,4.0098887 0.75624756,4.5403427 1.0146002,5.0488537 1.2960259,5.6027735 1.6259065,6.1417663 2.0382245,6.6065433 2.4504253,7.0711823 2.9481509,7.4598276 3.4623959,7.8081846 3.8799929,8.0910713 4.3341292,8.3211339 4.7975484,8.5202669 5.099263,8.6499186 5.4098126,8.769109 5.7321606,8.831802 6.1990601,8.9226058 6.6895702,9.0123759 7.1563251,8.9208347 7.3907291,8.8748676 7.650901,8.7945804 7.8016549,8.6092996 8.0745833,8.2738574 8.2602501,6.8242766 8.1354499,6.7400751 7.5815577,6.3663846 7.0203053,6.1763209 6.3997437,5.8944745 6.2370949,5.8206034 6.0291682,5.7779513 5.8656855,5.8499548 5.4882184,6.0162082 5.1090972,6.8290732 5.1090972,6.8290732 c 0,0 -0.3521817,-0.1433798 -0.511812,-0.2447761 C 4.2413337,6.3581904 3.9113015,6.086344 3.618167,5.7832026 3.2613402,5.4141916 2.9194612,5.0151951 2.6835546,4.5593015 2.6264231,4.4488704 2.5722965,4.2032603 2.5722965,4.2032603 c 0,0 0.6846813,-0.2854228 0.8493839,-0.5877851 z"
       id="path2"
       sodipodi:nodetypes="aaasaaaaaaaassacaaacaa" /></g></svg>
