<?xml version="1.0" encoding="UTF-8" standalone="no"?>
<svg
   id="logo"
   viewBox="0 0 335.47 200.11"
   version="1.1"
   sodipodi:docname="TMVC_Stacked_Wordmark_K_WCAG_grey.svg"
   inkscape:version="1.2.1 (9c6d41e410, 2022-07-14)"
   xmlns:inkscape="http://www.inkscape.org/namespaces/inkscape"
   xmlns:sodipodi="http://sodipodi.sourceforge.net/DTD/sodipodi-0.dtd"
   xmlns="http://www.w3.org/2000/svg"
   xmlns:svg="http://www.w3.org/2000/svg">
  <defs
     id="defs12948" />
  <sodipodi:namedview
     id="namedview12946"
     pagecolor="#ffffff"
     bordercolor="#000000"
     borderopacity="0.25"
     inkscape:showpageshadow="2"
     inkscape:pageopacity="0.0"
     inkscape:pagecheckerboard="0"
     inkscape:deskcolor="#d1d1d1"
     showgrid="false"
     inkscape:zoom="3.6068799"
     inkscape:cx="156.22921"
     inkscape:cy="100.0865"
     inkscape:window-width="1920"
     inkscape:window-height="1009"
     inkscape:window-x="-8"
     inkscape:window-y="-8"
     inkscape:window-maximized="1"
     inkscape:current-layer="logo" />
  <path
     d="m137.69 3.76h-7.33v-3.76h18.75v3.76h-7.33v19.34h-4.09z"
     id="path12895"
     style="fill:#56565b;fill-opacity:1" />
  <path
     d="m158.84 0h4.06v9.6h11.02v-9.6h4.06v23.1h-4.06v-9.73h-11.02v9.74h-4.06z"
     id="path12897"
     style="fill:#56565b;fill-opacity:1" />
  <path
     d="m189.37 0h17.13v3.63h-13.07v6.01h11.58v3.63h-11.58v6.21h13.23v3.63h-17.29z"
     id="path12899"
     style="fill:#56565b;fill-opacity:1" />
  <path
     d="m.78 44.77h6.55l10.65 16.55 10.65-16.55h6.55v35h-6.15v-25.1l-11.05 16.5h-.2l-10.95-16.4v25h-6.05z"
     id="path12901"
     style="fill:#56565b;fill-opacity:1" />
  <path
     d="m65.83 44.52h5.7l15.4 35.25h-6.5l-3.55-8.45h-16.55l-3.6 8.45h-6.3zm8.8 21.35-6.05-14-6 14z"
     id="path12903"
     style="fill:#56565b;fill-opacity:1" />
  <path
     d="m102.17 44.77h15.6c4.4 0 7.85 1.3 10.1 3.5 1.85 1.9 2.9 4.5 2.9 7.55v.1c0 5.75-3.45 9.2-8.35 10.6l9.45 13.25h-7.25l-8.6-12.2h-7.7v12.2h-6.15zm15.15 17.35c4.4 0 7.2-2.3 7.2-5.85v-.1c0-3.75-2.7-5.8-7.25-5.8h-8.95v11.75z"
     id="path12905"
     style="fill:#56565b;fill-opacity:1" />
  <path
     d="m147.57 44.77h15.6c4.4 0 7.85 1.3 10.1 3.5 1.85 1.9 2.9 4.5 2.9 7.55v.1c0 5.75-3.45 9.2-8.35 10.6l9.45 13.25h-7.25l-8.6-12.2h-7.7v12.2h-6.15zm15.15 17.35c4.4 0 7.2-2.3 7.2-5.85v-.1c0-3.75-2.7-5.8-7.25-5.8h-8.95v11.75z"
     id="path12907"
     style="fill:#56565b;fill-opacity:1" />
  <path
     d="m193.32 44.77h6.15v35h-6.15z"
     id="path12909"
     style="fill:#56565b;fill-opacity:1" />
  <path
     d="m216.52 62.38v-.1c0-9.85 7.6-18.1 18.35-18.1s18.25 8.15 18.25 18v.1c0 9.85-7.6 18.1-18.35 18.1s-18.25-8.15-18.25-18zm30.15 0v-.1c0-6.8-4.95-12.45-11.9-12.45s-11.8 5.55-11.8 12.35v.1c0 6.8 4.95 12.45 11.9 12.45s11.8-5.55 11.8-12.35z"
     id="path12911"
     style="fill:#56565b;fill-opacity:1" />
  <path
     d="m276.52 50.47h-11.1v-5.7h28.4v5.7h-11.1v29.3h-6.2z"
     id="path12913"
     style="fill:#56565b;fill-opacity:1" />
  <path
     d="m318.17 50.47h-11.1v-5.7h28.4v5.7h-11.1v29.3h-6.2z"
     id="path12915"
     style="fill:#56565b;fill-opacity:1" />
  <path
     d="m0 104.51h6.8l10.55 26.9 10.5-26.9h6.65l-14.55 35.25h-5.4z"
     id="path12917"
     style="fill:#56565b;fill-opacity:1" />
  <path
     d="m57.15 104.26h5.7l15.4 35.25h-6.5l-3.55-8.45h-16.55l-3.6 8.45h-6.3zm8.8 21.35-6.05-14-6 14z"
     id="path12919"
     style="fill:#56565b;fill-opacity:1" />
  <path
     d="m89.8 122.11v-.1c0-9.95 7.45-18.1 18.05-18.1 6.45 0 10.35 2.25 13.7 5.45l-3.95 4.55c-2.8-2.6-5.8-4.35-9.8-4.35-6.7 0-11.55 5.5-11.55 12.35v.1c0 6.85 4.85 12.45 11.55 12.45 4.3 0 7.05-1.75 10.05-4.55l3.95 4c-3.65 3.8-7.65 6.2-14.2 6.2-10.2 0-17.8-7.95-17.8-18z"
     id="path12921"
     style="fill:#56565b;fill-opacity:1" />
  <path
     d="m149.9 104.26h5.7l15.4 35.25h-6.5l-3.55-8.45h-16.55l-3.6 8.45h-6.3zm8.8 21.35-6.05-14-6 14z"
     id="path12923"
     style="fill:#56565b;fill-opacity:1" />
  <path
     d="m190.35 110.21h-11.1v-5.7h28.4v5.7h-11.1v29.3h-6.2z"
     id="path12925"
     style="fill:#56565b;fill-opacity:1" />
  <path
     d="m223.75 104.51h6.15v35h-6.15z"
     id="path12927"
     style="fill:#56565b;fill-opacity:1" />
  <path
     d="m246.95 122.11v-.1c0-9.85 7.6-18.1 18.35-18.1s18.25 8.15 18.25 18v.1c0 9.85-7.6 18.1-18.35 18.1s-18.25-8.15-18.25-18zm30.15 0v-.1c0-6.8-4.95-12.45-11.9-12.45s-11.8 5.55-11.8 12.35v.1c0 6.8 4.95 12.45 11.9 12.45s11.8-5.55 11.8-12.35z"
     id="path12929"
     style="fill:#56565b;fill-opacity:1" />
  <path
     d="m300.25 104.51h5.7l18.75 24.2v-24.2h6.05v35h-5.15l-19.3-24.9v24.9h-6.05z"
     id="path12931"
     style="fill:#56565b;fill-opacity:1" />
  <path
     d="m64.92 182.11v-.1c0-9.95 7.45-18.1 18.05-18.1 6.45 0 10.35 2.25 13.7 5.45l-3.95 4.55c-2.8-2.6-5.8-4.35-9.8-4.35-6.7 0-11.55 5.5-11.55 12.35v.1c0 6.85 4.85 12.45 11.55 12.45 4.3 0 7.05-1.75 10.05-4.55l3.95 4c-3.65 3.8-7.65 6.2-14.2 6.2-10.2 0-17.8-7.95-17.8-18z"
     id="path12933"
     style="fill:#56565b;fill-opacity:1" />
  <path
     d="m112.62 164.5h6.15v29.4h18.4v5.6h-24.55z"
     id="path12935"
     style="fill:#56565b;fill-opacity:1" />
  <path
     d="m151.27 184.66v-20.15h6.15v19.9c0 6.5 3.35 10 8.85 10s8.8-3.3 8.8-9.75v-20.15h6.15v19.85c0 10.45-5.9 15.7-15.05 15.7s-14.9-5.25-14.9-15.4z"
     id="path12937"
     style="fill:#56565b;fill-opacity:1" />
  <path
     d="m198.92 164.5h15.7c4 0 7.15 1.1 9.15 3.1 1.55 1.55 2.35 3.45 2.35 5.8v.1c0 4.2-2.4 6.45-5 7.8 4.1 1.4 6.95 3.75 6.95 8.5v.1c0 6.25-5.15 9.6-12.95 9.6h-16.2zm14.45 14.75c3.95 0 6.6-1.55 6.6-4.75v-.1c0-2.75-2.2-4.45-6.15-4.45h-8.85v9.3zm1.8 14.8c4.2 0 6.75-1.65 6.75-4.8v-.1c0-2.95-2.35-4.7-7.2-4.7h-9.75v9.6z"
     id="path12939"
     style="fill:#56565b;fill-opacity:1" />
  <path
     d="m241.92 194.41 3.7-4.4c3.35 2.9 6.7 4.55 11.05 4.55 3.8 0 6.2-1.75 6.2-4.4v-.1c0-2.5-1.4-3.85-7.9-5.35-7.45-1.8-11.65-4-11.65-10.45v-.1c0-6 5-10.15 11.95-10.15 5.1 0 9.15 1.55 12.7 4.4l-3.3 4.65c-3.15-2.35-6.3-3.6-9.5-3.6-3.6 0-5.7 1.85-5.7 4.15v.1c0 2.7 1.6 3.9 8.3 5.5 7.4 1.8 11.25 4.45 11.25 10.25v.1c0 6.55-5.15 10.45-12.5 10.45-5.35 0-10.4-1.85-14.6-5.6z"
     id="path12941"
     style="fill:#56565b;fill-opacity:1" />
  <path
     d="m279.3 165.28h-3.99v-2.15h10.46v2.15h-3.99v10.13h-2.48zm9.24-2.15h2.65l3.91 5.83 3.91-5.83h2.56v12.29h-2.39v-8.74l-3.99 5.91h-.25l-3.99-5.91v8.74h-2.39v-12.29z"
     id="path12943"
     style="fill:#56565b;fill-opacity:1" />
</svg>
