<?xml version="1.0" encoding="UTF-8" standalone="no"?>
<!-- Created with Inkscape (http://www.inkscape.org/) -->

<svg
   width="190.79105mm"
   height="6.4161458mm"
   viewBox="0 0 190.79105 6.4161458"
   version="1.1"
   id="svg5"
   xml:space="preserve"
   xmlns="http://www.w3.org/2000/svg"
   xmlns:svg="http://www.w3.org/2000/svg"><defs
     id="defs2" /><g
     id="layer1"
     transform="translate(-9.57553,-104.98735)"><g
       id="g317"
       transform="matrix(0.26458333,0,0,0.26458333,9.57553,104.98735)"
       style="fill:#f2f2f2;fill-opacity:1"><path
         d="M 4.94,6.95 H 0 V 4.41 H 12.64 V 6.95 H 7.7 V 19.99 H 4.94 Z"
         id="path237"
         style="fill:#f2f2f2;fill-opacity:1" /><path
         d="m 19.19,4.41 h 2.74 v 6.47 h 7.43 V 4.41 h 2.74 v 15.57 h -2.74 v -6.56 h -7.43 v 6.56 h -2.74 z"
         id="path239"
         style="fill:#f2f2f2;fill-opacity:1" /><path
         d="m 39.77,4.41 h 11.55 v 2.45 h -8.81 v 4.05 h 7.81 v 2.45 h -7.81 v 4.18 h 8.92 v 2.45 H 39.77 Z"
         id="path241"
         style="fill:#f2f2f2;fill-opacity:1" /><path
         d="m 71.79,0.4 h 4.39 L 83.31,11.49 90.45,0.4 h 4.39 V 23.85 H 90.72 V 7.03 l -7.4,11.05 H 83.19 L 75.86,7.09 V 23.85 H 71.81 V 0.4 Z"
         id="path243"
         style="fill:#f2f2f2;fill-opacity:1" /><path
         d="m 115.54,0.23 h 3.82 l 10.32,23.61 h -4.35 l -2.38,-5.66 h -11.09 l -2.41,5.66 h -4.22 z m 5.89,14.3 -4.05,-9.38 -4.02,9.38 z"
         id="path245"
         style="fill:#f2f2f2;fill-opacity:1" /><path
         d="m 140.07,0.4 h 10.45 c 2.95,0 5.26,0.87 6.77,2.34 1.24,1.27 1.94,3.01 1.94,5.06 v 0.07 c 0,3.85 -2.31,6.16 -5.59,7.1 l 6.33,8.88 h -4.86 l -5.76,-8.17 h -5.16 v 8.17 h -4.12 z m 10.15,11.62 c 2.95,0 4.82,-1.54 4.82,-3.92 V 8.03 c 0,-2.51 -1.81,-3.89 -4.86,-3.89 h -6 v 7.87 h 6.03 z"
         id="path247"
         style="fill:#f2f2f2;fill-opacity:1" /><path
         d="m 170.65,0.4 h 10.45 c 2.95,0 5.26,0.87 6.77,2.34 1.24,1.27 1.94,3.01 1.94,5.06 v 0.07 c 0,3.85 -2.31,6.16 -5.59,7.1 l 6.33,8.88 h -4.86 l -5.76,-8.17 h -5.16 v 8.17 h -4.12 z m 10.15,11.62 c 2.95,0 4.82,-1.54 4.82,-3.92 V 8.03 c 0,-2.51 -1.81,-3.89 -4.86,-3.89 h -6 v 7.87 h 6.03 z"
         id="path249"
         style="fill:#f2f2f2;fill-opacity:1" /><path
         d="m 201.47,0.4 h 4.12 v 23.45 h -4.12 z"
         id="path251"
         style="fill:#f2f2f2;fill-opacity:1" /><path
         d="m 217.18,12.19 v -0.07 c 0,-6.6 5.09,-12.12 12.29,-12.12 7.2,0 12.23,5.46 12.23,12.06 v 0.07 c 0,6.6 -5.09,12.12 -12.29,12.12 -7.2,0 -12.23,-5.46 -12.23,-12.06 z m 20.2,0 v -0.07 c 0,-4.56 -3.32,-8.34 -7.97,-8.34 -4.65,0 -7.9,3.72 -7.9,8.27 v 0.07 c 0,4.55 3.32,8.34 7.97,8.34 4.65,0 7.9,-3.72 7.9,-8.27 z"
         id="path253"
         style="fill:#f2f2f2;fill-opacity:1" /><path
         d="m 257.55,4.22 h -7.44 V 0.4 h 19.02 v 3.82 h -7.44 v 19.63 h -4.15 V 4.22 Z"
         id="path255"
         style="fill:#f2f2f2;fill-opacity:1" /><path
         d="m 285.62,4.22 h -7.44 V 0.4 h 19.02 v 3.82 h -7.44 v 19.63 h -4.15 V 4.22 Z"
         id="path257"
         style="fill:#f2f2f2;fill-opacity:1" /><path
         d="m 317.31,0.4 h 4.56 l 7.07,18.02 7.03,-18.02 h 4.45 l -9.75,23.61 h -3.62 z"
         id="path259"
         style="fill:#f2f2f2;fill-opacity:1" /><path
         d="m 355.77,0.23 h 3.82 l 10.32,23.61 h -4.35 l -2.38,-5.66 h -11.09 l -2.41,5.66 h -4.22 z m 5.89,14.3 -4.05,-9.38 -4.02,9.38 z"
         id="path261"
         style="fill:#f2f2f2;fill-opacity:1" /><path
         d="M 377.82,12.19 V 12.12 C 377.82,5.45 382.81,0 389.91,0 c 4.32,0 6.93,1.51 9.18,3.65 l -2.65,3.05 c -1.88,-1.74 -3.89,-2.91 -6.56,-2.91 -4.49,0 -7.74,3.68 -7.74,8.27 v 0.07 c 0,4.59 3.25,8.34 7.74,8.34 2.88,0 4.72,-1.17 6.73,-3.05 l 2.65,2.68 c -2.44,2.54 -5.12,4.15 -9.51,4.15 -6.83,0 -11.92,-5.33 -11.92,-12.06 z"
         id="path263"
         style="fill:#f2f2f2;fill-opacity:1" /><path
         d="m 418.25,0.23 h 3.82 l 10.32,23.61 h -4.35 l -2.38,-5.66 h -11.09 l -2.41,5.66 h -4.22 z m 5.89,14.3 -4.05,-9.38 -4.02,9.38 z"
         id="path265"
         style="fill:#f2f2f2;fill-opacity:1" /><path
         d="m 445.52,4.22 h -7.44 V 0.4 h 19.02 v 3.82 h -7.44 v 19.63 h -4.15 V 4.22 Z"
         id="path267"
         style="fill:#f2f2f2;fill-opacity:1" /><path
         d="m 468.06,0.4 h 4.12 v 23.45 h -4.12 z"
         id="path269"
         style="fill:#f2f2f2;fill-opacity:1" /><path
         d="m 483.77,12.19 v -0.07 c 0,-6.6 5.09,-12.12 12.29,-12.12 7.2,0 12.23,5.46 12.23,12.06 v 0.07 c 0,6.6 -5.09,12.12 -12.29,12.12 -7.2,0 -12.23,-5.46 -12.23,-12.06 z m 20.2,0 v -0.07 c 0,-4.56 -3.32,-8.34 -7.97,-8.34 -4.65,0 -7.9,3.72 -7.9,8.27 v 0.07 c 0,4.55 3.32,8.34 7.97,8.34 4.65,0 7.9,-3.72 7.9,-8.27 z"
         id="path271"
         style="fill:#f2f2f2;fill-opacity:1" /><path
         d="m 519.65,0.4 h 3.82 l 12.56,16.21 V 0.4 h 4.05 v 23.45 h -3.45 L 523.7,7.17 v 16.68 h -4.05 z"
         id="path273"
         style="fill:#f2f2f2;fill-opacity:1" /><path
         d="M 560.32,12.19 V 12.12 C 560.32,5.45 565.31,0 572.41,0 c 4.32,0 6.93,1.51 9.18,3.65 l -2.65,3.05 c -1.88,-1.74 -3.89,-2.91 -6.57,-2.91 -4.49,0 -7.74,3.68 -7.74,8.27 v 0.07 c 0,4.59 3.25,8.34 7.74,8.34 2.88,0 4.72,-1.17 6.73,-3.05 l 2.65,2.68 c -2.45,2.54 -5.12,4.15 -9.51,4.15 -6.83,0 -11.92,-5.33 -11.92,-12.06 z"
         id="path275"
         style="fill:#f2f2f2;fill-opacity:1" /><path
         d="m 592.45,0.4 h 4.12 v 19.7 h 12.33 v 3.75 H 592.46 V 0.4 Z"
         id="path277"
         style="fill:#f2f2f2;fill-opacity:1" /><path
         d="M 618.51,13.9 V 0.4 h 4.12 v 13.33 c 0,4.35 2.24,6.7 5.93,6.7 3.69,0 5.89,-2.21 5.89,-6.53 V 0.4 h 4.12 v 13.3 c 0,7 -3.95,10.52 -10.08,10.52 -6.13,0 -9.98,-3.52 -9.98,-10.32 z"
         id="path279"
         style="fill:#f2f2f2;fill-opacity:1" /><path
         d="m 650.6,0.4 h 10.52 c 2.68,0 4.79,0.74 6.13,2.08 1.04,1.04 1.57,2.31 1.57,3.89 v 0.07 c 0,2.81 -1.61,4.32 -3.35,5.23 2.75,0.94 4.66,2.51 4.66,5.69 v 0.07 c 0,4.19 -3.45,6.43 -8.67,6.43 H 650.61 V 0.4 Z m 9.68,9.88 c 2.65,0 4.42,-1.04 4.42,-3.18 V 7.03 c 0,-1.84 -1.47,-2.98 -4.12,-2.98 h -5.93 v 6.23 z m 1.21,9.91 c 2.81,0 4.52,-1.1 4.52,-3.21 v -0.07 c 0,-1.98 -1.57,-3.15 -4.82,-3.15 h -6.53 v 6.43 z"
         id="path281"
         style="fill:#f2f2f2;fill-opacity:1" /><path
         d="m 679.58,20.43 2.48,-2.95 c 2.24,1.94 4.49,3.05 7.4,3.05 2.55,0 4.15,-1.17 4.15,-2.95 v -0.07 c 0,-1.67 -0.94,-2.58 -5.29,-3.58 -4.99,-1.21 -7.8,-2.68 -7.8,-7 V 6.86 c 0,-4.02 3.35,-6.8 8,-6.8 3.42,0 6.13,1.04 8.51,2.95 l -2.21,3.12 c -2.11,-1.57 -4.22,-2.41 -6.36,-2.41 -2.41,0 -3.82,1.24 -3.82,2.78 v 0.07 c 0,1.81 1.07,2.61 5.56,3.68 4.96,1.21 7.54,2.98 7.54,6.87 v 0.07 c 0,4.39 -3.45,7 -8.37,7 -3.58,0 -6.97,-1.24 -9.78,-3.75 z"
         id="path283"
         style="fill:#f2f2f2;fill-opacity:1" /><path
         d="m 705.2,1.57 h -2.85 V 0.03 h 7.47 v 1.54 h -2.85 v 7.24 h -1.77 z m 6.6,-1.54 h 1.89 l 2.79,4.16 2.79,-4.16 h 1.83 v 8.78 h -1.71 V 2.57 l -2.85,4.22 h -0.18 l -2.85,-4.22 v 6.24 h -1.71 z"
         id="path285"
         style="fill:#f2f2f2;fill-opacity:1" /></g></g></svg>
