<svg id="logo" viewBox="0 0 721.1 24.25" xmlns="http://www.w3.org/2000/svg"><path d="m4.94 6.95h-4.94v-2.54h12.64v2.54h-4.94v13.04h-2.76z"/><path d="m19.19 4.41h2.74v6.47h7.43v-6.47h2.74v15.57h-2.74v-6.56h-7.43v6.56h-2.74z"/><path d="m39.77 4.41h11.55v2.45h-8.81v4.05h7.81v2.45h-7.81v4.18h8.92v2.45h-11.66z"/><path d="m71.79.4h4.39l7.13 11.09 7.14-11.09h4.39v23.45h-4.12v-16.82l-7.4 11.05h-.13l-7.33-10.99v16.76h-4.05v-23.45z"/><path d="m115.54.23h3.82l10.32 23.61h-4.35l-2.38-5.66h-11.09l-2.41 5.66h-4.22zm5.89 14.3-4.05-9.38-4.02 9.38z"/><path d="m140.07.4h10.45c2.95 0 5.26.87 6.77 2.34 1.24 1.27 1.94 3.01 1.94 5.06v.07c0 3.85-2.31 6.16-5.59 7.1l6.33 8.88h-4.86l-5.76-8.17h-5.16v8.17h-4.12zm10.15 11.62c2.95 0 4.82-1.54 4.82-3.92v-.07c0-2.51-1.81-3.89-4.86-3.89h-6v7.87h6.03z"/><path d="m170.65.4h10.45c2.95 0 5.26.87 6.77 2.34 1.24 1.27 1.94 3.01 1.94 5.06v.07c0 3.85-2.31 6.16-5.59 7.1l6.33 8.88h-4.86l-5.76-8.17h-5.16v8.17h-4.12zm10.15 11.62c2.95 0 4.82-1.54 4.82-3.92v-.07c0-2.51-1.81-3.89-4.86-3.89h-6v7.87h6.03z"/><path d="m201.47.4h4.12v23.45h-4.12z"/><path d="m217.18 12.19v-.07c0-6.6 5.09-12.12 12.29-12.12s12.23 5.46 12.23 12.06v.07c0 6.6-5.09 12.12-12.29 12.12s-12.23-5.46-12.23-12.06zm20.2 0v-.07c0-4.56-3.32-8.34-7.97-8.34s-7.9 3.72-7.9 8.27v.07c0 4.55 3.32 8.34 7.97 8.34s7.9-3.72 7.9-8.27z"/><path d="m257.55 4.22h-7.44v-3.82h19.02v3.82h-7.44v19.63h-4.15v-19.63z"/><path d="m285.62 4.22h-7.44v-3.82h19.02v3.82h-7.44v19.63h-4.15v-19.63z"/><path d="m317.31.4h4.56l7.07 18.02 7.03-18.02h4.45l-9.75 23.61h-3.62z"/><path d="m355.77.23h3.82l10.32 23.61h-4.35l-2.38-5.66h-11.09l-2.41 5.66h-4.22zm5.89 14.3-4.05-9.38-4.02 9.38z"/><path d="m377.82 12.19v-.07c0-6.67 4.99-12.12 12.09-12.12 4.32 0 6.93 1.51 9.18 3.65l-2.65 3.05c-1.88-1.74-3.89-2.91-6.56-2.91-4.49 0-7.74 3.68-7.74 8.27v.07c0 4.59 3.25 8.34 7.74 8.34 2.88 0 4.72-1.17 6.73-3.05l2.65 2.68c-2.44 2.54-5.12 4.15-9.51 4.15-6.83 0-11.92-5.33-11.92-12.06z"/><path d="m418.25.23h3.82l10.32 23.61h-4.35l-2.38-5.66h-11.09l-2.41 5.66h-4.22zm5.89 14.3-4.05-9.38-4.02 9.38z"/><path d="m445.52 4.22h-7.44v-3.82h19.02v3.82h-7.44v19.63h-4.15v-19.63z"/><path d="m468.06.4h4.12v23.45h-4.12z"/><path d="m483.77 12.19v-.07c0-6.6 5.09-12.12 12.29-12.12s12.23 5.46 12.23 12.06v.07c0 6.6-5.09 12.12-12.29 12.12s-12.23-5.46-12.23-12.06zm20.2 0v-.07c0-4.56-3.32-8.34-7.97-8.34s-7.9 3.72-7.9 8.27v.07c0 4.55 3.32 8.34 7.97 8.34s7.9-3.72 7.9-8.27z"/><path d="m519.65.4h3.82l12.56 16.21v-16.21h4.05v23.45h-3.45l-12.93-16.68v16.68h-4.05z"/><path d="m560.32 12.19v-.07c0-6.67 4.99-12.12 12.09-12.12 4.32 0 6.93 1.51 9.18 3.65l-2.65 3.05c-1.88-1.74-3.89-2.91-6.57-2.91-4.49 0-7.74 3.68-7.74 8.27v.07c0 4.59 3.25 8.34 7.74 8.34 2.88 0 4.72-1.17 6.73-3.05l2.65 2.68c-2.45 2.54-5.12 4.15-9.51 4.15-6.83 0-11.92-5.33-11.92-12.06z"/><path d="m592.45.4h4.12v19.7h12.33v3.75h-16.44v-23.45z"/><path d="m618.51 13.9v-13.5h4.12v13.33c0 4.35 2.24 6.7 5.93 6.7s5.89-2.21 5.89-6.53v-13.5h4.12v13.3c0 7-3.95 10.52-10.08 10.52s-9.98-3.52-9.98-10.32z"/><path d="m650.6.4h10.52c2.68 0 4.79.74 6.13 2.08 1.04 1.04 1.57 2.31 1.57 3.89v.07c0 2.81-1.61 4.32-3.35 5.23 2.75.94 4.66 2.51 4.66 5.69v.07c0 4.19-3.45 6.43-8.67 6.43h-10.85v-23.46zm9.68 9.88c2.65 0 4.42-1.04 4.42-3.18v-.07c0-1.84-1.47-2.98-4.12-2.98h-5.93v6.23zm1.21 9.91c2.81 0 4.52-1.1 4.52-3.21v-.07c0-1.98-1.57-3.15-4.82-3.15h-6.53v6.43z"/><path d="m679.58 20.43 2.48-2.95c2.24 1.94 4.49 3.05 7.4 3.05 2.55 0 4.15-1.17 4.15-2.95v-.07c0-1.67-.94-2.58-5.29-3.58-4.99-1.21-7.8-2.68-7.8-7v-.07c0-4.02 3.35-6.8 8-6.8 3.42 0 6.13 1.04 8.51 2.95l-2.21 3.12c-2.11-1.57-4.22-2.41-6.36-2.41-2.41 0-3.82 1.24-3.82 2.78v.07c0 1.81 1.07 2.61 5.56 3.68 4.96 1.21 7.54 2.98 7.54 6.87v.07c0 4.39-3.45 7-8.37 7-3.58 0-6.97-1.24-9.78-3.75z"/><path d="m705.2 1.57h-2.85v-1.54h7.47v1.54h-2.85v7.24h-1.77zm6.6-1.54h1.89l2.79 4.16 2.79-4.16h1.83v8.78h-1.71v-6.24l-2.85 4.22h-.18l-2.85-4.22v6.24h-1.71v-8.78z"/></svg>