<svg clip-rule="evenodd" fill-rule="evenodd" stroke-linejoin="round" stroke-miterlimit="2" width="1164" height="1242" viewBox="0 0 1164 1242" xmlns="http://www.w3.org/2000/svg"><g fill="none" stroke="#b56d2a" stroke-opacity="0.5" stroke-width="0.5"><circle vector-effect="non-scaling-stroke" cx="826.652084" cy="336.996084" r="13.98324"/><circle vector-effect="non-scaling-stroke" cx="826.652084" cy="336.996084" r="29.364804"/><circle vector-effect="non-scaling-stroke" cx="826.652084" cy="336.996084" r="44.746368"/><circle vector-effect="non-scaling-stroke" cx="826.652084" cy="336.996084" r="60.127932"/><circle vector-effect="non-scaling-stroke" cx="826.652084" cy="336.996084" r="75.509496"/><circle vector-effect="non-scaling-stroke" cx="826.652084" cy="336.996084" r="90.89106"/><circle vector-effect="non-scaling-stroke" cx="826.652084" cy="336.996084" r="106.272624"/><circle vector-effect="non-scaling-stroke" cx="826.652084" cy="336.996084" r="121.654188"/><circle vector-effect="non-scaling-stroke" cx="826.652084" cy="336.996084" r="137.035752"/><circle vector-effect="non-scaling-stroke" cx="826.652084" cy="336.996084" r="152.417316"/><circle vector-effect="non-scaling-stroke" cx="826.652084" cy="336.996084" r="167.79888"/><circle vector-effect="non-scaling-stroke" cx="826.652084" cy="336.996084" r="183.180444"/><circle vector-effect="non-scaling-stroke" cx="826.652084" cy="336.996084" r="198.562008"/><circle vector-effect="non-scaling-stroke" cx="826.652084" cy="336.996084" r="213.943572"/><circle vector-effect="non-scaling-stroke" cx="826.652084" cy="336.996084" r="229.325136"/><circle vector-effect="non-scaling-stroke" cx="826.652084" cy="336.996084" r="244.7067"/><circle vector-effect="non-scaling-stroke" cx="826.652084" cy="336.996084" r="260.088264"/><circle vector-effect="non-scaling-stroke" cx="826.652084" cy="336.996084" r="275.469828"/><circle vector-effect="non-scaling-stroke" cx="826.652084" cy="336.996084" r="290.851392"/><circle vector-effect="non-scaling-stroke" cx="826.652084" cy="336.996084" r="306.232956"/><circle vector-effect="non-scaling-stroke" cx="826.652084" cy="336.996084" r="321.61452"/><circle vector-effect="non-scaling-stroke" cx="826.652084" cy="336.996084" r="336.996084"/><circle vector-effect="non-scaling-stroke" cx="826.652084" cy="903.278084" r="13.98324"/><circle vector-effect="non-scaling-stroke" cx="826.652084" cy="903.278084" r="29.364804"/><circle vector-effect="non-scaling-stroke" cx="826.652084" cy="903.278084" r="44.746368"/><circle vector-effect="non-scaling-stroke" cx="826.652084" cy="903.278084" r="60.127932"/><circle vector-effect="non-scaling-stroke" cx="826.652084" cy="903.278084" r="75.509496"/><circle vector-effect="non-scaling-stroke" cx="826.652084" cy="903.278084" r="90.89106"/><circle vector-effect="non-scaling-stroke" cx="826.652084" cy="903.278084" r="106.272624"/><circle vector-effect="non-scaling-stroke" cx="826.652084" cy="903.278084" r="121.654188"/><circle vector-effect="non-scaling-stroke" cx="826.652084" cy="903.278084" r="137.035752"/><circle vector-effect="non-scaling-stroke" cx="826.652084" cy="903.278084" r="152.417316"/><circle vector-effect="non-scaling-stroke" cx="826.652084" cy="903.278084" r="167.79888"/><circle vector-effect="non-scaling-stroke" cx="826.652084" cy="903.278084" r="183.180444"/><circle vector-effect="non-scaling-stroke" cx="826.652084" cy="903.278084" r="198.562008"/><circle vector-effect="non-scaling-stroke" cx="826.652084" cy="903.278084" r="213.943572"/><circle vector-effect="non-scaling-stroke" cx="826.652084" cy="903.278084" r="229.325136"/><circle vector-effect="non-scaling-stroke" cx="826.652084" cy="903.278084" r="244.7067"/><circle vector-effect="non-scaling-stroke" cx="826.652084" cy="903.278084" r="260.088264"/><circle vector-effect="non-scaling-stroke" cx="826.652084" cy="903.278084" r="275.469828"/><circle vector-effect="non-scaling-stroke" cx="826.652084" cy="903.278084" r="290.851392"/><circle vector-effect="non-scaling-stroke" cx="826.652084" cy="903.278084" r="306.232956"/><circle vector-effect="non-scaling-stroke" cx="826.652084" cy="903.278084" r="321.61452"/><circle vector-effect="non-scaling-stroke" cx="826.652084" cy="903.278084" r="336.996084"/><circle vector-effect="non-scaling-stroke" cx="336.996084" cy="619.996084" r="13.98324"/><circle vector-effect="non-scaling-stroke" cx="336.996084" cy="619.996084" r="29.364804"/><circle vector-effect="non-scaling-stroke" cx="336.996084" cy="619.996084" r="44.746368"/><circle vector-effect="non-scaling-stroke" cx="336.996084" cy="619.996084" r="60.127932"/><circle vector-effect="non-scaling-stroke" cx="336.996084" cy="619.996084" r="75.509496"/><circle vector-effect="non-scaling-stroke" cx="336.996084" cy="619.996084" r="90.89106"/><circle vector-effect="non-scaling-stroke" cx="336.996084" cy="619.996084" r="106.272624"/><circle vector-effect="non-scaling-stroke" cx="336.996084" cy="619.996084" r="121.654188"/><circle vector-effect="non-scaling-stroke" cx="336.996084" cy="619.996084" r="137.035752"/><circle vector-effect="non-scaling-stroke" cx="336.996084" cy="619.996084" r="152.417316"/><circle vector-effect="non-scaling-stroke" cx="336.996084" cy="619.996084" r="167.79888"/><circle vector-effect="non-scaling-stroke" cx="336.996084" cy="619.996084" r="183.180444"/><circle vector-effect="non-scaling-stroke" cx="336.996084" cy="619.996084" r="198.562008"/><circle vector-effect="non-scaling-stroke" cx="336.996084" cy="619.996084" r="213.943572"/><circle vector-effect="non-scaling-stroke" cx="336.996084" cy="619.996084" r="229.325136"/><circle vector-effect="non-scaling-stroke" cx="336.996084" cy="619.996084" r="244.7067"/><circle vector-effect="non-scaling-stroke" cx="336.996084" cy="619.996084" r="260.088264"/><circle vector-effect="non-scaling-stroke" cx="336.996084" cy="619.996084" r="275.469828"/><circle vector-effect="non-scaling-stroke" cx="336.996084" cy="619.996084" r="290.851392"/><circle vector-effect="non-scaling-stroke" cx="336.996084" cy="619.996084" r="306.232956"/><circle vector-effect="non-scaling-stroke" cx="336.996084" cy="619.996084" r="321.61452"/><circle vector-effect="non-scaling-stroke" cx="336.996084" cy="619.996084" r="336.996084"/></g></svg>