<?xml version="1.0" encoding="UTF-8" standalone="no"?>
<!-- Created with Inkscape (http://www.inkscape.org/) -->

<svg
   width="20"
   height="20"
   viewBox="0 0 5.2916665 5.2916666"
   version="1.1"
   id="svg5"
   xml:space="preserve"
   xmlns="http://www.w3.org/2000/svg"
   xmlns:svg="http://www.w3.org/2000/svg"><defs
     id="defs2" /><g
     id="layer1"><path
       id="path487"
       style="fill:#000000;fill-opacity:1;stroke-width:1"
       d="M 0.11211246,0.12200354 3.6385122,5.2493392 5.1190425,5.2519233 1.6572378,0.13285584 Z m 0.5715413,0.3265951 0.71106774,0.00982 3.1140215,4.47156166 -0.661458,-0.00155 z" /><path
       id="path487-0"
       style="fill:#b94809;fill-opacity:0.929178;stroke-width:1"
       d="m -5.8603658,-6.037616 3.5263997,5.12733566 1.48052977,0.00258 -3.46180417,-5.11906746 z m 0.5715413,0.326595 0.7110677,0.00982 3.1140218,4.4715618 -0.6614583,-0.00155 z" /><path
       id="path489"
       style="fill:#1d1d1d;stroke-width:1"
       d="M 5.0451453,0.12200354 4.589875,0.12355354 2.7594962,2.2531394 2.961551,2.5518292 Z M 2.2983802,2.7976487 0.1860097,5.2483057 0.6572988,5.2384867 2.505086,3.0911704 Z" /><path
       id="path489-5"
       style="fill:#b94809;stroke-width:1"
       d="m -1.1257711,-6.0688802 -0.4552694,0.00155 -1.8303792,2.1295858 0.2020548,0.2986898 z m -2.6845907,2.5957072 -2.1745442,2.5305949 0.471289,-0.009819 1.909961,-2.2272542 z" /></g></svg>
