<svg width="168" height="17" viewBox="0 0 168 17" fill="none" xmlns="http://www.w3.org/2000/svg">
<g id="Group">
<path id="Vector" d="M0.417511 0.877106H1.8567L6.72157 12.6906L11.5864 0.877106H13.0256L6.72157 16.1731L0.417511 0.877106Z" fill="#5F5F5F"/>
<path id="Vector_2" d="M25.5202 15.4717H24.081L22.6986 12.1433H15.7135L14.3513 15.4717H12.9121L19.2162 0.175751L25.5202 15.4717ZM16.2567 10.8379H22.1716L19.2121 3.65818L16.2567 10.8379Z" fill="#5F5F5F"/>
<path id="Vector_3" d="M39.0081 3.71494C37.8608 2.56765 36.2432 1.82576 34.5121 1.82576C31.0297 1.82576 28.2446 4.68792 28.2446 8.17035C28.2446 11.6528 31.0256 14.5149 34.5121 14.5149C36.2432 14.5149 37.8608 13.7771 39.0081 12.6663L39.9243 13.5825C38.5419 14.9649 36.6162 15.8001 34.5121 15.8001C30.3081 15.8001 26.8824 12.3744 26.8824 8.17035C26.8824 3.96629 30.3081 0.540619 34.5121 0.540619C36.6121 0.540619 38.5419 1.41629 39.9243 2.79873L39.0081 3.71494Z" fill="#5F5F5F"/>
<path id="Vector_4" d="M54.4175 15.4717H52.9783L51.5959 12.1433H44.6108L43.2486 15.4717H41.8094L48.1135 0.175751L54.4175 15.4717ZM45.154 10.8379H51.0689L48.1094 3.65818L45.154 10.8379Z" fill="#5F5F5F"/>
<path id="Vector_5" d="M61.1878 2.19873V15.4717H59.8662V2.19873H54.904V0.877106H66.154V2.19873H61.1878Z" fill="#5F5F5F"/>
<path id="Vector_6" d="M69.5554 0.877106H70.877V15.4717H69.5554V0.877106Z" fill="#5F5F5F"/>
<path id="Vector_7" d="M81.9121 15.8041C77.6878 15.8041 74.2824 12.3785 74.2824 8.17441C74.2824 3.97035 77.6878 0.544678 81.9121 0.544678C86.1162 0.544678 89.5418 3.97035 89.5418 8.17441C89.5418 12.3785 86.1162 15.8041 81.9121 15.8041ZM81.9121 1.82981C78.4297 1.82981 75.6445 4.69197 75.6445 8.17441C75.6445 11.6568 78.4297 14.519 81.9121 14.519C85.3945 14.519 88.1797 11.6568 88.1797 8.17441C88.1797 4.69197 85.3986 1.82981 81.9121 1.82981Z" fill="#5F5F5F"/>
<path id="Vector_8" d="M93.8797 3.90953V15.4676H92.558V0.171692L102.503 12.4312V0.873042H103.824V16.169L93.8797 3.90953Z" fill="#5F5F5F"/>
<path id="Vector_9" d="M126.166 3.71494C125.019 2.56765 123.401 1.82576 121.67 1.82576C118.188 1.82576 115.403 4.68792 115.403 8.17035C115.403 11.6528 118.188 14.5149 121.67 14.5149C123.401 14.5149 125.019 13.7771 126.166 12.6663L127.082 13.5825C125.7 14.9649 123.774 15.8001 121.674 15.8001C117.47 15.8001 114.045 12.3744 114.045 8.17035C114.045 3.96629 117.47 0.540619 121.674 0.540619C123.774 0.540619 125.704 1.41629 127.082 2.79873L126.166 3.71494Z" fill="#5F5F5F"/>
<path id="Vector_10" d="M140.562 15.4717H130.618V0.877106H131.939V14.1501H140.562V15.4717Z" fill="#5F5F5F"/>
<path id="Vector_11" d="M142.022 10.1568V0.873047H143.343V10.1568C143.343 12.5528 145.269 14.5149 147.665 14.5149C150.04 14.5149 151.966 12.5487 151.966 10.1568V0.873047H153.288V10.1568C153.288 13.2703 150.758 15.8001 147.665 15.8001C144.551 15.8041 142.022 13.2703 142.022 10.1568Z" fill="#5F5F5F"/>
<path id="Vector_12" d="M163.605 15.4717H156.795V0.877106H163.277C165.377 0.877106 167.092 2.58792 167.092 4.69197C167.092 6.13116 166.216 7.20143 165.32 7.70819C166.585 8.21494 167.753 9.57711 167.753 11.3285C167.749 13.6231 165.9 15.4717 163.605 15.4717ZM163.273 7.18116C164.635 7.18116 165.726 6.07035 165.726 4.69197C165.726 3.32981 164.635 2.20278 163.273 2.20278H158.116V7.18521H163.273V7.18116ZM163.605 8.50278H158.116V14.146H163.605C165.142 14.146 166.386 12.8812 166.386 11.3244C166.386 9.76764 165.142 8.50278 163.605 8.50278Z" fill="#5F5F5F"/>
</g>
</svg>
