<svg width="1440" height="718" viewBox="0 0 1440 718" fill="none" xmlns="http://www.w3.org/2000/svg">
<path fill-rule="evenodd" clip-rule="evenodd" d="M4.80209 1296.43C-4.95224 1296.43 -12.8597 1304.32 -12.8597 1314.06C-12.8597 1323.79 -4.95224 1331.68 4.80209 1331.68C14.5565 1331.68 22.4639 1323.79 22.4639 1314.06C22.4639 1304.32 14.5565 1296.43 4.80209 1296.43ZM-13.3595 1314.06C-13.3595 1304.05 -5.22827 1295.94 4.80209 1295.94C14.8325 1295.94 22.9637 1304.05 22.9637 1314.06C22.9637 1324.06 14.8325 1332.18 4.80209 1332.18C-5.22827 1332.18 -13.3595 1324.06 -13.3595 1314.06Z" fill="white"/>
<path fill-rule="evenodd" clip-rule="evenodd" d="M4.80209 1273.94C-17.406 1273.94 -35.4093 1291.9 -35.4093 1314.06C-35.4093 1336.21 -17.406 1354.18 4.80209 1354.18C27.0102 1354.18 45.0134 1336.21 45.0134 1314.06C45.0134 1291.9 27.0102 1273.94 4.80209 1273.94ZM-35.9091 1314.06C-35.9091 1291.62 -17.682 1273.44 4.80209 1273.44C27.2863 1273.44 45.5132 1291.62 45.5132 1314.06C45.5132 1336.49 27.2863 1354.68 4.80209 1354.68C-17.682 1354.68 -35.9091 1336.49 -35.9091 1314.06Z" fill="white"/>
<path fill-rule="evenodd" clip-rule="evenodd" d="M4.80209 1251.43C-29.8653 1251.43 -57.9688 1279.47 -57.9688 1314.06C-57.9688 1348.65 -29.8653 1376.69 4.80209 1376.69C39.4695 1376.69 67.573 1348.65 67.573 1314.06C67.573 1279.47 39.4695 1251.43 4.80209 1251.43ZM-58.4686 1314.06C-58.4686 1279.19 -30.1413 1250.93 4.80209 1250.93C39.7455 1250.93 68.0728 1279.19 68.0728 1314.06C68.0728 1348.92 39.7455 1377.19 4.80209 1377.19C-30.1413 1377.19 -58.4686 1348.92 -58.4686 1314.06Z" fill="white"/>
<path fill-rule="evenodd" clip-rule="evenodd" d="M4.80209 1228.93C-42.3191 1228.93 -80.5183 1267.04 -80.5183 1314.06C-80.5183 1361.07 -42.3191 1399.19 4.80209 1399.19C51.9233 1399.19 90.1226 1361.07 90.1226 1314.06C90.1226 1267.04 51.9233 1228.93 4.80209 1228.93ZM-81.0181 1314.06C-81.0181 1266.77 -42.5951 1228.43 4.80209 1228.43C52.1993 1228.43 90.6223 1266.77 90.6223 1314.06C90.6223 1361.35 52.1993 1399.68 4.80209 1399.68C-42.5951 1399.68 -81.0181 1361.35 -81.0181 1314.06Z" fill="white"/>
<path fill-rule="evenodd" clip-rule="evenodd" d="M4.80209 1206.42C-54.7784 1206.42 -103.078 1254.61 -103.078 1314.06C-103.078 1373.5 -54.7784 1421.69 4.80209 1421.69C64.3826 1421.69 112.682 1373.5 112.682 1314.06C112.682 1254.61 64.3826 1206.42 4.80209 1206.42ZM-103.578 1314.06C-103.578 1254.33 -55.0544 1205.92 4.80209 1205.92C64.6586 1205.92 113.182 1254.33 113.182 1314.06C113.182 1373.78 64.6586 1422.19 4.80209 1422.19C-55.0544 1422.19 -103.578 1373.78 -103.578 1314.06Z" fill="white"/>
<path fill-rule="evenodd" clip-rule="evenodd" d="M4.80209 1183.92C-67.2321 1183.92 -125.627 1242.18 -125.627 1314.06C-125.627 1385.93 -67.2321 1444.19 4.80209 1444.19C76.8364 1444.19 135.232 1385.93 135.232 1314.06C135.232 1242.18 76.8364 1183.92 4.80209 1183.92ZM-126.127 1314.06C-126.127 1241.91 -67.5082 1183.42 4.80209 1183.42C77.1124 1183.42 135.731 1241.91 135.731 1314.06C135.731 1386.2 77.1124 1444.69 4.80209 1444.69C-67.5082 1444.69 -126.127 1386.2 -126.127 1314.06Z" fill="white"/>
<path fill-rule="evenodd" clip-rule="evenodd" d="M4.80209 1161.42C-79.6859 1161.42 -148.177 1229.76 -148.177 1314.06C-148.177 1398.35 -79.6859 1466.69 4.80209 1466.69C89.2901 1466.69 157.781 1398.35 157.781 1314.06C157.781 1229.76 89.2901 1161.42 4.80209 1161.42ZM-148.677 1314.06C-148.677 1229.48 -79.9619 1160.92 4.80209 1160.92C89.5662 1160.92 158.281 1229.48 158.281 1314.06C158.281 1398.63 89.5662 1467.19 4.80209 1467.19C-79.9619 1467.19 -148.677 1398.63 -148.677 1314.06Z" fill="white"/>
<path fill-rule="evenodd" clip-rule="evenodd" d="M4.80209 1138.91C-92.1452 1138.91 -170.737 1217.33 -170.737 1314.06C-170.737 1410.79 -92.1452 1489.2 4.80209 1489.2C101.749 1489.2 180.341 1410.79 180.341 1314.06C180.341 1217.33 101.749 1138.91 4.80209 1138.91ZM-171.236 1314.06C-171.236 1217.05 -92.4212 1138.41 4.80209 1138.41C102.025 1138.41 180.841 1217.05 180.841 1314.06C180.841 1411.06 102.025 1489.7 4.80209 1489.7C-92.4212 1489.7 -171.236 1411.06 -171.236 1314.06Z" fill="white"/>
<path fill-rule="evenodd" clip-rule="evenodd" d="M4.80209 1116.41C-104.599 1116.41 -193.286 1204.9 -193.286 1314.06C-193.286 1423.21 -104.599 1511.7 4.80209 1511.7C114.203 1511.7 202.89 1423.21 202.89 1314.06C202.89 1204.9 114.203 1116.41 4.80209 1116.41ZM-193.786 1314.06C-193.786 1204.63 -104.875 1115.91 4.80209 1115.91C114.479 1115.91 203.39 1204.63 203.39 1314.06C203.39 1423.49 114.479 1512.2 4.80209 1512.2C-104.875 1512.2 -193.786 1423.49 -193.786 1314.06Z" fill="white"/>
<path fill-rule="evenodd" clip-rule="evenodd" d="M4.80209 1093.9C-117.058 1093.9 -215.846 1192.47 -215.846 1314.06C-215.846 1435.64 -117.058 1534.21 4.80209 1534.21C126.662 1534.21 225.45 1435.64 225.45 1314.06C225.45 1192.47 126.662 1093.9 4.80209 1093.9ZM-216.345 1314.06C-216.345 1192.19 -117.334 1093.4 4.80209 1093.4C126.938 1093.4 225.95 1192.19 225.95 1314.06C225.95 1435.92 126.938 1534.71 4.80209 1534.71C-117.334 1534.71 -216.345 1435.92 -216.345 1314.06Z" fill="white"/>
<path fill-rule="evenodd" clip-rule="evenodd" d="M4.80209 1071.4C-129.512 1071.4 -238.395 1180.04 -238.395 1314.06C-238.395 1448.07 -129.512 1556.71 4.80209 1556.71C139.116 1556.71 247.999 1448.07 247.999 1314.06C247.999 1180.04 139.116 1071.4 4.80209 1071.4ZM-238.895 1314.06C-238.895 1179.77 -129.788 1070.91 4.80209 1070.91C139.392 1070.91 248.499 1179.77 248.499 1314.06C248.499 1448.34 139.392 1557.21 4.80209 1557.21C-129.788 1557.21 -238.895 1448.34 -238.895 1314.06Z" fill="white"/>
<path fill-rule="evenodd" clip-rule="evenodd" d="M4.80209 1048.9C-141.971 1048.9 -260.955 1167.61 -260.955 1314.06C-260.955 1460.5 -141.971 1579.22 4.80209 1579.22C151.576 1579.22 270.559 1460.5 270.559 1314.06C270.559 1167.61 151.576 1048.9 4.80209 1048.9ZM-261.455 1314.06C-261.455 1167.34 -142.247 1048.4 4.80209 1048.4C151.852 1048.4 271.059 1167.34 271.059 1314.06C271.059 1460.78 151.852 1579.72 4.80209 1579.72C-142.247 1579.72 -261.455 1460.78 -261.455 1314.06Z" fill="white"/>
<path fill-rule="evenodd" clip-rule="evenodd" d="M4.80209 1026.4C-154.425 1026.4 -283.504 1155.19 -283.504 1314.06C-283.504 1472.93 -154.425 1601.72 4.80209 1601.72C164.029 1601.72 293.108 1472.93 293.108 1314.06C293.108 1155.19 164.029 1026.4 4.80209 1026.4ZM-284.004 1314.06C-284.004 1154.91 -154.701 1025.9 4.80209 1025.9C164.305 1025.9 293.608 1154.91 293.608 1314.06C293.608 1473.2 164.305 1602.21 4.80209 1602.21C-154.701 1602.21 -284.004 1473.2 -284.004 1314.06Z" fill="white"/>
<path fill-rule="evenodd" clip-rule="evenodd" d="M4.80209 1003.89C-166.884 1003.89 -306.064 1142.75 -306.064 1314.06C-306.064 1485.36 -166.884 1624.23 4.80209 1624.23C176.489 1624.23 315.668 1485.36 315.668 1314.06C315.668 1142.75 176.489 1003.89 4.80209 1003.89ZM-306.564 1314.06C-306.564 1142.48 -167.16 1003.39 4.80209 1003.39C176.765 1003.39 316.168 1142.48 316.168 1314.06C316.168 1485.63 176.765 1624.72 4.80209 1624.72C-167.16 1624.72 -306.564 1485.63 -306.564 1314.06Z" fill="white"/>
<path fill-rule="evenodd" clip-rule="evenodd" d="M4.80209 981.388C-179.338 981.388 -328.613 1130.33 -328.613 1314.06C-328.613 1497.78 -179.338 1646.72 4.80209 1646.72C188.942 1646.72 338.218 1497.78 338.218 1314.06C338.218 1130.33 188.942 981.388 4.80209 981.388ZM-329.113 1314.06C-329.113 1130.05 -179.614 980.89 4.80209 980.89C189.218 980.89 338.717 1130.05 338.717 1314.06C338.717 1498.06 189.218 1647.22 4.80209 1647.22C-179.614 1647.22 -329.113 1498.06 -329.113 1314.06Z" fill="white"/>
<path fill-rule="evenodd" clip-rule="evenodd" d="M4.80209 958.879C-191.797 958.879 -351.173 1117.9 -351.173 1314.06C-351.173 1510.21 -191.797 1669.23 4.80209 1669.23C201.402 1669.23 360.777 1510.21 360.777 1314.06C360.777 1117.9 201.402 958.879 4.80209 958.879ZM-351.673 1314.06C-351.673 1117.62 -192.073 958.381 4.80209 958.381C201.678 958.381 361.277 1117.62 361.277 1314.06C361.277 1510.49 201.678 1669.73 4.80209 1669.73C-192.073 1669.73 -351.673 1510.49 -351.673 1314.06Z" fill="white"/>
<path fill-rule="evenodd" clip-rule="evenodd" d="M4.80209 936.38C-204.251 936.38 -373.722 1105.47 -373.722 1314.06C-373.722 1522.64 -204.251 1691.73 4.80209 1691.73C213.855 1691.73 383.327 1522.64 383.327 1314.06C383.327 1105.47 213.855 936.38 4.80209 936.38ZM-374.222 1314.06C-374.222 1105.2 -204.527 935.882 4.80209 935.882C214.131 935.882 383.826 1105.2 383.826 1314.06C383.826 1522.92 214.131 1692.23 4.80209 1692.23C-204.527 1692.23 -374.222 1522.92 -374.222 1314.06Z" fill="white"/>
<path fill-rule="evenodd" clip-rule="evenodd" d="M4.80209 913.871C-216.711 913.871 -396.282 1093.04 -396.282 1314.06C-396.282 1535.07 -216.711 1714.24 4.80209 1714.24C226.315 1714.24 405.886 1535.07 405.886 1314.06C405.886 1093.04 226.315 913.871 4.80209 913.871ZM-396.782 1314.06C-396.782 1092.76 -216.987 913.373 4.80209 913.373C226.591 913.373 406.386 1092.76 406.386 1314.06C406.386 1535.35 226.591 1714.74 4.80209 1714.74C-216.987 1714.74 -396.782 1535.35 -396.782 1314.06Z" fill="white"/>
<path fill-rule="evenodd" clip-rule="evenodd" d="M4.80209 891.372C-229.164 891.372 -418.832 1080.61 -418.832 1314.06C-418.832 1547.5 -229.164 1736.74 4.80209 1736.74C238.768 1736.74 428.436 1547.5 428.436 1314.06C428.436 1080.61 238.768 891.372 4.80209 891.372ZM-419.331 1314.06C-419.331 1080.34 -229.44 890.874 4.80209 890.874C239.045 890.874 428.935 1080.34 428.935 1314.06C428.935 1547.77 239.045 1737.24 4.80209 1737.24C-229.44 1737.24 -419.331 1547.77 -419.331 1314.06Z" fill="white"/>
<path fill-rule="evenodd" clip-rule="evenodd" d="M4.80209 868.864C-241.624 868.864 -441.391 1068.18 -441.391 1314.06C-441.391 1559.93 -241.624 1759.25 4.80209 1759.25C251.228 1759.25 450.995 1559.93 450.995 1314.06C450.995 1068.18 251.228 868.864 4.80209 868.864ZM-441.891 1314.06C-441.891 1067.91 -241.9 868.365 4.80209 868.365C251.504 868.365 451.495 1067.91 451.495 1314.06C451.495 1560.2 251.504 1759.75 4.80209 1759.75C-241.9 1759.75 -441.891 1560.2 -441.891 1314.06Z" fill="white"/>
<path fill-rule="evenodd" clip-rule="evenodd" d="M4.80209 846.365C-254.077 846.365 -463.941 1055.76 -463.941 1314.06C-463.941 1572.36 -254.077 1781.75 4.80209 1781.75C263.682 1781.75 473.545 1572.36 473.545 1314.06C473.545 1055.76 263.682 846.365 4.80209 846.365ZM-464.44 1314.06C-464.44 1055.48 -254.353 845.866 4.80209 845.866C263.958 845.866 474.045 1055.48 474.045 1314.06C474.045 1572.63 263.958 1782.25 4.80209 1782.25C-254.353 1782.25 -464.44 1572.63 -464.44 1314.06Z" fill="white"/>
<path fill-rule="evenodd" clip-rule="evenodd" d="M496.104 1313.81C495.969 1043.19 276.065 823.666 4.80228 823.856C-266.394 824.045 -486.161 1043.52 -486.5 1314.06C-486.84 1585.04 -266.704 1804.48 4.79187 1804.26C276.128 1804.04 496.094 1584.78 496.094 1314.06V1313.81H496.104ZM496.594 1314.31H496.604V1314.06C496.604 1043.05 276.424 823.167 4.80191 823.357C-266.67 823.547 -486.66 1043.24 -487 1314.06C-487.34 1585.32 -266.98 1804.97 4.7923 1804.76C276.321 1804.54 496.459 1585.19 496.594 1314.31Z" fill="white"/>
<path fill-rule="evenodd" clip-rule="evenodd" d="M4.80209 473.077C-4.95224 473.077 -12.8597 480.967 -12.8597 490.699C-12.8597 500.432 -4.95224 508.321 4.80209 508.321C14.5565 508.321 22.4639 500.432 22.4639 490.699C22.4639 480.967 14.5565 473.077 4.80209 473.077ZM-13.3595 490.699C-13.3595 480.691 -5.22827 472.578 4.80209 472.578C14.8325 472.578 22.9637 480.691 22.9637 490.699C22.9637 500.707 14.8325 508.82 4.80209 508.82C-5.22827 508.82 -13.3595 500.707 -13.3595 490.699Z" fill="white"/>
<path fill-rule="evenodd" clip-rule="evenodd" d="M4.80209 450.578C-17.406 450.578 -35.4093 468.541 -35.4093 490.699C-35.4093 512.857 -17.406 530.82 4.80209 530.82C27.0102 530.82 45.0134 512.857 45.0134 490.699C45.0134 468.541 27.0102 450.578 4.80209 450.578ZM-35.9091 490.699C-35.9091 468.265 -17.682 450.079 4.80209 450.079C27.2863 450.079 45.5132 468.265 45.5132 490.699C45.5132 513.133 27.2863 531.319 4.80209 531.319C-17.682 531.319 -35.9091 513.133 -35.9091 490.699Z" fill="white"/>
<path fill-rule="evenodd" clip-rule="evenodd" d="M4.80209 428.069C-29.8653 428.069 -57.9688 456.11 -57.9688 490.699C-57.9688 525.289 -29.8653 553.329 4.80209 553.329C39.4695 553.329 67.573 525.289 67.573 490.699C67.573 456.11 39.4695 428.069 4.80209 428.069ZM-58.4686 490.699C-58.4686 455.834 -30.1413 427.57 4.80209 427.57C39.7455 427.57 68.0728 455.834 68.0728 490.699C68.0728 525.564 39.7455 553.828 4.80209 553.828C-30.1413 553.828 -58.4686 525.564 -58.4686 490.699Z" fill="white"/>
<path fill-rule="evenodd" clip-rule="evenodd" d="M4.80209 405.57C-42.3191 405.57 -80.5183 443.684 -80.5183 490.699C-80.5183 537.715 -42.3191 575.828 4.80209 575.828C51.9233 575.828 90.1226 537.715 90.1226 490.699C90.1226 443.684 51.9233 405.57 4.80209 405.57ZM-81.0181 490.699C-81.0181 443.408 -42.5951 405.071 4.80209 405.071C52.1993 405.071 90.6223 443.408 90.6223 490.699C90.6223 537.99 52.1993 576.327 4.80209 576.327C-42.5951 576.327 -81.0181 537.99 -81.0181 490.699Z" fill="white"/>
<path fill-rule="evenodd" clip-rule="evenodd" d="M4.80209 383.061C-54.7784 383.061 -103.078 431.252 -103.078 490.699C-103.078 550.146 -54.7784 598.337 4.80209 598.337C64.3826 598.337 112.682 550.146 112.682 490.699C112.682 431.252 64.3826 383.061 4.80209 383.061ZM-103.578 490.699C-103.578 430.977 -55.0544 382.562 4.80209 382.562C64.6586 382.562 113.182 430.977 113.182 490.699C113.182 550.421 64.6586 598.836 4.80209 598.836C-55.0544 598.836 -103.578 550.421 -103.578 490.699Z" fill="white"/>
<path fill-rule="evenodd" clip-rule="evenodd" d="M4.80209 360.562C-67.2321 360.562 -125.627 418.826 -125.627 490.699C-125.627 562.572 -67.2321 620.836 4.80209 620.836C76.8364 620.836 135.232 562.572 135.232 490.699C135.232 418.826 76.8364 360.562 4.80209 360.562ZM-126.127 490.699C-126.127 418.551 -67.5082 360.063 4.80209 360.063C77.1124 360.063 135.731 418.551 135.731 490.699C135.731 562.847 77.1124 621.335 4.80209 621.335C-67.5082 621.335 -126.127 562.847 -126.127 490.699Z" fill="white"/>
<path fill-rule="evenodd" clip-rule="evenodd" d="M4.80209 338.063C-79.6859 338.063 -148.177 406.401 -148.177 490.699C-148.177 574.998 -79.6859 643.335 4.80209 643.335C89.2901 643.335 157.781 574.998 157.781 490.699C157.781 406.401 89.2901 338.063 4.80209 338.063ZM-148.677 490.699C-148.677 406.125 -79.9619 337.565 4.80209 337.565C89.5662 337.565 158.281 406.125 158.281 490.699C158.281 575.273 89.5662 643.834 4.80209 643.834C-79.9619 643.834 -148.677 575.273 -148.677 490.699Z" fill="white"/>
<path fill-rule="evenodd" clip-rule="evenodd" d="M4.80209 315.554C-92.1452 315.554 -170.737 393.969 -170.737 490.699C-170.737 587.429 -92.1452 665.844 4.80209 665.844C101.749 665.844 180.341 587.429 180.341 490.699C180.341 393.969 101.749 315.554 4.80209 315.554ZM-171.236 490.699C-171.236 393.694 -92.4212 315.056 4.80209 315.056C102.025 315.056 180.841 393.694 180.841 490.699C180.841 587.705 102.025 666.343 4.80209 666.343C-92.4212 666.343 -171.236 587.705 -171.236 490.699Z" fill="white"/>
<path fill-rule="evenodd" clip-rule="evenodd" d="M4.80209 293.055C-104.599 293.055 -193.286 381.543 -193.286 490.699C-193.286 599.855 -104.599 688.343 4.80209 688.343C114.203 688.343 202.89 599.855 202.89 490.699C202.89 381.543 114.203 293.055 4.80209 293.055ZM-193.786 490.699C-193.786 381.268 -104.875 292.557 4.80209 292.557C114.479 292.557 203.39 381.268 203.39 490.699C203.39 600.13 114.479 688.842 4.80209 688.842C-104.875 688.842 -193.786 600.13 -193.786 490.699Z" fill="white"/>
<path fill-rule="evenodd" clip-rule="evenodd" d="M4.80209 270.546C-117.058 270.546 -215.846 369.112 -215.846 490.699C-215.846 612.286 -117.058 710.852 4.80209 710.852C126.662 710.852 225.45 612.286 225.45 490.699C225.45 369.112 126.662 270.546 4.80209 270.546ZM-216.345 490.699C-216.345 368.837 -117.334 270.048 4.80209 270.048C126.938 270.048 225.95 368.837 225.95 490.699C225.95 612.562 126.938 711.351 4.80209 711.351C-117.334 711.351 -216.345 612.562 -216.345 490.699Z" fill="white"/>
<path fill-rule="evenodd" clip-rule="evenodd" d="M4.80209 248.047C-129.512 248.047 -238.395 356.686 -238.395 490.699C-238.395 624.712 -129.512 733.351 4.80209 733.351C139.116 733.351 247.999 624.712 247.999 490.699C247.999 356.686 139.116 248.047 4.80209 248.047ZM-238.895 490.699C-238.895 356.411 -129.788 247.549 4.80209 247.549C139.392 247.549 248.499 356.411 248.499 490.699C248.499 624.988 139.392 733.85 4.80209 733.85C-129.788 733.85 -238.895 624.988 -238.895 490.699Z" fill="white"/>
<path fill-rule="evenodd" clip-rule="evenodd" d="M4.80209 225.538C-141.971 225.538 -260.955 344.255 -260.955 490.699C-260.955 637.143 -141.971 755.86 4.80209 755.86C151.576 755.86 270.559 637.143 270.559 490.699C270.559 344.255 151.576 225.538 4.80209 225.538ZM-261.455 490.699C-261.455 343.979 -142.247 225.04 4.80209 225.04C151.852 225.04 271.059 343.979 271.059 490.699C271.059 637.419 151.852 756.359 4.80209 756.359C-142.247 756.359 -261.455 637.419 -261.455 490.699Z" fill="white"/>
<path fill-rule="evenodd" clip-rule="evenodd" d="M4.80209 203.039C-154.425 203.039 -283.504 331.829 -283.504 490.699C-283.504 649.569 -154.425 778.359 4.80209 778.359C164.029 778.359 293.108 649.569 293.108 490.699C293.108 331.829 164.029 203.039 4.80209 203.039ZM-284.004 490.699C-284.004 331.554 -154.701 202.541 4.80209 202.541C164.305 202.541 293.608 331.554 293.608 490.699C293.608 649.845 164.305 778.858 4.80209 778.858C-154.701 778.858 -284.004 649.845 -284.004 490.699Z" fill="white"/>
<path fill-rule="evenodd" clip-rule="evenodd" d="M4.80209 180.53C-166.884 180.53 -306.064 319.398 -306.064 490.699C-306.064 662.001 -166.884 800.868 4.80209 800.868C176.489 800.868 315.668 662.001 315.668 490.699C315.668 319.398 176.489 180.53 4.80209 180.53ZM-306.564 490.699C-306.564 319.122 -167.16 180.032 4.80209 180.032C176.765 180.032 316.168 319.122 316.168 490.699C316.168 662.276 176.765 801.367 4.80209 801.367C-167.16 801.367 -306.564 662.276 -306.564 490.699Z" fill="white"/>
<path fill-rule="evenodd" clip-rule="evenodd" d="M4.80209 158.031C-179.338 158.031 -328.613 306.972 -328.613 490.699C-328.613 674.427 -179.338 823.367 4.80209 823.367C188.942 823.367 338.218 674.427 338.218 490.699C338.218 306.972 188.942 158.031 4.80209 158.031ZM-329.113 490.699C-329.113 306.696 -179.614 157.533 4.80209 157.533C189.218 157.533 338.717 306.696 338.717 490.699C338.717 674.702 189.218 823.866 4.80209 823.866C-179.614 823.866 -329.113 674.702 -329.113 490.699Z" fill="white"/>
<path fill-rule="evenodd" clip-rule="evenodd" d="M4.80209 135.522C-191.797 135.522 -351.173 294.54 -351.173 490.699C-351.173 686.858 -191.797 845.876 4.80209 845.876C201.402 845.876 360.777 686.858 360.777 490.699C360.777 294.54 201.402 135.522 4.80209 135.522ZM-351.673 490.699C-351.673 294.265 -192.073 135.024 4.80209 135.024C201.678 135.024 361.277 294.265 361.277 490.699C361.277 687.133 201.678 846.375 4.80209 846.375C-192.073 846.375 -351.673 687.133 -351.673 490.699Z" fill="white"/>
<path fill-rule="evenodd" clip-rule="evenodd" d="M4.80209 113.023C-204.251 113.023 -373.722 282.115 -373.722 490.699C-373.722 699.284 -204.251 868.375 4.80209 868.375C213.855 868.375 383.327 699.284 383.327 490.699C383.327 282.115 213.855 113.023 4.80209 113.023ZM-374.222 490.699C-374.222 281.839 -204.527 112.525 4.80209 112.525C214.131 112.525 383.826 281.839 383.826 490.699C383.826 699.559 214.131 868.874 4.80209 868.874C-204.527 868.874 -374.222 699.559 -374.222 490.699Z" fill="white"/>
<path fill-rule="evenodd" clip-rule="evenodd" d="M4.80209 90.5145C-216.711 90.5145 -396.282 269.683 -396.282 490.699C-396.282 711.715 -216.711 890.884 4.80209 890.884C226.315 890.884 405.886 711.715 405.886 490.699C405.886 269.683 226.315 90.5145 4.80209 90.5145ZM-396.782 490.699C-396.782 269.408 -216.987 90.0159 4.80209 90.0159C226.591 90.0159 406.386 269.408 406.386 490.699C406.386 711.99 226.591 891.383 4.80209 891.383C-216.987 891.383 -396.782 711.99 -396.782 490.699Z" fill="white"/>
<path fill-rule="evenodd" clip-rule="evenodd" d="M4.80209 68.0155C-229.164 68.0155 -418.832 257.257 -418.832 490.699C-418.832 724.141 -229.164 913.383 4.80209 913.383C238.768 913.383 428.436 724.141 428.436 490.699C428.436 257.257 238.768 68.0155 4.80209 68.0155ZM-419.331 490.699C-419.331 256.982 -229.44 67.5169 4.80209 67.5169C239.045 67.5169 428.935 256.982 428.935 490.699C428.935 724.416 239.045 913.881 4.80209 913.881C-229.44 913.881 -419.331 724.416 -419.331 490.699Z" fill="white"/>
<path fill-rule="evenodd" clip-rule="evenodd" d="M4.80209 45.5066C-241.624 45.5066 -441.391 244.826 -441.391 490.699C-441.391 736.572 -241.624 935.892 4.80209 935.892C251.228 935.892 450.995 736.572 450.995 490.699C450.995 244.826 251.228 45.5066 4.80209 45.5066ZM-441.891 490.699C-441.891 244.551 -241.9 45.0079 4.80209 45.0079C251.504 45.0079 451.495 244.551 451.495 490.699C451.495 736.848 251.504 936.39 4.80209 936.39C-241.9 936.39 -441.891 736.848 -441.891 490.699Z" fill="white"/>
<path fill-rule="evenodd" clip-rule="evenodd" d="M4.80209 23.0076C-254.077 23.0076 -463.941 232.4 -463.941 490.699C-463.941 748.998 -254.077 958.391 4.80209 958.391C263.682 958.391 473.545 748.998 473.545 490.699C473.545 232.4 263.682 23.0076 4.80209 23.0076ZM-464.44 490.699C-464.44 232.125 -254.353 22.5089 4.80209 22.5089C263.958 22.5089 474.045 232.125 474.045 490.699C474.045 749.273 263.958 958.889 4.80209 958.889C-254.353 958.889 -464.44 749.273 -464.44 490.699Z" fill="white"/>
<path fill-rule="evenodd" clip-rule="evenodd" d="M4.80197 0.498635C-266.564 0.379021 -486.54 219.822 -486.5 490.699C-486.46 761.427 -266.534 980.88 4.79211 980.9C276.118 980.91 496.084 761.437 496.094 490.699V490.45H496.104C495.979 219.837 276.055 0.618213 4.80197 0.498635ZM496.594 490.949H496.604V490.699C496.614 219.696 276.414 0.119724 4.80222 -1.21088e-05C-266.84 -0.119748 -487.04 219.547 -487 490.699C-486.96 761.702 -266.81 981.378 4.79205 981.398C276.311 981.408 496.449 761.847 496.594 490.949Z" fill="white"/>
<path fill-rule="evenodd" clip-rule="evenodd" d="M719.781 885.199C710.026 885.199 702.119 893.089 702.119 902.821C702.119 912.554 710.026 920.444 719.781 920.444C729.535 920.444 737.443 912.554 737.443 902.821C737.443 893.089 729.535 885.199 719.781 885.199ZM701.619 902.821C701.619 892.814 709.75 884.701 719.781 884.701C729.811 884.701 737.942 892.814 737.942 902.821C737.942 912.829 729.811 920.942 719.781 920.942C709.75 920.942 701.619 912.829 701.619 902.821Z" fill="white"/>
<path fill-rule="evenodd" clip-rule="evenodd" d="M719.781 862.7C697.573 862.7 679.569 880.663 679.569 902.821C679.569 924.98 697.573 942.943 719.781 942.943C741.989 942.943 759.992 924.98 759.992 902.821C759.992 880.663 741.989 862.7 719.781 862.7ZM679.07 902.821C679.07 880.388 697.297 862.202 719.781 862.202C742.265 862.202 760.492 880.388 760.492 902.821C760.492 925.255 742.265 943.441 719.781 943.441C697.297 943.441 679.07 925.255 679.07 902.821Z" fill="white"/>
<path fill-rule="evenodd" clip-rule="evenodd" d="M719.781 840.191C685.113 840.191 657.01 868.232 657.01 902.821C657.01 937.411 685.113 965.452 719.781 965.452C754.448 965.452 782.552 937.411 782.552 902.821C782.552 868.232 754.448 840.191 719.781 840.191ZM656.51 902.821C656.51 867.956 684.837 839.693 719.781 839.693C754.724 839.693 783.051 867.956 783.051 902.821C783.051 937.687 754.724 965.95 719.781 965.95C684.837 965.95 656.51 937.687 656.51 902.821Z" fill="white"/>
<path fill-rule="evenodd" clip-rule="evenodd" d="M719.781 817.692C672.659 817.692 634.46 855.806 634.46 902.821C634.46 949.837 672.659 987.951 719.781 987.951C766.902 987.951 805.101 949.837 805.101 902.821C805.101 855.806 766.902 817.692 719.781 817.692ZM633.96 902.821C633.96 855.531 672.383 817.194 719.781 817.194C767.178 817.194 805.601 855.531 805.601 902.821C805.601 950.112 767.178 988.449 719.781 988.449C672.383 988.449 633.96 950.112 633.96 902.821Z" fill="white"/>
<path fill-rule="evenodd" clip-rule="evenodd" d="M719.781 795.183C660.2 795.183 611.901 843.375 611.901 902.821C611.901 962.268 660.2 1010.46 719.781 1010.46C779.361 1010.46 827.661 962.268 827.661 902.821C827.661 843.375 779.361 795.183 719.781 795.183ZM611.401 902.821C611.401 843.099 659.924 794.685 719.781 794.685C779.637 794.685 828.161 843.099 828.161 902.821C828.161 962.544 779.637 1010.96 719.781 1010.96C659.924 1010.96 611.401 962.544 611.401 902.821Z" fill="white"/>
<path fill-rule="evenodd" clip-rule="evenodd" d="M719.781 772.684C647.746 772.684 589.351 830.949 589.351 902.821C589.351 974.694 647.746 1032.96 719.781 1032.96C791.815 1032.96 850.21 974.694 850.21 902.821C850.21 830.949 791.815 772.684 719.781 772.684ZM588.851 902.821C588.851 830.673 647.47 772.186 719.781 772.186C792.091 772.186 850.71 830.673 850.71 902.821C850.71 974.97 792.091 1033.46 719.781 1033.46C647.47 1033.46 588.851 974.97 588.851 902.821Z" fill="white"/>
<path fill-rule="evenodd" clip-rule="evenodd" d="M719.781 750.185C635.293 750.185 566.802 818.523 566.802 902.821C566.802 987.12 635.293 1055.46 719.781 1055.46C804.269 1055.46 872.76 987.12 872.76 902.821C872.76 818.523 804.269 750.185 719.781 750.185ZM566.302 902.821C566.302 818.248 635.017 749.687 719.781 749.687C804.545 749.687 873.26 818.248 873.26 902.821C873.26 987.395 804.545 1055.96 719.781 1055.96C635.017 1055.96 566.302 987.395 566.302 902.821Z" fill="white"/>
<path fill-rule="evenodd" clip-rule="evenodd" d="M719.781 727.677C622.833 727.677 544.242 806.092 544.242 902.821C544.242 999.551 622.833 1077.97 719.781 1077.97C816.728 1077.97 895.319 999.551 895.319 902.821C895.319 806.092 816.728 727.677 719.781 727.677ZM543.742 902.821C543.742 805.816 622.557 727.178 719.781 727.178C817.004 727.178 895.819 805.816 895.819 902.821C895.819 999.827 817.004 1078.47 719.781 1078.47C622.557 1078.47 543.742 999.827 543.742 902.821Z" fill="white"/>
<path fill-rule="evenodd" clip-rule="evenodd" d="M719.781 705.178C610.38 705.178 521.693 793.666 521.693 902.821C521.693 1011.98 610.38 1100.47 719.781 1100.47C829.182 1100.47 917.869 1011.98 917.869 902.821C917.869 793.666 829.182 705.178 719.781 705.178ZM521.193 902.821C521.193 793.39 610.104 704.679 719.781 704.679C829.458 704.679 918.369 793.39 918.369 902.821C918.369 1012.25 829.458 1100.96 719.781 1100.96C610.104 1100.96 521.193 1012.25 521.193 902.821Z" fill="white"/>
<path fill-rule="evenodd" clip-rule="evenodd" d="M719.781 682.669C597.92 682.669 499.133 781.234 499.133 902.821C499.133 1024.41 597.92 1122.97 719.781 1122.97C841.641 1122.97 940.428 1024.41 940.428 902.821C940.428 781.234 841.641 682.669 719.781 682.669ZM498.633 902.821C498.633 780.959 597.644 682.17 719.781 682.17C841.917 682.17 940.928 780.959 940.928 902.821C940.928 1024.68 841.917 1123.47 719.781 1123.47C597.644 1123.47 498.633 1024.68 498.633 902.821Z" fill="white"/>
<path fill-rule="evenodd" clip-rule="evenodd" d="M719.781 660.17C585.467 660.17 476.583 768.809 476.583 902.821C476.583 1036.83 585.467 1145.47 719.781 1145.47C854.095 1145.47 962.978 1036.83 962.978 902.821C962.978 768.809 854.095 660.17 719.781 660.17ZM476.084 902.821C476.084 768.533 585.19 659.671 719.781 659.671C854.371 659.671 963.478 768.533 963.478 902.821C963.478 1037.11 854.371 1145.97 719.781 1145.97C585.19 1145.97 476.084 1037.11 476.084 902.821Z" fill="white"/>
<path fill-rule="evenodd" clip-rule="evenodd" d="M719.781 637.661C573.007 637.661 454.024 756.377 454.024 902.821C454.024 1049.27 573.007 1167.98 719.781 1167.98C866.554 1167.98 985.537 1049.27 985.537 902.821C985.537 756.377 866.554 637.661 719.781 637.661ZM453.524 902.821C453.524 756.102 572.731 637.162 719.781 637.162C866.83 637.162 986.037 756.102 986.037 902.821C986.037 1049.54 866.83 1168.48 719.781 1168.48C572.731 1168.48 453.524 1049.54 453.524 902.821Z" fill="white"/>
<path fill-rule="evenodd" clip-rule="evenodd" d="M719.781 615.162C560.553 615.162 431.474 743.951 431.474 902.821C431.474 1061.69 560.553 1190.48 719.781 1190.48C879.008 1190.48 1008.09 1061.69 1008.09 902.821C1008.09 743.951 879.008 615.162 719.781 615.162ZM430.975 902.821C430.975 743.676 560.277 614.663 719.781 614.663C879.284 614.663 1008.59 743.676 1008.59 902.821C1008.59 1061.97 879.284 1190.98 719.781 1190.98C560.277 1190.98 430.975 1061.97 430.975 902.821Z" fill="white"/>
<path fill-rule="evenodd" clip-rule="evenodd" d="M719.781 592.653C548.094 592.653 408.915 731.52 408.915 902.821C408.915 1074.12 548.094 1212.99 719.781 1212.99C891.467 1212.99 1030.65 1074.12 1030.65 902.821C1030.65 731.52 891.467 592.653 719.781 592.653ZM408.415 902.821C408.415 731.245 547.818 592.154 719.781 592.154C891.743 592.154 1031.15 731.245 1031.15 902.821C1031.15 1074.4 891.743 1213.49 719.781 1213.49C547.818 1213.49 408.415 1074.4 408.415 902.821Z" fill="white"/>
<path fill-rule="evenodd" clip-rule="evenodd" d="M719.781 570.154C535.64 570.154 386.365 719.094 386.365 902.821C386.365 1086.55 535.64 1235.49 719.781 1235.49C903.921 1235.49 1053.2 1086.55 1053.2 902.821C1053.2 719.094 903.921 570.154 719.781 570.154ZM385.865 902.821C385.865 718.819 535.364 569.655 719.781 569.655C904.197 569.655 1053.7 718.819 1053.7 902.821C1053.7 1086.82 904.197 1235.99 719.781 1235.99C535.364 1235.99 385.865 1086.82 385.865 902.821Z" fill="white"/>
<path fill-rule="evenodd" clip-rule="evenodd" d="M719.781 547.645C523.181 547.645 363.806 706.663 363.806 902.821C363.806 1098.98 523.181 1258 719.781 1258C916.38 1258 1075.76 1098.98 1075.76 902.821C1075.76 706.663 916.38 547.645 719.781 547.645ZM363.306 902.821C363.306 706.387 522.905 547.146 719.781 547.146C916.656 547.146 1076.26 706.387 1076.26 902.821C1076.26 1099.26 916.656 1258.5 719.781 1258.5C522.905 1258.5 363.306 1099.26 363.306 902.821Z" fill="white"/>
<path fill-rule="evenodd" clip-rule="evenodd" d="M719.781 525.146C510.727 525.146 341.256 694.237 341.256 902.821C341.256 1111.41 510.727 1280.5 719.781 1280.5C928.834 1280.5 1098.31 1111.41 1098.31 902.821C1098.31 694.237 928.834 525.146 719.781 525.146ZM340.756 902.821C340.756 693.962 510.451 524.647 719.781 524.647C929.11 524.647 1098.81 693.962 1098.81 902.821C1098.81 1111.68 929.11 1281 719.781 1281C510.451 1281 340.756 1111.68 340.756 902.821Z" fill="white"/>
<path fill-rule="evenodd" clip-rule="evenodd" d="M719.781 502.637C498.268 502.637 318.697 681.806 318.697 902.821C318.697 1123.84 498.268 1303.01 719.781 1303.01C941.293 1303.01 1120.86 1123.84 1120.86 902.821C1120.86 681.806 941.293 502.637 719.781 502.637ZM318.197 902.821C318.197 681.53 497.992 502.138 719.781 502.138C941.569 502.138 1121.36 681.53 1121.36 902.821C1121.36 1124.11 941.569 1303.5 719.781 1303.5C497.992 1303.5 318.197 1124.11 318.197 902.821Z" fill="white"/>
<path fill-rule="evenodd" clip-rule="evenodd" d="M719.781 480.138C485.814 480.138 296.147 669.38 296.147 902.821C296.147 1136.26 485.814 1325.51 719.781 1325.51C953.747 1325.51 1143.41 1136.26 1143.41 902.821C1143.41 669.38 953.747 480.138 719.781 480.138ZM295.647 902.821C295.647 669.104 485.538 479.639 719.781 479.639C954.023 479.639 1143.91 669.104 1143.91 902.821C1143.91 1136.54 954.023 1326 719.781 1326C485.538 1326 295.647 1136.54 295.647 902.821Z" fill="white"/>
<path fill-rule="evenodd" clip-rule="evenodd" d="M719.771 457.629C473.342 457.629 272.608 656.947 272.608 902.821C272.608 1148.7 473.342 1348.01 719.771 1348.01C966.198 1348.01 1165.96 1148.7 1165.96 902.821C1165.96 656.946 966.198 457.629 719.771 457.629ZM272.108 902.821C272.108 656.67 473.068 457.13 719.771 457.13C966.474 457.13 1166.46 656.671 1166.46 902.821C1166.46 1148.97 966.474 1348.51 719.771 1348.51C473.068 1348.51 272.108 1148.97 272.108 902.821Z" fill="white"/>
<path fill-rule="evenodd" clip-rule="evenodd" d="M719.781 435.13C460.901 435.13 251.038 644.523 251.038 902.821C251.038 1161.12 460.901 1370.51 719.781 1370.51C978.66 1370.51 1188.52 1161.12 1188.52 902.821C1188.52 644.523 978.66 435.13 719.781 435.13ZM250.538 902.821C250.538 644.247 460.625 434.631 719.781 434.631C978.936 434.631 1189.02 644.247 1189.02 902.821C1189.02 1161.4 978.936 1371.01 719.781 1371.01C460.625 1371.01 250.538 1161.4 250.538 902.821Z" fill="white"/>
<path fill-rule="evenodd" clip-rule="evenodd" d="M719.771 412.621C448.435 412.621 228.468 632.094 228.468 902.821C228.468 1173.55 448.434 1391.87 719.772 1393.02C991.526 1394.18 1211.31 1174.24 1211.07 902.822C1210.83 632.094 991.107 412.621 719.771 412.621ZM227.969 902.821C227.969 631.818 448.158 412.122 719.771 412.122C991.383 412.122 1211.33 631.819 1211.57 902.821C1211.81 1174.51 991.803 1394.68 719.77 1393.52C448.159 1392.36 227.969 1173.83 227.969 902.821Z" fill="white"/>
<path fill-rule="evenodd" clip-rule="evenodd" d="M719.781 1707.68C710.026 1707.68 702.119 1715.57 702.119 1725.3C702.119 1735.03 710.026 1742.92 719.781 1742.92C729.535 1742.92 737.443 1735.03 737.443 1725.3C737.443 1715.57 729.535 1707.68 719.781 1707.68ZM701.619 1725.3C701.619 1715.29 709.75 1707.18 719.781 1707.18C729.811 1707.18 737.942 1715.29 737.942 1725.3C737.942 1735.31 729.811 1743.42 719.781 1743.42C709.75 1743.42 701.619 1735.31 701.619 1725.3Z" fill="white"/>
<path fill-rule="evenodd" clip-rule="evenodd" d="M719.781 1685.18C697.573 1685.18 679.569 1703.14 679.569 1725.3C679.569 1747.46 697.573 1765.42 719.781 1765.42C741.989 1765.42 759.992 1747.46 759.992 1725.3C759.992 1703.14 741.989 1685.18 719.781 1685.18ZM679.07 1725.3C679.07 1702.87 697.297 1684.68 719.781 1684.68C742.265 1684.68 760.492 1702.87 760.492 1725.3C760.492 1747.73 742.265 1765.92 719.781 1765.92C697.297 1765.92 679.07 1747.73 679.07 1725.3Z" fill="white"/>
<path fill-rule="evenodd" clip-rule="evenodd" d="M719.781 1662.67C685.113 1662.67 657.01 1690.71 657.01 1725.3C657.01 1759.89 685.113 1787.93 719.781 1787.93C754.448 1787.93 782.552 1759.89 782.552 1725.3C782.552 1690.71 754.448 1662.67 719.781 1662.67ZM656.51 1725.3C656.51 1690.44 684.837 1662.17 719.781 1662.17C754.724 1662.17 783.051 1690.44 783.051 1725.3C783.051 1760.17 754.724 1788.43 719.781 1788.43C684.837 1788.43 656.51 1760.17 656.51 1725.3Z" fill="white"/>
<path fill-rule="evenodd" clip-rule="evenodd" d="M719.781 1640.17C672.659 1640.17 634.46 1678.29 634.46 1725.3C634.46 1772.32 672.659 1810.43 719.781 1810.43C766.902 1810.43 805.101 1772.32 805.101 1725.3C805.101 1678.29 766.902 1640.17 719.781 1640.17ZM633.96 1725.3C633.96 1678.01 672.383 1639.67 719.781 1639.67C767.178 1639.67 805.601 1678.01 805.601 1725.3C805.601 1772.59 767.178 1810.93 719.781 1810.93C672.383 1810.93 633.96 1772.59 633.96 1725.3Z" fill="white"/>
<path fill-rule="evenodd" clip-rule="evenodd" d="M719.781 1617.66C660.2 1617.66 611.901 1665.85 611.901 1725.3C611.901 1784.75 660.2 1832.94 719.781 1832.94C779.361 1832.94 827.661 1784.75 827.661 1725.3C827.661 1665.85 779.361 1617.66 719.781 1617.66ZM611.401 1725.3C611.401 1665.58 659.924 1617.16 719.781 1617.16C779.637 1617.16 828.161 1665.58 828.161 1725.3C828.161 1785.02 779.637 1833.44 719.781 1833.44C659.924 1833.44 611.401 1785.02 611.401 1725.3Z" fill="white"/>
<path fill-rule="evenodd" clip-rule="evenodd" d="M719.781 1595.16C647.746 1595.16 589.351 1653.43 589.351 1725.3C589.351 1797.17 647.746 1855.44 719.781 1855.44C791.815 1855.44 850.21 1797.17 850.21 1725.3C850.21 1653.43 791.815 1595.16 719.781 1595.16ZM588.851 1725.3C588.851 1653.15 647.47 1594.67 719.781 1594.67C792.091 1594.67 850.71 1653.15 850.71 1725.3C850.71 1797.45 792.091 1855.94 719.781 1855.94C647.47 1855.94 588.851 1797.45 588.851 1725.3Z" fill="white"/>
<path fill-rule="evenodd" clip-rule="evenodd" d="M719.781 1572.66C635.293 1572.66 566.802 1641 566.802 1725.3C566.802 1809.6 635.293 1877.94 719.781 1877.94C804.269 1877.94 872.76 1809.6 872.76 1725.3C872.76 1641 804.269 1572.66 719.781 1572.66ZM566.302 1725.3C566.302 1640.73 635.017 1572.17 719.781 1572.17C804.545 1572.17 873.26 1640.73 873.26 1725.3C873.26 1809.87 804.545 1878.44 719.781 1878.44C635.017 1878.44 566.302 1809.87 566.302 1725.3Z" fill="white"/>
<path fill-rule="evenodd" clip-rule="evenodd" d="M719.781 1550.16C622.833 1550.16 544.242 1628.57 544.242 1725.3C544.242 1822.03 622.833 1900.45 719.781 1900.45C816.728 1900.45 895.319 1822.03 895.319 1725.3C895.319 1628.57 816.728 1550.16 719.781 1550.16ZM543.742 1725.3C543.742 1628.3 622.557 1549.66 719.781 1549.66C817.004 1549.66 895.819 1628.3 895.819 1725.3C895.819 1822.31 817.004 1900.94 719.781 1900.94C622.557 1900.94 543.742 1822.31 543.742 1725.3Z" fill="white"/>
<path fill-rule="evenodd" clip-rule="evenodd" d="M719.781 1527.66C610.38 1527.66 521.693 1616.14 521.693 1725.3C521.693 1834.46 610.38 1922.94 719.781 1922.94C829.182 1922.94 917.869 1834.46 917.869 1725.3C917.869 1616.14 829.182 1527.66 719.781 1527.66ZM521.193 1725.3C521.193 1615.87 610.104 1527.16 719.781 1527.16C829.458 1527.16 918.369 1615.87 918.369 1725.3C918.369 1834.73 829.458 1923.44 719.781 1923.44C610.104 1923.44 521.193 1834.73 521.193 1725.3Z" fill="white"/>
<path fill-rule="evenodd" clip-rule="evenodd" d="M719.781 1505.15C597.92 1505.15 499.133 1603.71 499.133 1725.3C499.133 1846.89 597.92 1945.45 719.781 1945.45C841.641 1945.45 940.428 1846.89 940.428 1725.3C940.428 1603.71 841.641 1505.15 719.781 1505.15ZM498.633 1725.3C498.633 1603.44 597.644 1504.65 719.781 1504.65C841.917 1504.65 940.928 1603.44 940.928 1725.3C940.928 1847.16 841.917 1945.95 719.781 1945.95C597.644 1945.95 498.633 1847.16 498.633 1725.3Z" fill="white"/>
<path fill-rule="evenodd" clip-rule="evenodd" d="M719.781 1482.65C585.467 1482.65 476.583 1591.29 476.583 1725.3C476.583 1859.31 585.467 1967.95 719.781 1967.95C854.095 1967.95 962.978 1859.31 962.978 1725.3C962.978 1591.29 854.095 1482.65 719.781 1482.65ZM476.084 1725.3C476.084 1591.01 585.19 1482.15 719.781 1482.15C854.371 1482.15 963.478 1591.01 963.478 1725.3C963.478 1859.59 854.371 1968.45 719.781 1968.45C585.19 1968.45 476.084 1859.59 476.084 1725.3Z" fill="white"/>
<path fill-rule="evenodd" clip-rule="evenodd" d="M719.781 1460.14C573.007 1460.14 454.024 1578.86 454.024 1725.3C454.024 1871.75 573.007 1990.46 719.781 1990.46C866.554 1990.46 985.537 1871.75 985.537 1725.3C985.537 1578.86 866.554 1460.14 719.781 1460.14ZM453.524 1725.3C453.524 1578.58 572.731 1459.64 719.781 1459.64C866.83 1459.64 986.037 1578.58 986.037 1725.3C986.037 1872.02 866.83 1990.96 719.781 1990.96C572.731 1990.96 453.524 1872.02 453.524 1725.3Z" fill="white"/>
<path fill-rule="evenodd" clip-rule="evenodd" d="M719.781 1437.64C560.553 1437.64 431.474 1566.43 431.474 1725.3C431.474 1884.17 560.553 2012.96 719.781 2012.96C879.008 2012.96 1008.09 1884.17 1008.09 1725.3C1008.09 1566.43 879.008 1437.64 719.781 1437.64ZM430.975 1725.3C430.975 1566.16 560.277 1437.14 719.781 1437.14C879.284 1437.14 1008.59 1566.16 1008.59 1725.3C1008.59 1884.45 879.284 2013.46 719.781 2013.46C560.277 2013.46 430.975 1884.45 430.975 1725.3Z" fill="white"/>
<path fill-rule="evenodd" clip-rule="evenodd" d="M719.781 1415.13C548.094 1415.13 408.915 1554 408.915 1725.3C408.915 1896.6 548.094 2035.47 719.781 2035.47C891.467 2035.47 1030.65 1896.6 1030.65 1725.3C1030.65 1554 891.467 1415.13 719.781 1415.13ZM408.415 1725.3C408.415 1553.72 547.818 1414.63 719.781 1414.63C891.743 1414.63 1031.15 1553.72 1031.15 1725.3C1031.15 1896.88 891.743 2035.97 719.781 2035.97C547.818 2035.97 408.415 1896.88 408.415 1725.3Z" fill="white"/>
<path fill-rule="evenodd" clip-rule="evenodd" d="M719.781 1392.63C535.64 1392.63 386.365 1541.57 386.365 1725.3C386.365 1909.03 535.64 2057.97 719.781 2057.97C903.921 2057.97 1053.2 1909.03 1053.2 1725.3C1053.2 1541.57 903.921 1392.63 719.781 1392.63ZM385.865 1725.3C385.865 1541.3 535.364 1392.13 719.781 1392.13C904.197 1392.13 1053.7 1541.3 1053.7 1725.3C1053.7 1909.3 904.197 2058.47 719.781 2058.47C535.364 2058.47 385.865 1909.3 385.865 1725.3Z" fill="white"/>
<path fill-rule="evenodd" clip-rule="evenodd" d="M719.781 1370.12C523.181 1370.12 363.806 1529.14 363.806 1725.3C363.806 1921.46 523.181 2080.48 719.781 2080.48C916.38 2080.48 1075.76 1921.46 1075.76 1725.3C1075.76 1529.14 916.38 1370.12 719.781 1370.12ZM363.306 1725.3C363.306 1528.87 522.905 1369.63 719.781 1369.63C916.656 1369.63 1076.26 1528.87 1076.26 1725.3C1076.26 1921.73 916.656 2080.98 719.781 2080.98C522.905 2080.98 363.306 1921.73 363.306 1725.3Z" fill="white"/>
<path fill-rule="evenodd" clip-rule="evenodd" d="M719.781 1347.63C510.727 1347.63 341.256 1516.72 341.256 1725.3C341.256 1933.89 510.727 2102.98 719.781 2102.98C928.834 2102.98 1098.31 1933.89 1098.31 1725.3C1098.31 1516.72 928.834 1347.63 719.781 1347.63ZM340.756 1725.3C340.756 1516.44 510.451 1347.13 719.781 1347.13C929.11 1347.13 1098.81 1516.44 1098.81 1725.3C1098.81 1934.16 929.11 2103.48 719.781 2103.48C510.451 2103.48 340.756 1934.16 340.756 1725.3Z" fill="white"/>
<path fill-rule="evenodd" clip-rule="evenodd" d="M719.781 1325.12C498.268 1325.12 318.697 1504.28 318.697 1725.3C318.697 1946.32 498.268 2125.49 719.781 2125.49C941.293 2125.49 1120.86 1946.32 1120.86 1725.3C1120.86 1504.28 941.293 1325.12 719.781 1325.12ZM318.197 1725.3C318.197 1504.01 497.992 1324.62 719.781 1324.62C941.569 1324.62 1121.36 1504.01 1121.36 1725.3C1121.36 1946.59 941.569 2125.98 719.781 2125.98C497.992 2125.98 318.197 1946.59 318.197 1725.3Z" fill="white"/>
<path fill-rule="evenodd" clip-rule="evenodd" d="M719.781 1302.62C485.814 1302.62 296.147 1491.86 296.147 1725.3C296.147 1958.74 485.814 2147.98 719.781 2147.98C953.747 2147.98 1143.41 1958.74 1143.41 1725.3C1143.41 1491.86 953.747 1302.62 719.781 1302.62ZM295.647 1725.3C295.647 1491.58 485.538 1302.12 719.781 1302.12C954.023 1302.12 1143.91 1491.58 1143.91 1725.3C1143.91 1959.02 954.023 2148.48 719.781 2148.48C485.538 2148.48 295.647 1959.02 295.647 1725.3Z" fill="white"/>
<path fill-rule="evenodd" clip-rule="evenodd" d="M719.781 1280.11C473.355 1280.11 273.588 1479.43 273.588 1725.3C273.588 1971.17 473.355 2170.49 719.781 2170.49C966.206 2170.49 1165.97 1971.17 1165.97 1725.3C1165.97 1479.43 966.206 1280.11 719.781 1280.11ZM273.088 1725.3C273.088 1479.15 473.079 1279.61 719.781 1279.61C966.482 1279.61 1166.47 1479.15 1166.47 1725.3C1166.47 1971.45 966.482 2170.99 719.781 2170.99C473.079 2170.99 273.088 1971.45 273.088 1725.3Z" fill="white"/>
<path fill-rule="evenodd" clip-rule="evenodd" d="M719.781 1257.61C460.901 1257.61 251.038 1467 251.038 1725.3C251.038 1983.6 460.901 2192.99 719.781 2192.99C978.66 2192.99 1188.52 1983.6 1188.52 1725.3C1188.52 1467 978.66 1257.61 719.781 1257.61ZM250.538 1725.3C250.538 1466.73 460.625 1257.11 719.781 1257.11C978.936 1257.11 1189.02 1466.73 1189.02 1725.3C1189.02 1983.88 978.936 2193.49 719.781 2193.49C460.625 2193.49 250.538 1983.88 250.538 1725.3Z" fill="white"/>
<path fill-rule="evenodd" clip-rule="evenodd" d="M719.77 1235.1C448.435 1234.76 228.468 1454.57 228.468 1725.3C228.468 1996.03 448.435 2215.5 719.771 2215.5C991.107 2215.49 1211.31 1996.02 1211.07 1725.3C1210.83 1454.92 990.877 1235.45 719.77 1235.1ZM227.969 1725.3C227.969 1454.3 448.158 1234.26 719.771 1234.6C991.153 1234.95 1211.33 1454.65 1211.57 1725.3C1211.81 1996.29 991.383 2215.99 719.771 2216C448.158 2216 227.969 1996.3 227.969 1725.3Z" fill="white"/>
<path fill-rule="evenodd" clip-rule="evenodd" d="M1435.22 1296.43C1425.46 1296.43 1417.56 1304.32 1417.56 1314.06C1417.56 1323.79 1425.46 1331.68 1435.22 1331.68C1444.97 1331.68 1452.88 1323.79 1452.88 1314.06C1452.88 1304.32 1444.97 1296.43 1435.22 1296.43ZM1417.06 1314.06C1417.06 1304.05 1425.19 1295.94 1435.22 1295.94C1445.25 1295.94 1453.38 1304.05 1453.38 1314.06C1453.38 1324.06 1445.25 1332.18 1435.22 1332.18C1425.19 1332.18 1417.06 1324.06 1417.06 1314.06Z" fill="white"/>
<path fill-rule="evenodd" clip-rule="evenodd" d="M1435.22 1273.93C1413.01 1273.93 1395.01 1291.9 1395.01 1314.06C1395.01 1336.21 1413.01 1354.18 1435.22 1354.18C1457.43 1354.18 1475.43 1336.21 1475.43 1314.06C1475.43 1291.9 1457.43 1273.93 1435.22 1273.93ZM1394.51 1314.06C1394.51 1291.62 1412.73 1273.44 1435.22 1273.44C1457.7 1273.44 1475.93 1291.62 1475.93 1314.06C1475.93 1336.49 1457.7 1354.68 1435.22 1354.68C1412.73 1354.68 1394.51 1336.49 1394.51 1314.06Z" fill="white"/>
<path fill-rule="evenodd" clip-rule="evenodd" d="M1435.22 1251.43C1400.55 1251.43 1372.45 1279.47 1372.45 1314.06C1372.45 1348.65 1400.55 1376.69 1435.22 1376.69C1469.89 1376.69 1497.99 1348.65 1497.99 1314.06C1497.99 1279.47 1469.89 1251.43 1435.22 1251.43ZM1371.95 1314.06C1371.95 1279.19 1400.28 1250.93 1435.22 1250.93C1470.16 1250.93 1498.49 1279.19 1498.49 1314.06C1498.49 1348.92 1470.16 1377.18 1435.22 1377.18C1400.28 1377.18 1371.95 1348.92 1371.95 1314.06Z" fill="white"/>
<path fill-rule="evenodd" clip-rule="evenodd" d="M1435.22 1228.93C1388.1 1228.93 1349.9 1267.04 1349.9 1314.06C1349.9 1361.07 1388.1 1399.19 1435.22 1399.19C1482.34 1399.19 1520.54 1361.07 1520.54 1314.06C1520.54 1267.04 1482.34 1228.93 1435.22 1228.93ZM1349.4 1314.06C1349.4 1266.77 1387.82 1228.43 1435.22 1228.43C1482.62 1228.43 1521.04 1266.77 1521.04 1314.06C1521.04 1361.35 1482.62 1399.68 1435.22 1399.68C1387.82 1399.68 1349.4 1361.35 1349.4 1314.06Z" fill="white"/>
<path fill-rule="evenodd" clip-rule="evenodd" d="M1435.22 1206.42C1375.64 1206.42 1327.34 1254.61 1327.34 1314.06C1327.34 1373.5 1375.64 1421.69 1435.22 1421.69C1494.8 1421.69 1543.1 1373.5 1543.1 1314.06C1543.1 1254.61 1494.8 1206.42 1435.22 1206.42ZM1326.84 1314.06C1326.84 1254.33 1375.36 1205.92 1435.22 1205.92C1495.08 1205.92 1543.6 1254.33 1543.6 1314.06C1543.6 1373.78 1495.08 1422.19 1435.22 1422.19C1375.36 1422.19 1326.84 1373.78 1326.84 1314.06Z" fill="white"/>
<path fill-rule="evenodd" clip-rule="evenodd" d="M1435.22 1183.92C1363.18 1183.92 1304.79 1242.18 1304.79 1314.06C1304.79 1385.93 1363.18 1444.19 1435.22 1444.19C1507.25 1444.19 1565.65 1385.93 1565.65 1314.06C1565.65 1242.18 1507.25 1183.92 1435.22 1183.92ZM1304.29 1314.06C1304.29 1241.91 1362.91 1183.42 1435.22 1183.42C1507.53 1183.42 1566.15 1241.91 1566.15 1314.06C1566.15 1386.2 1507.53 1444.69 1435.22 1444.69C1362.91 1444.69 1304.29 1386.2 1304.29 1314.06Z" fill="white"/>
<path fill-rule="evenodd" clip-rule="evenodd" d="M1435.22 1161.42C1350.73 1161.42 1282.24 1229.76 1282.24 1314.06C1282.24 1398.35 1350.73 1466.69 1435.22 1466.69C1519.71 1466.69 1588.2 1398.35 1588.2 1314.06C1588.2 1229.76 1519.71 1161.42 1435.22 1161.42ZM1281.74 1314.06C1281.74 1229.48 1350.46 1160.92 1435.22 1160.92C1519.98 1160.92 1588.7 1229.48 1588.7 1314.06C1588.7 1398.63 1519.98 1467.19 1435.22 1467.19C1350.46 1467.19 1281.74 1398.63 1281.74 1314.06Z" fill="white"/>
<path fill-rule="evenodd" clip-rule="evenodd" d="M1435.22 1138.91C1338.27 1138.91 1259.68 1217.33 1259.68 1314.06C1259.68 1410.79 1338.27 1489.2 1435.22 1489.2C1532.17 1489.2 1610.76 1410.79 1610.76 1314.06C1610.76 1217.33 1532.17 1138.91 1435.22 1138.91ZM1259.18 1314.06C1259.18 1217.05 1338 1138.41 1435.22 1138.41C1532.44 1138.41 1611.26 1217.05 1611.26 1314.06C1611.26 1411.06 1532.44 1489.7 1435.22 1489.7C1338 1489.7 1259.18 1411.06 1259.18 1314.06Z" fill="white"/>
<path fill-rule="evenodd" clip-rule="evenodd" d="M1435.22 1116.41C1325.82 1116.41 1237.13 1204.9 1237.13 1314.06C1237.13 1423.21 1325.82 1511.7 1435.22 1511.7C1544.62 1511.7 1633.31 1423.21 1633.31 1314.06C1633.31 1204.9 1544.62 1116.41 1435.22 1116.41ZM1236.63 1314.06C1236.63 1204.62 1325.54 1115.91 1435.22 1115.91C1544.9 1115.91 1633.81 1204.62 1633.81 1314.06C1633.81 1423.49 1544.9 1512.2 1435.22 1512.2C1325.54 1512.2 1236.63 1423.49 1236.63 1314.06Z" fill="white"/>
<path fill-rule="evenodd" clip-rule="evenodd" d="M1435.22 1093.9C1313.36 1093.9 1214.57 1192.47 1214.57 1314.06C1214.57 1435.64 1313.36 1534.21 1435.22 1534.21C1557.08 1534.21 1655.87 1435.64 1655.87 1314.06C1655.87 1192.47 1557.08 1093.9 1435.22 1093.9ZM1214.07 1314.06C1214.07 1192.19 1313.08 1093.4 1435.22 1093.4C1557.36 1093.4 1656.37 1192.19 1656.37 1314.06C1656.37 1435.92 1557.36 1534.71 1435.22 1534.71C1313.08 1534.71 1214.07 1435.92 1214.07 1314.06Z" fill="white"/>
<path fill-rule="evenodd" clip-rule="evenodd" d="M1435.22 1071.4C1300.9 1071.4 1192.02 1180.04 1192.02 1314.06C1192.02 1448.07 1300.9 1556.71 1435.22 1556.71C1569.53 1556.71 1678.42 1448.07 1678.42 1314.06C1678.42 1180.04 1569.53 1071.4 1435.22 1071.4ZM1191.52 1314.06C1191.52 1179.77 1300.63 1070.91 1435.22 1070.91C1569.81 1070.91 1678.92 1179.77 1678.92 1314.06C1678.92 1448.34 1569.81 1557.21 1435.22 1557.21C1300.63 1557.21 1191.52 1448.34 1191.52 1314.06Z" fill="white"/>
<path fill-rule="evenodd" clip-rule="evenodd" d="M1435.22 1048.9C1288.45 1048.9 1169.46 1167.61 1169.46 1314.06C1169.46 1460.5 1288.45 1579.22 1435.22 1579.22C1581.99 1579.22 1700.98 1460.5 1700.98 1314.06C1700.98 1167.61 1581.99 1048.9 1435.22 1048.9ZM1168.96 1314.06C1168.96 1167.34 1288.17 1048.4 1435.22 1048.4C1582.27 1048.4 1701.48 1167.34 1701.48 1314.06C1701.48 1460.78 1582.27 1579.72 1435.22 1579.72C1288.17 1579.72 1168.96 1460.78 1168.96 1314.06Z" fill="white"/>
<path fill-rule="evenodd" clip-rule="evenodd" d="M1435.22 1026.4C1275.99 1026.4 1146.91 1155.19 1146.91 1314.06C1146.91 1472.93 1275.99 1601.72 1435.22 1601.72C1594.45 1601.72 1723.53 1472.93 1723.53 1314.06C1723.53 1155.19 1594.45 1026.4 1435.22 1026.4ZM1146.41 1314.06C1146.41 1154.91 1275.72 1025.9 1435.22 1025.9C1594.72 1025.9 1724.03 1154.91 1724.03 1314.06C1724.03 1473.2 1594.72 1602.21 1435.22 1602.21C1275.72 1602.21 1146.41 1473.2 1146.41 1314.06Z" fill="white"/>
<path fill-rule="evenodd" clip-rule="evenodd" d="M1435.22 1003.89C1263.53 1003.89 1124.35 1142.75 1124.35 1314.06C1124.35 1485.36 1263.53 1624.22 1435.22 1624.22C1606.91 1624.22 1746.09 1485.36 1746.09 1314.06C1746.09 1142.75 1606.91 1003.89 1435.22 1003.89ZM1123.85 1314.06C1123.85 1142.48 1263.26 1003.39 1435.22 1003.39C1607.18 1003.39 1746.59 1142.48 1746.59 1314.06C1746.59 1485.63 1607.18 1624.72 1435.22 1624.72C1263.26 1624.72 1123.85 1485.63 1123.85 1314.06Z" fill="white"/>
<path fill-rule="evenodd" clip-rule="evenodd" d="M1435.22 981.388C1251.08 981.388 1101.8 1130.33 1101.8 1314.06C1101.8 1497.78 1251.08 1646.72 1435.22 1646.72C1619.36 1646.72 1768.63 1497.78 1768.63 1314.06C1768.63 1130.33 1619.36 981.388 1435.22 981.388ZM1101.3 1314.06C1101.3 1130.05 1250.8 980.89 1435.22 980.89C1619.64 980.89 1769.13 1130.05 1769.13 1314.06C1769.13 1498.06 1619.64 1647.22 1435.22 1647.22C1250.8 1647.22 1101.3 1498.06 1101.3 1314.06Z" fill="white"/>
<path fill-rule="evenodd" clip-rule="evenodd" d="M1435.22 958.879C1238.62 958.879 1079.24 1117.9 1079.24 1314.06C1079.24 1510.21 1238.62 1669.23 1435.22 1669.23C1631.82 1669.23 1791.19 1510.21 1791.19 1314.06C1791.19 1117.9 1631.82 958.879 1435.22 958.879ZM1078.74 1314.06C1078.74 1117.62 1238.34 958.381 1435.22 958.381C1632.09 958.381 1791.69 1117.62 1791.69 1314.06C1791.69 1510.49 1632.09 1669.73 1435.22 1669.73C1238.34 1669.73 1078.74 1510.49 1078.74 1314.06Z" fill="white"/>
<path fill-rule="evenodd" clip-rule="evenodd" d="M1435.22 936.38C1226.17 936.38 1056.69 1105.47 1056.69 1314.06C1056.69 1522.64 1226.17 1691.73 1435.22 1691.73C1644.27 1691.73 1813.74 1522.64 1813.74 1314.06C1813.74 1105.47 1644.27 936.38 1435.22 936.38ZM1056.19 1314.06C1056.19 1105.2 1225.89 935.882 1435.22 935.882C1644.55 935.882 1814.24 1105.2 1814.24 1314.06C1814.24 1522.92 1644.55 1692.23 1435.22 1692.23C1225.89 1692.23 1056.19 1522.92 1056.19 1314.06Z" fill="white"/>
<path fill-rule="evenodd" clip-rule="evenodd" d="M1435.22 913.871C1213.71 913.871 1034.14 1093.04 1034.14 1314.06C1034.14 1535.07 1213.71 1714.24 1435.22 1714.24C1656.73 1714.24 1836.3 1535.07 1836.3 1314.06C1836.3 1093.04 1656.73 913.871 1435.22 913.871ZM1033.64 1314.06C1033.64 1092.76 1213.43 913.373 1435.22 913.373C1657.01 913.373 1836.8 1092.76 1836.8 1314.06C1836.8 1535.35 1657.01 1714.74 1435.22 1714.74C1213.43 1714.74 1033.64 1535.35 1033.64 1314.06Z" fill="white"/>
<path fill-rule="evenodd" clip-rule="evenodd" d="M1435.22 891.372C1201.25 891.372 1011.59 1080.61 1011.59 1314.06C1011.59 1547.5 1201.25 1736.74 1435.22 1736.74C1669.19 1736.74 1858.85 1547.5 1858.85 1314.06C1858.85 1080.61 1669.19 891.372 1435.22 891.372ZM1011.09 1314.06C1011.09 1080.34 1200.98 890.874 1435.22 890.874C1669.46 890.874 1859.35 1080.34 1859.35 1314.06C1859.35 1547.77 1669.46 1737.24 1435.22 1737.24C1200.98 1737.24 1011.09 1547.77 1011.09 1314.06Z" fill="white"/>
<path fill-rule="evenodd" clip-rule="evenodd" d="M1435.22 868.864C1188.79 868.864 989.026 1068.18 989.026 1314.06C989.026 1559.93 1188.79 1759.25 1435.22 1759.25C1681.64 1759.25 1881.41 1559.93 1881.41 1314.06C1881.41 1068.18 1681.64 868.864 1435.22 868.864ZM988.526 1314.06C988.526 1067.91 1188.52 868.365 1435.22 868.365C1681.92 868.365 1881.91 1067.91 1881.91 1314.06C1881.91 1560.2 1681.92 1759.75 1435.22 1759.75C1188.52 1759.75 988.526 1560.2 988.526 1314.06Z" fill="white"/>
<path fill-rule="evenodd" clip-rule="evenodd" d="M1435.22 846.365C1176.34 846.365 966.476 1055.76 966.476 1314.06C966.476 1572.36 1176.34 1781.75 1435.22 1781.75C1694.1 1781.75 1903.96 1572.36 1903.96 1314.06C1903.96 1055.76 1694.1 846.365 1435.22 846.365ZM965.977 1314.06C965.977 1055.48 1176.06 845.866 1435.22 845.866C1694.37 845.866 1904.46 1055.48 1904.46 1314.06C1904.46 1572.63 1694.37 1782.25 1435.22 1782.25C1176.06 1782.25 965.977 1572.63 965.977 1314.06Z" fill="white"/>
<path fill-rule="evenodd" clip-rule="evenodd" d="M1435.22 823.856C1163.88 823.856 943.917 1043.33 943.917 1314.06C943.917 1584.79 1163.88 1804.26 1435.22 1804.26C1706.56 1804.26 1926.52 1584.79 1926.52 1314.06C1926.52 1043.33 1706.56 823.856 1435.22 823.856ZM943.417 1314.06C943.417 1043.05 1163.6 823.357 1435.22 823.357C1706.83 823.357 1927.02 1043.05 1927.02 1314.06C1927.02 1585.06 1706.83 1804.76 1435.22 1804.76C1163.6 1804.76 943.417 1585.06 943.417 1314.06Z" fill="white"/>
<path fill-rule="evenodd" clip-rule="evenodd" d="M1435.22 473.077C1425.46 473.077 1417.56 480.967 1417.56 490.699C1417.56 500.432 1425.46 508.321 1435.22 508.321C1444.97 508.321 1452.88 500.432 1452.88 490.699C1452.88 480.967 1444.97 473.077 1435.22 473.077ZM1417.06 490.699C1417.06 480.691 1425.19 472.578 1435.22 472.578C1445.25 472.578 1453.38 480.691 1453.38 490.699C1453.38 500.707 1445.25 508.82 1435.22 508.82C1425.19 508.82 1417.06 500.707 1417.06 490.699Z" fill="white"/>
<path fill-rule="evenodd" clip-rule="evenodd" d="M1435.22 450.578C1413.01 450.578 1395.01 468.541 1395.01 490.699C1395.01 512.857 1413.01 530.82 1435.22 530.82C1457.43 530.82 1475.43 512.857 1475.43 490.699C1475.43 468.541 1457.43 450.578 1435.22 450.578ZM1394.51 490.699C1394.51 468.265 1412.73 450.079 1435.22 450.079C1457.7 450.079 1475.93 468.265 1475.93 490.699C1475.93 513.133 1457.7 531.319 1435.22 531.319C1412.73 531.319 1394.51 513.133 1394.51 490.699Z" fill="white"/>
<path fill-rule="evenodd" clip-rule="evenodd" d="M1435.22 428.069C1400.55 428.069 1372.45 456.11 1372.45 490.699C1372.45 525.289 1400.55 553.329 1435.22 553.329C1469.89 553.329 1497.99 525.289 1497.99 490.699C1497.99 456.11 1469.89 428.069 1435.22 428.069ZM1371.95 490.699C1371.95 455.834 1400.28 427.57 1435.22 427.57C1470.16 427.57 1498.49 455.834 1498.49 490.699C1498.49 525.564 1470.16 553.828 1435.22 553.828C1400.28 553.828 1371.95 525.564 1371.95 490.699Z" fill="white"/>
<path fill-rule="evenodd" clip-rule="evenodd" d="M1435.22 405.57C1388.1 405.57 1349.9 443.684 1349.9 490.699C1349.9 537.715 1388.1 575.828 1435.22 575.828C1482.34 575.828 1520.54 537.715 1520.54 490.699C1520.54 443.684 1482.34 405.57 1435.22 405.57ZM1349.4 490.699C1349.4 443.408 1387.82 405.071 1435.22 405.071C1482.62 405.071 1521.04 443.408 1521.04 490.699C1521.04 537.99 1482.62 576.327 1435.22 576.327C1387.82 576.327 1349.4 537.99 1349.4 490.699Z" fill="white"/>
<path fill-rule="evenodd" clip-rule="evenodd" d="M1435.22 383.061C1375.64 383.061 1327.34 431.252 1327.34 490.699C1327.34 550.146 1375.64 598.337 1435.22 598.337C1494.8 598.337 1543.1 550.146 1543.1 490.699C1543.1 431.252 1494.8 383.061 1435.22 383.061ZM1326.84 490.699C1326.84 430.977 1375.36 382.562 1435.22 382.562C1495.08 382.562 1543.6 430.977 1543.6 490.699C1543.6 550.421 1495.08 598.836 1435.22 598.836C1375.36 598.836 1326.84 550.421 1326.84 490.699Z" fill="white"/>
<path fill-rule="evenodd" clip-rule="evenodd" d="M1435.22 360.562C1363.18 360.562 1304.79 418.826 1304.79 490.699C1304.79 562.572 1363.18 620.836 1435.22 620.836C1507.25 620.836 1565.65 562.572 1565.65 490.699C1565.65 418.826 1507.25 360.562 1435.22 360.562ZM1304.29 490.699C1304.29 418.551 1362.91 360.063 1435.22 360.063C1507.53 360.063 1566.15 418.551 1566.15 490.699C1566.15 562.847 1507.53 621.335 1435.22 621.335C1362.91 621.335 1304.29 562.847 1304.29 490.699Z" fill="white"/>
<path fill-rule="evenodd" clip-rule="evenodd" d="M1435.22 338.063C1350.73 338.063 1282.24 406.401 1282.24 490.699C1282.24 574.998 1350.73 643.335 1435.22 643.335C1519.71 643.335 1588.2 574.998 1588.2 490.699C1588.2 406.401 1519.71 338.063 1435.22 338.063ZM1281.74 490.699C1281.74 406.125 1350.46 337.565 1435.22 337.565C1519.98 337.565 1588.7 406.125 1588.7 490.699C1588.7 575.273 1519.98 643.834 1435.22 643.834C1350.46 643.834 1281.74 575.273 1281.74 490.699Z" fill="white"/>
<path fill-rule="evenodd" clip-rule="evenodd" d="M1435.22 315.554C1338.27 315.554 1259.68 393.969 1259.68 490.699C1259.68 587.429 1338.27 665.844 1435.22 665.844C1532.17 665.844 1610.76 587.429 1610.76 490.699C1610.76 393.969 1532.17 315.554 1435.22 315.554ZM1259.18 490.699C1259.18 393.694 1338 315.056 1435.22 315.056C1532.44 315.056 1611.26 393.694 1611.26 490.699C1611.26 587.705 1532.44 666.343 1435.22 666.343C1338 666.343 1259.18 587.705 1259.18 490.699Z" fill="white"/>
<path fill-rule="evenodd" clip-rule="evenodd" d="M1435.22 293.055C1325.82 293.055 1237.13 381.543 1237.13 490.699C1237.13 599.855 1325.82 688.343 1435.22 688.343C1544.62 688.343 1633.31 599.855 1633.31 490.699C1633.31 381.543 1544.62 293.055 1435.22 293.055ZM1236.63 490.699C1236.63 381.268 1325.54 292.557 1435.22 292.557C1544.9 292.557 1633.81 381.268 1633.81 490.699C1633.81 600.13 1544.9 688.842 1435.22 688.842C1325.54 688.842 1236.63 600.13 1236.63 490.699Z" fill="white"/>
<path fill-rule="evenodd" clip-rule="evenodd" d="M1435.22 270.546C1313.36 270.546 1214.57 369.112 1214.57 490.699C1214.57 612.286 1313.36 710.852 1435.22 710.852C1557.08 710.852 1655.87 612.286 1655.87 490.699C1655.87 369.112 1557.08 270.546 1435.22 270.546ZM1214.07 490.699C1214.07 368.837 1313.08 270.048 1435.22 270.048C1557.36 270.048 1656.37 368.837 1656.37 490.699C1656.37 612.562 1557.36 711.351 1435.22 711.351C1313.08 711.351 1214.07 612.562 1214.07 490.699Z" fill="white"/>
<path fill-rule="evenodd" clip-rule="evenodd" d="M1435.22 248.047C1300.9 248.047 1192.02 356.686 1192.02 490.699C1192.02 624.712 1300.9 733.351 1435.22 733.351C1569.53 733.351 1678.42 624.712 1678.42 490.699C1678.42 356.686 1569.53 248.047 1435.22 248.047ZM1191.52 490.699C1191.52 356.411 1300.63 247.549 1435.22 247.549C1569.81 247.549 1678.92 356.411 1678.92 490.699C1678.92 624.988 1569.81 733.85 1435.22 733.85C1300.63 733.85 1191.52 624.988 1191.52 490.699Z" fill="white"/>
<path fill-rule="evenodd" clip-rule="evenodd" d="M1435.22 225.538C1288.45 225.538 1169.46 344.255 1169.46 490.699C1169.46 637.143 1288.45 755.86 1435.22 755.86C1581.99 755.86 1700.98 637.143 1700.98 490.699C1700.98 344.255 1581.99 225.538 1435.22 225.538ZM1168.96 490.699C1168.96 343.979 1288.17 225.04 1435.22 225.04C1582.27 225.04 1701.48 343.979 1701.48 490.699C1701.48 637.419 1582.27 756.359 1435.22 756.359C1288.17 756.359 1168.96 637.419 1168.96 490.699Z" fill="white"/>
<path fill-rule="evenodd" clip-rule="evenodd" d="M1435.22 203.039C1275.99 203.039 1146.91 331.829 1146.91 490.699C1146.91 649.569 1275.99 778.359 1435.22 778.359C1594.45 778.359 1723.53 649.569 1723.53 490.699C1723.53 331.829 1594.45 203.039 1435.22 203.039ZM1146.41 490.699C1146.41 331.554 1275.72 202.541 1435.22 202.541C1594.72 202.541 1724.03 331.554 1724.03 490.699C1724.03 649.845 1594.72 778.858 1435.22 778.858C1275.72 778.858 1146.41 649.845 1146.41 490.699Z" fill="white"/>
<path fill-rule="evenodd" clip-rule="evenodd" d="M1435.22 180.53C1263.53 180.53 1124.35 319.398 1124.35 490.699C1124.35 662.001 1263.53 800.868 1435.22 800.868C1606.91 800.868 1746.09 662.001 1746.09 490.699C1746.09 319.398 1606.91 180.53 1435.22 180.53ZM1123.85 490.699C1123.85 319.122 1263.26 180.032 1435.22 180.032C1607.18 180.032 1746.59 319.122 1746.59 490.699C1746.59 662.276 1607.18 801.367 1435.22 801.367C1263.26 801.367 1123.85 662.276 1123.85 490.699Z" fill="white"/>
<path fill-rule="evenodd" clip-rule="evenodd" d="M1435.22 158.031C1251.08 158.031 1101.8 306.972 1101.8 490.699C1101.8 674.427 1251.08 823.367 1435.22 823.367C1619.36 823.367 1768.63 674.427 1768.63 490.699C1768.63 306.972 1619.36 158.031 1435.22 158.031ZM1101.3 490.699C1101.3 306.696 1250.8 157.533 1435.22 157.533C1619.64 157.533 1769.13 306.696 1769.13 490.699C1769.13 674.702 1619.64 823.866 1435.22 823.866C1250.8 823.866 1101.3 674.702 1101.3 490.699Z" fill="white"/>
<path fill-rule="evenodd" clip-rule="evenodd" d="M1435.22 135.522C1238.62 135.522 1079.24 294.54 1079.24 490.699C1079.24 686.858 1238.62 845.876 1435.22 845.876C1631.82 845.876 1791.19 686.858 1791.19 490.699C1791.19 294.54 1631.82 135.522 1435.22 135.522ZM1078.74 490.699C1078.74 294.265 1238.34 135.024 1435.22 135.024C1632.09 135.024 1791.69 294.265 1791.69 490.699C1791.69 687.133 1632.09 846.375 1435.22 846.375C1238.34 846.375 1078.74 687.133 1078.74 490.699Z" fill="white"/>
<path fill-rule="evenodd" clip-rule="evenodd" d="M1435.22 113.023C1226.17 113.023 1056.69 282.115 1056.69 490.699C1056.69 699.284 1226.17 868.375 1435.22 868.375C1644.27 868.375 1813.74 699.284 1813.74 490.699C1813.74 282.115 1644.27 113.023 1435.22 113.023ZM1056.19 490.699C1056.19 281.839 1225.89 112.525 1435.22 112.525C1644.55 112.525 1814.24 281.839 1814.24 490.699C1814.24 699.559 1644.55 868.874 1435.22 868.874C1225.89 868.874 1056.19 699.559 1056.19 490.699Z" fill="white"/>
<path fill-rule="evenodd" clip-rule="evenodd" d="M1435.22 90.5145C1213.71 90.5145 1034.14 269.683 1034.14 490.699C1034.14 711.715 1213.71 890.884 1435.22 890.884C1656.73 890.884 1836.3 711.715 1836.3 490.699C1836.3 269.683 1656.73 90.5145 1435.22 90.5145ZM1033.64 490.699C1033.64 269.408 1213.43 90.0159 1435.22 90.0159C1657.01 90.0159 1836.8 269.408 1836.8 490.699C1836.8 711.99 1657.01 891.383 1435.22 891.383C1213.43 891.383 1033.64 711.99 1033.64 490.699Z" fill="white"/>
<path fill-rule="evenodd" clip-rule="evenodd" d="M1435.22 68.0155C1201.25 68.0155 1011.59 257.257 1011.59 490.699C1011.59 724.141 1201.25 913.383 1435.22 913.383C1669.19 913.383 1858.85 724.141 1858.85 490.699C1858.85 257.257 1669.19 68.0155 1435.22 68.0155ZM1011.09 490.699C1011.09 256.982 1200.98 67.5169 1435.22 67.5169C1669.46 67.5169 1859.35 256.982 1859.35 490.699C1859.35 724.416 1669.46 913.881 1435.22 913.881C1200.98 913.881 1011.09 724.416 1011.09 490.699Z" fill="white"/>
<path fill-rule="evenodd" clip-rule="evenodd" d="M1435.22 45.5066C1188.79 45.5066 989.026 244.826 989.026 490.699C989.026 736.572 1188.79 935.892 1435.22 935.892C1681.64 935.892 1881.41 736.572 1881.41 490.699C1881.41 244.826 1681.64 45.5066 1435.22 45.5066ZM988.526 490.699C988.526 244.551 1188.52 45.0079 1435.22 45.0079C1681.92 45.0079 1881.91 244.551 1881.91 490.699C1881.91 736.848 1681.92 936.39 1435.22 936.39C1188.52 936.39 988.526 736.848 988.526 490.699Z" fill="white"/>
<path fill-rule="evenodd" clip-rule="evenodd" d="M1435.22 23.0076C1176.34 23.0076 966.476 232.4 966.476 490.699C966.476 748.998 1176.34 958.391 1435.22 958.391C1694.1 958.391 1903.96 748.998 1903.96 490.699C1903.96 232.4 1694.1 23.0076 1435.22 23.0076ZM965.977 490.699C965.977 232.125 1176.06 22.5089 1435.22 22.5089C1694.37 22.5089 1904.46 232.125 1904.46 490.699C1904.46 749.273 1694.37 958.889 1435.22 958.889C1176.06 958.889 965.977 749.273 965.977 490.699Z" fill="white"/>
<path fill-rule="evenodd" clip-rule="evenodd" d="M1435.22 0.498636C1163.88 0.498636 943.917 219.969 943.917 490.699C943.917 761.429 1163.88 980.9 1435.22 980.9C1706.56 980.9 1926.52 761.429 1926.52 490.699C1926.52 219.969 1706.56 0.498636 1435.22 0.498636ZM943.417 490.699C943.417 219.694 1163.6 -1.21281e-05 1435.22 -1.21281e-05C1706.83 -1.21281e-05 1927.02 219.694 1927.02 490.699C1927.02 761.705 1706.83 981.398 1435.22 981.398C1163.6 981.398 943.417 761.705 943.417 490.699Z" fill="white"/>
<path fill-rule="evenodd" clip-rule="evenodd" d="M2150.2 885.199C2140.44 885.199 2132.54 893.089 2132.54 902.821C2132.54 912.554 2140.44 920.444 2150.2 920.444C2159.95 920.444 2167.86 912.554 2167.86 902.821C2167.86 893.089 2159.95 885.199 2150.2 885.199ZM2132.04 902.821C2132.04 892.814 2140.17 884.701 2150.2 884.701C2160.23 884.701 2168.36 892.814 2168.36 902.821C2168.36 912.829 2160.23 920.942 2150.2 920.942C2140.17 920.942 2132.04 912.829 2132.04 902.821Z" fill="white"/>
<path fill-rule="evenodd" clip-rule="evenodd" d="M2150.2 862.7C2127.99 862.7 2109.99 880.663 2109.99 902.821C2109.99 924.98 2127.99 942.943 2150.2 942.943C2172.41 942.943 2190.41 924.98 2190.41 902.821C2190.41 880.663 2172.41 862.7 2150.2 862.7ZM2109.49 902.821C2109.49 880.388 2127.71 862.202 2150.2 862.202C2172.68 862.202 2190.91 880.388 2190.91 902.821C2190.91 925.255 2172.68 943.441 2150.2 943.441C2127.71 943.441 2109.49 925.255 2109.49 902.821Z" fill="white"/>
<path fill-rule="evenodd" clip-rule="evenodd" d="M2150.2 840.191C2115.53 840.191 2087.43 868.232 2087.43 902.821C2087.43 937.411 2115.53 965.452 2150.2 965.452C2184.87 965.452 2212.97 937.411 2212.97 902.821C2212.97 868.232 2184.87 840.191 2150.2 840.191ZM2086.93 902.821C2086.93 867.956 2115.25 839.693 2150.2 839.693C2185.14 839.693 2213.47 867.956 2213.47 902.821C2213.47 937.687 2185.14 965.95 2150.2 965.95C2115.25 965.95 2086.93 937.687 2086.93 902.821Z" fill="white"/>
<path fill-rule="evenodd" clip-rule="evenodd" d="M2150.2 817.692C2103.08 817.692 2064.88 855.806 2064.88 902.821C2064.88 949.837 2103.08 987.951 2150.2 987.951C2197.32 987.951 2235.52 949.837 2235.52 902.821C2235.52 855.806 2197.32 817.692 2150.2 817.692ZM2064.38 902.821C2064.38 855.531 2102.8 817.194 2150.2 817.194C2197.6 817.194 2236.02 855.531 2236.02 902.821C2236.02 950.112 2197.6 988.449 2150.2 988.449C2102.8 988.449 2064.38 950.112 2064.38 902.821Z" fill="white"/>
<path fill-rule="evenodd" clip-rule="evenodd" d="M2150.2 795.183C2090.62 795.183 2042.32 843.375 2042.32 902.821C2042.32 962.268 2090.62 1010.46 2150.2 1010.46C2209.78 1010.46 2258.08 962.268 2258.08 902.821C2258.08 843.375 2209.78 795.183 2150.2 795.183ZM2041.82 902.821C2041.82 843.099 2090.34 794.685 2150.2 794.685C2210.05 794.685 2258.58 843.099 2258.58 902.821C2258.58 962.544 2210.05 1010.96 2150.2 1010.96C2090.34 1010.96 2041.82 962.544 2041.82 902.821Z" fill="white"/>
<path fill-rule="evenodd" clip-rule="evenodd" d="M2150.2 772.684C2078.16 772.684 2019.77 830.949 2019.77 902.821C2019.77 974.694 2078.16 1032.96 2150.2 1032.96C2222.23 1032.96 2280.63 974.694 2280.63 902.821C2280.63 830.949 2222.23 772.684 2150.2 772.684ZM2019.27 902.821C2019.27 830.673 2077.89 772.186 2150.2 772.186C2222.51 772.186 2281.13 830.673 2281.13 902.821C2281.13 974.97 2222.51 1033.46 2150.2 1033.46C2077.89 1033.46 2019.27 974.97 2019.27 902.821Z" fill="white"/>
<path fill-rule="evenodd" clip-rule="evenodd" d="M2150.2 750.185C2065.71 750.185 1997.22 818.523 1997.22 902.821C1997.22 987.12 2065.71 1055.46 2150.2 1055.46C2234.69 1055.46 2303.18 987.12 2303.18 902.821C2303.18 818.523 2234.69 750.185 2150.2 750.185ZM1996.72 902.821C1996.72 818.248 2065.43 749.687 2150.2 749.687C2234.96 749.687 2303.68 818.248 2303.68 902.821C2303.68 987.395 2234.96 1055.96 2150.2 1055.96C2065.43 1055.96 1996.72 987.395 1996.72 902.821Z" fill="white"/>
<path fill-rule="evenodd" clip-rule="evenodd" d="M2150.2 727.677C2053.25 727.677 1974.66 806.092 1974.66 902.821C1974.66 999.551 2053.25 1077.97 2150.2 1077.97C2247.15 1077.97 2325.74 999.551 2325.74 902.821C2325.74 806.092 2247.15 727.677 2150.2 727.677ZM1974.16 902.821C1974.16 805.816 2052.97 727.178 2150.2 727.178C2247.42 727.178 2326.24 805.816 2326.24 902.821C2326.24 999.827 2247.42 1078.47 2150.2 1078.47C2052.97 1078.47 1974.16 999.827 1974.16 902.821Z" fill="white"/>
<path fill-rule="evenodd" clip-rule="evenodd" d="M2150.2 705.178C2040.8 705.178 1952.11 793.666 1952.11 902.821C1952.11 1011.98 2040.8 1100.47 2150.2 1100.47C2259.6 1100.47 2348.29 1011.98 2348.29 902.821C2348.29 793.666 2259.6 705.178 2150.2 705.178ZM1951.61 902.821C1951.61 793.39 2040.52 704.679 2150.2 704.679C2259.87 704.679 2348.79 793.39 2348.79 902.821C2348.79 1012.25 2259.87 1100.96 2150.2 1100.96C2040.52 1100.96 1951.61 1012.25 1951.61 902.821Z" fill="white"/>
<path fill-rule="evenodd" clip-rule="evenodd" d="M2150.2 682.669C2028.34 682.669 1929.55 781.234 1929.55 902.821C1929.55 1024.41 2028.34 1122.97 2150.2 1122.97C2272.06 1122.97 2370.85 1024.41 2370.85 902.821C2370.85 781.234 2272.06 682.669 2150.2 682.669ZM1929.05 902.821C1929.05 780.959 2028.06 682.17 2150.2 682.17C2272.33 682.17 2371.35 780.959 2371.35 902.821C2371.35 1024.68 2272.33 1123.47 2150.2 1123.47C2028.06 1123.47 1929.05 1024.68 1929.05 902.821Z" fill="white"/>
<path fill-rule="evenodd" clip-rule="evenodd" d="M2150.2 660.17C2015.88 660.17 1907 768.809 1907 902.821C1907 1036.83 2015.88 1145.47 2150.2 1145.47C2284.51 1145.47 2393.4 1036.83 2393.4 902.821C2393.4 768.809 2284.51 660.17 2150.2 660.17ZM1906.5 902.821C1906.5 768.533 2015.61 659.671 2150.2 659.671C2284.79 659.671 2393.89 768.533 2393.89 902.821C2393.89 1037.11 2284.79 1145.97 2150.2 1145.97C2015.61 1145.97 1906.5 1037.11 1906.5 902.821Z" fill="white"/>
<path fill-rule="evenodd" clip-rule="evenodd" d="M2150.2 637.661C2003.42 637.661 1884.44 756.377 1884.44 902.821C1884.44 1049.27 2003.42 1167.98 2150.2 1167.98C2296.97 1167.98 2415.95 1049.27 2415.95 902.821C2415.95 756.377 2296.97 637.661 2150.2 637.661ZM1883.94 902.821C1883.94 756.102 2003.15 637.162 2150.2 637.162C2297.25 637.162 2416.45 756.102 2416.45 902.821C2416.45 1049.54 2297.25 1168.48 2150.2 1168.48C2003.15 1168.48 1883.94 1049.54 1883.94 902.821Z" fill="white"/>
<path fill-rule="evenodd" clip-rule="evenodd" d="M2150.2 615.162C1990.97 615.162 1861.89 743.951 1861.89 902.821C1861.89 1061.69 1990.97 1190.48 2150.2 1190.48C2309.42 1190.48 2438.5 1061.69 2438.5 902.821C2438.5 743.951 2309.42 615.162 2150.2 615.162ZM1861.39 902.821C1861.39 743.676 1990.69 614.663 2150.2 614.663C2309.7 614.663 2439 743.676 2439 902.821C2439 1061.97 2309.7 1190.98 2150.2 1190.98C1990.69 1190.98 1861.39 1061.97 1861.39 902.821Z" fill="white"/>
<path fill-rule="evenodd" clip-rule="evenodd" d="M2150.2 592.653C1978.51 592.653 1839.33 731.52 1839.33 902.821C1839.33 1074.12 1978.51 1212.99 2150.2 1212.99C2321.88 1212.99 2461.06 1074.12 2461.06 902.821C2461.06 731.52 2321.88 592.653 2150.2 592.653ZM1838.83 902.821C1838.83 731.245 1978.24 592.154 2150.2 592.154C2322.16 592.154 2461.56 731.245 2461.56 902.821C2461.56 1074.4 2322.16 1213.49 2150.2 1213.49C1978.24 1213.49 1838.83 1074.4 1838.83 902.821Z" fill="white"/>
<path fill-rule="evenodd" clip-rule="evenodd" d="M2150.2 570.154C1966.06 570.154 1816.78 719.094 1816.78 902.821C1816.78 1086.55 1966.06 1235.49 2150.2 1235.49C2334.34 1235.49 2483.61 1086.55 2483.61 902.821C2483.61 719.094 2334.34 570.154 2150.2 570.154ZM1816.28 902.821C1816.28 718.819 1965.78 569.655 2150.2 569.655C2334.61 569.655 2484.11 718.819 2484.11 902.821C2484.11 1086.82 2334.61 1235.99 2150.2 1235.99C1965.78 1235.99 1816.28 1086.82 1816.28 902.821Z" fill="white"/>
<path fill-rule="evenodd" clip-rule="evenodd" d="M2150.2 547.645C1953.6 547.645 1794.22 706.663 1794.22 902.821C1794.22 1098.98 1953.6 1258 2150.2 1258C2346.8 1258 2506.17 1098.98 2506.17 902.821C2506.17 706.663 2346.8 547.645 2150.2 547.645ZM1793.72 902.821C1793.72 706.387 1953.32 547.146 2150.2 547.146C2347.07 547.146 2506.67 706.387 2506.67 902.821C2506.67 1099.26 2347.07 1258.5 2150.2 1258.5C1953.32 1258.5 1793.72 1099.26 1793.72 902.821Z" fill="white"/>
<path fill-rule="evenodd" clip-rule="evenodd" d="M2150.2 525.146C1941.14 525.146 1771.67 694.237 1771.67 902.821C1771.67 1111.41 1941.14 1280.5 2150.2 1280.5C2359.25 1280.5 2528.72 1111.41 2528.72 902.821C2528.72 694.237 2359.25 525.146 2150.2 525.146ZM1771.17 902.821C1771.17 693.962 1940.87 524.647 2150.2 524.647C2359.53 524.647 2529.22 693.962 2529.22 902.821C2529.22 1111.68 2359.53 1281 2150.2 1281C1940.87 1281 1771.17 1111.68 1771.17 902.821Z" fill="white"/>
<path fill-rule="evenodd" clip-rule="evenodd" d="M2150.2 502.637C1928.69 502.637 1749.11 681.806 1749.11 902.821C1749.11 1123.84 1928.69 1303.01 2150.2 1303.01C2371.71 1303.01 2551.28 1123.84 2551.28 902.821C2551.28 681.806 2371.71 502.637 2150.2 502.637ZM1748.61 902.821C1748.61 681.53 1928.41 502.138 2150.2 502.138C2371.99 502.138 2551.78 681.53 2551.78 902.821C2551.78 1124.11 2371.99 1303.5 2150.2 1303.5C1928.41 1303.5 1748.61 1124.11 1748.61 902.821Z" fill="white"/>
<path fill-rule="evenodd" clip-rule="evenodd" d="M2150.2 480.138C1916.23 480.138 1726.56 669.38 1726.56 902.821C1726.56 1136.26 1916.23 1325.51 2150.2 1325.51C2384.16 1325.51 2573.83 1136.26 2573.83 902.821C2573.83 669.38 2384.16 480.138 2150.2 480.138ZM1726.06 902.821C1726.06 669.104 1915.96 479.639 2150.2 479.639C2384.44 479.639 2574.33 669.104 2574.33 902.821C2574.33 1136.54 2384.44 1326 2150.2 1326C1915.96 1326 1726.06 1136.54 1726.06 902.821Z" fill="white"/>
<path fill-rule="evenodd" clip-rule="evenodd" d="M2150.2 457.629C1903.77 457.629 1704 656.948 1704 902.821C1704 1148.69 1903.77 1348.01 2150.2 1348.01C2396.62 1348.01 2596.39 1148.69 2596.39 902.821C2596.39 656.948 2396.62 457.629 2150.2 457.629ZM1703.51 902.821C1703.51 656.673 1903.5 457.13 2150.2 457.13C2396.9 457.13 2596.89 656.673 2596.89 902.821C2596.89 1148.97 2396.9 1348.51 2150.2 1348.51C1903.5 1348.51 1703.51 1148.97 1703.51 902.821Z" fill="white"/>
<path fill-rule="evenodd" clip-rule="evenodd" d="M2150.2 435.13C1891.32 435.13 1681.46 644.523 1681.46 902.821C1681.46 1161.12 1891.32 1370.51 2150.2 1370.51C2409.08 1370.51 2618.94 1161.12 2618.94 902.821C2618.94 644.523 2409.08 435.13 2150.2 435.13ZM1680.96 902.821C1680.96 644.247 1891.04 434.631 2150.2 434.631C2409.35 434.631 2619.44 644.247 2619.44 902.821C2619.44 1161.4 2409.35 1371.01 2150.2 1371.01C1891.04 1371.01 1680.96 1161.4 1680.96 902.821Z" fill="white"/>
<path fill-rule="evenodd" clip-rule="evenodd" d="M2641.5 902.821C2641.85 631.635 2421.9 411.963 2150.2 412.621C1878.95 413.279 1659 632.234 1658.9 902.822C1658.81 1173.55 1878.86 1392.99 2150.2 1393.02C2421.5 1393.05 2641.14 1173.58 2641.5 902.821ZM2150.2 412.122C2422.18 411.464 2642.35 631.36 2642 902.822C2641.64 1173.85 2421.78 1393.55 2150.2 1393.52C1878.59 1393.49 1658.31 1173.82 1658.4 902.821C1658.5 631.958 1878.68 412.781 2150.2 412.122Z" fill="white"/>
<path fill-rule="evenodd" clip-rule="evenodd" d="M2150.2 1707.68C2140.44 1707.68 2132.54 1715.57 2132.54 1725.3C2132.54 1735.03 2140.44 1742.92 2150.2 1742.92C2159.95 1742.92 2167.86 1735.03 2167.86 1725.3C2167.86 1715.57 2159.95 1707.68 2150.2 1707.68ZM2132.04 1725.3C2132.04 1715.29 2140.17 1707.18 2150.2 1707.18C2160.23 1707.18 2168.36 1715.29 2168.36 1725.3C2168.36 1735.31 2160.23 1743.42 2150.2 1743.42C2140.17 1743.42 2132.04 1735.31 2132.04 1725.3Z" fill="white"/>
<path fill-rule="evenodd" clip-rule="evenodd" d="M2150.2 1685.18C2127.99 1685.18 2109.99 1703.14 2109.99 1725.3C2109.99 1747.46 2127.99 1765.42 2150.2 1765.42C2172.41 1765.42 2190.41 1747.46 2190.41 1725.3C2190.41 1703.14 2172.41 1685.18 2150.2 1685.18ZM2109.49 1725.3C2109.49 1702.87 2127.71 1684.68 2150.2 1684.68C2172.68 1684.68 2190.91 1702.87 2190.91 1725.3C2190.91 1747.73 2172.68 1765.92 2150.2 1765.92C2127.71 1765.92 2109.49 1747.73 2109.49 1725.3Z" fill="white"/>
<path fill-rule="evenodd" clip-rule="evenodd" d="M2150.2 1662.67C2115.53 1662.67 2087.43 1690.71 2087.43 1725.3C2087.43 1759.89 2115.53 1787.93 2150.2 1787.93C2184.87 1787.93 2212.97 1759.89 2212.97 1725.3C2212.97 1690.71 2184.87 1662.67 2150.2 1662.67ZM2086.93 1725.3C2086.93 1690.44 2115.25 1662.17 2150.2 1662.17C2185.14 1662.17 2213.47 1690.44 2213.47 1725.3C2213.47 1760.17 2185.14 1788.43 2150.2 1788.43C2115.25 1788.43 2086.93 1760.17 2086.93 1725.3Z" fill="white"/>
<path fill-rule="evenodd" clip-rule="evenodd" d="M2150.2 1640.17C2103.08 1640.17 2064.88 1678.29 2064.88 1725.3C2064.88 1772.32 2103.08 1810.43 2150.2 1810.43C2197.32 1810.43 2235.52 1772.32 2235.52 1725.3C2235.52 1678.29 2197.32 1640.17 2150.2 1640.17ZM2064.38 1725.3C2064.38 1678.01 2102.8 1639.67 2150.2 1639.67C2197.6 1639.67 2236.02 1678.01 2236.02 1725.3C2236.02 1772.59 2197.6 1810.93 2150.2 1810.93C2102.8 1810.93 2064.38 1772.59 2064.38 1725.3Z" fill="white"/>
<path fill-rule="evenodd" clip-rule="evenodd" d="M2150.2 1617.66C2090.62 1617.66 2042.32 1665.85 2042.32 1725.3C2042.32 1784.75 2090.62 1832.94 2150.2 1832.94C2209.78 1832.94 2258.08 1784.75 2258.08 1725.3C2258.08 1665.85 2209.78 1617.66 2150.2 1617.66ZM2041.82 1725.3C2041.82 1665.58 2090.34 1617.16 2150.2 1617.16C2210.05 1617.16 2258.58 1665.58 2258.58 1725.3C2258.58 1785.02 2210.05 1833.44 2150.2 1833.44C2090.34 1833.44 2041.82 1785.02 2041.82 1725.3Z" fill="white"/>
<path fill-rule="evenodd" clip-rule="evenodd" d="M2150.2 1595.16C2078.16 1595.16 2019.77 1653.43 2019.77 1725.3C2019.77 1797.17 2078.16 1855.44 2150.2 1855.44C2222.23 1855.44 2280.63 1797.17 2280.63 1725.3C2280.63 1653.43 2222.23 1595.16 2150.2 1595.16ZM2019.27 1725.3C2019.27 1653.15 2077.89 1594.67 2150.2 1594.67C2222.51 1594.67 2281.13 1653.15 2281.13 1725.3C2281.13 1797.45 2222.51 1855.94 2150.2 1855.94C2077.89 1855.94 2019.27 1797.45 2019.27 1725.3Z" fill="white"/>
<path fill-rule="evenodd" clip-rule="evenodd" d="M2150.2 1572.66C2065.71 1572.66 1997.22 1641 1997.22 1725.3C1997.22 1809.6 2065.71 1877.94 2150.2 1877.94C2234.69 1877.94 2303.18 1809.6 2303.18 1725.3C2303.18 1641 2234.69 1572.66 2150.2 1572.66ZM1996.72 1725.3C1996.72 1640.73 2065.43 1572.17 2150.2 1572.17C2234.96 1572.17 2303.68 1640.73 2303.68 1725.3C2303.68 1809.87 2234.96 1878.44 2150.2 1878.44C2065.43 1878.44 1996.72 1809.87 1996.72 1725.3Z" fill="white"/>
<path fill-rule="evenodd" clip-rule="evenodd" d="M2150.2 1550.16C2053.25 1550.16 1974.66 1628.57 1974.66 1725.3C1974.66 1822.03 2053.25 1900.45 2150.2 1900.45C2247.15 1900.45 2325.74 1822.03 2325.74 1725.3C2325.74 1628.57 2247.15 1550.16 2150.2 1550.16ZM1974.16 1725.3C1974.16 1628.3 2052.97 1549.66 2150.2 1549.66C2247.42 1549.66 2326.24 1628.3 2326.24 1725.3C2326.24 1822.31 2247.42 1900.94 2150.2 1900.94C2052.97 1900.94 1974.16 1822.31 1974.16 1725.3Z" fill="white"/>
<path fill-rule="evenodd" clip-rule="evenodd" d="M2150.2 1527.66C2040.8 1527.66 1952.11 1616.14 1952.11 1725.3C1952.11 1834.46 2040.8 1922.94 2150.2 1922.94C2259.6 1922.94 2348.29 1834.46 2348.29 1725.3C2348.29 1616.14 2259.6 1527.66 2150.2 1527.66ZM1951.61 1725.3C1951.61 1615.87 2040.52 1527.16 2150.2 1527.16C2259.87 1527.16 2348.79 1615.87 2348.79 1725.3C2348.79 1834.73 2259.87 1923.44 2150.2 1923.44C2040.52 1923.44 1951.61 1834.73 1951.61 1725.3Z" fill="white"/>
<path fill-rule="evenodd" clip-rule="evenodd" d="M2150.2 1505.15C2028.34 1505.15 1929.55 1603.71 1929.55 1725.3C1929.55 1846.89 2028.34 1945.45 2150.2 1945.45C2272.06 1945.45 2370.85 1846.89 2370.85 1725.3C2370.85 1603.71 2272.06 1505.15 2150.2 1505.15ZM1929.05 1725.3C1929.05 1603.44 2028.06 1504.65 2150.2 1504.65C2272.33 1504.65 2371.35 1603.44 2371.35 1725.3C2371.35 1847.16 2272.33 1945.95 2150.2 1945.95C2028.06 1945.95 1929.05 1847.16 1929.05 1725.3Z" fill="white"/>
<path fill-rule="evenodd" clip-rule="evenodd" d="M2150.2 1482.65C2015.88 1482.65 1907 1591.29 1907 1725.3C1907 1859.31 2015.88 1967.95 2150.2 1967.95C2284.51 1967.95 2393.4 1859.31 2393.4 1725.3C2393.4 1591.29 2284.51 1482.65 2150.2 1482.65ZM1906.5 1725.3C1906.5 1591.01 2015.61 1482.15 2150.2 1482.15C2284.79 1482.15 2393.89 1591.01 2393.89 1725.3C2393.89 1859.59 2284.79 1968.45 2150.2 1968.45C2015.61 1968.45 1906.5 1859.59 1906.5 1725.3Z" fill="white"/>
<path fill-rule="evenodd" clip-rule="evenodd" d="M2150.2 1460.14C2003.42 1460.14 1884.44 1578.86 1884.44 1725.3C1884.44 1871.75 2003.42 1990.46 2150.2 1990.46C2296.97 1990.46 2415.95 1871.75 2415.95 1725.3C2415.95 1578.86 2296.97 1460.14 2150.2 1460.14ZM1883.94 1725.3C1883.94 1578.58 2003.15 1459.64 2150.2 1459.64C2297.25 1459.64 2416.45 1578.58 2416.45 1725.3C2416.45 1872.02 2297.25 1990.96 2150.2 1990.96C2003.15 1990.96 1883.94 1872.02 1883.94 1725.3Z" fill="white"/>
<path fill-rule="evenodd" clip-rule="evenodd" d="M2150.2 1437.64C1990.97 1437.64 1861.89 1566.43 1861.89 1725.3C1861.89 1884.17 1990.97 2012.96 2150.2 2012.96C2309.42 2012.96 2438.5 1884.17 2438.5 1725.3C2438.5 1566.43 2309.42 1437.64 2150.2 1437.64ZM1861.39 1725.3C1861.39 1566.16 1990.69 1437.14 2150.2 1437.14C2309.7 1437.14 2439 1566.16 2439 1725.3C2439 1884.45 2309.7 2013.46 2150.2 2013.46C1990.69 2013.46 1861.39 1884.45 1861.39 1725.3Z" fill="white"/>
<path fill-rule="evenodd" clip-rule="evenodd" d="M2150.2 1415.13C1978.51 1415.13 1839.33 1554 1839.33 1725.3C1839.33 1896.6 1978.51 2035.47 2150.2 2035.47C2321.88 2035.47 2461.06 1896.6 2461.06 1725.3C2461.06 1554 2321.88 1415.13 2150.2 1415.13ZM1838.83 1725.3C1838.83 1553.72 1978.24 1414.63 2150.2 1414.63C2322.16 1414.63 2461.56 1553.72 2461.56 1725.3C2461.56 1896.88 2322.16 2035.97 2150.2 2035.97C1978.24 2035.97 1838.83 1896.88 1838.83 1725.3Z" fill="white"/>
<path fill-rule="evenodd" clip-rule="evenodd" d="M2150.2 1392.63C1966.06 1392.63 1816.78 1541.57 1816.78 1725.3C1816.78 1909.03 1966.06 2057.97 2150.2 2057.97C2334.34 2057.97 2483.61 1909.03 2483.61 1725.3C2483.61 1541.57 2334.34 1392.63 2150.2 1392.63ZM1816.28 1725.3C1816.28 1541.3 1965.78 1392.13 2150.2 1392.13C2334.61 1392.13 2484.11 1541.3 2484.11 1725.3C2484.11 1909.3 2334.61 2058.47 2150.2 2058.47C1965.78 2058.47 1816.28 1909.3 1816.28 1725.3Z" fill="white"/>
<path fill-rule="evenodd" clip-rule="evenodd" d="M2150.2 1370.12C1953.6 1370.12 1794.22 1529.14 1794.22 1725.3C1794.22 1921.46 1953.6 2080.48 2150.2 2080.48C2346.8 2080.48 2506.17 1921.46 2506.17 1725.3C2506.17 1529.14 2346.8 1370.12 2150.2 1370.12ZM1793.72 1725.3C1793.72 1528.87 1953.32 1369.63 2150.2 1369.63C2347.07 1369.63 2506.67 1528.87 2506.67 1725.3C2506.67 1921.73 2347.07 2080.98 2150.2 2080.98C1953.32 2080.98 1793.72 1921.73 1793.72 1725.3Z" fill="white"/>
<path fill-rule="evenodd" clip-rule="evenodd" d="M2150.2 1347.63C1941.14 1347.63 1771.67 1516.72 1771.67 1725.3C1771.67 1933.89 1941.14 2102.98 2150.2 2102.98C2359.25 2102.98 2528.72 1933.89 2528.72 1725.3C2528.72 1516.72 2359.25 1347.63 2150.2 1347.63ZM1771.17 1725.3C1771.17 1516.44 1940.87 1347.13 2150.2 1347.13C2359.53 1347.13 2529.22 1516.44 2529.22 1725.3C2529.22 1934.16 2359.53 2103.48 2150.2 2103.48C1940.87 2103.48 1771.17 1934.16 1771.17 1725.3Z" fill="white"/>
<path fill-rule="evenodd" clip-rule="evenodd" d="M2150.2 1325.12C1928.69 1325.12 1749.11 1504.28 1749.11 1725.3C1749.11 1946.32 1928.69 2125.49 2150.2 2125.49C2371.71 2125.49 2551.28 1946.32 2551.28 1725.3C2551.28 1504.28 2371.71 1325.12 2150.2 1325.12ZM1748.61 1725.3C1748.61 1504.01 1928.41 1324.62 2150.2 1324.62C2371.99 1324.62 2551.78 1504.01 2551.78 1725.3C2551.78 1946.59 2371.99 2125.98 2150.2 2125.98C1928.41 2125.98 1748.61 1946.59 1748.61 1725.3Z" fill="white"/>
<path fill-rule="evenodd" clip-rule="evenodd" d="M2150.2 1302.62C1916.23 1302.62 1726.56 1491.86 1726.56 1725.3C1726.56 1958.74 1916.23 2147.98 2150.2 2147.98C2384.16 2147.98 2573.83 1958.74 2573.83 1725.3C2573.83 1491.86 2384.16 1302.62 2150.2 1302.62ZM1726.06 1725.3C1726.06 1491.58 1915.96 1302.12 2150.2 1302.12C2384.44 1302.12 2574.33 1491.58 2574.33 1725.3C2574.33 1959.02 2384.44 2148.48 2150.2 2148.48C1915.96 2148.48 1726.06 1959.02 1726.06 1725.3Z" fill="white"/>
<path fill-rule="evenodd" clip-rule="evenodd" d="M2150.2 1280.11C1903.77 1280.11 1704 1479.43 1704 1725.3C1704 1971.17 1903.77 2170.49 2150.2 2170.49C2396.62 2170.49 2596.39 1971.17 2596.39 1725.3C2596.39 1479.43 2396.62 1280.11 2150.2 1280.11ZM1703.51 1725.3C1703.51 1479.15 1903.5 1279.61 2150.2 1279.61C2396.9 1279.61 2596.89 1479.15 2596.89 1725.3C2596.89 1971.45 2396.9 2170.99 2150.2 2170.99C1903.5 2170.99 1703.51 1971.45 1703.51 1725.3Z" fill="white"/>
<path fill-rule="evenodd" clip-rule="evenodd" d="M2150.2 1257.61C1891.32 1257.61 1681.46 1467 1681.46 1725.3C1681.46 1983.6 1891.32 2192.99 2150.2 2192.99C2409.08 2192.99 2618.94 1983.6 2618.94 1725.3C2618.94 1467 2409.08 1257.61 2150.2 1257.61ZM1680.96 1725.3C1680.96 1466.73 1891.04 1257.11 2150.2 1257.11C2409.35 1257.11 2619.44 1466.73 2619.44 1725.3C2619.44 1983.88 2409.35 2193.49 2150.2 2193.49C1891.04 2193.49 1680.96 1983.88 1680.96 1725.3Z" fill="white"/>
<path fill-rule="evenodd" clip-rule="evenodd" d="M2150.2 1235.1C1878.69 1234.66 1658.76 1454.2 1658.9 1725.3C1659.04 1996.03 1878.86 2215.5 2150.2 2215.5C2421.53 2215.5 2641.5 1996.03 2641.5 1725.3C2641.5 1454.57 2421.53 1235.54 2150.2 1235.1ZM1658.4 1725.3C1658.26 1453.93 1878.42 1234.16 2150.2 1234.6C2421.81 1235.04 2642 1454.3 2642 1725.3C2642 1996.3 2421.81 2216 2150.2 2216C1878.59 2216 1658.54 1996.3 1658.4 1725.3Z" fill="white"/>
</svg>
